M48
; DRILL file KiCad 10.0.0 date 2026-09-26T17:58:32
; FORMAT={-:-/ absolute / metric / decimal}
; #@! TF.CreationDate,2026-09-26T17:58:32+03:00
; #@! TF.GenerationSoftware,Kicad,Pcbnew,10.0.0
; #@! TF.FileFunction,Plated,1,4,PTH
FMAT,2
METRIC
; #@! TA.AperFunction,Plated,PTH,ViaDrill
T1C0.300
; #@! TA.AperFunction,Plated,PTH,ComponentDrill
T2C0.400
; #@! TA.AperFunction,Plated,PTH,ComponentDrill
T3C0.500
; #@! TA.AperFunction,Plated,PTH,ComponentDrill
T4C0.600
; #@! TA.AperFunction,Plated,PTH,ComponentDrill
T5C2.200
%
G90
G05
T1
X7.3Y9.675
X7.325Y21.625
X7.6Y2.8
X9.0Y19.3
X9.0Y11.9
X9.659Y15.692
X10.1Y12.025
X10.15Y12.85
X14.075Y7.562
X14.575Y11.4
X15.125Y7.562
X18.5Y18.9
X23.725Y9.375
X23.9Y11.3
X23.9Y10.5
X24.225Y8.275
X24.45Y17.405
X24.45Y3.75
X24.45Y2.35
X25.0Y13.9
X25.2Y22.2
X25.25Y23.525
X25.5Y16.0
X26.0Y13.9
X26.525Y20.375
X26.55Y21.375
X26.675Y9.5
X27.25Y23.8
X28.35Y23.8
X28.7Y17.6
X28.7Y15.5
X28.7Y13.3
X29.5Y14.4
X29.7Y16.7
X29.85Y8.015
X29.975Y9.55
X30.583Y8.619
X30.6Y17.6
X30.9Y13.4
X31.825Y20.05
X31.845Y9.825
X31.9Y16.7
X32.0Y14.4
X32.8Y17.6
X32.8Y9.78
X32.85Y20.025
X32.9Y15.5
X33.0Y13.3
X34.525Y5.2
X34.55Y6.775
X35.0Y7.7
X35.75Y14.33
X35.825Y23.525
X35.85Y24.625
X36.45Y18.4
X36.47Y17.4
X36.65Y14.25
X36.975Y1.85
X37.5Y14.98
X39.95Y10.55
X40.5Y14.98
X41.3Y20.025
X42.5Y17.572
X42.5Y15.872
X42.725Y20.025
X45.4Y19.475
X45.4Y13.925
X46.375Y19.5
X46.4Y13.9
X47.4Y13.875
X47.425Y19.5
T2
X10.35Y2.8
X10.517Y22.667
X10.833Y3.967
X10.833Y1.633
X11.0Y23.833
X11.0Y21.5
X12.0Y4.45
X12.0Y1.15
X12.167Y24.317
X12.167Y21.017
X13.167Y3.967
X13.167Y1.633
X13.333Y23.833
X13.333Y21.5
X13.65Y2.8
X13.817Y22.667
X45.017Y22.833
X45.017Y2.8
X45.5Y24.0
X45.5Y21.667
X45.5Y3.967
X45.5Y1.633
X46.667Y24.483
X46.667Y21.183
X46.667Y4.45
X46.667Y1.15
X47.833Y24.0
X47.833Y21.667
X47.833Y3.967
X47.833Y1.633
X48.317Y22.833
X48.317Y2.8
T3
X6.1Y7.075
X6.1Y5.825
X6.1Y4.575
X6.1Y3.325
T5
X12.0Y2.8
X12.167Y22.667
X46.667Y22.833
X46.667Y2.8
T4
G00X3.325Y19.97
M15
G01X2.525Y19.97
M16
G05
G00X3.325Y11.33
M15
G01X2.525Y11.33
M16
G05
G00X7.655Y19.97
M15
G01X6.555Y19.97
M16
G05
G00X7.655Y11.33
M15
G01X6.555Y11.33
M16
G05
M30
