%TF.GenerationSoftware,KiCad,Pcbnew,10.0.0*%
%TF.CreationDate,2026-09-26T17:58:37+03:00*%
%TF.ProjectId,STM32-TutorialPCB,53544d33-322d-4547-9574-6f7269616c50,rev?*%
%TF.SameCoordinates,PX56c8cc0PY6acfc00*%
%TF.FileFunction,Copper,L4,Bot*%
%TF.FilePolarity,Positive*%
%FSLAX46Y46*%
G04 Gerber Fmt 4.6, Leading zero omitted, Abs format (unit mm)*
G04 Created by KiCad (PCBNEW 10.0.0) date 2026-09-26 17:58:37*
%MOMM*%
%LPD*%
G01*
G04 APERTURE LIST*
G04 Aperture macros list*
%AMRoundRect*
0 Rectangle with rounded corners*
0 $1 Rounding radius*
0 $2 $3 $4 $5 $6 $7 $8 $9 X,Y pos of 4 corners*
0 Add a 4 corners polygon primitive as box body*
4,1,4,$2,$3,$4,$5,$6,$7,$8,$9,$2,$3,0*
0 Add four circle primitives for the rounded corners*
1,1,$1+$1,$2,$3*
1,1,$1+$1,$4,$5*
1,1,$1+$1,$6,$7*
1,1,$1+$1,$8,$9*
0 Add four rect primitives between the rounded corners*
20,1,$1+$1,$2,$3,$4,$5,0*
20,1,$1+$1,$4,$5,$6,$7,0*
20,1,$1+$1,$6,$7,$8,$9,0*
20,1,$1+$1,$8,$9,$2,$3,0*%
G04 Aperture macros list end*
%TA.AperFunction,ComponentPad*%
%ADD10O,2.100000X1.000000*%
%TD*%
%TA.AperFunction,ComponentPad*%
%ADD11O,1.800000X1.000000*%
%TD*%
%TA.AperFunction,ComponentPad*%
%ADD12C,0.700000*%
%TD*%
%TA.AperFunction,ComponentPad*%
%ADD13C,4.400000*%
%TD*%
%TA.AperFunction,ComponentPad*%
%ADD14RoundRect,0.200000X-0.450000X0.200000X-0.450000X-0.200000X0.450000X-0.200000X0.450000X0.200000X0*%
%TD*%
%TA.AperFunction,ComponentPad*%
%ADD15O,1.300000X0.800000*%
%TD*%
%TA.AperFunction,ViaPad*%
%ADD16C,0.700000*%
%TD*%
%TA.AperFunction,Conductor*%
%ADD17C,0.190000*%
%TD*%
G04 APERTURE END LIST*
D10*
%TO.P,J1,SH,SHIELD_SH*%
%TO.N,GND*%
X7105000Y19970000D03*
D11*
X2925000Y19970000D03*
D10*
X7105000Y11330000D03*
D11*
X2925000Y11330000D03*
%TD*%
D12*
%TO.P,H1,1,1_1*%
%TO.N,GND*%
X45016726Y2800000D03*
X45500000Y3966726D03*
X45500000Y1633274D03*
X46666726Y4450000D03*
D13*
X46666726Y2800000D03*
D12*
X46666726Y1150000D03*
X47833452Y3966726D03*
X47833452Y1633274D03*
X48316726Y2800000D03*
%TD*%
%TO.P,H3,1,1_1*%
%TO.N,GND*%
X10350000Y2800000D03*
X10833274Y3966726D03*
X10833274Y1633274D03*
X12000000Y4450000D03*
D13*
X12000000Y2800000D03*
D12*
X12000000Y1150000D03*
X13166726Y3966726D03*
X13166726Y1633274D03*
X13650000Y2800000D03*
%TD*%
%TO.P,H4,1,1_1*%
%TO.N,GND*%
X45016726Y22833274D03*
X45500000Y24000000D03*
X45500000Y21666548D03*
X46666726Y24483274D03*
D13*
X46666726Y22833274D03*
D12*
X46666726Y21183274D03*
X47833452Y24000000D03*
X47833452Y21666548D03*
X48316726Y22833274D03*
%TD*%
%TO.P,H2,1,1_1*%
%TO.N,GND*%
X12166726Y21016726D03*
X11000000Y21500000D03*
X13333452Y21500000D03*
X10516726Y22666726D03*
D13*
X12166726Y22666726D03*
D12*
X13816726Y22666726D03*
X11000000Y23833452D03*
X13333452Y23833452D03*
X12166726Y24316726D03*
%TD*%
D14*
%TO.P,J2,1,Pin_1_1*%
%TO.N,+3V3*%
X6100000Y7075000D03*
D15*
%TO.P,J2,2,Pin_2_2*%
%TO.N,/UART_TXC*%
X6100000Y5825000D03*
%TO.P,J2,3,Pin_3_3*%
%TO.N,/UART_RXC*%
X6100000Y4575000D03*
%TO.P,J2,4,Pin_4_4*%
%TO.N,GND*%
X6100000Y3325000D03*
%TD*%
D16*
%TO.N,+3V3*%
X25500000Y16000000D03*
X15125000Y7562500D03*
X14075000Y7562500D03*
%TO.N,GND*%
X14575000Y11400000D03*
X10150000Y12850000D03*
%TO.N,/BOOT0*%
X35000000Y7700000D03*
X30583498Y8618725D03*
%TO.N,GND*%
X7300000Y9675000D03*
X9658962Y15692452D03*
X31900000Y16700000D03*
X26675000Y9500000D03*
X47400000Y13875000D03*
X32000000Y14400000D03*
X25000000Y13900000D03*
X30900000Y13400000D03*
X9000000Y11900000D03*
X26550000Y21375000D03*
X7325000Y21625000D03*
X45400000Y19475000D03*
X32850000Y20025000D03*
X25200000Y22200000D03*
X46375000Y19500000D03*
X10100000Y12025000D03*
X40500000Y14980000D03*
X29850000Y8015000D03*
X36975000Y1850000D03*
X47425000Y19500000D03*
X37500000Y14980000D03*
X42725000Y20025000D03*
X26525000Y20375000D03*
X29500000Y14400000D03*
X7600000Y2800000D03*
X30600000Y17600000D03*
X25250000Y23525000D03*
X35750000Y14330000D03*
X23725000Y9375000D03*
X28700000Y13300000D03*
X46400000Y13900000D03*
X24225000Y8275000D03*
X35850000Y24625000D03*
X32800000Y9780000D03*
X28700000Y15500000D03*
X45400000Y13925000D03*
X29975000Y9550000D03*
X34550000Y6775000D03*
X24450000Y17405000D03*
X42500000Y17572500D03*
X9000000Y19300000D03*
X32900000Y15500000D03*
X32800000Y17600000D03*
X29700000Y16700000D03*
X39950000Y10550000D03*
X34525000Y5200000D03*
X33000000Y13300000D03*
X36470000Y17400000D03*
X35825000Y23525000D03*
X41300000Y20025000D03*
X31825000Y20050000D03*
X28700000Y17600000D03*
X26000000Y13900000D03*
X42500000Y15872500D03*
%TO.N,+3V3*%
X23900000Y10500000D03*
X36650000Y14250000D03*
X23900000Y11300000D03*
X24450000Y3750000D03*
X18500000Y18900000D03*
X28350000Y23800000D03*
X27250000Y23800000D03*
X31845000Y9825000D03*
X24450000Y2350000D03*
X36450000Y18400000D03*
%TD*%
%TO.N,/BOOT0*%
D17*
X30583498Y8466502D02*
X30583498Y8618725D01*
X31350000Y7700000D02*
X30583498Y8466502D01*
X35000000Y7700000D02*
X31350000Y7700000D01*
%TD*%
%TA.AperFunction,Conductor*%
%TO.N,+3V3*%
G36*
X45544348Y25177385D02*
G01*
X45566030Y25125062D01*
X45544364Y25072733D01*
X45524138Y25058380D01*
X45455289Y25025224D01*
X45217477Y24875797D01*
X44997901Y24700691D01*
X44799309Y24502099D01*
X44624203Y24282523D01*
X44474778Y24044715D01*
X44352924Y23791682D01*
X44260168Y23526600D01*
X44260163Y23526584D01*
X44197671Y23252788D01*
X44197671Y23252787D01*
X44166226Y22973696D01*
X44166226Y22692853D01*
X44197671Y22413762D01*
X44197671Y22413761D01*
X44260163Y22139965D01*
X44260168Y22139949D01*
X44352924Y21874867D01*
X44474778Y21621834D01*
X44474780Y21621830D01*
X44474781Y21621829D01*
X44624203Y21384026D01*
X44799310Y21164449D01*
X44997901Y20965858D01*
X45217478Y20790751D01*
X45455281Y20641329D01*
X45455284Y20641328D01*
X45455285Y20641327D01*
X45558150Y20591790D01*
X45708318Y20519473D01*
X45973408Y20426714D01*
X45973413Y20426713D01*
X45973416Y20426712D01*
X46247212Y20364220D01*
X46247213Y20364220D01*
X46247217Y20364219D01*
X46526301Y20332774D01*
X46526305Y20332774D01*
X46807147Y20332774D01*
X46807151Y20332774D01*
X47086235Y20364219D01*
X47360044Y20426714D01*
X47625134Y20519473D01*
X47878171Y20641329D01*
X48115974Y20790751D01*
X48335551Y20965858D01*
X48534142Y21164449D01*
X48709249Y21384026D01*
X48858671Y21621829D01*
X48980527Y21874866D01*
X49055652Y22089562D01*
X49093391Y22131792D01*
X49149940Y22134967D01*
X49192171Y22097228D01*
X49199499Y22065120D01*
X49199499Y3568155D01*
X49177825Y3515829D01*
X49125499Y3494155D01*
X49073173Y3515829D01*
X49055652Y3543714D01*
X48980527Y3758408D01*
X48858673Y4011441D01*
X48858672Y4011442D01*
X48858671Y4011445D01*
X48709249Y4249248D01*
X48534142Y4468825D01*
X48335551Y4667416D01*
X48187690Y4785331D01*
X48115974Y4842523D01*
X48013664Y4906809D01*
X47878171Y4991945D01*
X47878170Y4991946D01*
X47878166Y4991948D01*
X47625133Y5113802D01*
X47360051Y5206558D01*
X47360035Y5206563D01*
X47086239Y5269055D01*
X46946693Y5284778D01*
X46807151Y5300500D01*
X46526301Y5300500D01*
X46386759Y5284778D01*
X46247213Y5269055D01*
X46247212Y5269055D01*
X45973416Y5206563D01*
X45973400Y5206558D01*
X45708318Y5113802D01*
X45455285Y4991948D01*
X45217477Y4842523D01*
X44997901Y4667417D01*
X44799309Y4468825D01*
X44624203Y4249249D01*
X44474778Y4011441D01*
X44352924Y3758408D01*
X44260168Y3493326D01*
X44260163Y3493310D01*
X44197671Y3219514D01*
X44197671Y3219513D01*
X44186535Y3120678D01*
X44166226Y2940425D01*
X44166226Y2659575D01*
X44171783Y2610258D01*
X44197671Y2380488D01*
X44197671Y2380487D01*
X44260163Y2106691D01*
X44260168Y2106675D01*
X44352924Y1841593D01*
X44474778Y1588560D01*
X44624203Y1350752D01*
X44744822Y1199500D01*
X44799310Y1131175D01*
X44997901Y932584D01*
X45217478Y757477D01*
X45455281Y608055D01*
X45455284Y608054D01*
X45455285Y608053D01*
X45708320Y486198D01*
X45826766Y444752D01*
X45868998Y407013D01*
X45872173Y350465D01*
X45834434Y308233D01*
X45802315Y300905D01*
X12878469Y305832D01*
X12826146Y327514D01*
X12804480Y379843D01*
X12826162Y432166D01*
X12854036Y449678D01*
X12958408Y486199D01*
X13211445Y608055D01*
X13449248Y757477D01*
X13668825Y932584D01*
X13867416Y1131175D01*
X14042523Y1350752D01*
X14191945Y1588555D01*
X14313801Y1841592D01*
X14318356Y1854612D01*
X14339161Y1914068D01*
X36324500Y1914068D01*
X36324500Y1785933D01*
X36349497Y1660261D01*
X36349498Y1660258D01*
X36379198Y1588555D01*
X36398535Y1541873D01*
X36469724Y1435331D01*
X36560331Y1344724D01*
X36666873Y1273535D01*
X36785256Y1224499D01*
X36785258Y1224499D01*
X36785260Y1224498D01*
X36827903Y1216016D01*
X36910931Y1199500D01*
X36910933Y1199500D01*
X37039067Y1199500D01*
X37039069Y1199500D01*
X37164744Y1224499D01*
X37283127Y1273535D01*
X37389669Y1344724D01*
X37480276Y1435331D01*
X37551465Y1541873D01*
X37600501Y1660256D01*
X37625500Y1785931D01*
X37625500Y1914069D01*
X37600501Y2039744D01*
X37551465Y2158127D01*
X37480276Y2264669D01*
X37389669Y2355276D01*
X37283127Y2426465D01*
X37283124Y2426467D01*
X37283123Y2426467D01*
X37164742Y2475502D01*
X37164739Y2475503D01*
X37074696Y2493414D01*
X37039069Y2500500D01*
X36910931Y2500500D01*
X36879726Y2494293D01*
X36785260Y2475503D01*
X36785257Y2475502D01*
X36666876Y2426467D01*
X36560331Y2355277D01*
X36560330Y2355275D01*
X36469725Y2264670D01*
X36469723Y2264669D01*
X36398533Y2158124D01*
X36349498Y2039743D01*
X36349497Y2039740D01*
X36324500Y1914068D01*
X14339161Y1914068D01*
X14348986Y1942144D01*
X14348986Y1942145D01*
X14406560Y2106682D01*
X14469055Y2380491D01*
X14500500Y2659575D01*
X14500500Y2940425D01*
X14469055Y3219509D01*
X14460724Y3256009D01*
X14406562Y3493310D01*
X14406557Y3493326D01*
X14393959Y3529328D01*
X14313801Y3758408D01*
X14260486Y3869117D01*
X14191947Y4011441D01*
X14191946Y4011442D01*
X14191945Y4011445D01*
X14042523Y4249248D01*
X13867416Y4468825D01*
X13668825Y4667416D01*
X13520964Y4785331D01*
X13449248Y4842523D01*
X13346938Y4906809D01*
X13211445Y4991945D01*
X13211444Y4991946D01*
X13211440Y4991948D01*
X12958407Y5113802D01*
X12718190Y5197857D01*
X12693325Y5206558D01*
X12693309Y5206563D01*
X12441363Y5264068D01*
X33874500Y5264068D01*
X33874500Y5135933D01*
X33899497Y5010261D01*
X33899498Y5010258D01*
X33907083Y4991945D01*
X33948535Y4891873D01*
X34019724Y4785331D01*
X34110331Y4694724D01*
X34216873Y4623535D01*
X34335256Y4574499D01*
X34335258Y4574499D01*
X34335260Y4574498D01*
X34377903Y4566016D01*
X34460931Y4549500D01*
X34460933Y4549500D01*
X34589067Y4549500D01*
X34589069Y4549500D01*
X34714744Y4574499D01*
X34833127Y4623535D01*
X34939669Y4694724D01*
X35030276Y4785331D01*
X35101465Y4891873D01*
X35150501Y5010256D01*
X35175500Y5135931D01*
X35175500Y5264069D01*
X35150501Y5389744D01*
X35101465Y5508127D01*
X35030276Y5614669D01*
X34939669Y5705276D01*
X34833127Y5776465D01*
X34833124Y5776467D01*
X34833123Y5776467D01*
X34714742Y5825502D01*
X34714739Y5825503D01*
X34624696Y5843414D01*
X34589069Y5850500D01*
X34460931Y5850500D01*
X34429726Y5844293D01*
X34335260Y5825503D01*
X34335257Y5825502D01*
X34216876Y5776467D01*
X34110331Y5705277D01*
X34110330Y5705275D01*
X34019725Y5614670D01*
X34019723Y5614669D01*
X33948533Y5508124D01*
X33899498Y5389743D01*
X33899497Y5389740D01*
X33874500Y5264068D01*
X12441363Y5264068D01*
X12419513Y5269055D01*
X12279967Y5284778D01*
X12140425Y5300500D01*
X11859575Y5300500D01*
X11720033Y5284778D01*
X11580487Y5269055D01*
X11580486Y5269055D01*
X11306690Y5206563D01*
X11306674Y5206558D01*
X11041592Y5113802D01*
X10788559Y4991948D01*
X10550751Y4842523D01*
X10331175Y4667417D01*
X10132583Y4468825D01*
X9957477Y4249249D01*
X9808052Y4011441D01*
X9686198Y3758408D01*
X9593442Y3493326D01*
X9593437Y3493310D01*
X9530945Y3219514D01*
X9530945Y3219513D01*
X9519809Y3120678D01*
X9499500Y2940425D01*
X9499500Y2659575D01*
X9505057Y2610258D01*
X9530945Y2380488D01*
X9530945Y2380487D01*
X9593437Y2106691D01*
X9593442Y2106675D01*
X9686198Y1841593D01*
X9808052Y1588560D01*
X9957477Y1350752D01*
X10078096Y1199500D01*
X10132584Y1131175D01*
X10331175Y932584D01*
X10550752Y757477D01*
X10788555Y608055D01*
X10788558Y608054D01*
X10788559Y608053D01*
X11041594Y486198D01*
X11145210Y449941D01*
X11187442Y412202D01*
X11190617Y355654D01*
X11152878Y313422D01*
X11120759Y306094D01*
X1060703Y307600D01*
X1060703Y307601D01*
X1054716Y307602D01*
X1054701Y307607D01*
X1010744Y307607D01*
X1010742Y307608D01*
X1003501Y307963D01*
X877894Y320334D01*
X863666Y323164D01*
X746391Y358739D01*
X732989Y364291D01*
X624915Y422058D01*
X612853Y430117D01*
X518120Y507863D01*
X507862Y518121D01*
X430116Y612854D01*
X422057Y624916D01*
X364290Y732990D01*
X358738Y746392D01*
X323162Y863672D01*
X320334Y877890D01*
X307963Y1003493D01*
X307607Y1010746D01*
X307607Y7314322D01*
X5050000Y7314322D01*
X5050000Y7200000D01*
X5881178Y7200000D01*
X5850000Y7124728D01*
X5850000Y7025272D01*
X5881178Y6950000D01*
X5050001Y6950000D01*
X5050001Y6835679D01*
X5065443Y6718372D01*
X5065444Y6718368D01*
X5125900Y6572413D01*
X5222075Y6447076D01*
X5301875Y6385843D01*
X5330193Y6336794D01*
X5315534Y6282086D01*
X5309156Y6274814D01*
X5305893Y6271552D01*
X5305885Y6271542D01*
X5229223Y6156809D01*
X5176421Y6029333D01*
X5176418Y6029323D01*
X5149500Y5893992D01*
X5149500Y5756009D01*
X5176418Y5620678D01*
X5176421Y5620668D01*
X5229223Y5493192D01*
X5298347Y5389740D01*
X5305886Y5378458D01*
X5403458Y5280886D01*
X5403461Y5280884D01*
X5403463Y5280882D01*
X5432428Y5261528D01*
X5463893Y5214436D01*
X5452843Y5158887D01*
X5432428Y5138472D01*
X5403463Y5119119D01*
X5305883Y5021539D01*
X5229223Y4906809D01*
X5176421Y4779333D01*
X5176418Y4779323D01*
X5149500Y4643992D01*
X5149500Y4506009D01*
X5176418Y4370678D01*
X5176421Y4370668D01*
X5229223Y4243192D01*
X5229224Y4243190D01*
X5229225Y4243189D01*
X5305886Y4128458D01*
X5403458Y4030886D01*
X5403461Y4030884D01*
X5403463Y4030882D01*
X5432428Y4011528D01*
X5463893Y3964436D01*
X5452843Y3908887D01*
X5432428Y3888472D01*
X5403463Y3869119D01*
X5305883Y3771539D01*
X5229223Y3656809D01*
X5176421Y3529333D01*
X5176418Y3529323D01*
X5149500Y3393992D01*
X5149500Y3256009D01*
X5176418Y3120678D01*
X5176421Y3120668D01*
X5229223Y2993192D01*
X5229224Y2993190D01*
X5229225Y2993189D01*
X5305886Y2878458D01*
X5403458Y2780886D01*
X5518189Y2704225D01*
X5645672Y2651420D01*
X5781007Y2624500D01*
X5781009Y2624500D01*
X6418991Y2624500D01*
X6418993Y2624500D01*
X6554328Y2651420D01*
X6681811Y2704225D01*
X6796542Y2780886D01*
X6823175Y2807520D01*
X6875500Y2829193D01*
X6927826Y2807519D01*
X6949500Y2755193D01*
X6949500Y2735933D01*
X6974497Y2610261D01*
X6974498Y2610258D01*
X7019961Y2500500D01*
X7023535Y2491873D01*
X7094724Y2385331D01*
X7185331Y2294724D01*
X7291873Y2223535D01*
X7410256Y2174499D01*
X7410258Y2174499D01*
X7410260Y2174498D01*
X7452903Y2166016D01*
X7535931Y2149500D01*
X7535933Y2149500D01*
X7664067Y2149500D01*
X7664069Y2149500D01*
X7789744Y2174499D01*
X7908127Y2223535D01*
X8014669Y2294724D01*
X8105276Y2385331D01*
X8176465Y2491873D01*
X8225501Y2610256D01*
X8250500Y2735931D01*
X8250500Y2864069D01*
X8225501Y2989744D01*
X8176465Y3108127D01*
X8105276Y3214669D01*
X8014669Y3305276D01*
X7908127Y3376465D01*
X7908124Y3376467D01*
X7908123Y3376467D01*
X7789742Y3425502D01*
X7789739Y3425503D01*
X7699696Y3443414D01*
X7664069Y3450500D01*
X7535931Y3450500D01*
X7504726Y3444293D01*
X7410260Y3425503D01*
X7410257Y3425502D01*
X7291876Y3376467D01*
X7185331Y3305277D01*
X7185330Y3305275D01*
X7176826Y3296771D01*
X7124500Y3275097D01*
X7072174Y3296771D01*
X7050500Y3349097D01*
X7050500Y3393992D01*
X7044232Y3425501D01*
X7023580Y3529328D01*
X6970775Y3656811D01*
X6894114Y3771542D01*
X6796542Y3869114D01*
X6767571Y3888472D01*
X6736106Y3935563D01*
X6747155Y3991112D01*
X6767572Y4011529D01*
X6796542Y4030886D01*
X6894114Y4128458D01*
X6970775Y4243189D01*
X7023580Y4370672D01*
X7050500Y4506007D01*
X7050500Y4643993D01*
X7023580Y4779328D01*
X7021094Y4785330D01*
X6970776Y4906809D01*
X6894116Y5021539D01*
X6894114Y5021542D01*
X6796542Y5119114D01*
X6767571Y5138472D01*
X6736106Y5185563D01*
X6747155Y5241112D01*
X6767572Y5261529D01*
X6771372Y5264068D01*
X6796542Y5280886D01*
X6894114Y5378458D01*
X6970775Y5493189D01*
X7023580Y5620672D01*
X7050500Y5756007D01*
X7050500Y5893993D01*
X7023580Y6029328D01*
X6970775Y6156811D01*
X6894114Y6271542D01*
X6894104Y6271552D01*
X6890843Y6274814D01*
X6869173Y6327141D01*
X6890852Y6379465D01*
X6898125Y6385843D01*
X6977922Y6447074D01*
X6977923Y6447075D01*
X7074099Y6572413D01*
X7134556Y6718370D01*
X7150000Y6835679D01*
X7150000Y6950000D01*
X6318822Y6950000D01*
X6350000Y7025272D01*
X6350000Y7124728D01*
X6318822Y7200000D01*
X7149999Y7200000D01*
X7149999Y7314322D01*
X7134556Y7431629D01*
X7134555Y7431633D01*
X7074099Y7577588D01*
X6977924Y7702925D01*
X6852587Y7799100D01*
X6706630Y7859557D01*
X6589321Y7875000D01*
X6225000Y7875000D01*
X6225000Y7293822D01*
X6149728Y7325000D01*
X6050272Y7325000D01*
X5975000Y7293822D01*
X5975000Y7875000D01*
X5610678Y7875000D01*
X5493371Y7859557D01*
X5493367Y7859556D01*
X5347412Y7799100D01*
X5222075Y7702925D01*
X5125900Y7577588D01*
X5065443Y7431631D01*
X5050000Y7314322D01*
X307607Y7314322D01*
X307607Y9739068D01*
X6649500Y9739068D01*
X6649500Y9610933D01*
X6674497Y9485261D01*
X6674498Y9485258D01*
X6680394Y9471023D01*
X6723535Y9366873D01*
X6794724Y9260331D01*
X6885331Y9169724D01*
X6991873Y9098535D01*
X7110256Y9049499D01*
X7110258Y9049499D01*
X7110260Y9049498D01*
X7152903Y9041016D01*
X7235931Y9024500D01*
X7235933Y9024500D01*
X7364067Y9024500D01*
X7364069Y9024500D01*
X7489744Y9049499D01*
X7608127Y9098535D01*
X7714669Y9169724D01*
X7805276Y9260331D01*
X7876465Y9366873D01*
X7906370Y9439069D01*
X23074500Y9439069D01*
X23074500Y9310931D01*
X23076919Y9298772D01*
X23099497Y9185261D01*
X23099498Y9185258D01*
X23135420Y9098534D01*
X23148535Y9066873D01*
X23219724Y8960331D01*
X23310331Y8869724D01*
X23416873Y8798535D01*
X23535256Y8749499D01*
X23624749Y8731698D01*
X23671841Y8700233D01*
X23682890Y8644684D01*
X23671842Y8618010D01*
X23648534Y8583126D01*
X23599498Y8464743D01*
X23599497Y8464740D01*
X23574500Y8339068D01*
X23574500Y8210933D01*
X23599497Y8085261D01*
X23599498Y8085258D01*
X23599499Y8085256D01*
X23648535Y7966873D01*
X23689192Y7906025D01*
X23700071Y7889743D01*
X23719724Y7860331D01*
X23810331Y7769724D01*
X23916873Y7698535D01*
X24035256Y7649499D01*
X24035258Y7649499D01*
X24035260Y7649498D01*
X24077903Y7641016D01*
X24160931Y7624500D01*
X24160933Y7624500D01*
X24289067Y7624500D01*
X24289069Y7624500D01*
X24414744Y7649499D01*
X24533127Y7698535D01*
X24639669Y7769724D01*
X24730276Y7860331D01*
X24801465Y7966873D01*
X24847938Y8079068D01*
X29199500Y8079068D01*
X29199500Y7950933D01*
X29224497Y7825261D01*
X29224498Y7825258D01*
X29249843Y7764069D01*
X29273535Y7706873D01*
X29344724Y7600331D01*
X29435331Y7509724D01*
X29541873Y7438535D01*
X29660256Y7389499D01*
X29660258Y7389499D01*
X29660260Y7389498D01*
X29702903Y7381016D01*
X29785931Y7364500D01*
X29785933Y7364500D01*
X29914067Y7364500D01*
X29914069Y7364500D01*
X30039744Y7389499D01*
X30158127Y7438535D01*
X30264669Y7509724D01*
X30355276Y7600331D01*
X30426465Y7706873D01*
X30475501Y7825256D01*
X30480002Y7847883D01*
X30511467Y7894975D01*
X30567016Y7906025D01*
X30604906Y7885773D01*
X31030932Y7459747D01*
X31030937Y7459741D01*
X31033521Y7457157D01*
X31107157Y7383521D01*
X31152250Y7357487D01*
X31179841Y7341557D01*
X31197336Y7331455D01*
X31197339Y7331454D01*
X31197342Y7331452D01*
X31197343Y7331452D01*
X31197345Y7331451D01*
X31221421Y7325000D01*
X31297929Y7304500D01*
X31297930Y7304499D01*
X31297932Y7304499D01*
X31406599Y7304499D01*
X31406615Y7304500D01*
X33983007Y7304500D01*
X34035333Y7282826D01*
X34057007Y7230500D01*
X34044536Y7189388D01*
X33973533Y7083124D01*
X33924498Y6964743D01*
X33924497Y6964740D01*
X33899500Y6839068D01*
X33899500Y6710933D01*
X33924497Y6585261D01*
X33924498Y6585258D01*
X33924499Y6585256D01*
X33973535Y6466873D01*
X34044724Y6360331D01*
X34135331Y6269724D01*
X34241873Y6198535D01*
X34360256Y6149499D01*
X34360258Y6149499D01*
X34360260Y6149498D01*
X34402903Y6141016D01*
X34485931Y6124500D01*
X34485933Y6124500D01*
X34614067Y6124500D01*
X34614069Y6124500D01*
X34739744Y6149499D01*
X34858127Y6198535D01*
X34964669Y6269724D01*
X35055276Y6360331D01*
X35126465Y6466873D01*
X35175501Y6585256D01*
X35200500Y6710931D01*
X35200500Y6839069D01*
X35175501Y6964744D01*
X35167100Y6985024D01*
X35167099Y7041659D01*
X35207144Y7081707D01*
X35308127Y7123535D01*
X35414669Y7194724D01*
X35505276Y7285331D01*
X35576465Y7391873D01*
X35625501Y7510256D01*
X35650500Y7635931D01*
X35650500Y7764069D01*
X35625501Y7889744D01*
X35576465Y8008127D01*
X35505276Y8114669D01*
X35414669Y8205276D01*
X35308127Y8276465D01*
X35308124Y8276467D01*
X35308123Y8276467D01*
X35189742Y8325502D01*
X35189739Y8325503D01*
X35099696Y8343414D01*
X35064069Y8350500D01*
X34935931Y8350500D01*
X34904726Y8344293D01*
X34810260Y8325503D01*
X34810257Y8325502D01*
X34691876Y8276467D01*
X34585331Y8205277D01*
X34585330Y8205275D01*
X34497229Y8117174D01*
X34444903Y8095500D01*
X31544473Y8095500D01*
X31492147Y8117174D01*
X31232213Y8377108D01*
X31210539Y8429434D01*
X31211961Y8443871D01*
X31233998Y8554658D01*
X31233998Y8682793D01*
X31209000Y8808465D01*
X31208999Y8808468D01*
X31206539Y8814406D01*
X31159963Y8926852D01*
X31088774Y9033394D01*
X30998167Y9124001D01*
X30989937Y9129500D01*
X30952523Y9154499D01*
X30891625Y9195190D01*
X30891622Y9195192D01*
X30891621Y9195192D01*
X30773240Y9244227D01*
X30773237Y9244228D01*
X30679457Y9262882D01*
X30657212Y9267307D01*
X30610121Y9298772D01*
X30599072Y9354321D01*
X30600275Y9359124D01*
X30600499Y9360253D01*
X30600501Y9360256D01*
X30625500Y9485931D01*
X30625500Y9614069D01*
X30605238Y9715931D01*
X30600502Y9739740D01*
X30600501Y9739743D01*
X30579821Y9789669D01*
X30563930Y9828034D01*
X30557289Y9844068D01*
X32149500Y9844068D01*
X32149500Y9715933D01*
X32174497Y9590261D01*
X32174498Y9590258D01*
X32217991Y9485256D01*
X32223535Y9471873D01*
X32247551Y9435931D01*
X32293693Y9366873D01*
X32294724Y9365331D01*
X32385331Y9274724D01*
X32491873Y9203535D01*
X32610256Y9154499D01*
X32610258Y9154499D01*
X32610260Y9154498D01*
X32652903Y9146016D01*
X32735931Y9129500D01*
X32735933Y9129500D01*
X32864067Y9129500D01*
X32864069Y9129500D01*
X32989744Y9154499D01*
X33108127Y9203535D01*
X33214669Y9274724D01*
X33305276Y9365331D01*
X33376465Y9471873D01*
X33425501Y9590256D01*
X33450500Y9715931D01*
X33450500Y9844069D01*
X33425501Y9969744D01*
X33376465Y10088127D01*
X33305276Y10194669D01*
X33214669Y10285276D01*
X33108127Y10356465D01*
X33108124Y10356467D01*
X33108123Y10356467D01*
X32989742Y10405502D01*
X32989739Y10405503D01*
X32899696Y10423414D01*
X32864069Y10430500D01*
X32735931Y10430500D01*
X32704726Y10424293D01*
X32610260Y10405503D01*
X32610257Y10405502D01*
X32491876Y10356467D01*
X32385331Y10285277D01*
X32385330Y10285275D01*
X32294725Y10194670D01*
X32294723Y10194669D01*
X32223533Y10088124D01*
X32174498Y9969743D01*
X32174497Y9969740D01*
X32149500Y9844068D01*
X30557289Y9844068D01*
X30551467Y9858123D01*
X30551466Y9858125D01*
X30551465Y9858127D01*
X30480276Y9964669D01*
X30389669Y10055276D01*
X30283127Y10126465D01*
X30283124Y10126467D01*
X30283123Y10126467D01*
X30164742Y10175502D01*
X30164739Y10175503D01*
X30074696Y10193414D01*
X30039069Y10200500D01*
X29910931Y10200500D01*
X29879726Y10194293D01*
X29785260Y10175503D01*
X29785257Y10175502D01*
X29666876Y10126467D01*
X29560331Y10055277D01*
X29560330Y10055275D01*
X29469725Y9964670D01*
X29469723Y9964669D01*
X29398533Y9858124D01*
X29349498Y9739743D01*
X29349497Y9739740D01*
X29338236Y9683124D01*
X29324500Y9614069D01*
X29324500Y9485931D01*
X29327466Y9471022D01*
X29349497Y9360261D01*
X29349498Y9360258D01*
X29397559Y9244228D01*
X29398535Y9241873D01*
X29469724Y9135331D01*
X29560331Y9044724D01*
X29666873Y8973535D01*
X29785256Y8924499D01*
X29901284Y8901419D01*
X29948376Y8869955D01*
X29959425Y8814406D01*
X29959386Y8814212D01*
X29958446Y8809555D01*
X29957997Y8808469D01*
X29941415Y8725112D01*
X29941367Y8724870D01*
X29925676Y8701523D01*
X29909940Y8677971D01*
X29909826Y8677937D01*
X29909776Y8677862D01*
X29909223Y8677754D01*
X29868828Y8665500D01*
X29785931Y8665500D01*
X29767004Y8661735D01*
X29660260Y8640503D01*
X29660257Y8640502D01*
X29541876Y8591467D01*
X29435331Y8520277D01*
X29435330Y8520275D01*
X29344725Y8429670D01*
X29344723Y8429669D01*
X29273533Y8323124D01*
X29224498Y8204743D01*
X29224497Y8204740D01*
X29199500Y8079068D01*
X24847938Y8079068D01*
X24850501Y8085256D01*
X24875500Y8210931D01*
X24875500Y8339069D01*
X24850501Y8464744D01*
X24801465Y8583127D01*
X24730276Y8689669D01*
X24639669Y8780276D01*
X24612342Y8798535D01*
X24588590Y8814406D01*
X24533127Y8851465D01*
X24533124Y8851467D01*
X24533123Y8851467D01*
X24414742Y8900502D01*
X24414739Y8900503D01*
X24325250Y8918303D01*
X24278158Y8949769D01*
X24267109Y9005318D01*
X24278156Y9031990D01*
X24301465Y9066873D01*
X24350501Y9185256D01*
X24375500Y9310931D01*
X24375500Y9439069D01*
X24350635Y9564068D01*
X26024500Y9564068D01*
X26024500Y9435933D01*
X26049497Y9310261D01*
X26049498Y9310258D01*
X26077822Y9241877D01*
X26098535Y9191873D01*
X26169724Y9085331D01*
X26260331Y8994724D01*
X26366873Y8923535D01*
X26485256Y8874499D01*
X26485258Y8874499D01*
X26485260Y8874498D01*
X26527903Y8866016D01*
X26610931Y8849500D01*
X26610933Y8849500D01*
X26739067Y8849500D01*
X26739069Y8849500D01*
X26864744Y8874499D01*
X26983127Y8923535D01*
X27089669Y8994724D01*
X27180276Y9085331D01*
X27251465Y9191873D01*
X27300501Y9310256D01*
X27325500Y9435931D01*
X27325500Y9564069D01*
X27300501Y9689744D01*
X27251465Y9808127D01*
X27180276Y9914669D01*
X27089669Y10005276D01*
X26983127Y10076465D01*
X26983124Y10076467D01*
X26983123Y10076467D01*
X26864742Y10125502D01*
X26864739Y10125503D01*
X26774696Y10143414D01*
X26739069Y10150500D01*
X26610931Y10150500D01*
X26579726Y10144293D01*
X26485260Y10125503D01*
X26485257Y10125502D01*
X26366876Y10076467D01*
X26260331Y10005277D01*
X26260330Y10005275D01*
X26169725Y9914670D01*
X26169723Y9914669D01*
X26098533Y9808124D01*
X26049498Y9689743D01*
X26049497Y9689740D01*
X26029710Y9590261D01*
X26024634Y9564740D01*
X26024500Y9564068D01*
X24350635Y9564068D01*
X24350501Y9564744D01*
X24301465Y9683127D01*
X24230276Y9789669D01*
X24139669Y9880276D01*
X24033127Y9951465D01*
X24033124Y9951467D01*
X24033123Y9951467D01*
X23914742Y10000502D01*
X23914739Y10000503D01*
X23824696Y10018414D01*
X23789069Y10025500D01*
X23660931Y10025500D01*
X23629726Y10019293D01*
X23535260Y10000503D01*
X23535257Y10000502D01*
X23416876Y9951467D01*
X23310331Y9880277D01*
X23310330Y9880275D01*
X23219725Y9789670D01*
X23219723Y9789669D01*
X23148533Y9683124D01*
X23099498Y9564743D01*
X23099497Y9564740D01*
X23083687Y9485256D01*
X23074500Y9439069D01*
X7906370Y9439069D01*
X7925501Y9485256D01*
X7950500Y9610931D01*
X7950500Y9739069D01*
X7925501Y9864744D01*
X7876465Y9983127D01*
X7805276Y10089669D01*
X7714669Y10180276D01*
X7693128Y10194669D01*
X7622476Y10241877D01*
X7608127Y10251465D01*
X7608124Y10251467D01*
X7608123Y10251467D01*
X7489742Y10300502D01*
X7489739Y10300503D01*
X7399696Y10318414D01*
X7364069Y10325500D01*
X7235931Y10325500D01*
X7204726Y10319293D01*
X7110260Y10300503D01*
X7110257Y10300502D01*
X6991876Y10251467D01*
X6885331Y10180277D01*
X6885330Y10180275D01*
X6794725Y10089670D01*
X6794723Y10089669D01*
X6723533Y9983124D01*
X6674498Y9864743D01*
X6674497Y9864740D01*
X6663236Y9808124D01*
X6649634Y9739740D01*
X6649500Y9739068D01*
X307607Y9739068D01*
X307607Y11408841D01*
X1724500Y11408841D01*
X1724500Y11251160D01*
X1755261Y11096509D01*
X1755264Y11096499D01*
X1815603Y10950826D01*
X1900656Y10823534D01*
X1903211Y10819711D01*
X2014711Y10708211D01*
X2145821Y10620606D01*
X2145826Y10620604D01*
X2145825Y10620604D01*
X2291498Y10560265D01*
X2291503Y10560263D01*
X2446158Y10529500D01*
X2446160Y10529500D01*
X3403840Y10529500D01*
X3403842Y10529500D01*
X3558497Y10560263D01*
X3704179Y10620606D01*
X3835289Y10708211D01*
X3946789Y10819711D01*
X4034394Y10950821D01*
X4094737Y11096503D01*
X4125500Y11251158D01*
X4125500Y11408841D01*
X5754500Y11408841D01*
X5754500Y11251160D01*
X5785261Y11096509D01*
X5785264Y11096499D01*
X5845603Y10950826D01*
X5930656Y10823534D01*
X5933211Y10819711D01*
X6044711Y10708211D01*
X6175821Y10620606D01*
X6175826Y10620604D01*
X6175825Y10620604D01*
X6321498Y10560265D01*
X6321503Y10560263D01*
X6476158Y10529500D01*
X6476160Y10529500D01*
X7733840Y10529500D01*
X7733842Y10529500D01*
X7888497Y10560263D01*
X8018395Y10614068D01*
X39299500Y10614068D01*
X39299500Y10485933D01*
X39324497Y10360261D01*
X39324498Y10360258D01*
X39349249Y10300503D01*
X39373535Y10241873D01*
X39444724Y10135331D01*
X39535331Y10044724D01*
X39641873Y9973535D01*
X39760256Y9924499D01*
X39760258Y9924499D01*
X39760260Y9924498D01*
X39802903Y9916016D01*
X39885931Y9899500D01*
X39885933Y9899500D01*
X40014067Y9899500D01*
X40014069Y9899500D01*
X40139744Y9924499D01*
X40258127Y9973535D01*
X40364669Y10044724D01*
X40455276Y10135331D01*
X40526465Y10241873D01*
X40575501Y10360256D01*
X40600500Y10485931D01*
X40600500Y10614069D01*
X40587538Y10679233D01*
X40575502Y10739740D01*
X40575501Y10739743D01*
X40540793Y10823535D01*
X40526465Y10858127D01*
X40455276Y10964669D01*
X40364669Y11055276D01*
X40258127Y11126465D01*
X40258124Y11126467D01*
X40258123Y11126467D01*
X40139742Y11175502D01*
X40139739Y11175503D01*
X40049696Y11193414D01*
X40014069Y11200500D01*
X39885931Y11200500D01*
X39854726Y11194293D01*
X39760260Y11175503D01*
X39760257Y11175502D01*
X39641876Y11126467D01*
X39535331Y11055277D01*
X39535330Y11055275D01*
X39444725Y10964670D01*
X39444723Y10964669D01*
X39373533Y10858124D01*
X39324498Y10739743D01*
X39324497Y10739740D01*
X39299500Y10614068D01*
X8018395Y10614068D01*
X8034179Y10620606D01*
X8165289Y10708211D01*
X8276789Y10819711D01*
X8364394Y10950821D01*
X8424737Y11096503D01*
X8455500Y11251158D01*
X8455500Y11345903D01*
X8477174Y11398229D01*
X8529500Y11419903D01*
X8581826Y11398229D01*
X8585331Y11394724D01*
X8691873Y11323535D01*
X8810256Y11274499D01*
X8810258Y11274499D01*
X8810260Y11274498D01*
X8852903Y11266016D01*
X8935931Y11249500D01*
X8935933Y11249500D01*
X9064067Y11249500D01*
X9064069Y11249500D01*
X9189744Y11274499D01*
X9308127Y11323535D01*
X9414669Y11394724D01*
X9505276Y11485331D01*
X9541076Y11538911D01*
X9588168Y11570376D01*
X9643717Y11559327D01*
X9654931Y11550124D01*
X9685331Y11519724D01*
X9791873Y11448535D01*
X9910256Y11399499D01*
X9910258Y11399499D01*
X9910260Y11399498D01*
X9952903Y11391016D01*
X10035931Y11374500D01*
X10035933Y11374500D01*
X10164067Y11374500D01*
X10164069Y11374500D01*
X10289744Y11399499D01*
X10408127Y11448535D01*
X10431374Y11464068D01*
X13924500Y11464068D01*
X13924500Y11335933D01*
X13949497Y11210261D01*
X13949498Y11210258D01*
X13996614Y11096509D01*
X13998535Y11091873D01*
X14069724Y10985331D01*
X14160331Y10894724D01*
X14266873Y10823535D01*
X14385256Y10774499D01*
X14385258Y10774499D01*
X14385260Y10774498D01*
X14427903Y10766016D01*
X14510931Y10749500D01*
X14510933Y10749500D01*
X14639067Y10749500D01*
X14639069Y10749500D01*
X14764744Y10774499D01*
X14883127Y10823535D01*
X14989669Y10894724D01*
X15080276Y10985331D01*
X15151465Y11091873D01*
X15200501Y11210256D01*
X15225500Y11335931D01*
X15225500Y11464069D01*
X15208382Y11550124D01*
X15200502Y11589740D01*
X15200501Y11589743D01*
X15191973Y11610331D01*
X15151465Y11708127D01*
X15080276Y11814669D01*
X14989669Y11905276D01*
X14883127Y11976465D01*
X14883124Y11976467D01*
X14883123Y11976467D01*
X14764742Y12025502D01*
X14764739Y12025503D01*
X14674696Y12043414D01*
X14639069Y12050500D01*
X14510931Y12050500D01*
X14479726Y12044293D01*
X14385260Y12025503D01*
X14385257Y12025502D01*
X14266876Y11976467D01*
X14160331Y11905277D01*
X14160330Y11905275D01*
X14069725Y11814670D01*
X14069723Y11814669D01*
X13998533Y11708124D01*
X13949498Y11589743D01*
X13949497Y11589740D01*
X13924500Y11464068D01*
X10431374Y11464068D01*
X10514669Y11519724D01*
X10605276Y11610331D01*
X10676465Y11716873D01*
X10725501Y11835256D01*
X10750500Y11960931D01*
X10750500Y12089069D01*
X10725501Y12214744D01*
X10676465Y12333127D01*
X10659194Y12358974D01*
X10648146Y12414522D01*
X10659194Y12441195D01*
X10726465Y12541873D01*
X10775501Y12660256D01*
X10800500Y12785931D01*
X10800500Y12893455D01*
X17638200Y12893455D01*
X17638200Y12746546D01*
X17666858Y12602465D01*
X17666861Y12602454D01*
X17723078Y12466734D01*
X17723079Y12466732D01*
X17723080Y12466731D01*
X17804699Y12344580D01*
X17908580Y12240699D01*
X18030731Y12159080D01*
X18030732Y12159080D01*
X18030733Y12159079D01*
X18166453Y12102862D01*
X18166458Y12102860D01*
X18310545Y12074200D01*
X18457455Y12074200D01*
X18601542Y12102860D01*
X18737269Y12159080D01*
X18859420Y12240699D01*
X18963301Y12344580D01*
X19044920Y12466731D01*
X19101140Y12602458D01*
X19129800Y12746545D01*
X19129800Y12893455D01*
X19670200Y12893455D01*
X19670200Y12746546D01*
X19698858Y12602465D01*
X19698861Y12602454D01*
X19755078Y12466734D01*
X19755079Y12466732D01*
X19755080Y12466731D01*
X19836699Y12344580D01*
X19940580Y12240699D01*
X20062731Y12159080D01*
X20062732Y12159080D01*
X20062733Y12159079D01*
X20198453Y12102862D01*
X20198458Y12102860D01*
X20342545Y12074200D01*
X20489455Y12074200D01*
X20633542Y12102860D01*
X20769269Y12159080D01*
X20891420Y12240699D01*
X20995301Y12344580D01*
X21076920Y12466731D01*
X21133140Y12602458D01*
X21161800Y12746545D01*
X21161800Y12893455D01*
X21133140Y13037542D01*
X21076920Y13173269D01*
X20995301Y13295420D01*
X20891420Y13399301D01*
X20850766Y13426465D01*
X20769266Y13480922D01*
X20633546Y13537139D01*
X20633535Y13537142D01*
X20489455Y13565800D01*
X20342545Y13565800D01*
X20198464Y13537142D01*
X20198453Y13537139D01*
X20062733Y13480922D01*
X19940583Y13399304D01*
X19836696Y13295417D01*
X19755078Y13173267D01*
X19698861Y13037547D01*
X19698858Y13037536D01*
X19670200Y12893455D01*
X19129800Y12893455D01*
X19101140Y13037542D01*
X19044920Y13173269D01*
X18963301Y13295420D01*
X18859420Y13399301D01*
X18818766Y13426465D01*
X18737266Y13480922D01*
X18601546Y13537139D01*
X18601535Y13537142D01*
X18457455Y13565800D01*
X18310545Y13565800D01*
X18166464Y13537142D01*
X18166453Y13537139D01*
X18030733Y13480922D01*
X17908583Y13399304D01*
X17804696Y13295417D01*
X17723078Y13173267D01*
X17666861Y13037547D01*
X17666858Y13037536D01*
X17638200Y12893455D01*
X10800500Y12893455D01*
X10800500Y12914069D01*
X10775501Y13039744D01*
X10726465Y13158127D01*
X10655276Y13264669D01*
X10564669Y13355276D01*
X10551509Y13364069D01*
X10509109Y13392400D01*
X10458127Y13426465D01*
X10458124Y13426467D01*
X10458123Y13426467D01*
X10339742Y13475502D01*
X10339739Y13475503D01*
X10240939Y13495155D01*
X10214069Y13500500D01*
X10085931Y13500500D01*
X10059061Y13495155D01*
X9960260Y13475503D01*
X9960257Y13475502D01*
X9841876Y13426467D01*
X9735331Y13355277D01*
X9735330Y13355275D01*
X9644725Y13264670D01*
X9644723Y13264669D01*
X9573533Y13158124D01*
X9524498Y13039743D01*
X9524497Y13039740D01*
X9499500Y12914068D01*
X9499500Y12785933D01*
X9524497Y12660261D01*
X9524498Y12660258D01*
X9573534Y12541874D01*
X9590804Y12516028D01*
X9601853Y12460479D01*
X9590804Y12433804D01*
X9558923Y12386091D01*
X9511830Y12354625D01*
X9456282Y12365674D01*
X9445068Y12374877D01*
X9414668Y12405277D01*
X9360909Y12441197D01*
X9308127Y12476465D01*
X9308124Y12476467D01*
X9308123Y12476467D01*
X9189742Y12525502D01*
X9189739Y12525503D01*
X9099696Y12543414D01*
X9064069Y12550500D01*
X8935931Y12550500D01*
X8904726Y12544293D01*
X8810260Y12525503D01*
X8810257Y12525502D01*
X8691876Y12476467D01*
X8585331Y12405277D01*
X8585330Y12405275D01*
X8494725Y12314670D01*
X8494723Y12314669D01*
X8423533Y12208124D01*
X8374498Y12089743D01*
X8374497Y12089740D01*
X8349500Y11964068D01*
X8349500Y11946230D01*
X8327826Y11893904D01*
X8275500Y11872230D01*
X8223174Y11893904D01*
X8165288Y11951790D01*
X8128356Y11976467D01*
X8034179Y12039394D01*
X8034175Y12039396D01*
X8034173Y12039397D01*
X8034174Y12039397D01*
X7888501Y12099736D01*
X7888491Y12099739D01*
X7784925Y12120339D01*
X7733842Y12130500D01*
X6941847Y12130500D01*
X6889521Y12152174D01*
X6867847Y12204500D01*
X6889521Y12256826D01*
X6904847Y12268586D01*
X6917896Y12276121D01*
X6958365Y12299485D01*
X7065515Y12406635D01*
X7141281Y12537865D01*
X7180499Y12684232D01*
X7180500Y12684232D01*
X7180500Y12835768D01*
X7180499Y12835769D01*
X7167219Y12885330D01*
X7141281Y12982135D01*
X7065515Y13113365D01*
X6958365Y13220515D01*
X6931664Y13235931D01*
X6827139Y13296279D01*
X6827130Y13296283D01*
X6680768Y13335500D01*
X6680766Y13335500D01*
X6529234Y13335500D01*
X6529232Y13335500D01*
X6382869Y13296283D01*
X6382860Y13296279D01*
X6251637Y13220517D01*
X6144483Y13113363D01*
X6068721Y12982140D01*
X6068717Y12982131D01*
X6029500Y12835769D01*
X6029500Y12684232D01*
X6068717Y12537870D01*
X6068721Y12537861D01*
X6127917Y12435331D01*
X6144485Y12406635D01*
X6251635Y12299485D01*
X6353458Y12240697D01*
X6356585Y12238892D01*
X6391064Y12193959D01*
X6383671Y12137806D01*
X6338738Y12103327D01*
X6334025Y12102228D01*
X6321503Y12099737D01*
X6321498Y12099736D01*
X6175825Y12039397D01*
X6044711Y11951790D01*
X6044710Y11951788D01*
X5933212Y11840290D01*
X5933210Y11840289D01*
X5845603Y11709175D01*
X5785264Y11563502D01*
X5785261Y11563492D01*
X5754500Y11408841D01*
X4125500Y11408841D01*
X4125500Y11408842D01*
X4094737Y11563497D01*
X4075338Y11610331D01*
X4034396Y11709175D01*
X4034395Y11709177D01*
X4034394Y11709179D01*
X3946789Y11840289D01*
X3835289Y11951789D01*
X3704179Y12039394D01*
X3704175Y12039396D01*
X3704173Y12039397D01*
X3704174Y12039397D01*
X3558501Y12099736D01*
X3558491Y12099739D01*
X3454925Y12120339D01*
X3403842Y12130500D01*
X2446158Y12130500D01*
X2402315Y12121780D01*
X2291508Y12099739D01*
X2291498Y12099736D01*
X2145825Y12039397D01*
X2014711Y11951790D01*
X2014710Y11951788D01*
X1903212Y11840290D01*
X1903210Y11840289D01*
X1815603Y11709175D01*
X1755264Y11563502D01*
X1755261Y11563492D01*
X1724500Y11408841D01*
X307607Y11408841D01*
X307607Y14838169D01*
X15422050Y14838169D01*
X15422050Y14611831D01*
X15436635Y14519744D01*
X15457458Y14388280D01*
X15457460Y14388269D01*
X15527397Y14173025D01*
X15630154Y13971350D01*
X15763189Y13788244D01*
X15763193Y13788239D01*
X15923239Y13628193D01*
X15923242Y13628191D01*
X15923243Y13628190D01*
X16106349Y13495155D01*
X16144919Y13475503D01*
X16308019Y13392400D01*
X16308021Y13392400D01*
X16308024Y13392398D01*
X16523268Y13322461D01*
X16523272Y13322461D01*
X16523279Y13322458D01*
X16716263Y13291892D01*
X16746830Y13287050D01*
X16746831Y13287050D01*
X16973170Y13287050D01*
X17000059Y13291310D01*
X17196721Y13322458D01*
X17196729Y13322461D01*
X17196731Y13322461D01*
X17411975Y13392398D01*
X17411975Y13392399D01*
X17411981Y13392400D01*
X17613650Y13495155D01*
X17796761Y13628193D01*
X17956807Y13788239D01*
X18089845Y13971350D01*
X18192600Y14173019D01*
X18222789Y14265931D01*
X18262539Y14388269D01*
X18262539Y14388271D01*
X18262542Y14388279D01*
X18297950Y14611831D01*
X18297950Y14838169D01*
X20502050Y14838169D01*
X20502050Y14611831D01*
X20516635Y14519744D01*
X20537458Y14388280D01*
X20537460Y14388269D01*
X20607397Y14173025D01*
X20710154Y13971350D01*
X20843189Y13788244D01*
X20843193Y13788239D01*
X21003239Y13628193D01*
X21003242Y13628191D01*
X21003243Y13628190D01*
X21186349Y13495155D01*
X21224919Y13475503D01*
X21388019Y13392400D01*
X21388021Y13392400D01*
X21388024Y13392398D01*
X21603268Y13322461D01*
X21603272Y13322461D01*
X21603279Y13322458D01*
X21796263Y13291892D01*
X21826830Y13287050D01*
X21826831Y13287050D01*
X22053170Y13287050D01*
X22080059Y13291310D01*
X22276721Y13322458D01*
X22276729Y13322461D01*
X22276731Y13322461D01*
X22491975Y13392398D01*
X22491975Y13392399D01*
X22491981Y13392400D01*
X22693650Y13495155D01*
X22876761Y13628193D01*
X23036807Y13788239D01*
X23164555Y13964069D01*
X24349500Y13964069D01*
X24349500Y13835931D01*
X24354473Y13810933D01*
X24374497Y13710261D01*
X24374498Y13710258D01*
X24416803Y13608124D01*
X24423535Y13591873D01*
X24460107Y13537139D01*
X24478019Y13510331D01*
X24494724Y13485331D01*
X24585331Y13394724D01*
X24691873Y13323535D01*
X24810256Y13274499D01*
X24810258Y13274499D01*
X24810260Y13274498D01*
X24852903Y13266016D01*
X24935931Y13249500D01*
X24935933Y13249500D01*
X25064067Y13249500D01*
X25064069Y13249500D01*
X25189744Y13274499D01*
X25308127Y13323535D01*
X25414669Y13394724D01*
X25447674Y13427729D01*
X25500000Y13449403D01*
X25552326Y13427729D01*
X25585331Y13394724D01*
X25691873Y13323535D01*
X25810256Y13274499D01*
X25810258Y13274499D01*
X25810260Y13274498D01*
X25852903Y13266016D01*
X25935931Y13249500D01*
X25935933Y13249500D01*
X26064067Y13249500D01*
X26064069Y13249500D01*
X26189744Y13274499D01*
X26308127Y13323535D01*
X26414669Y13394724D01*
X26505276Y13485331D01*
X26576465Y13591873D01*
X26625501Y13710256D01*
X26650500Y13835931D01*
X26650500Y13964069D01*
X26625501Y14089744D01*
X26576465Y14208127D01*
X26505276Y14314669D01*
X26414669Y14405276D01*
X26308127Y14476465D01*
X26308124Y14476467D01*
X26308123Y14476467D01*
X26189742Y14525502D01*
X26189739Y14525503D01*
X26099696Y14543414D01*
X26064069Y14550500D01*
X25935931Y14550500D01*
X25904726Y14544293D01*
X25810260Y14525503D01*
X25810257Y14525502D01*
X25691876Y14476467D01*
X25585331Y14405277D01*
X25585330Y14405275D01*
X25552326Y14372271D01*
X25500000Y14350597D01*
X25447674Y14372271D01*
X25414668Y14405277D01*
X25326680Y14464068D01*
X25308127Y14476465D01*
X25308124Y14476467D01*
X25308123Y14476467D01*
X25189742Y14525502D01*
X25189739Y14525503D01*
X25099696Y14543414D01*
X25064069Y14550500D01*
X24935931Y14550500D01*
X24904726Y14544293D01*
X24810260Y14525503D01*
X24810257Y14525502D01*
X24691876Y14476467D01*
X24585331Y14405277D01*
X24585330Y14405275D01*
X24494725Y14314670D01*
X24494723Y14314669D01*
X24423533Y14208124D01*
X24374498Y14089743D01*
X24374497Y14089740D01*
X24356905Y14001296D01*
X24349500Y13964069D01*
X23164555Y13964069D01*
X23169845Y13971350D01*
X23178873Y13989068D01*
X23185104Y14001296D01*
X23185105Y14001299D01*
X23231256Y14091877D01*
X23272600Y14173019D01*
X23302789Y14265931D01*
X23342539Y14388269D01*
X23342539Y14388271D01*
X23342542Y14388279D01*
X23377950Y14611831D01*
X23377950Y14838169D01*
X23342542Y15061721D01*
X23342539Y15061728D01*
X23342539Y15061732D01*
X23272602Y15276976D01*
X23272600Y15276979D01*
X23272600Y15276981D01*
X23169845Y15478650D01*
X23107785Y15564068D01*
X28049500Y15564068D01*
X28049500Y15435933D01*
X28074497Y15310261D01*
X28074498Y15310258D01*
X28080389Y15296035D01*
X28123535Y15191873D01*
X28194724Y15085331D01*
X28285331Y14994724D01*
X28391873Y14923535D01*
X28510256Y14874499D01*
X28510258Y14874499D01*
X28510260Y14874498D01*
X28545396Y14867509D01*
X28635931Y14849500D01*
X28635933Y14849500D01*
X28764067Y14849500D01*
X28764069Y14849500D01*
X28857362Y14868058D01*
X28881701Y14872899D01*
X28937250Y14861850D01*
X28968716Y14814758D01*
X28957667Y14759209D01*
X28923533Y14708124D01*
X28874498Y14589743D01*
X28874497Y14589740D01*
X28860574Y14519740D01*
X28849500Y14464069D01*
X28849500Y14335931D01*
X28855452Y14306009D01*
X28874497Y14210261D01*
X28874498Y14210258D01*
X28889920Y14173025D01*
X28923535Y14091873D01*
X28957667Y14040791D01*
X28968716Y13985243D01*
X28937250Y13938151D01*
X28881702Y13927102D01*
X28779650Y13947401D01*
X28764069Y13950500D01*
X28635931Y13950500D01*
X28604726Y13944293D01*
X28510260Y13925503D01*
X28510257Y13925502D01*
X28391876Y13876467D01*
X28285331Y13805277D01*
X28285330Y13805275D01*
X28194725Y13714670D01*
X28194723Y13714669D01*
X28123533Y13608124D01*
X28074498Y13489743D01*
X28074497Y13489740D01*
X28049500Y13364068D01*
X28049500Y13235933D01*
X28074497Y13110261D01*
X28074498Y13110258D01*
X28104620Y13037536D01*
X28123535Y12991873D01*
X28171207Y12920527D01*
X28189295Y12893455D01*
X28194724Y12885331D01*
X28285331Y12794724D01*
X28391873Y12723535D01*
X28510256Y12674499D01*
X28510258Y12674499D01*
X28510260Y12674498D01*
X28552903Y12666016D01*
X28635931Y12649500D01*
X28635933Y12649500D01*
X28764067Y12649500D01*
X28764069Y12649500D01*
X28889744Y12674499D01*
X29008127Y12723535D01*
X29114669Y12794724D01*
X29205276Y12885331D01*
X29276465Y12991873D01*
X29325501Y13110256D01*
X29350500Y13235931D01*
X29350500Y13364069D01*
X29331039Y13461904D01*
X29330608Y13464069D01*
X30249500Y13464069D01*
X30249500Y13335931D01*
X30252180Y13322459D01*
X30274497Y13210261D01*
X30274498Y13210258D01*
X30315919Y13110258D01*
X30323535Y13091873D01*
X30394724Y12985331D01*
X30485331Y12894724D01*
X30591873Y12823535D01*
X30710256Y12774499D01*
X30710258Y12774499D01*
X30710260Y12774498D01*
X30752903Y12766016D01*
X30835931Y12749500D01*
X30835933Y12749500D01*
X30964067Y12749500D01*
X30964069Y12749500D01*
X31089744Y12774499D01*
X31208127Y12823535D01*
X31314669Y12894724D01*
X31405276Y12985331D01*
X31476465Y13091873D01*
X31525501Y13210256D01*
X31550500Y13335931D01*
X31550500Y13364068D01*
X32349500Y13364068D01*
X32349500Y13235933D01*
X32374497Y13110261D01*
X32374498Y13110258D01*
X32404620Y13037536D01*
X32423535Y12991873D01*
X32471207Y12920527D01*
X32489295Y12893455D01*
X32494724Y12885331D01*
X32585331Y12794724D01*
X32691873Y12723535D01*
X32810256Y12674499D01*
X32810258Y12674499D01*
X32810260Y12674498D01*
X32852903Y12666016D01*
X32935931Y12649500D01*
X32935933Y12649500D01*
X33064067Y12649500D01*
X33064069Y12649500D01*
X33189744Y12674499D01*
X33308127Y12723535D01*
X33414669Y12794724D01*
X33505276Y12885331D01*
X33576465Y12991873D01*
X33625501Y13110256D01*
X33650500Y13235931D01*
X33650500Y13364069D01*
X33631039Y13461904D01*
X33625502Y13489740D01*
X33625501Y13489743D01*
X33623259Y13495155D01*
X33576465Y13608127D01*
X33505276Y13714669D01*
X33414669Y13805276D01*
X33400611Y13814669D01*
X33368790Y13835931D01*
X33308127Y13876465D01*
X33308124Y13876467D01*
X33308123Y13876467D01*
X33189742Y13925502D01*
X33189739Y13925503D01*
X33099696Y13943414D01*
X33064069Y13950500D01*
X32935931Y13950500D01*
X32904726Y13944293D01*
X32810260Y13925503D01*
X32810257Y13925502D01*
X32691876Y13876467D01*
X32585331Y13805277D01*
X32585330Y13805275D01*
X32494725Y13714670D01*
X32494723Y13714669D01*
X32423533Y13608124D01*
X32374498Y13489743D01*
X32374497Y13489740D01*
X32349500Y13364068D01*
X31550500Y13364068D01*
X31550500Y13464069D01*
X31535965Y13537140D01*
X31525502Y13589740D01*
X31525501Y13589743D01*
X31517887Y13608124D01*
X31476465Y13708127D01*
X31405276Y13814669D01*
X31314669Y13905276D01*
X31208127Y13976465D01*
X31208124Y13976467D01*
X31208123Y13976467D01*
X31089742Y14025502D01*
X31089739Y14025503D01*
X30999696Y14043414D01*
X30964069Y14050500D01*
X30835931Y14050500D01*
X30804726Y14044293D01*
X30710260Y14025503D01*
X30710257Y14025502D01*
X30591876Y13976467D01*
X30485331Y13905277D01*
X30485330Y13905275D01*
X30394725Y13814670D01*
X30394723Y13814669D01*
X30323533Y13708124D01*
X30274498Y13589743D01*
X30274497Y13589740D01*
X30255452Y13493992D01*
X30249500Y13464069D01*
X29330608Y13464069D01*
X29325502Y13489740D01*
X29325501Y13489743D01*
X29323259Y13495155D01*
X29276465Y13608127D01*
X29242331Y13659212D01*
X29231283Y13714758D01*
X29262749Y13761850D01*
X29318298Y13772899D01*
X29369127Y13762789D01*
X29435931Y13749500D01*
X29435933Y13749500D01*
X29564067Y13749500D01*
X29564069Y13749500D01*
X29689744Y13774499D01*
X29808127Y13823535D01*
X29914669Y13894724D01*
X30005276Y13985331D01*
X30076465Y14091873D01*
X30125501Y14210256D01*
X30150500Y14335931D01*
X30150500Y14464069D01*
X31349500Y14464069D01*
X31349500Y14335931D01*
X31355452Y14306009D01*
X31374497Y14210261D01*
X31374498Y14210258D01*
X31389920Y14173025D01*
X31423535Y14091873D01*
X31441662Y14064744D01*
X31484056Y14001296D01*
X31494724Y13985331D01*
X31585331Y13894724D01*
X31691873Y13823535D01*
X31810256Y13774499D01*
X31810258Y13774499D01*
X31810260Y13774498D01*
X31852903Y13766016D01*
X31935931Y13749500D01*
X31935933Y13749500D01*
X32064067Y13749500D01*
X32064069Y13749500D01*
X32189744Y13774499D01*
X32308127Y13823535D01*
X32414669Y13894724D01*
X32505276Y13985331D01*
X32576465Y14091873D01*
X32625501Y14210256D01*
X32650500Y14335931D01*
X32650500Y14394068D01*
X35099500Y14394068D01*
X35099500Y14265933D01*
X35124497Y14140261D01*
X35124498Y14140258D01*
X35173532Y14021879D01*
X35173535Y14021873D01*
X35212158Y13964069D01*
X35237928Y13925501D01*
X35244724Y13915331D01*
X35335331Y13824724D01*
X35441873Y13753535D01*
X35560256Y13704499D01*
X35560258Y13704499D01*
X35560260Y13704498D01*
X35602903Y13696016D01*
X35685931Y13679500D01*
X35685933Y13679500D01*
X35814067Y13679500D01*
X35814069Y13679500D01*
X35939744Y13704499D01*
X36058127Y13753535D01*
X36164669Y13824724D01*
X36255276Y13915331D01*
X36304545Y13989068D01*
X44749500Y13989068D01*
X44749500Y13860933D01*
X44774497Y13735261D01*
X44774498Y13735258D01*
X44795209Y13685256D01*
X44823535Y13616873D01*
X44894724Y13510331D01*
X44985331Y13419724D01*
X45091873Y13348535D01*
X45210256Y13299499D01*
X45210258Y13299499D01*
X45210260Y13299498D01*
X45230777Y13295417D01*
X45335931Y13274500D01*
X45335933Y13274500D01*
X45464067Y13274500D01*
X45464069Y13274500D01*
X45589744Y13299499D01*
X45708127Y13348535D01*
X45814669Y13419724D01*
X45835173Y13440230D01*
X45887496Y13461904D01*
X45939823Y13440232D01*
X45985331Y13394724D01*
X46091873Y13323535D01*
X46210256Y13274499D01*
X46210258Y13274499D01*
X46210260Y13274498D01*
X46252903Y13266016D01*
X46335931Y13249500D01*
X46335933Y13249500D01*
X46464067Y13249500D01*
X46464069Y13249500D01*
X46589744Y13274499D01*
X46708127Y13323535D01*
X46814669Y13394724D01*
X46835173Y13415230D01*
X46887496Y13436904D01*
X46939823Y13415232D01*
X46985331Y13369724D01*
X47091873Y13298535D01*
X47210256Y13249499D01*
X47210258Y13249499D01*
X47210260Y13249498D01*
X47252903Y13241016D01*
X47335931Y13224500D01*
X47335933Y13224500D01*
X47464067Y13224500D01*
X47464069Y13224500D01*
X47589744Y13249499D01*
X47708127Y13298535D01*
X47814669Y13369724D01*
X47905276Y13460331D01*
X47976465Y13566873D01*
X48025501Y13685256D01*
X48050500Y13810931D01*
X48050500Y13939069D01*
X48033307Y14025503D01*
X48025502Y14064740D01*
X48025501Y14064743D01*
X48015145Y14089744D01*
X47976465Y14183127D01*
X47905276Y14289669D01*
X47814669Y14380276D01*
X47807943Y14384770D01*
X47739840Y14430275D01*
X47708127Y14451465D01*
X47708124Y14451467D01*
X47708123Y14451467D01*
X47589742Y14500502D01*
X47589739Y14500503D01*
X47499696Y14518414D01*
X47464069Y14525500D01*
X47335931Y14525500D01*
X47306974Y14519740D01*
X47210260Y14500503D01*
X47210257Y14500502D01*
X47091876Y14451467D01*
X46985331Y14380277D01*
X46985328Y14380274D01*
X46964823Y14359770D01*
X46912496Y14338098D01*
X46860173Y14359772D01*
X46814668Y14405277D01*
X46726680Y14464068D01*
X46708127Y14476465D01*
X46708124Y14476467D01*
X46708123Y14476467D01*
X46589742Y14525502D01*
X46589739Y14525503D01*
X46499696Y14543414D01*
X46464069Y14550500D01*
X46335931Y14550500D01*
X46304726Y14544293D01*
X46210260Y14525503D01*
X46210257Y14525502D01*
X46091876Y14476467D01*
X45985331Y14405277D01*
X45985328Y14405274D01*
X45964823Y14384770D01*
X45912496Y14363098D01*
X45860173Y14384772D01*
X45814668Y14430277D01*
X45779473Y14453793D01*
X45708127Y14501465D01*
X45708124Y14501467D01*
X45708123Y14501467D01*
X45589742Y14550502D01*
X45589739Y14550503D01*
X45499696Y14568414D01*
X45464069Y14575500D01*
X45335931Y14575500D01*
X45304726Y14569293D01*
X45210260Y14550503D01*
X45210257Y14550502D01*
X45091876Y14501467D01*
X44985331Y14430277D01*
X44985330Y14430275D01*
X44894725Y14339670D01*
X44894723Y14339669D01*
X44823533Y14233124D01*
X44774498Y14114743D01*
X44774497Y14114740D01*
X44749500Y13989068D01*
X36304545Y13989068D01*
X36326465Y14021873D01*
X36375501Y14140256D01*
X36400500Y14265931D01*
X36400500Y14394069D01*
X36379329Y14500502D01*
X36375502Y14519740D01*
X36375501Y14519743D01*
X36373116Y14525500D01*
X36326465Y14638127D01*
X36255276Y14744669D01*
X36164669Y14835276D01*
X36160339Y14838169D01*
X36105969Y14874498D01*
X36058127Y14906465D01*
X36058124Y14906467D01*
X36058123Y14906467D01*
X35939742Y14955502D01*
X35939739Y14955503D01*
X35859739Y14971416D01*
X35814069Y14980500D01*
X35685931Y14980500D01*
X35658915Y14975126D01*
X35560260Y14955503D01*
X35560257Y14955502D01*
X35441876Y14906467D01*
X35335331Y14835277D01*
X35335330Y14835275D01*
X35244725Y14744670D01*
X35244723Y14744669D01*
X35173533Y14638124D01*
X35124498Y14519743D01*
X35124497Y14519740D01*
X35110917Y14451467D01*
X35101730Y14405277D01*
X35099500Y14394068D01*
X32650500Y14394068D01*
X32650500Y14464069D01*
X32633307Y14550503D01*
X32625502Y14589740D01*
X32625501Y14589743D01*
X32576466Y14708124D01*
X32576465Y14708127D01*
X32507085Y14811961D01*
X32496037Y14867509D01*
X32527503Y14914601D01*
X32583052Y14925650D01*
X32596930Y14921440D01*
X32710256Y14874499D01*
X32710258Y14874499D01*
X32710260Y14874498D01*
X32745396Y14867509D01*
X32835931Y14849500D01*
X32835933Y14849500D01*
X32964067Y14849500D01*
X32964069Y14849500D01*
X33089744Y14874499D01*
X33208127Y14923535D01*
X33314669Y14994724D01*
X33364014Y15044069D01*
X36849500Y15044069D01*
X36849500Y14915931D01*
X36851620Y14905275D01*
X36874497Y14790261D01*
X36874498Y14790258D01*
X36874499Y14790256D01*
X36923535Y14671873D01*
X36994724Y14565331D01*
X37085331Y14474724D01*
X37191873Y14403535D01*
X37310256Y14354499D01*
X37310258Y14354499D01*
X37310260Y14354498D01*
X37329872Y14350597D01*
X37435931Y14329500D01*
X37435933Y14329500D01*
X37564067Y14329500D01*
X37564069Y14329500D01*
X37689744Y14354499D01*
X37808127Y14403535D01*
X37914669Y14474724D01*
X38005276Y14565331D01*
X38076465Y14671873D01*
X38125501Y14790256D01*
X38150500Y14915931D01*
X38150500Y15044069D01*
X39849500Y15044069D01*
X39849500Y14915931D01*
X39851620Y14905275D01*
X39874497Y14790261D01*
X39874498Y14790258D01*
X39874499Y14790256D01*
X39923535Y14671873D01*
X39994724Y14565331D01*
X40085331Y14474724D01*
X40191873Y14403535D01*
X40310256Y14354499D01*
X40310258Y14354499D01*
X40310260Y14354498D01*
X40329872Y14350597D01*
X40435931Y14329500D01*
X40435933Y14329500D01*
X40564067Y14329500D01*
X40564069Y14329500D01*
X40689744Y14354499D01*
X40808127Y14403535D01*
X40914669Y14474724D01*
X41005276Y14565331D01*
X41076465Y14671873D01*
X41125501Y14790256D01*
X41150500Y14915931D01*
X41150500Y15044069D01*
X41125501Y15169744D01*
X41076465Y15288127D01*
X41005276Y15394669D01*
X40914669Y15485276D01*
X40808127Y15556465D01*
X40808124Y15556467D01*
X40808123Y15556467D01*
X40689742Y15605502D01*
X40689739Y15605503D01*
X40599696Y15623414D01*
X40564069Y15630500D01*
X40435931Y15630500D01*
X40404726Y15624293D01*
X40310260Y15605503D01*
X40310257Y15605502D01*
X40191876Y15556467D01*
X40085331Y15485277D01*
X40085330Y15485275D01*
X39994725Y15394670D01*
X39994723Y15394669D01*
X39923533Y15288124D01*
X39874498Y15169743D01*
X39874497Y15169740D01*
X39857690Y15085244D01*
X39849500Y15044069D01*
X38150500Y15044069D01*
X38125501Y15169744D01*
X38076465Y15288127D01*
X38005276Y15394669D01*
X37914669Y15485276D01*
X37808127Y15556465D01*
X37808124Y15556467D01*
X37808123Y15556467D01*
X37689742Y15605502D01*
X37689739Y15605503D01*
X37599696Y15623414D01*
X37564069Y15630500D01*
X37435931Y15630500D01*
X37404726Y15624293D01*
X37310260Y15605503D01*
X37310257Y15605502D01*
X37191876Y15556467D01*
X37085331Y15485277D01*
X37085330Y15485275D01*
X36994725Y15394670D01*
X36994723Y15394669D01*
X36923533Y15288124D01*
X36874498Y15169743D01*
X36874497Y15169740D01*
X36857690Y15085244D01*
X36849500Y15044069D01*
X33364014Y15044069D01*
X33405276Y15085331D01*
X33476465Y15191873D01*
X33525501Y15310256D01*
X33550500Y15435931D01*
X33550500Y15564069D01*
X33525501Y15689744D01*
X33476465Y15808127D01*
X33405276Y15914669D01*
X33383376Y15936569D01*
X41849500Y15936569D01*
X41849500Y15808431D01*
X41849561Y15808124D01*
X41874497Y15682761D01*
X41874498Y15682758D01*
X41906498Y15605502D01*
X41923535Y15564373D01*
X41964735Y15502713D01*
X41980812Y15478651D01*
X41994724Y15457831D01*
X42085331Y15367224D01*
X42191873Y15296035D01*
X42310256Y15246999D01*
X42310258Y15246999D01*
X42310260Y15246998D01*
X42352903Y15238516D01*
X42435931Y15222000D01*
X42435933Y15222000D01*
X42564067Y15222000D01*
X42564069Y15222000D01*
X42689744Y15246999D01*
X42808127Y15296035D01*
X42914669Y15367224D01*
X43005276Y15457831D01*
X43076465Y15564373D01*
X43125501Y15682756D01*
X43150500Y15808431D01*
X43150500Y15936569D01*
X43125501Y16062244D01*
X43076465Y16180627D01*
X43005276Y16287169D01*
X42914669Y16377776D01*
X42893571Y16391873D01*
X42879473Y16401293D01*
X42808127Y16448965D01*
X42808124Y16448967D01*
X42808123Y16448967D01*
X42689742Y16498002D01*
X42689739Y16498003D01*
X42599696Y16515914D01*
X42564069Y16523000D01*
X42435931Y16523000D01*
X42404726Y16516793D01*
X42310260Y16498003D01*
X42310257Y16498002D01*
X42191876Y16448967D01*
X42085331Y16377777D01*
X42085330Y16377775D01*
X41994725Y16287170D01*
X41994723Y16287169D01*
X41923533Y16180624D01*
X41874498Y16062243D01*
X41874497Y16062240D01*
X41862232Y16000576D01*
X41849500Y15936569D01*
X33383376Y15936569D01*
X33314669Y16005276D01*
X33208127Y16076465D01*
X33208124Y16076467D01*
X33208123Y16076467D01*
X33089742Y16125502D01*
X33089739Y16125503D01*
X32999696Y16143414D01*
X32964069Y16150500D01*
X32835931Y16150500D01*
X32804726Y16144293D01*
X32710260Y16125503D01*
X32710257Y16125502D01*
X32591876Y16076467D01*
X32485331Y16005277D01*
X32485330Y16005275D01*
X32394725Y15914670D01*
X32394723Y15914669D01*
X32323533Y15808124D01*
X32274498Y15689743D01*
X32274497Y15689740D01*
X32253043Y15581883D01*
X32249561Y15564373D01*
X32249500Y15564068D01*
X32249500Y15435933D01*
X32274497Y15310261D01*
X32274498Y15310258D01*
X32280389Y15296035D01*
X32323535Y15191873D01*
X32338322Y15169743D01*
X32392913Y15088041D01*
X32403962Y15032492D01*
X32372496Y14985400D01*
X32316947Y14974351D01*
X32303066Y14978562D01*
X32189746Y15025501D01*
X32189739Y15025503D01*
X32096399Y15044069D01*
X32064069Y15050500D01*
X31935931Y15050500D01*
X31904726Y15044293D01*
X31810260Y15025503D01*
X31810257Y15025502D01*
X31691876Y14976467D01*
X31585331Y14905277D01*
X31585330Y14905275D01*
X31494725Y14814670D01*
X31494723Y14814669D01*
X31423533Y14708124D01*
X31374498Y14589743D01*
X31374497Y14589740D01*
X31360574Y14519740D01*
X31349500Y14464069D01*
X30150500Y14464069D01*
X30133307Y14550503D01*
X30125502Y14589740D01*
X30125501Y14589743D01*
X30076466Y14708124D01*
X30076465Y14708127D01*
X30005276Y14814669D01*
X29914669Y14905276D01*
X29887342Y14923535D01*
X29879473Y14928793D01*
X29808127Y14976465D01*
X29808124Y14976467D01*
X29808123Y14976467D01*
X29689742Y15025502D01*
X29689739Y15025503D01*
X29596399Y15044069D01*
X29564069Y15050500D01*
X29435931Y15050500D01*
X29318297Y15027102D01*
X29262748Y15038152D01*
X29231283Y15085244D01*
X29242332Y15140790D01*
X29276465Y15191873D01*
X29325501Y15310256D01*
X29350500Y15435931D01*
X29350500Y15564069D01*
X29325501Y15689744D01*
X29276465Y15808127D01*
X29205276Y15914669D01*
X29114669Y16005276D01*
X29008127Y16076465D01*
X29008124Y16076467D01*
X29008123Y16076467D01*
X28889742Y16125502D01*
X28889739Y16125503D01*
X28799696Y16143414D01*
X28764069Y16150500D01*
X28635931Y16150500D01*
X28604726Y16144293D01*
X28510260Y16125503D01*
X28510257Y16125502D01*
X28391876Y16076467D01*
X28285331Y16005277D01*
X28285330Y16005275D01*
X28194725Y15914670D01*
X28194723Y15914669D01*
X28123533Y15808124D01*
X28074498Y15689743D01*
X28074497Y15689740D01*
X28053043Y15581883D01*
X28049561Y15564373D01*
X28049500Y15564068D01*
X23107785Y15564068D01*
X23036807Y15661761D01*
X22876761Y15821807D01*
X22876758Y15821810D01*
X22876756Y15821811D01*
X22693650Y15954846D01*
X22491975Y16057603D01*
X22276731Y16127540D01*
X22276722Y16127542D01*
X22276721Y16127542D01*
X22164945Y16145246D01*
X22053170Y16162950D01*
X22053169Y16162950D01*
X21826831Y16162950D01*
X21826830Y16162950D01*
X21603279Y16127542D01*
X21603268Y16127540D01*
X21388024Y16057603D01*
X21186349Y15954846D01*
X21003243Y15821811D01*
X20843189Y15661757D01*
X20710154Y15478651D01*
X20607397Y15276976D01*
X20537460Y15061732D01*
X20537458Y15061721D01*
X20512868Y14906467D01*
X20502050Y14838169D01*
X18297950Y14838169D01*
X18262542Y15061721D01*
X18262539Y15061728D01*
X18262539Y15061732D01*
X18192602Y15276976D01*
X18192600Y15276979D01*
X18192600Y15276981D01*
X18132635Y15394670D01*
X18089845Y15478651D01*
X17956810Y15661757D01*
X17956809Y15661758D01*
X17956807Y15661761D01*
X17796761Y15821807D01*
X17796758Y15821810D01*
X17796756Y15821811D01*
X17613650Y15954846D01*
X17411975Y16057603D01*
X17196731Y16127540D01*
X17196722Y16127542D01*
X17196721Y16127542D01*
X17084945Y16145246D01*
X16973170Y16162950D01*
X16973169Y16162950D01*
X16746831Y16162950D01*
X16746830Y16162950D01*
X16523279Y16127542D01*
X16523268Y16127540D01*
X16308024Y16057603D01*
X16106349Y15954846D01*
X15923243Y15821811D01*
X15763189Y15661757D01*
X15630154Y15478651D01*
X15527397Y15276976D01*
X15457460Y15061732D01*
X15457458Y15061721D01*
X15432868Y14906467D01*
X15422050Y14838169D01*
X307607Y14838169D01*
X307607Y15756521D01*
X9008462Y15756521D01*
X9008462Y15628383D01*
X9013014Y15605501D01*
X9033459Y15502713D01*
X9033460Y15502710D01*
X9052049Y15457831D01*
X9082497Y15384325D01*
X9153686Y15277783D01*
X9244293Y15187176D01*
X9350835Y15115987D01*
X9469218Y15066951D01*
X9469220Y15066951D01*
X9469222Y15066950D01*
X9495455Y15061732D01*
X9594893Y15041952D01*
X9594895Y15041952D01*
X9723029Y15041952D01*
X9723031Y15041952D01*
X9848706Y15066951D01*
X9967089Y15115987D01*
X10073631Y15187176D01*
X10164238Y15277783D01*
X10235427Y15384325D01*
X10284463Y15502708D01*
X10309462Y15628383D01*
X10309462Y15756521D01*
X10284463Y15882196D01*
X10235427Y16000579D01*
X10164238Y16107121D01*
X10073631Y16197728D01*
X9967089Y16268917D01*
X9967086Y16268919D01*
X9967085Y16268919D01*
X9848704Y16317954D01*
X9848701Y16317955D01*
X9758658Y16335866D01*
X9723031Y16342952D01*
X9594893Y16342952D01*
X9563688Y16336745D01*
X9469222Y16317955D01*
X9469219Y16317954D01*
X9350838Y16268919D01*
X9244293Y16197729D01*
X9244292Y16197727D01*
X9153687Y16107122D01*
X9153685Y16107121D01*
X9082495Y16000576D01*
X9033460Y15882195D01*
X9033459Y15882192D01*
X9012005Y15774335D01*
X9008462Y15756521D01*
X307607Y15756521D01*
X307607Y20048842D01*
X1724500Y20048842D01*
X1724500Y19891158D01*
X1730647Y19860256D01*
X1755261Y19736509D01*
X1755264Y19736499D01*
X1815603Y19590826D01*
X1815605Y19590823D01*
X1815606Y19590821D01*
X1846407Y19544724D01*
X1893974Y19473534D01*
X1903211Y19459711D01*
X2014711Y19348211D01*
X2145821Y19260606D01*
X2145826Y19260604D01*
X2145825Y19260604D01*
X2291498Y19200265D01*
X2291503Y19200263D01*
X2446158Y19169500D01*
X2446160Y19169500D01*
X3403840Y19169500D01*
X3403842Y19169500D01*
X3558497Y19200263D01*
X3704179Y19260606D01*
X3835289Y19348211D01*
X3946789Y19459711D01*
X4034394Y19590821D01*
X4094737Y19736503D01*
X4125500Y19891158D01*
X4125500Y20048842D01*
X5754500Y20048842D01*
X5754500Y19891158D01*
X5760647Y19860256D01*
X5785261Y19736509D01*
X5785264Y19736499D01*
X5845603Y19590826D01*
X5845605Y19590823D01*
X5845606Y19590821D01*
X5876407Y19544724D01*
X5923974Y19473534D01*
X5933211Y19459711D01*
X6044711Y19348211D01*
X6175821Y19260606D01*
X6175826Y19260604D01*
X6175825Y19260604D01*
X6321498Y19200265D01*
X6321503Y19200263D01*
X6321507Y19200263D01*
X6321511Y19200261D01*
X6334020Y19197773D01*
X6381113Y19166308D01*
X6392163Y19110760D01*
X6360698Y19063667D01*
X6356586Y19061109D01*
X6251635Y19000515D01*
X6144483Y18893363D01*
X6068721Y18762140D01*
X6068717Y18762131D01*
X6029500Y18615769D01*
X6029500Y18464232D01*
X6068717Y18317870D01*
X6068721Y18317861D01*
X6137922Y18198002D01*
X6144485Y18186635D01*
X6251635Y18079485D01*
X6382865Y18003719D01*
X6529231Y17964501D01*
X6529232Y17964500D01*
X6529234Y17964500D01*
X6680768Y17964500D01*
X6680768Y17964501D01*
X6827135Y18003719D01*
X6843503Y18013169D01*
X15422050Y18013169D01*
X15422050Y17786831D01*
X15453266Y17589743D01*
X15457458Y17563280D01*
X15457460Y17563269D01*
X15527397Y17348025D01*
X15527399Y17348020D01*
X15527400Y17348019D01*
X15532951Y17337125D01*
X15630154Y17146350D01*
X15763189Y16963244D01*
X15763193Y16963239D01*
X15923239Y16803193D01*
X15923242Y16803191D01*
X15923243Y16803190D01*
X16106349Y16670155D01*
X16203552Y16620628D01*
X16308019Y16567400D01*
X16308021Y16567400D01*
X16308024Y16567398D01*
X16523268Y16497461D01*
X16523272Y16497461D01*
X16523279Y16497458D01*
X16716263Y16466892D01*
X16746830Y16462050D01*
X16746831Y16462050D01*
X16973170Y16462050D01*
X17000059Y16466310D01*
X17196721Y16497458D01*
X17196729Y16497461D01*
X17196731Y16497461D01*
X17411975Y16567398D01*
X17411975Y16567399D01*
X17411981Y16567400D01*
X17613650Y16670155D01*
X17796761Y16803193D01*
X17956807Y16963239D01*
X18089845Y17146350D01*
X18192600Y17348019D01*
X18217476Y17424580D01*
X18262539Y17563269D01*
X18262539Y17563271D01*
X18262542Y17563279D01*
X18297950Y17786831D01*
X18297950Y17973455D01*
X18654200Y17973455D01*
X18654200Y17826545D01*
X18655568Y17819669D01*
X18682858Y17682465D01*
X18682861Y17682454D01*
X18739078Y17546734D01*
X18739079Y17546732D01*
X18739080Y17546731D01*
X18820699Y17424580D01*
X18924580Y17320699D01*
X19046731Y17239080D01*
X19046732Y17239080D01*
X19046733Y17239079D01*
X19128341Y17205276D01*
X19182458Y17182860D01*
X19326545Y17154200D01*
X19473455Y17154200D01*
X19617542Y17182860D01*
X19753269Y17239080D01*
X19875420Y17320699D01*
X19979301Y17424580D01*
X20060920Y17546731D01*
X20117140Y17682458D01*
X20145800Y17826545D01*
X20145800Y17973455D01*
X20145800Y17973456D01*
X20140194Y18001642D01*
X20137901Y18013169D01*
X20502050Y18013169D01*
X20502050Y17786831D01*
X20533266Y17589743D01*
X20537458Y17563280D01*
X20537460Y17563269D01*
X20607397Y17348025D01*
X20607399Y17348020D01*
X20607400Y17348019D01*
X20612951Y17337125D01*
X20710154Y17146350D01*
X20843189Y16963244D01*
X20843193Y16963239D01*
X21003239Y16803193D01*
X21003242Y16803191D01*
X21003243Y16803190D01*
X21186349Y16670155D01*
X21283552Y16620628D01*
X21388019Y16567400D01*
X21388021Y16567400D01*
X21388024Y16567398D01*
X21603268Y16497461D01*
X21603272Y16497461D01*
X21603279Y16497458D01*
X21796263Y16466892D01*
X21826830Y16462050D01*
X21826831Y16462050D01*
X22053170Y16462050D01*
X22080059Y16466310D01*
X22276721Y16497458D01*
X22276729Y16497461D01*
X22276731Y16497461D01*
X22491975Y16567398D01*
X22491975Y16567399D01*
X22491981Y16567400D01*
X22693650Y16670155D01*
X22876761Y16803193D01*
X23036807Y16963239D01*
X23169845Y17146350D01*
X23272600Y17348019D01*
X23283887Y17382756D01*
X23311932Y17469069D01*
X23799500Y17469069D01*
X23799500Y17340931D01*
X23803525Y17320699D01*
X23824497Y17215261D01*
X23824498Y17215258D01*
X23866163Y17114669D01*
X23873535Y17096873D01*
X23921207Y17025527D01*
X23940912Y16996035D01*
X23944724Y16990331D01*
X24035331Y16899724D01*
X24141873Y16828535D01*
X24260256Y16779499D01*
X24260258Y16779499D01*
X24260260Y16779498D01*
X24285392Y16774499D01*
X24385931Y16754500D01*
X24385933Y16754500D01*
X24514067Y16754500D01*
X24514069Y16754500D01*
X24639744Y16779499D01*
X24758127Y16828535D01*
X24864669Y16899724D01*
X24955276Y16990331D01*
X25026465Y17096873D01*
X25075501Y17215256D01*
X25100500Y17340931D01*
X25100500Y17469069D01*
X25076497Y17589739D01*
X25075502Y17594740D01*
X25075500Y17594747D01*
X25057010Y17639386D01*
X25046786Y17664068D01*
X28049500Y17664068D01*
X28049500Y17535933D01*
X28074497Y17410261D01*
X28074498Y17410258D01*
X28111595Y17320697D01*
X28123535Y17291873D01*
X28141910Y17264373D01*
X28181396Y17205277D01*
X28194724Y17185331D01*
X28285331Y17094724D01*
X28391873Y17023535D01*
X28510256Y16974499D01*
X28510258Y16974499D01*
X28510260Y16974498D01*
X28552903Y16966016D01*
X28635931Y16949500D01*
X28635933Y16949500D01*
X28764067Y16949500D01*
X28764069Y16949500D01*
X28889744Y16974499D01*
X28990088Y17016063D01*
X29046724Y17016063D01*
X29086773Y16976015D01*
X29086774Y16919379D01*
X29074498Y16889742D01*
X29074497Y16889740D01*
X29049500Y16764068D01*
X29049500Y16635933D01*
X29074497Y16510261D01*
X29074498Y16510258D01*
X29099886Y16448965D01*
X29123535Y16391873D01*
X29194724Y16285331D01*
X29285331Y16194724D01*
X29391873Y16123535D01*
X29510256Y16074499D01*
X29510258Y16074499D01*
X29510260Y16074498D01*
X29552903Y16066016D01*
X29635931Y16049500D01*
X29635933Y16049500D01*
X29764067Y16049500D01*
X29764069Y16049500D01*
X29889744Y16074499D01*
X30008127Y16123535D01*
X30114669Y16194724D01*
X30205276Y16285331D01*
X30276465Y16391873D01*
X30325501Y16510256D01*
X30350500Y16635931D01*
X30350500Y16764068D01*
X31249500Y16764068D01*
X31249500Y16635933D01*
X31274497Y16510261D01*
X31274498Y16510258D01*
X31299886Y16448965D01*
X31323535Y16391873D01*
X31394724Y16285331D01*
X31485331Y16194724D01*
X31591873Y16123535D01*
X31710256Y16074499D01*
X31710258Y16074499D01*
X31710260Y16074498D01*
X31752903Y16066016D01*
X31835931Y16049500D01*
X31835933Y16049500D01*
X31964067Y16049500D01*
X31964069Y16049500D01*
X32089744Y16074499D01*
X32208127Y16123535D01*
X32314669Y16194724D01*
X32405276Y16285331D01*
X32476465Y16391873D01*
X32525501Y16510256D01*
X32550500Y16635931D01*
X32550500Y16764069D01*
X32526062Y16886924D01*
X32537111Y16942472D01*
X32584203Y16973938D01*
X32613076Y16973938D01*
X32735931Y16949500D01*
X32735933Y16949500D01*
X32864067Y16949500D01*
X32864069Y16949500D01*
X32989744Y16974499D01*
X33108127Y17023535D01*
X33214669Y17094724D01*
X33305276Y17185331D01*
X33376465Y17291873D01*
X33425501Y17410256D01*
X33436205Y17464069D01*
X35819500Y17464069D01*
X35819500Y17335931D01*
X35826586Y17300304D01*
X35844497Y17210261D01*
X35844498Y17210258D01*
X35892353Y17094725D01*
X35893535Y17091873D01*
X35939197Y17023535D01*
X35961383Y16990330D01*
X35964724Y16985331D01*
X36055331Y16894724D01*
X36161873Y16823535D01*
X36280256Y16774499D01*
X36280258Y16774499D01*
X36280260Y16774498D01*
X36322903Y16766016D01*
X36405931Y16749500D01*
X36405933Y16749500D01*
X36534067Y16749500D01*
X36534069Y16749500D01*
X36659744Y16774499D01*
X36778127Y16823535D01*
X36884669Y16894724D01*
X36975276Y16985331D01*
X37046465Y17091873D01*
X37095501Y17210256D01*
X37120500Y17335931D01*
X37120500Y17464069D01*
X37095501Y17589744D01*
X37076105Y17636568D01*
X41849500Y17636568D01*
X41849500Y17508433D01*
X41874497Y17382761D01*
X41874498Y17382758D01*
X41900204Y17320697D01*
X41923535Y17264373D01*
X41994724Y17157831D01*
X42085331Y17067224D01*
X42191873Y16996035D01*
X42310256Y16946999D01*
X42310258Y16946999D01*
X42310260Y16946998D01*
X42333014Y16942472D01*
X42435931Y16922000D01*
X42435933Y16922000D01*
X42564067Y16922000D01*
X42564069Y16922000D01*
X42689744Y16946999D01*
X42808127Y16996035D01*
X42914669Y17067224D01*
X43005276Y17157831D01*
X43076465Y17264373D01*
X43125501Y17382756D01*
X43150500Y17508431D01*
X43150500Y17636569D01*
X43125501Y17762244D01*
X43076465Y17880627D01*
X43005276Y17987169D01*
X42914669Y18077776D01*
X42912111Y18079485D01*
X42855147Y18117547D01*
X42808127Y18148965D01*
X42808124Y18148967D01*
X42808123Y18148967D01*
X42689742Y18198002D01*
X42689739Y18198003D01*
X42599696Y18215914D01*
X42564069Y18223000D01*
X42435931Y18223000D01*
X42404726Y18216793D01*
X42310260Y18198003D01*
X42310257Y18198002D01*
X42191876Y18148967D01*
X42085331Y18077777D01*
X42085330Y18077775D01*
X41994725Y17987170D01*
X41994723Y17987169D01*
X41923533Y17880624D01*
X41874498Y17762243D01*
X41874497Y17762240D01*
X41858628Y17682458D01*
X41850061Y17639386D01*
X41849500Y17636568D01*
X37076105Y17636568D01*
X37076105Y17636569D01*
X37046466Y17708124D01*
X37046465Y17708127D01*
X36975276Y17814669D01*
X36884669Y17905276D01*
X36880402Y17908127D01*
X36849473Y17928793D01*
X36778127Y17976465D01*
X36778124Y17976467D01*
X36778123Y17976467D01*
X36659742Y18025502D01*
X36659739Y18025503D01*
X36569696Y18043414D01*
X36534069Y18050500D01*
X36405931Y18050500D01*
X36374726Y18044293D01*
X36280260Y18025503D01*
X36280257Y18025502D01*
X36161876Y17976467D01*
X36055331Y17905277D01*
X36055330Y17905275D01*
X35964725Y17814670D01*
X35964723Y17814669D01*
X35893533Y17708124D01*
X35844498Y17589743D01*
X35844497Y17589740D01*
X35828324Y17508431D01*
X35819500Y17464069D01*
X33436205Y17464069D01*
X33450500Y17535931D01*
X33450500Y17664069D01*
X33430972Y17762240D01*
X33425502Y17789740D01*
X33425501Y17789743D01*
X33415176Y17814669D01*
X33376465Y17908127D01*
X33305276Y18014669D01*
X33214669Y18105276D01*
X33108127Y18176465D01*
X33108124Y18176467D01*
X33108123Y18176467D01*
X32989742Y18225502D01*
X32989739Y18225503D01*
X32899696Y18243414D01*
X32864069Y18250500D01*
X32735931Y18250500D01*
X32704726Y18244293D01*
X32610260Y18225503D01*
X32610257Y18225502D01*
X32491876Y18176467D01*
X32385331Y18105277D01*
X32385330Y18105275D01*
X32294725Y18014670D01*
X32294723Y18014669D01*
X32223533Y17908124D01*
X32174498Y17789743D01*
X32174497Y17789740D01*
X32149500Y17664068D01*
X32149500Y17535933D01*
X32173937Y17413078D01*
X32162888Y17357529D01*
X32115796Y17326063D01*
X32086922Y17326063D01*
X32010541Y17341256D01*
X31964069Y17350500D01*
X31835931Y17350500D01*
X31804726Y17344293D01*
X31710260Y17325503D01*
X31710257Y17325502D01*
X31591876Y17276467D01*
X31485331Y17205277D01*
X31485330Y17205275D01*
X31394725Y17114670D01*
X31394723Y17114669D01*
X31323533Y17008124D01*
X31274498Y16889743D01*
X31274497Y16889740D01*
X31249500Y16764068D01*
X30350500Y16764068D01*
X30350500Y16764069D01*
X30325987Y16887303D01*
X30331627Y16914905D01*
X30337111Y16942472D01*
X30337285Y16942589D01*
X30337327Y16942793D01*
X30360806Y16958305D01*
X30384203Y16973938D01*
X30384469Y16973938D01*
X30384583Y16974013D01*
X30411187Y16974289D01*
X30412110Y16974131D01*
X30535931Y16949500D01*
X30555270Y16949500D01*
X30664067Y16949500D01*
X30664069Y16949500D01*
X30789744Y16974499D01*
X30908127Y17023535D01*
X31014669Y17094724D01*
X31105276Y17185331D01*
X31176465Y17291873D01*
X31225501Y17410256D01*
X31250500Y17535931D01*
X31250500Y17664069D01*
X31230972Y17762240D01*
X31225502Y17789740D01*
X31225501Y17789743D01*
X31215176Y17814669D01*
X31176465Y17908127D01*
X31105276Y18014669D01*
X31014669Y18105276D01*
X30908127Y18176465D01*
X30908124Y18176467D01*
X30908123Y18176467D01*
X30789742Y18225502D01*
X30789739Y18225503D01*
X30699696Y18243414D01*
X30664069Y18250500D01*
X30535931Y18250500D01*
X30504726Y18244293D01*
X30410260Y18225503D01*
X30410257Y18225502D01*
X30291876Y18176467D01*
X30185331Y18105277D01*
X30185330Y18105275D01*
X30094725Y18014670D01*
X30094723Y18014669D01*
X30023533Y17908124D01*
X29974498Y17789743D01*
X29974497Y17789740D01*
X29949500Y17664068D01*
X29949500Y17535933D01*
X29973937Y17413078D01*
X29962888Y17357529D01*
X29915796Y17326063D01*
X29886922Y17326063D01*
X29810541Y17341256D01*
X29764069Y17350500D01*
X29635931Y17350500D01*
X29604726Y17344293D01*
X29510260Y17325503D01*
X29510253Y17325501D01*
X29409911Y17283938D01*
X29353274Y17283938D01*
X29313226Y17323987D01*
X29313226Y17380622D01*
X29325501Y17410256D01*
X29350500Y17535931D01*
X29350500Y17664069D01*
X29330972Y17762240D01*
X29325502Y17789740D01*
X29325501Y17789743D01*
X29315176Y17814669D01*
X29276465Y17908127D01*
X29205276Y18014669D01*
X29114669Y18105276D01*
X29008127Y18176465D01*
X29008124Y18176467D01*
X29008123Y18176467D01*
X28889742Y18225502D01*
X28889739Y18225503D01*
X28799696Y18243414D01*
X28764069Y18250500D01*
X28635931Y18250500D01*
X28604726Y18244293D01*
X28510260Y18225503D01*
X28510257Y18225502D01*
X28391876Y18176467D01*
X28285331Y18105277D01*
X28285330Y18105275D01*
X28194725Y18014670D01*
X28194723Y18014669D01*
X28123533Y17908124D01*
X28074498Y17789743D01*
X28074497Y17789740D01*
X28049500Y17664068D01*
X25046786Y17664068D01*
X25026466Y17713124D01*
X25026465Y17713127D01*
X24955276Y17819669D01*
X24864669Y17910276D01*
X24758127Y17981465D01*
X24758124Y17981467D01*
X24758123Y17981467D01*
X24639742Y18030502D01*
X24639739Y18030503D01*
X24549696Y18048414D01*
X24514069Y18055500D01*
X24385931Y18055500D01*
X24360795Y18050500D01*
X24260260Y18030503D01*
X24260257Y18030502D01*
X24141876Y17981467D01*
X24035331Y17910277D01*
X24035330Y17910275D01*
X23944725Y17819670D01*
X23944723Y17819669D01*
X23873533Y17713124D01*
X23824498Y17594743D01*
X23824497Y17594740D01*
X23807330Y17508433D01*
X23799500Y17469069D01*
X23311932Y17469069D01*
X23320543Y17495571D01*
X23342539Y17563269D01*
X23342539Y17563271D01*
X23342542Y17563279D01*
X23377950Y17786831D01*
X23377950Y18013169D01*
X23377712Y18014669D01*
X23361419Y18117536D01*
X23342542Y18236721D01*
X23342539Y18236728D01*
X23342539Y18236732D01*
X23272602Y18451976D01*
X23272600Y18451979D01*
X23272600Y18451981D01*
X23189147Y18615768D01*
X23169845Y18653651D01*
X23036810Y18836757D01*
X23036809Y18836758D01*
X23036807Y18836761D01*
X22876761Y18996807D01*
X22876758Y18996810D01*
X22876756Y18996811D01*
X22693650Y19129846D01*
X22491975Y19232603D01*
X22276731Y19302540D01*
X22276722Y19302542D01*
X22276721Y19302542D01*
X22164945Y19320246D01*
X22053170Y19337950D01*
X22053169Y19337950D01*
X21826831Y19337950D01*
X21826830Y19337950D01*
X21603279Y19302542D01*
X21603268Y19302540D01*
X21388024Y19232603D01*
X21186349Y19129846D01*
X21003243Y18996811D01*
X20843189Y18836757D01*
X20710154Y18653651D01*
X20607397Y18451976D01*
X20537460Y18236732D01*
X20537458Y18236721D01*
X20502288Y18014669D01*
X20502050Y18013169D01*
X20137901Y18013169D01*
X20119580Y18105276D01*
X20117140Y18117542D01*
X20092733Y18176465D01*
X20060921Y18253267D01*
X19979303Y18375417D01*
X19979301Y18375420D01*
X19875420Y18479301D01*
X19753269Y18560920D01*
X19753268Y18560921D01*
X19753266Y18560922D01*
X19617546Y18617139D01*
X19617535Y18617142D01*
X19473455Y18645800D01*
X19326545Y18645800D01*
X19182464Y18617142D01*
X19182453Y18617139D01*
X19046733Y18560922D01*
X18924583Y18479304D01*
X18820696Y18375417D01*
X18739078Y18253267D01*
X18682861Y18117547D01*
X18682858Y18117536D01*
X18656928Y17987170D01*
X18654200Y17973455D01*
X18297950Y17973455D01*
X18297950Y18013169D01*
X18297712Y18014669D01*
X18281419Y18117536D01*
X18262542Y18236721D01*
X18262539Y18236728D01*
X18262539Y18236732D01*
X18192602Y18451976D01*
X18192600Y18451979D01*
X18192600Y18451981D01*
X18109147Y18615768D01*
X18089845Y18653651D01*
X17956810Y18836757D01*
X17956809Y18836758D01*
X17956807Y18836761D01*
X17796761Y18996807D01*
X17796758Y18996810D01*
X17796756Y18996811D01*
X17613650Y19129846D01*
X17411975Y19232603D01*
X17196731Y19302540D01*
X17196722Y19302542D01*
X17196721Y19302542D01*
X17084945Y19320246D01*
X16973170Y19337950D01*
X16973169Y19337950D01*
X16746831Y19337950D01*
X16746830Y19337950D01*
X16523279Y19302542D01*
X16523268Y19302540D01*
X16308024Y19232603D01*
X16106349Y19129846D01*
X15923243Y18996811D01*
X15763189Y18836757D01*
X15630154Y18653651D01*
X15527397Y18451976D01*
X15457460Y18236732D01*
X15457458Y18236721D01*
X15422288Y18014669D01*
X15422050Y18013169D01*
X6843503Y18013169D01*
X6958365Y18079485D01*
X7065515Y18186635D01*
X7141281Y18317865D01*
X7180499Y18464232D01*
X7180500Y18464232D01*
X7180500Y18615768D01*
X7180499Y18615769D01*
X7172452Y18645800D01*
X7141281Y18762135D01*
X7065515Y18893365D01*
X6958365Y19000515D01*
X6954530Y19002729D01*
X6904847Y19031414D01*
X6870368Y19076348D01*
X6877761Y19132500D01*
X6922695Y19166979D01*
X6941847Y19169500D01*
X7733840Y19169500D01*
X7733842Y19169500D01*
X7888497Y19200263D01*
X8034179Y19260606D01*
X8165289Y19348211D01*
X8223174Y19406096D01*
X8275500Y19427770D01*
X8327826Y19406096D01*
X8349500Y19353770D01*
X8349500Y19235933D01*
X8374497Y19110261D01*
X8374498Y19110258D01*
X8422353Y18994725D01*
X8423535Y18991873D01*
X8494724Y18885331D01*
X8585331Y18794724D01*
X8691873Y18723535D01*
X8810256Y18674499D01*
X8810258Y18674499D01*
X8810260Y18674498D01*
X8852903Y18666016D01*
X8935931Y18649500D01*
X8935933Y18649500D01*
X9064067Y18649500D01*
X9064069Y18649500D01*
X9189744Y18674499D01*
X9308127Y18723535D01*
X9414669Y18794724D01*
X9505276Y18885331D01*
X9576465Y18991873D01*
X9625501Y19110256D01*
X9650500Y19235931D01*
X9650500Y19364069D01*
X9631475Y19459712D01*
X9625502Y19489740D01*
X9625501Y19489743D01*
X9613082Y19519724D01*
X9576465Y19608127D01*
X9505276Y19714669D01*
X9414669Y19805276D01*
X9410402Y19808127D01*
X9352663Y19846707D01*
X9308127Y19876465D01*
X9308124Y19876467D01*
X9308123Y19876467D01*
X9189742Y19925502D01*
X9189739Y19925503D01*
X9099696Y19943414D01*
X9064069Y19950500D01*
X8935931Y19950500D01*
X8904726Y19944293D01*
X8810260Y19925503D01*
X8810257Y19925502D01*
X8691876Y19876467D01*
X8585331Y19805277D01*
X8585328Y19805275D01*
X8574430Y19794376D01*
X8522103Y19772704D01*
X8469778Y19794380D01*
X8448106Y19846707D01*
X8449526Y19861128D01*
X8455500Y19891158D01*
X8455500Y20048842D01*
X8424737Y20203497D01*
X8364394Y20349179D01*
X8276789Y20480289D01*
X8165289Y20591789D01*
X8034179Y20679394D01*
X8034175Y20679396D01*
X8034173Y20679397D01*
X8034174Y20679397D01*
X7888501Y20739736D01*
X7888491Y20739739D01*
X7784925Y20760339D01*
X7733842Y20770500D01*
X6476158Y20770500D01*
X6432315Y20761780D01*
X6321508Y20739739D01*
X6321498Y20739736D01*
X6175825Y20679397D01*
X6044711Y20591790D01*
X6044710Y20591788D01*
X5933212Y20480290D01*
X5933210Y20480289D01*
X5845603Y20349175D01*
X5785264Y20203502D01*
X5785261Y20203492D01*
X5761514Y20084106D01*
X5754500Y20048842D01*
X4125500Y20048842D01*
X4094737Y20203497D01*
X4034394Y20349179D01*
X3946789Y20480289D01*
X3835289Y20591789D01*
X3704179Y20679394D01*
X3704175Y20679396D01*
X3704173Y20679397D01*
X3704174Y20679397D01*
X3558501Y20739736D01*
X3558491Y20739739D01*
X3454925Y20760339D01*
X3403842Y20770500D01*
X2446158Y20770500D01*
X2402315Y20761780D01*
X2291508Y20739739D01*
X2291498Y20739736D01*
X2145825Y20679397D01*
X2014711Y20591790D01*
X2014710Y20591788D01*
X1903212Y20480290D01*
X1903210Y20480289D01*
X1815603Y20349175D01*
X1755264Y20203502D01*
X1755261Y20203492D01*
X1731514Y20084106D01*
X1724500Y20048842D01*
X307607Y20048842D01*
X307607Y21689068D01*
X6674500Y21689068D01*
X6674500Y21560933D01*
X6699497Y21435261D01*
X6699498Y21435258D01*
X6699499Y21435256D01*
X6748535Y21316873D01*
X6796207Y21245527D01*
X6814948Y21217478D01*
X6819724Y21210331D01*
X6910331Y21119724D01*
X7016873Y21048535D01*
X7135256Y20999499D01*
X7135258Y20999499D01*
X7135260Y20999498D01*
X7143284Y20997902D01*
X7260931Y20974500D01*
X7260933Y20974500D01*
X7389067Y20974500D01*
X7389069Y20974500D01*
X7514744Y20999499D01*
X7633127Y21048535D01*
X7739669Y21119724D01*
X7830276Y21210331D01*
X7901465Y21316873D01*
X7950501Y21435256D01*
X7975500Y21560931D01*
X7975500Y21689069D01*
X7950501Y21814744D01*
X7901465Y21933127D01*
X7830276Y22039669D01*
X7739669Y22130276D01*
X7737400Y22131792D01*
X7704473Y22153793D01*
X7633127Y22201465D01*
X7633124Y22201467D01*
X7633123Y22201467D01*
X7514742Y22250502D01*
X7514739Y22250503D01*
X7424696Y22268414D01*
X7389069Y22275500D01*
X7260931Y22275500D01*
X7229726Y22269293D01*
X7135260Y22250503D01*
X7135257Y22250502D01*
X7016876Y22201467D01*
X6910331Y22130277D01*
X6910330Y22130275D01*
X6819725Y22039670D01*
X6819723Y22039669D01*
X6748533Y21933124D01*
X6699498Y21814743D01*
X6699497Y21814740D01*
X6674500Y21689068D01*
X307607Y21689068D01*
X307607Y24489255D01*
X307963Y24496508D01*
X308663Y24503616D01*
X320334Y24622113D01*
X323161Y24636327D01*
X358739Y24753613D01*
X364290Y24767011D01*
X364652Y24767687D01*
X422057Y24875086D01*
X430116Y24887147D01*
X506752Y24980527D01*
X507863Y24981882D01*
X518120Y24992138D01*
X576038Y25039670D01*
X612853Y25069885D01*
X624915Y25077943D01*
X643871Y25088075D01*
X732992Y25135712D01*
X746387Y25141261D01*
X863673Y25176839D01*
X877887Y25179666D01*
X1003492Y25192037D01*
X1010730Y25192393D01*
X1054701Y25192393D01*
X1054722Y25192401D01*
X11382693Y25193947D01*
X11435021Y25172281D01*
X11456703Y25119958D01*
X11435037Y25067629D01*
X11407144Y25050100D01*
X11208318Y24980528D01*
X10955285Y24858674D01*
X10717477Y24709249D01*
X10497901Y24534143D01*
X10299309Y24335551D01*
X10124203Y24115975D01*
X9974778Y23878167D01*
X9852924Y23625134D01*
X9760168Y23360052D01*
X9760163Y23360036D01*
X9697671Y23086240D01*
X9697671Y23086239D01*
X9697671Y23086235D01*
X9673815Y22874500D01*
X9666226Y22807148D01*
X9666226Y22526305D01*
X9697671Y22247214D01*
X9697671Y22247213D01*
X9760163Y21973417D01*
X9760168Y21973401D01*
X9852924Y21708319D01*
X9974778Y21455286D01*
X9974780Y21455282D01*
X9974781Y21455281D01*
X9987362Y21435258D01*
X10124203Y21217478D01*
X10298035Y20999499D01*
X10299310Y20997901D01*
X10497901Y20799310D01*
X10717478Y20624203D01*
X10955281Y20474781D01*
X11208318Y20352925D01*
X11473408Y20260166D01*
X11473413Y20260165D01*
X11473416Y20260164D01*
X11747212Y20197672D01*
X11747213Y20197672D01*
X11747217Y20197671D01*
X12026301Y20166226D01*
X12026305Y20166226D01*
X12307147Y20166226D01*
X12307151Y20166226D01*
X12586235Y20197671D01*
X12860044Y20260166D01*
X13125134Y20352925D01*
X13304012Y20439068D01*
X25874500Y20439068D01*
X25874500Y20310933D01*
X25899497Y20185261D01*
X25899498Y20185258D01*
X25939341Y20089068D01*
X25948535Y20066873D01*
X25996207Y19995527D01*
X26019321Y19960933D01*
X26019724Y19960331D01*
X26110331Y19869724D01*
X26216873Y19798535D01*
X26335256Y19749499D01*
X26335258Y19749499D01*
X26335260Y19749498D01*
X26373573Y19741877D01*
X26460931Y19724500D01*
X26460933Y19724500D01*
X26589067Y19724500D01*
X26589069Y19724500D01*
X26714744Y19749499D01*
X26833127Y19798535D01*
X26939669Y19869724D01*
X27030276Y19960331D01*
X27101465Y20066873D01*
X27121014Y20114069D01*
X31174500Y20114069D01*
X31174500Y19985931D01*
X31180683Y19954846D01*
X31199497Y19860261D01*
X31199498Y19860258D01*
X31245376Y19749498D01*
X31248535Y19741873D01*
X31283367Y19689743D01*
X31300071Y19664743D01*
X31319724Y19635331D01*
X31410331Y19544724D01*
X31516873Y19473535D01*
X31635256Y19424499D01*
X31635258Y19424499D01*
X31635260Y19424498D01*
X31677903Y19416016D01*
X31760931Y19399500D01*
X31760933Y19399500D01*
X31889067Y19399500D01*
X31889069Y19399500D01*
X32014744Y19424499D01*
X32133127Y19473535D01*
X32239669Y19544724D01*
X32272673Y19577729D01*
X32324997Y19599404D01*
X32377323Y19577731D01*
X32377325Y19577730D01*
X32435331Y19519724D01*
X32541873Y19448535D01*
X32660256Y19399499D01*
X32660258Y19399499D01*
X32660260Y19399498D01*
X32702903Y19391016D01*
X32785931Y19374500D01*
X32785933Y19374500D01*
X32914067Y19374500D01*
X32914069Y19374500D01*
X33039744Y19399499D01*
X33158127Y19448535D01*
X33264669Y19519724D01*
X33355276Y19610331D01*
X33426465Y19716873D01*
X33475501Y19835256D01*
X33500500Y19960931D01*
X33500500Y20089069D01*
X40649500Y20089069D01*
X40649500Y19960931D01*
X40651556Y19950597D01*
X40674497Y19835261D01*
X40674498Y19835258D01*
X40720375Y19724500D01*
X40723535Y19716873D01*
X40758367Y19664743D01*
X40778019Y19635331D01*
X40794724Y19610331D01*
X40885331Y19519724D01*
X40991873Y19448535D01*
X41110256Y19399499D01*
X41110258Y19399499D01*
X41110260Y19399498D01*
X41152903Y19391016D01*
X41235931Y19374500D01*
X41235933Y19374500D01*
X41364067Y19374500D01*
X41364069Y19374500D01*
X41489744Y19399499D01*
X41608127Y19448535D01*
X41714669Y19519724D01*
X41805276Y19610331D01*
X41876465Y19716873D01*
X41925501Y19835256D01*
X41939922Y19907755D01*
X41971388Y19954846D01*
X42026937Y19965895D01*
X42074029Y19934429D01*
X42085078Y19907754D01*
X42099497Y19835261D01*
X42099498Y19835258D01*
X42145375Y19724500D01*
X42148535Y19716873D01*
X42183367Y19664743D01*
X42203019Y19635331D01*
X42219724Y19610331D01*
X42310331Y19519724D01*
X42416873Y19448535D01*
X42535256Y19399499D01*
X42535258Y19399499D01*
X42535260Y19399498D01*
X42577903Y19391016D01*
X42660931Y19374500D01*
X42660933Y19374500D01*
X42789067Y19374500D01*
X42789069Y19374500D01*
X42914744Y19399499D01*
X43033127Y19448535D01*
X43139669Y19519724D01*
X43159013Y19539068D01*
X44749500Y19539068D01*
X44749500Y19410933D01*
X44774497Y19285261D01*
X44774498Y19285258D01*
X44813179Y19191873D01*
X44823535Y19166873D01*
X44861362Y19110261D01*
X44884066Y19076281D01*
X44894724Y19060331D01*
X44985331Y18969724D01*
X45091873Y18898535D01*
X45210256Y18849499D01*
X45210258Y18849499D01*
X45210260Y18849498D01*
X45252903Y18841016D01*
X45335931Y18824500D01*
X45335933Y18824500D01*
X45464067Y18824500D01*
X45464069Y18824500D01*
X45589744Y18849499D01*
X45708127Y18898535D01*
X45814669Y18969724D01*
X45847674Y19002729D01*
X45900000Y19024403D01*
X45952326Y19002729D01*
X45960331Y18994724D01*
X46066873Y18923535D01*
X46185256Y18874499D01*
X46185258Y18874499D01*
X46185260Y18874498D01*
X46227903Y18866016D01*
X46310931Y18849500D01*
X46310933Y18849500D01*
X46439067Y18849500D01*
X46439069Y18849500D01*
X46564744Y18874499D01*
X46683127Y18923535D01*
X46789669Y18994724D01*
X46847674Y19052729D01*
X46900000Y19074403D01*
X46952326Y19052729D01*
X47010331Y18994724D01*
X47116873Y18923535D01*
X47235256Y18874499D01*
X47235258Y18874499D01*
X47235260Y18874498D01*
X47277903Y18866016D01*
X47360931Y18849500D01*
X47360933Y18849500D01*
X47489067Y18849500D01*
X47489069Y18849500D01*
X47614744Y18874499D01*
X47733127Y18923535D01*
X47839669Y18994724D01*
X47930276Y19085331D01*
X48001465Y19191873D01*
X48050501Y19310256D01*
X48075500Y19435931D01*
X48075500Y19564069D01*
X48050501Y19689744D01*
X48001465Y19808127D01*
X47930276Y19914669D01*
X47839669Y20005276D01*
X47733127Y20076465D01*
X47733124Y20076467D01*
X47733123Y20076467D01*
X47614742Y20125502D01*
X47614739Y20125503D01*
X47524696Y20143414D01*
X47489069Y20150500D01*
X47360931Y20150500D01*
X47329726Y20144293D01*
X47235260Y20125503D01*
X47235257Y20125502D01*
X47116876Y20076467D01*
X47010331Y20005277D01*
X47010330Y20005275D01*
X46952326Y19947271D01*
X46900000Y19925597D01*
X46847674Y19947271D01*
X46789668Y20005277D01*
X46724469Y20048841D01*
X46683127Y20076465D01*
X46683124Y20076467D01*
X46683123Y20076467D01*
X46564742Y20125502D01*
X46564739Y20125503D01*
X46474696Y20143414D01*
X46439069Y20150500D01*
X46310931Y20150500D01*
X46279726Y20144293D01*
X46185260Y20125503D01*
X46185257Y20125502D01*
X46066876Y20076467D01*
X45960331Y20005277D01*
X45960330Y20005275D01*
X45927326Y19972271D01*
X45875000Y19950597D01*
X45822674Y19972271D01*
X45814668Y19980277D01*
X45777252Y20005277D01*
X45708127Y20051465D01*
X45708124Y20051467D01*
X45708123Y20051467D01*
X45589742Y20100502D01*
X45589739Y20100503D01*
X45499696Y20118414D01*
X45464069Y20125500D01*
X45335931Y20125500D01*
X45304726Y20119293D01*
X45210260Y20100503D01*
X45210257Y20100502D01*
X45091876Y20051467D01*
X44985331Y19980277D01*
X44985330Y19980275D01*
X44894725Y19889670D01*
X44894723Y19889669D01*
X44823533Y19783124D01*
X44774498Y19664743D01*
X44774497Y19664740D01*
X44749500Y19539068D01*
X43159013Y19539068D01*
X43230276Y19610331D01*
X43301465Y19716873D01*
X43350501Y19835256D01*
X43375500Y19960931D01*
X43375500Y20089069D01*
X43350501Y20214744D01*
X43301465Y20333127D01*
X43230276Y20439669D01*
X43139669Y20530276D01*
X43033127Y20601465D01*
X43033124Y20601467D01*
X43033123Y20601467D01*
X42914742Y20650502D01*
X42914739Y20650503D01*
X42824696Y20668414D01*
X42789069Y20675500D01*
X42660931Y20675500D01*
X42629726Y20669293D01*
X42535260Y20650503D01*
X42535257Y20650502D01*
X42416876Y20601467D01*
X42310331Y20530277D01*
X42310330Y20530275D01*
X42219725Y20439670D01*
X42219723Y20439669D01*
X42148533Y20333124D01*
X42099498Y20214743D01*
X42099497Y20214740D01*
X42085078Y20142247D01*
X42053612Y20095155D01*
X41998063Y20084106D01*
X41950971Y20115572D01*
X41939922Y20142247D01*
X41925502Y20214740D01*
X41925501Y20214743D01*
X41915145Y20239744D01*
X41876465Y20333127D01*
X41805276Y20439669D01*
X41714669Y20530276D01*
X41608127Y20601465D01*
X41608124Y20601467D01*
X41608123Y20601467D01*
X41489742Y20650502D01*
X41489739Y20650503D01*
X41399696Y20668414D01*
X41364069Y20675500D01*
X41235931Y20675500D01*
X41204726Y20669293D01*
X41110260Y20650503D01*
X41110257Y20650502D01*
X40991876Y20601467D01*
X40885331Y20530277D01*
X40885330Y20530275D01*
X40794725Y20439670D01*
X40794723Y20439669D01*
X40723533Y20333124D01*
X40674498Y20214743D01*
X40674497Y20214740D01*
X40660829Y20146024D01*
X40649500Y20089069D01*
X33500500Y20089069D01*
X33475501Y20214744D01*
X33426465Y20333127D01*
X33355276Y20439669D01*
X33264669Y20530276D01*
X33158127Y20601465D01*
X33158124Y20601467D01*
X33158123Y20601467D01*
X33039742Y20650502D01*
X33039739Y20650503D01*
X32949696Y20668414D01*
X32914069Y20675500D01*
X32785931Y20675500D01*
X32754726Y20669293D01*
X32660260Y20650503D01*
X32660257Y20650502D01*
X32541876Y20601467D01*
X32435331Y20530277D01*
X32435323Y20530270D01*
X32402323Y20497271D01*
X32349997Y20475598D01*
X32297673Y20497272D01*
X32239668Y20555277D01*
X32170539Y20601467D01*
X32133127Y20626465D01*
X32133124Y20626467D01*
X32133123Y20626467D01*
X32014742Y20675502D01*
X32014739Y20675503D01*
X31924696Y20693414D01*
X31889069Y20700500D01*
X31760931Y20700500D01*
X31729726Y20694293D01*
X31635260Y20675503D01*
X31635257Y20675502D01*
X31516876Y20626467D01*
X31410331Y20555277D01*
X31410330Y20555275D01*
X31319725Y20464670D01*
X31319723Y20464669D01*
X31248533Y20358124D01*
X31199498Y20239743D01*
X31199497Y20239740D01*
X31184875Y20166226D01*
X31174500Y20114069D01*
X27121014Y20114069D01*
X27150501Y20185256D01*
X27175500Y20310931D01*
X27175500Y20439069D01*
X27159506Y20519473D01*
X27150502Y20564740D01*
X27150501Y20564743D01*
X27139298Y20591789D01*
X27101465Y20683127D01*
X27030276Y20789669D01*
X27009771Y20810174D01*
X26988097Y20862500D01*
X27009771Y20914826D01*
X27055275Y20960330D01*
X27055276Y20960331D01*
X27126465Y21066873D01*
X27175501Y21185256D01*
X27200500Y21310931D01*
X27200500Y21439069D01*
X27178533Y21549500D01*
X27175502Y21564740D01*
X27175501Y21564743D01*
X27171460Y21574498D01*
X27126465Y21683127D01*
X27055276Y21789669D01*
X26964669Y21880276D01*
X26858127Y21951465D01*
X26858124Y21951467D01*
X26858123Y21951467D01*
X26739742Y22000502D01*
X26739739Y22000503D01*
X26649696Y22018414D01*
X26614069Y22025500D01*
X26485931Y22025500D01*
X26454726Y22019293D01*
X26360260Y22000503D01*
X26360257Y22000502D01*
X26241876Y21951467D01*
X26135331Y21880277D01*
X26135330Y21880275D01*
X26044725Y21789670D01*
X26044723Y21789669D01*
X25973533Y21683124D01*
X25924498Y21564743D01*
X25924497Y21564740D01*
X25899500Y21439068D01*
X25899500Y21310933D01*
X25924497Y21185261D01*
X25924498Y21185258D01*
X25933117Y21164449D01*
X25973535Y21066873D01*
X26019620Y20997902D01*
X26044723Y20960332D01*
X26065229Y20939826D01*
X26086903Y20887500D01*
X26065229Y20835174D01*
X26019725Y20789670D01*
X26019723Y20789669D01*
X25948533Y20683124D01*
X25899498Y20564743D01*
X25899497Y20564740D01*
X25882699Y20480289D01*
X25874620Y20439669D01*
X25874500Y20439068D01*
X13304012Y20439068D01*
X13378171Y20474781D01*
X13615974Y20624203D01*
X13835551Y20799310D01*
X14034142Y20997901D01*
X14209249Y21217478D01*
X14358671Y21455281D01*
X14480527Y21708318D01*
X14573286Y21973408D01*
X14635781Y22247217D01*
X14637680Y22264069D01*
X24549500Y22264069D01*
X24549500Y22135931D01*
X24550625Y22130277D01*
X24574497Y22010261D01*
X24574498Y22010258D01*
X24578539Y22000501D01*
X24623535Y21891873D01*
X24634899Y21874866D01*
X24691824Y21789670D01*
X24694724Y21785331D01*
X24785331Y21694724D01*
X24891873Y21623535D01*
X25010256Y21574499D01*
X25010258Y21574499D01*
X25010260Y21574498D01*
X25052903Y21566016D01*
X25135931Y21549500D01*
X25135933Y21549500D01*
X25264067Y21549500D01*
X25264069Y21549500D01*
X25389744Y21574499D01*
X25508127Y21623535D01*
X25614669Y21694724D01*
X25705276Y21785331D01*
X25776465Y21891873D01*
X25825501Y22010256D01*
X25850500Y22135931D01*
X25850500Y22264069D01*
X25825501Y22389744D01*
X25776465Y22508127D01*
X25705276Y22614669D01*
X25614669Y22705276D01*
X25508127Y22776465D01*
X25508124Y22776467D01*
X25508123Y22776467D01*
X25490472Y22783778D01*
X25450424Y22823827D01*
X25450424Y22880464D01*
X25490472Y22920512D01*
X25558127Y22948535D01*
X25664669Y23019724D01*
X25755276Y23110331D01*
X25826465Y23216873D01*
X25875501Y23335256D01*
X25900500Y23460931D01*
X25900500Y23589069D01*
X25875501Y23714744D01*
X25826465Y23833127D01*
X25755276Y23939669D01*
X25664669Y24030276D01*
X25657681Y24034945D01*
X25610234Y24066648D01*
X25558127Y24101465D01*
X25558124Y24101467D01*
X25558123Y24101467D01*
X25439742Y24150502D01*
X25439739Y24150503D01*
X25349696Y24168414D01*
X25314069Y24175500D01*
X25185931Y24175500D01*
X25154726Y24169293D01*
X25060260Y24150503D01*
X25060257Y24150502D01*
X24941876Y24101467D01*
X24835331Y24030277D01*
X24835330Y24030275D01*
X24744725Y23939670D01*
X24744723Y23939669D01*
X24673533Y23833124D01*
X24624498Y23714743D01*
X24624497Y23714740D01*
X24599500Y23589068D01*
X24599500Y23460933D01*
X24624497Y23335261D01*
X24624498Y23335258D01*
X24658660Y23252783D01*
X24673535Y23216873D01*
X24744724Y23110331D01*
X24835331Y23019724D01*
X24941873Y22948535D01*
X24959526Y22941223D01*
X24999575Y22901176D01*
X24999576Y22844539D01*
X24959528Y22804489D01*
X24959527Y22804489D01*
X24891876Y22776467D01*
X24785331Y22705277D01*
X24785330Y22705275D01*
X24694725Y22614670D01*
X24694723Y22614669D01*
X24623533Y22508124D01*
X24574498Y22389743D01*
X24574497Y22389740D01*
X24553043Y22281883D01*
X24549500Y22264069D01*
X14637680Y22264069D01*
X14667226Y22526301D01*
X14667226Y22807151D01*
X14635781Y23086235D01*
X14635780Y23086240D01*
X14573288Y23360036D01*
X14573283Y23360052D01*
X14515005Y23526600D01*
X14480527Y23625134D01*
X14400322Y23791682D01*
X14358673Y23878167D01*
X14358672Y23878168D01*
X14358671Y23878171D01*
X14209249Y24115974D01*
X14034142Y24335551D01*
X13835551Y24534142D01*
X13707406Y24636334D01*
X13615974Y24709249D01*
X13464329Y24804534D01*
X13378171Y24858671D01*
X13378170Y24858672D01*
X13378166Y24858674D01*
X13125133Y24980528D01*
X12925637Y25050335D01*
X12883406Y25088075D01*
X12880231Y25144623D01*
X12917971Y25186854D01*
X12950063Y25194182D01*
X35323922Y25197530D01*
X35376250Y25175864D01*
X35397932Y25123541D01*
X35376266Y25071212D01*
X35344723Y25039669D01*
X35273533Y24933124D01*
X35224498Y24814743D01*
X35224497Y24814740D01*
X35199500Y24689068D01*
X35199500Y24560933D01*
X35224497Y24435261D01*
X35224498Y24435258D01*
X35224499Y24435256D01*
X35273535Y24316873D01*
X35296487Y24282523D01*
X35344723Y24210332D01*
X35415458Y24139597D01*
X35437132Y24087271D01*
X35415458Y24034945D01*
X35410565Y24030510D01*
X35319724Y23939670D01*
X35319723Y23939669D01*
X35248533Y23833124D01*
X35199498Y23714743D01*
X35199497Y23714740D01*
X35174500Y23589068D01*
X35174500Y23460933D01*
X35199497Y23335261D01*
X35199498Y23335258D01*
X35233660Y23252783D01*
X35248535Y23216873D01*
X35319724Y23110331D01*
X35410331Y23019724D01*
X35516873Y22948535D01*
X35635256Y22899499D01*
X35635258Y22899499D01*
X35635260Y22899498D01*
X35677903Y22891016D01*
X35760931Y22874500D01*
X35760933Y22874500D01*
X35889067Y22874500D01*
X35889069Y22874500D01*
X36014744Y22899499D01*
X36133127Y22948535D01*
X36239669Y23019724D01*
X36330276Y23110331D01*
X36401465Y23216873D01*
X36450501Y23335256D01*
X36475500Y23460931D01*
X36475500Y23589069D01*
X36450501Y23714744D01*
X36401465Y23833127D01*
X36330276Y23939669D01*
X36259541Y24010404D01*
X36237867Y24062730D01*
X36259541Y24115056D01*
X36264431Y24119487D01*
X36264665Y24119722D01*
X36264669Y24119724D01*
X36355276Y24210331D01*
X36426465Y24316873D01*
X36475501Y24435256D01*
X36500500Y24560931D01*
X36500500Y24689069D01*
X36484996Y24767011D01*
X36475502Y24814740D01*
X36475501Y24814743D01*
X36457305Y24858671D01*
X36426465Y24933127D01*
X36355276Y25039669D01*
X36323583Y25071362D01*
X36301909Y25123686D01*
X36323582Y25176012D01*
X36375897Y25197687D01*
X45492020Y25199051D01*
X45544348Y25177385D01*
G37*
%TD.AperFunction*%
%TD*%
M02*
