%TF.GenerationSoftware,KiCad,Pcbnew,10.0.0*%
%TF.CreationDate,2026-09-26T17:58:37+03:00*%
%TF.ProjectId,STM32-TutorialPCB,53544d33-322d-4547-9574-6f7269616c50,rev?*%
%TF.SameCoordinates,PX56c8cc0PY6acfc00*%
%TF.FileFunction,Copper,L1,Top*%
%TF.FilePolarity,Positive*%
%FSLAX46Y46*%
G04 Gerber Fmt 4.6, Leading zero omitted, Abs format (unit mm)*
G04 Created by KiCad (PCBNEW 10.0.0) date 2026-09-26 17:58:37*
%MOMM*%
%LPD*%
G01*
G04 APERTURE LIST*
G04 Aperture macros list*
%AMRoundRect*
0 Rectangle with rounded corners*
0 $1 Rounding radius*
0 $2 $3 $4 $5 $6 $7 $8 $9 X,Y pos of 4 corners*
0 Add a 4 corners polygon primitive as box body*
4,1,4,$2,$3,$4,$5,$6,$7,$8,$9,$2,$3,0*
0 Add four circle primitives for the rounded corners*
1,1,$1+$1,$2,$3*
1,1,$1+$1,$4,$5*
1,1,$1+$1,$6,$7*
1,1,$1+$1,$8,$9*
0 Add four rect primitives between the rounded corners*
20,1,$1+$1,$2,$3,$4,$5,0*
20,1,$1+$1,$4,$5,$6,$7,0*
20,1,$1+$1,$6,$7,$8,$9,0*
20,1,$1+$1,$8,$9,$2,$3,0*%
G04 Aperture macros list end*
%TA.AperFunction,SMDPad,CuDef*%
%ADD10RoundRect,0.250000X-0.275000X-0.250000X0.275000X-0.250000X0.275000X0.250000X-0.275000X0.250000X0*%
%TD*%
%TA.AperFunction,SMDPad,CuDef*%
%ADD11RoundRect,0.250000X-0.850000X-0.275000X0.850000X-0.275000X0.850000X0.275000X-0.850000X0.275000X0*%
%TD*%
%TA.AperFunction,SMDPad,CuDef*%
%ADD12RoundRect,0.150000X-0.425000X0.150000X-0.425000X-0.150000X0.425000X-0.150000X0.425000X0.150000X0*%
%TD*%
%TA.AperFunction,SMDPad,CuDef*%
%ADD13RoundRect,0.075000X-0.500000X0.075000X-0.500000X-0.075000X0.500000X-0.075000X0.500000X0.075000X0*%
%TD*%
%TA.AperFunction,ComponentPad*%
%ADD14O,2.100000X1.000000*%
%TD*%
%TA.AperFunction,ComponentPad*%
%ADD15O,1.800000X1.000000*%
%TD*%
%TA.AperFunction,SMDPad,CuDef*%
%ADD16RoundRect,0.140000X-0.170000X0.140000X-0.170000X-0.140000X0.170000X-0.140000X0.170000X0.140000X0*%
%TD*%
%TA.AperFunction,SMDPad,CuDef*%
%ADD17RoundRect,0.147500X-0.147500X-0.172500X0.147500X-0.172500X0.147500X0.172500X-0.147500X0.172500X0*%
%TD*%
%TA.AperFunction,SMDPad,CuDef*%
%ADD18RoundRect,0.150000X-0.150000X0.512500X-0.150000X-0.512500X0.150000X-0.512500X0.150000X0.512500X0*%
%TD*%
%TA.AperFunction,SMDPad,CuDef*%
%ADD19RoundRect,0.225000X0.250000X-0.225000X0.250000X0.225000X-0.250000X0.225000X-0.250000X-0.225000X0*%
%TD*%
%TA.AperFunction,SMDPad,CuDef*%
%ADD20RoundRect,0.150000X0.150000X0.400000X-0.150000X0.400000X-0.150000X-0.400000X0.150000X-0.400000X0*%
%TD*%
%TA.AperFunction,SMDPad,CuDef*%
%ADD21RoundRect,0.135000X-0.185000X0.135000X-0.185000X-0.135000X0.185000X-0.135000X0.185000X0.135000X0*%
%TD*%
%TA.AperFunction,SMDPad,CuDef*%
%ADD22C,1.000000*%
%TD*%
%TA.AperFunction,SMDPad,CuDef*%
%ADD23RoundRect,0.135000X-0.135000X-0.185000X0.135000X-0.185000X0.135000X0.185000X-0.135000X0.185000X0*%
%TD*%
%TA.AperFunction,SMDPad,CuDef*%
%ADD24RoundRect,0.150000X-0.512500X-0.150000X0.512500X-0.150000X0.512500X0.150000X-0.512500X0.150000X0*%
%TD*%
%TA.AperFunction,SMDPad,CuDef*%
%ADD25RoundRect,0.147500X0.172500X-0.147500X0.172500X0.147500X-0.172500X0.147500X-0.172500X-0.147500X0*%
%TD*%
%TA.AperFunction,SMDPad,CuDef*%
%ADD26RoundRect,0.249999X0.650001X0.450001X-0.650001X0.450001X-0.650001X-0.450001X0.650001X-0.450001X0*%
%TD*%
%TA.AperFunction,SMDPad,CuDef*%
%ADD27RoundRect,0.225000X-0.250000X0.225000X-0.250000X-0.225000X0.250000X-0.225000X0.250000X0.225000X0*%
%TD*%
%TA.AperFunction,SMDPad,CuDef*%
%ADD28RoundRect,0.135000X0.185000X-0.135000X0.185000X0.135000X-0.185000X0.135000X-0.185000X-0.135000X0*%
%TD*%
%TA.AperFunction,SMDPad,CuDef*%
%ADD29RoundRect,0.140000X0.170000X-0.140000X0.170000X0.140000X-0.170000X0.140000X-0.170000X-0.140000X0*%
%TD*%
%TA.AperFunction,ComponentPad*%
%ADD30C,0.700000*%
%TD*%
%TA.AperFunction,ComponentPad*%
%ADD31C,4.400000*%
%TD*%
%TA.AperFunction,SMDPad,CuDef*%
%ADD32RoundRect,0.140000X0.140000X0.170000X-0.140000X0.170000X-0.140000X-0.170000X0.140000X-0.170000X0*%
%TD*%
%TA.AperFunction,SMDPad,CuDef*%
%ADD33RoundRect,0.218750X-0.218750X-0.381250X0.218750X-0.381250X0.218750X0.381250X-0.218750X0.381250X0*%
%TD*%
%TA.AperFunction,SMDPad,CuDef*%
%ADD34RoundRect,0.225000X0.225000X0.250000X-0.225000X0.250000X-0.225000X-0.250000X0.225000X-0.250000X0*%
%TD*%
%TA.AperFunction,SMDPad,CuDef*%
%ADD35RoundRect,0.140000X-0.140000X-0.170000X0.140000X-0.170000X0.140000X0.170000X-0.140000X0.170000X0*%
%TD*%
%TA.AperFunction,SMDPad,CuDef*%
%ADD36RoundRect,0.082500X-0.055000X-0.267500X0.055000X-0.267500X0.055000X0.267500X-0.055000X0.267500X0*%
%TD*%
%TA.AperFunction,SMDPad,CuDef*%
%ADD37RoundRect,0.073500X-0.151500X-0.049000X0.151500X-0.049000X0.151500X0.049000X-0.151500X0.049000X0*%
%TD*%
%TA.AperFunction,ComponentPad*%
%ADD38RoundRect,0.200000X-0.450000X0.200000X-0.450000X-0.200000X0.450000X-0.200000X0.450000X0.200000X0*%
%TD*%
%TA.AperFunction,ComponentPad*%
%ADD39O,1.300000X0.800000*%
%TD*%
%TA.AperFunction,SMDPad,CuDef*%
%ADD40RoundRect,0.062500X0.062500X-0.375000X0.062500X0.375000X-0.062500X0.375000X-0.062500X-0.375000X0*%
%TD*%
%TA.AperFunction,SMDPad,CuDef*%
%ADD41RoundRect,0.062500X0.375000X-0.062500X0.375000X0.062500X-0.375000X0.062500X-0.375000X-0.062500X0*%
%TD*%
%TA.AperFunction,HeatsinkPad*%
%ADD42R,5.000000X5.000000*%
%TD*%
%TA.AperFunction,ConnectorPad*%
%ADD43C,0.787400*%
%TD*%
%TA.AperFunction,SMDPad,CuDef*%
%ADD44R,1.500000X1.500000*%
%TD*%
%TA.AperFunction,SMDPad,CuDef*%
%ADD45RoundRect,0.225000X-0.225000X-0.250000X0.225000X-0.250000X0.225000X0.250000X-0.225000X0.250000X0*%
%TD*%
%TA.AperFunction,SMDPad,CuDef*%
%ADD46RoundRect,0.135000X0.135000X0.185000X-0.135000X0.185000X-0.135000X-0.185000X0.135000X-0.185000X0*%
%TD*%
%TA.AperFunction,ViaPad*%
%ADD47C,0.700000*%
%TD*%
%TA.AperFunction,Conductor*%
%ADD48C,0.250000*%
%TD*%
%TA.AperFunction,Conductor*%
%ADD49C,0.500000*%
%TD*%
%TA.AperFunction,Conductor*%
%ADD50C,0.190000*%
%TD*%
%TA.AperFunction,Conductor*%
%ADD51C,0.220000*%
%TD*%
G04 APERTURE END LIST*
D10*
%TO.P,J3,1,In_1*%
%TO.N,/RF_ANT*%
X44850000Y16700000D03*
D11*
%TO.P,J3,2,Ext_2*%
%TO.N,GND*%
X46375000Y18175000D03*
X46375000Y15225000D03*
%TD*%
D12*
%TO.P,J1,A1,GND_A1*%
%TO.N,GND*%
X7680000Y18850000D03*
%TO.P,J1,A4,VBUS_A4*%
%TO.N,/+VBUS*%
X7680000Y18050000D03*
D13*
%TO.P,J1,A5,CC1_A5*%
%TO.N,Net-(J1-CC1)*%
X7680000Y16900000D03*
%TO.P,J1,A6,D+_A6*%
%TO.N,Net-(D2-I{slash}O2-Pad3)*%
X7680000Y15900000D03*
%TO.P,J1,A7,D-_A7*%
%TO.N,Net-(D2-I{slash}O1-Pad1)*%
X7680000Y15400000D03*
%TO.P,J1,A8,SBU1_A8*%
%TO.N,unconnected-(J1-SBU1-PadA8)*%
X7680000Y14400000D03*
D12*
%TO.P,J1,A9,VBUS_A9*%
%TO.N,/+VBUS*%
X7680000Y13250000D03*
%TO.P,J1,A12,GND_A12*%
%TO.N,GND*%
X7680000Y12450000D03*
D13*
%TO.P,J1,B5,CC2_B5*%
%TO.N,Net-(J1-CC2)*%
X7680000Y13900000D03*
%TO.P,J1,B6,D+_B6*%
%TO.N,Net-(D2-I{slash}O2-Pad3)*%
X7680000Y14900000D03*
%TO.P,J1,B7,D-_B7*%
%TO.N,Net-(D2-I{slash}O1-Pad1)*%
X7680000Y16400000D03*
%TO.P,J1,B8,SBU2_B8*%
%TO.N,unconnected-(J1-SBU2-PadB8)*%
X7680000Y17400000D03*
D14*
%TO.P,J1,SH,SHIELD_SH*%
%TO.N,GND*%
X7105000Y19970000D03*
D15*
X2925000Y19970000D03*
D14*
X7105000Y11330000D03*
D15*
X2925000Y11330000D03*
%TD*%
D16*
%TO.P,C15,2*%
%TO.N,GND*%
X37500000Y15720000D03*
%TO.P,C15,1*%
%TO.N,/RF*%
X37500000Y16680000D03*
%TD*%
D17*
%TO.P,L3,2,2_2*%
%TO.N,/RF_MATCH*%
X39470000Y16700000D03*
%TO.P,L3,1,1_1*%
%TO.N,/RF*%
X38500000Y16700000D03*
%TD*%
D16*
%TO.P,C5,1*%
%TO.N,+3V3*%
X35750000Y18380000D03*
%TO.P,C5,2*%
%TO.N,GND*%
X35750000Y17420000D03*
%TD*%
D18*
%TO.P,U1,5,VOUT_5*%
%TO.N,+3V3*%
X13050000Y8762500D03*
%TO.P,U1,4,NC_4*%
%TO.N,unconnected-(U1-NC-Pad4)*%
X11150000Y8762500D03*
%TO.P,U1,3,EN_3*%
%TO.N,/+VBUS*%
X11150000Y11037500D03*
%TO.P,U1,2,GND_2*%
%TO.N,GND*%
X12100000Y11037500D03*
%TO.P,U1,1,VIN_1*%
%TO.N,/+VBUS*%
X13050000Y11037500D03*
%TD*%
D19*
%TO.P,C2,2*%
%TO.N,GND*%
X14575000Y10187500D03*
%TO.P,C2,1*%
%TO.N,+3V3*%
X14575000Y8637500D03*
%TD*%
D20*
%TO.P,X1,1,1_1*%
%TO.N,/LSE_OUT*%
X29100000Y8800000D03*
%TO.P,X1,2,2_2*%
%TO.N,/LSE_IN*%
X27700000Y8800000D03*
%TD*%
D21*
%TO.P,R6,1*%
%TO.N,/BOOT0*%
X35550000Y3870000D03*
%TO.P,R6,2*%
%TO.N,Net-(R6-Pad2)*%
X35550000Y2850000D03*
%TD*%
D22*
%TO.P,FM1,*%
%TO.N,*%
X16000000Y23800000D03*
%TD*%
D23*
%TO.P,R4,1*%
%TO.N,Net-(J1-CC2)*%
X5210000Y9670000D03*
%TO.P,R4,2*%
%TO.N,GND*%
X6230000Y9670000D03*
%TD*%
D24*
%TO.P,D2,1,I/O1_1*%
%TO.N,Net-(D2-I{slash}O1-Pad1)*%
X10800000Y16550000D03*
%TO.P,D2,2,GND_2*%
%TO.N,GND*%
X10800000Y15600000D03*
%TO.P,D2,3,I/O2_3*%
%TO.N,Net-(D2-I{slash}O2-Pad3)*%
X10800000Y14650000D03*
%TO.P,D2,4,I/O2_4*%
%TO.N,/USB_D+*%
X13075000Y14650000D03*
%TO.P,D2,5,VBUS_5*%
%TO.N,/+VBUS*%
X13075000Y15600000D03*
%TO.P,D2,6,I/O1_6*%
%TO.N,/USB_D-*%
X13075000Y16550000D03*
%TD*%
D25*
%TO.P,L1,1,1_1*%
%TO.N,/SMPSLX*%
X29500000Y20515000D03*
%TO.P,L1,2,2_2*%
%TO.N,/SMPSLXL*%
X29500000Y21485000D03*
%TD*%
D16*
%TO.P,C19,1*%
%TO.N,/BOOT0*%
X37000000Y3830000D03*
%TO.P,C19,2*%
%TO.N,GND*%
X37000000Y2870000D03*
%TD*%
D26*
%TO.P,X2,1,1_1*%
%TO.N,/HSE_OUT*%
X41900000Y23900000D03*
%TO.P,X2,2,G_2*%
%TO.N,GND*%
X37500000Y23900000D03*
%TO.P,X2,3,3_3*%
%TO.N,/HSE_IN*%
X37500000Y21500000D03*
%TO.P,X2,4,G_4*%
%TO.N,GND*%
X41900000Y21500000D03*
%TD*%
D27*
%TO.P,C6,1*%
%TO.N,+3V3*%
X25000000Y11000000D03*
%TO.P,C6,2*%
%TO.N,GND*%
X25000000Y9450000D03*
%TD*%
D28*
%TO.P,R1,1*%
%TO.N,/UART_TXC*%
X33800000Y9580000D03*
%TO.P,R1,2*%
%TO.N,/UART_TX*%
X33800000Y10600000D03*
%TD*%
D16*
%TO.P,C16,1*%
%TO.N,/RF_MATCH*%
X40500000Y16680000D03*
%TO.P,C16,2*%
%TO.N,GND*%
X40500000Y15720000D03*
%TD*%
D29*
%TO.P,C13,1*%
%TO.N,/SWD_NRST*%
X25250000Y7320000D03*
%TO.P,C13,2*%
%TO.N,GND*%
X25250000Y8280000D03*
%TD*%
D30*
%TO.P,H1,1,1_1*%
%TO.N,GND*%
X45016726Y2800000D03*
X45500000Y3966726D03*
X45500000Y1633274D03*
X46666726Y4450000D03*
D31*
X46666726Y2800000D03*
D30*
X46666726Y1150000D03*
X47833452Y3966726D03*
X47833452Y1633274D03*
X48316726Y2800000D03*
%TD*%
D32*
%TO.P,C7,1*%
%TO.N,+3V3*%
X25480000Y16700000D03*
%TO.P,C7,2*%
%TO.N,GND*%
X24520000Y16700000D03*
%TD*%
D33*
%TO.P,L2,1,1_1*%
%TO.N,/SMPSLXL*%
X29500000Y23000000D03*
%TO.P,L2,2,2_2*%
%TO.N,/SMPSFB*%
X31625000Y23000000D03*
%TD*%
D32*
%TO.P,C4,1*%
%TO.N,+3V3*%
X28500000Y20400000D03*
%TO.P,C4,2*%
%TO.N,GND*%
X27540000Y20400000D03*
%TD*%
D30*
%TO.P,H3,1,1_1*%
%TO.N,GND*%
X10350000Y2800000D03*
X10833274Y3966726D03*
X10833274Y1633274D03*
X12000000Y4450000D03*
D31*
X12000000Y2800000D03*
D30*
X12000000Y1150000D03*
X13166726Y3966726D03*
X13166726Y1633274D03*
X13650000Y2800000D03*
%TD*%
D34*
%TO.P,C3,1*%
%TO.N,+3V3*%
X27925000Y22700000D03*
%TO.P,C3,2*%
%TO.N,GND*%
X26375000Y22700000D03*
%TD*%
D22*
%TO.P,FM2,*%
%TO.N,*%
X42600000Y1800000D03*
%TD*%
D30*
%TO.P,H4,1,1_1*%
%TO.N,GND*%
X45016726Y22833274D03*
X45500000Y24000000D03*
X45500000Y21666548D03*
X46666726Y24483274D03*
D31*
X46666726Y22833274D03*
D30*
X46666726Y21183274D03*
X47833452Y24000000D03*
X47833452Y21666548D03*
X48316726Y22833274D03*
%TD*%
D16*
%TO.P,C8,1*%
%TO.N,+3V3*%
X35750000Y16050000D03*
%TO.P,C8,2*%
%TO.N,GND*%
X35750000Y15090000D03*
%TD*%
D21*
%TO.P,R3,1*%
%TO.N,GND*%
X38850000Y10560000D03*
%TO.P,R3,2*%
%TO.N,Net-(D1-K)*%
X38850000Y9540000D03*
%TD*%
D35*
%TO.P,C12,1*%
%TO.N,+3V3*%
X31820000Y10500000D03*
%TO.P,C12,2*%
%TO.N,GND*%
X32780000Y10500000D03*
%TD*%
D23*
%TO.P,R5,1*%
%TO.N,Net-(J1-CC1)*%
X5310000Y21670000D03*
%TO.P,R5,2*%
%TO.N,GND*%
X6330000Y21670000D03*
%TD*%
D22*
%TO.P,FM3,*%
%TO.N,*%
X16000000Y1600000D03*
%TD*%
D32*
%TO.P,C18,1*%
%TO.N,/LSE_IN*%
X27680000Y10500000D03*
%TO.P,C18,2*%
%TO.N,GND*%
X26720000Y10500000D03*
%TD*%
D25*
%TO.P,D1,1,K_1*%
%TO.N,Net-(D1-K)*%
X37550000Y9565000D03*
%TO.P,D1,2,A_2*%
%TO.N,Net-(D1-A)*%
X37550000Y10535000D03*
%TD*%
D36*
%TO.P,FLT1,1,IN_1*%
%TO.N,/RF_MATCH*%
X41887500Y16700000D03*
D37*
%TO.P,FLT1,2,GND_2*%
%TO.N,GND*%
X42500000Y16472500D03*
D36*
%TO.P,FLT1,3,OUT_3*%
%TO.N,/RF_ANT*%
X43112500Y16700000D03*
D37*
%TO.P,FLT1,4,GND_4*%
%TO.N,GND*%
X42500000Y16927500D03*
%TD*%
D29*
%TO.P,C9,1*%
%TO.N,+3V3*%
X25000000Y12220000D03*
%TO.P,C9,2*%
%TO.N,GND*%
X25000000Y13180000D03*
%TD*%
D30*
%TO.P,H2,1,1_1*%
%TO.N,GND*%
X12166726Y21016726D03*
X11000000Y21500000D03*
X13333452Y21500000D03*
X10516726Y22666726D03*
D31*
X12166726Y22666726D03*
D30*
X13816726Y22666726D03*
X11000000Y23833452D03*
X13333452Y23833452D03*
X12166726Y24316726D03*
%TD*%
D29*
%TO.P,C11,1*%
%TO.N,+3V3*%
X26000000Y12220000D03*
%TO.P,C11,2*%
%TO.N,GND*%
X26000000Y13180000D03*
%TD*%
D38*
%TO.P,J2,1,Pin_1_1*%
%TO.N,+3V3*%
X6100000Y7075000D03*
D39*
%TO.P,J2,2,Pin_2_2*%
%TO.N,/UART_TXC*%
X6100000Y5825000D03*
%TO.P,J2,3,Pin_3_3*%
%TO.N,/UART_RXC*%
X6100000Y4575000D03*
%TO.P,J2,4,Pin_4_4*%
%TO.N,GND*%
X6100000Y3325000D03*
%TD*%
D32*
%TO.P,C10,1*%
%TO.N,+3V3*%
X28480000Y21400000D03*
%TO.P,C10,2*%
%TO.N,GND*%
X27520000Y21400000D03*
%TD*%
D40*
%TO.P,U2,1,VBAT_1*%
%TO.N,+3V3*%
X28000000Y12000000D03*
%TO.P,U2,2,PC14_2*%
%TO.N,/LSE_IN*%
X28500000Y12000000D03*
%TO.P,U2,3,PC15_3*%
%TO.N,/LSE_OUT*%
X29000000Y12000000D03*
%TO.P,U2,4,PH3_4*%
%TO.N,/BOOT0*%
X29500000Y12000000D03*
%TO.P,U2,5,PB8_5*%
%TO.N,unconnected-(U2-PB8-Pad5)*%
X30000000Y12000000D03*
%TO.P,U2,6,PB9_6*%
%TO.N,unconnected-(U2-PB9-Pad6)*%
X30500000Y12000000D03*
%TO.P,U2,7,NRST_7*%
%TO.N,/SWD_NRST*%
X31000000Y12000000D03*
%TO.P,U2,8,VDDA_8*%
%TO.N,+3V3*%
X31500000Y12000000D03*
%TO.P,U2,9,PA0_9*%
%TO.N,unconnected-(U2-PA0-Pad9)*%
X32000000Y12000000D03*
%TO.P,U2,10,PA1_10*%
%TO.N,unconnected-(U2-PA1-Pad10)*%
X32500000Y12000000D03*
%TO.P,U2,11,PA2_11*%
%TO.N,/UART_TX*%
X33000000Y12000000D03*
%TO.P,U2,12,PA3_12*%
%TO.N,/UART_RX*%
X33500000Y12000000D03*
D41*
%TO.P,U2,13,PA4_13*%
%TO.N,unconnected-(U2-PA4-Pad13)*%
X34187500Y12687500D03*
%TO.P,U2,14,PA5_14*%
%TO.N,unconnected-(U2-PA5-Pad14)*%
X34187500Y13187500D03*
%TO.P,U2,15,PA6_15*%
%TO.N,unconnected-(U2-PA6-Pad15)*%
X34187500Y13687500D03*
%TO.P,U2,16,PA7_16*%
%TO.N,Net-(D1-A)*%
X34187500Y14187500D03*
%TO.P,U2,17,PA8_17*%
%TO.N,unconnected-(U2-PA8-Pad17)*%
X34187500Y14687500D03*
%TO.P,U2,18,PA9_18*%
%TO.N,unconnected-(U2-PA9-Pad18)*%
X34187500Y15187500D03*
%TO.P,U2,19,PB2_19*%
%TO.N,unconnected-(U2-PB2-Pad19)*%
X34187500Y15687500D03*
%TO.P,U2,20,VDD_20*%
%TO.N,+3V3*%
X34187500Y16187500D03*
%TO.P,U2,21,RF1_21*%
%TO.N,/RF*%
X34187500Y16687500D03*
%TO.P,U2,22,VSSRF_22*%
%TO.N,GND*%
X34187500Y17187500D03*
%TO.P,U2,23,VDDRF_23*%
%TO.N,+3V3*%
X34187500Y17687500D03*
%TO.P,U2,24,OSC_OUT_24*%
%TO.N,/HSE_OUT*%
X34187500Y18187500D03*
D40*
%TO.P,U2,25,OSC_IN_25*%
%TO.N,/HSE_IN*%
X33500000Y18875000D03*
%TO.P,U2,26,AT0_26*%
%TO.N,unconnected-(U2-AT0-Pad26)*%
X33000000Y18875000D03*
%TO.P,U2,27,AT1_27*%
%TO.N,unconnected-(U2-AT1-Pad27)*%
X32500000Y18875000D03*
%TO.P,U2,28,PB0_28*%
%TO.N,unconnected-(U2-PB0-Pad28)*%
X32000000Y18875000D03*
%TO.P,U2,29,PB1_29*%
%TO.N,unconnected-(U2-PB1-Pad29)*%
X31500000Y18875000D03*
%TO.P,U2,30,PE4_30*%
%TO.N,unconnected-(U2-PE4-Pad30)*%
X31000000Y18875000D03*
%TO.P,U2,31,VFBSMPS_31*%
%TO.N,/SMPSFB*%
X30500000Y18875000D03*
%TO.P,U2,32,VSSSMPS_32*%
%TO.N,GND*%
X30000000Y18875000D03*
%TO.P,U2,33,VLXSMPS_33*%
%TO.N,/SMPSLX*%
X29500000Y18875000D03*
%TO.P,U2,34,VDDSMPS_34*%
%TO.N,+3V3*%
X29000000Y18875000D03*
%TO.P,U2,35,VDD_35*%
X28500000Y18875000D03*
%TO.P,U2,36,PA10_36*%
%TO.N,unconnected-(U2-PA10-Pad36)*%
X28000000Y18875000D03*
D41*
%TO.P,U2,37,PA11_37*%
%TO.N,/USB_D-*%
X27312500Y18187500D03*
%TO.P,U2,38,PA12_38*%
%TO.N,/USB_D+*%
X27312500Y17687500D03*
%TO.P,U2,39,PA13_39*%
%TO.N,/SWDDIO*%
X27312500Y17187500D03*
%TO.P,U2,40,VDDUSB_40*%
%TO.N,+3V3*%
X27312500Y16687500D03*
%TO.P,U2,41,PA14_41*%
%TO.N,/SWCLK*%
X27312500Y16187500D03*
%TO.P,U2,42,PA15_42*%
%TO.N,unconnected-(U2-PA15-Pad42)*%
X27312500Y15687500D03*
%TO.P,U2,43,PB3_43*%
%TO.N,/SWO*%
X27312500Y15187500D03*
%TO.P,U2,44,PB4_44*%
%TO.N,unconnected-(U2-PB4-Pad44)*%
X27312500Y14687500D03*
%TO.P,U2,45,PB5_45*%
%TO.N,unconnected-(U2-PB5-Pad45)*%
X27312500Y14187500D03*
%TO.P,U2,46,PB6_46*%
%TO.N,unconnected-(U2-PB6-Pad46)*%
X27312500Y13687500D03*
%TO.P,U2,47,PB7_47*%
%TO.N,unconnected-(U2-PB7-Pad47)*%
X27312500Y13187500D03*
%TO.P,U2,48,VDD_48*%
%TO.N,+3V3*%
X27312500Y12687500D03*
D42*
%TO.P,U2,49,VSS_49*%
%TO.N,GND*%
X30750000Y15437500D03*
%TD*%
D28*
%TO.P,R2,1*%
%TO.N,/UART_RXC*%
X34800000Y9580000D03*
%TO.P,R2,2*%
%TO.N,/UART_RX*%
X34800000Y10600000D03*
%TD*%
D34*
%TO.P,C1,1*%
%TO.N,/+VBUS*%
X12875000Y12812500D03*
%TO.P,C1,2*%
%TO.N,GND*%
X11325000Y12812500D03*
%TD*%
D43*
%TO.P,J4,1,VCC_1*%
%TO.N,+3V3*%
X18765000Y16630000D03*
%TO.P,J4,2,SWDIO_2*%
%TO.N,/SWDDIO*%
X20035000Y16630000D03*
%TO.P,J4,3,~{RESET}_3*%
%TO.N,/SWD_NRST*%
X18765000Y15360000D03*
%TO.P,J4,4,SWCLK_4*%
%TO.N,/SWCLK*%
X20035000Y15360000D03*
%TO.P,J4,5,GND_5*%
%TO.N,GND*%
X18765000Y14090000D03*
%TO.P,J4,6,SWO_6*%
%TO.N,/SWO*%
X20035000Y14090000D03*
%TD*%
D44*
%TO.P,SW1,1,1_1*%
%TO.N,Net-(R6-Pad2)*%
X33450000Y3050000D03*
%TO.P,SW1,2,2_2*%
%TO.N,+3V3*%
X25650000Y3050000D03*
%TD*%
D45*
%TO.P,C14,1*%
%TO.N,/SMPSFB*%
X30725000Y21230000D03*
%TO.P,C14,2*%
%TO.N,GND*%
X32275000Y21230000D03*
%TD*%
D35*
%TO.P,C17,1*%
%TO.N,/LSE_OUT*%
X29120000Y10500000D03*
%TO.P,C17,2*%
%TO.N,GND*%
X30080000Y10500000D03*
%TD*%
D46*
%TO.P,R7,1*%
%TO.N,/BOOT0*%
X36560000Y5200000D03*
%TO.P,R7,2*%
%TO.N,GND*%
X35540000Y5200000D03*
%TD*%
D47*
%TO.N,+3V3*%
X25500000Y16000000D03*
X15125000Y7562500D03*
X14075000Y7562500D03*
%TO.N,GND*%
X14575000Y11400000D03*
X10150000Y12850000D03*
%TO.N,/BOOT0*%
X35000000Y7700000D03*
X30583498Y8618725D03*
%TO.N,GND*%
X7300000Y9675000D03*
X9658962Y15692452D03*
X31900000Y16700000D03*
X26675000Y9500000D03*
X47400000Y13875000D03*
X32000000Y14400000D03*
X25000000Y13900000D03*
X30900000Y13400000D03*
X9000000Y11900000D03*
X26550000Y21375000D03*
X7325000Y21625000D03*
X45400000Y19475000D03*
X32850000Y20025000D03*
X25200000Y22200000D03*
X46375000Y19500000D03*
X10100000Y12025000D03*
X40500000Y14980000D03*
X29850000Y8015000D03*
X36975000Y1850000D03*
X47425000Y19500000D03*
X37500000Y14980000D03*
X42725000Y20025000D03*
X26525000Y20375000D03*
X29500000Y14400000D03*
X7600000Y2800000D03*
X30600000Y17600000D03*
X25250000Y23525000D03*
X35750000Y14330000D03*
X23725000Y9375000D03*
X28700000Y13300000D03*
X46400000Y13900000D03*
X24225000Y8275000D03*
X35850000Y24625000D03*
X32800000Y9780000D03*
X28700000Y15500000D03*
X45400000Y13925000D03*
X29975000Y9550000D03*
X34550000Y6775000D03*
X24450000Y17405000D03*
X42500000Y17572500D03*
X9000000Y19300000D03*
X32900000Y15500000D03*
X32800000Y17600000D03*
X29700000Y16700000D03*
X39950000Y10550000D03*
X34525000Y5200000D03*
X33000000Y13300000D03*
X36470000Y17400000D03*
X35825000Y23525000D03*
X41300000Y20025000D03*
X31825000Y20050000D03*
X28700000Y17600000D03*
X26000000Y13900000D03*
X42500000Y15872500D03*
%TO.N,+3V3*%
X23900000Y10500000D03*
X36650000Y14250000D03*
X23900000Y11300000D03*
X24450000Y3750000D03*
X18500000Y18900000D03*
X28350000Y23800000D03*
X27250000Y23800000D03*
X31845000Y9825000D03*
X24450000Y2350000D03*
X36450000Y18400000D03*
%TD*%
%TO.N,+3V3*%
D48*
X36650000Y15750000D02*
X36650000Y14250000D01*
X35750000Y16050000D02*
X36350000Y16050000D01*
X36350000Y16050000D02*
X36650000Y15750000D01*
%TO.N,Net-(D1-K)*%
D49*
X38825000Y9565000D02*
X38850000Y9540000D01*
X37550000Y9565000D02*
X38825000Y9565000D01*
%TO.N,+3V3*%
D48*
X34787500Y17687500D02*
X35000000Y17900000D01*
X34187500Y17687500D02*
X34787500Y17687500D01*
D49*
X31850000Y10530000D02*
X31820000Y10500000D01*
X31850000Y11025000D02*
X31850000Y10530000D01*
D48*
X31850000Y11200000D02*
X31850000Y11025000D01*
X31500000Y11550000D02*
X31850000Y11200000D01*
X31500000Y12000000D02*
X31500000Y11550000D01*
D49*
X28480000Y20420000D02*
X28500000Y20400000D01*
X28480000Y21400000D02*
X28480000Y20420000D01*
%TO.N,/SWD_NRST*%
D50*
X30500000Y7200000D02*
X25370000Y7200000D01*
X31200000Y7900000D02*
X30500000Y7200000D01*
X31000000Y11200000D02*
X31200000Y11000000D01*
X31000000Y12000000D02*
X31000000Y11200000D01*
%TO.N,/BOOT0*%
X30583498Y9083498D02*
X30583498Y8618725D01*
X30800000Y9300000D02*
X30583498Y9083498D01*
X30800000Y10848457D02*
X30800000Y9300000D01*
X30543457Y11105000D02*
X30800000Y10848457D01*
%TO.N,/SWD_NRST*%
X25370000Y7200000D02*
X25250000Y7320000D01*
%TO.N,/BOOT0*%
X29595000Y11105000D02*
X30543457Y11105000D01*
%TO.N,/SWD_NRST*%
X31200000Y11000000D02*
X31200000Y7900000D01*
%TO.N,/BOOT0*%
X29500000Y12000000D02*
X29500000Y11200000D01*
X29500000Y11200000D02*
X29595000Y11105000D01*
%TO.N,Net-(D2-I{slash}O2-Pad3)*%
D51*
X9450000Y14650000D02*
X10800000Y14650000D01*
X8515000Y15585000D02*
X9450000Y14650000D01*
X8515000Y15785000D02*
X8515000Y15585000D01*
X8400000Y15900000D02*
X8515000Y15785000D01*
%TO.N,Net-(D2-I{slash}O1-Pad1)*%
X8800000Y16550000D02*
X10800000Y16550000D01*
X8650000Y16400000D02*
X8800000Y16550000D01*
X7680000Y16400000D02*
X8650000Y16400000D01*
%TO.N,/SWDDIO*%
D50*
X20240300Y16835300D02*
X20035000Y16630000D01*
X23757212Y18250000D02*
X22574762Y19432450D01*
X22574762Y19432450D02*
X21305238Y19432450D01*
X24859064Y18250000D02*
X23757212Y18250000D01*
X21305238Y19432450D02*
X20240300Y18367512D01*
X25876564Y17232500D02*
X24859064Y18250000D01*
X20240300Y18367512D02*
X20240300Y16835300D01*
X27267500Y17232500D02*
X25876564Y17232500D01*
X27312500Y17187500D02*
X27267500Y17232500D01*
%TO.N,/RF*%
X34645000Y16680000D02*
X37500000Y16680000D01*
X34187500Y16687500D02*
X34637500Y16687500D01*
X34637500Y16687500D02*
X34645000Y16680000D01*
%TO.N,+3V3*%
D48*
X34912500Y16187500D02*
X35050000Y16050000D01*
X35050000Y16050000D02*
X35750000Y16050000D01*
X34187500Y16187500D02*
X34912500Y16187500D01*
%TO.N,/RF*%
D50*
X37447500Y16732500D02*
X37500000Y16680000D01*
%TO.N,/SWD_NRST*%
X16267788Y16300000D02*
X17825000Y16300000D01*
X15300000Y13350000D02*
X15300000Y15332212D01*
X17825000Y16300000D02*
X18765000Y15360000D01*
X17675000Y10975000D02*
X15300000Y13350000D01*
X17675000Y8325000D02*
X17675000Y10975000D01*
X15300000Y15332212D02*
X16267788Y16300000D01*
X18680000Y7320000D02*
X17675000Y8325000D01*
X25250000Y7320000D02*
X18680000Y7320000D01*
%TO.N,/BOOT0*%
X36960000Y3870000D02*
X37000000Y3830000D01*
X35550000Y3870000D02*
X36960000Y3870000D01*
X36560000Y5200000D02*
X36560000Y4840000D01*
X36560000Y4840000D02*
X37000000Y4400000D01*
X37000000Y4400000D02*
X37000000Y3830000D01*
%TO.N,Net-(R6-Pad2)*%
X34425000Y3050000D02*
X34625000Y2850000D01*
X34625000Y2850000D02*
X35550000Y2850000D01*
X33450000Y3050000D02*
X34425000Y3050000D01*
%TO.N,+3V3*%
D48*
X26187500Y16687500D02*
X26175000Y16675000D01*
X27312500Y16687500D02*
X26187500Y16687500D01*
D49*
X25480000Y16700000D02*
X25505000Y16675000D01*
X25505000Y16675000D02*
X26175000Y16675000D01*
D48*
X29000000Y19450000D02*
X28500000Y19950000D01*
X29000000Y18875000D02*
X29000000Y19450000D01*
X28500000Y19950000D02*
X28500000Y18875000D01*
D49*
X28500000Y20400000D02*
X28500000Y19950000D01*
%TO.N,/SMPSLX*%
X29500000Y20515000D02*
X29500000Y20000000D01*
D48*
X29500000Y20000000D02*
X29500000Y18875000D01*
%TO.N,+3V3*%
X18765000Y17235000D02*
X18765000Y16630000D01*
X18500000Y17500000D02*
X18765000Y17235000D01*
X18500000Y18900000D02*
X18500000Y17500000D01*
X35280000Y18380000D02*
X35750000Y18380000D01*
X35000000Y18100000D02*
X35280000Y18380000D01*
X35000000Y17900000D02*
X35000000Y18100000D01*
%TO.N,GND*%
D49*
X35750000Y17420000D02*
X35770000Y17400000D01*
X35770000Y17400000D02*
X36360000Y17400000D01*
D50*
X34937500Y17187500D02*
X34187500Y17187500D01*
X35170000Y17420000D02*
X34937500Y17187500D01*
X35500000Y17420000D02*
X35170000Y17420000D01*
%TO.N,+3V3*%
D49*
X24950000Y2350000D02*
X25650000Y3050000D01*
X24450000Y2350000D02*
X24950000Y2350000D01*
X24950000Y3750000D02*
X25650000Y3050000D01*
X24450000Y3750000D02*
X24950000Y3750000D01*
%TO.N,/+VBUS*%
D50*
X11292500Y12042500D02*
X12105000Y12042500D01*
X12105000Y12042500D02*
X12875000Y12812500D01*
X11150000Y11900000D02*
X11292500Y12042500D01*
X11150000Y11495982D02*
X11150000Y11900000D01*
X11150000Y11495982D02*
X11150000Y11500000D01*
X11150000Y11495982D02*
X11150000Y10804018D01*
D49*
X12875000Y12025000D02*
X12875000Y12812500D01*
X13050000Y11850000D02*
X12875000Y12025000D01*
X13050000Y11150000D02*
X13050000Y11850000D01*
X11962500Y17337500D02*
X11962500Y15587500D01*
X11250000Y18050000D02*
X11962500Y17337500D01*
X12181251Y15368749D02*
X11962500Y15149999D01*
X7680000Y18050000D02*
X11250000Y18050000D01*
X11962500Y15587500D02*
X12181251Y15368749D01*
X11962500Y15149999D02*
X11962500Y13787500D01*
X12412501Y15600000D02*
X12181251Y15368749D01*
X11962500Y13787500D02*
X12000000Y13750000D01*
X13075000Y15600000D02*
X12412501Y15600000D01*
X9750000Y13750000D02*
X12000000Y13750000D01*
X12550000Y13750000D02*
X12875000Y13425000D01*
X12875000Y13425000D02*
X12875000Y12812500D01*
X12000000Y13750000D02*
X12550000Y13750000D01*
X9250000Y13250000D02*
X9750000Y13750000D01*
X7680000Y13250000D02*
X9250000Y13250000D01*
%TO.N,/LSE_OUT*%
D50*
X29000000Y12000000D02*
X29000000Y11200000D01*
X29120000Y10500000D02*
X29120000Y8820000D01*
X29120000Y8820000D02*
X29100000Y8800000D01*
X29000000Y11200000D02*
X29120000Y11080000D01*
X29120000Y11080000D02*
X29120000Y10500000D01*
%TO.N,/LSE_IN*%
X28500000Y10800000D02*
X28200000Y10500000D01*
X27680000Y10500000D02*
X27680000Y8820000D01*
X28500000Y12000000D02*
X28500000Y10800000D01*
X28200000Y10500000D02*
X27680000Y10500000D01*
X27680000Y8820000D02*
X27700000Y8800000D01*
%TO.N,/BOOT0*%
X36560000Y6740000D02*
X36560000Y5200000D01*
X35600000Y7700000D02*
X36560000Y6740000D01*
X35000000Y7700000D02*
X35600000Y7700000D01*
%TO.N,Net-(J1-CC2)*%
X5900000Y13900000D02*
X5210000Y13210000D01*
X5210000Y13210000D02*
X5210000Y9670000D01*
X7680000Y13900000D02*
X5900000Y13900000D01*
%TO.N,GND*%
D49*
X37500000Y15700000D02*
X37500000Y14980000D01*
X27500000Y21400000D02*
X26780000Y21400000D01*
X26000000Y13180000D02*
X26000000Y13900000D01*
X32800000Y10500000D02*
X32800000Y9780000D01*
X24480000Y16700000D02*
X24480000Y17420000D01*
X6200000Y9700000D02*
X6920000Y9700000D01*
X35750000Y15050000D02*
X35750000Y14330000D01*
X26700000Y10540000D02*
X26700000Y9820000D01*
X25000000Y13180000D02*
X25000000Y13900000D01*
X6350000Y21650000D02*
X7070000Y21650000D01*
X37000000Y2850000D02*
X37000000Y2130000D01*
X40500000Y15700000D02*
X40500000Y14980000D01*
D48*
X30000000Y16187500D02*
X30750000Y15437500D01*
D49*
X27500000Y20400000D02*
X26780000Y20400000D01*
X35550000Y5200000D02*
X34830000Y5200000D01*
X30100000Y10520000D02*
X30100000Y9800000D01*
X25200000Y8280000D02*
X24480000Y8280000D01*
X38850000Y10550000D02*
X39570000Y10550000D01*
D48*
X30000000Y18875000D02*
X30000000Y16187500D01*
%TO.N,Net-(D2-I{slash}O1-Pad1)*%
D51*
X6400000Y15600000D02*
X6600000Y15400000D01*
X6600000Y15400000D02*
X7680000Y15400000D01*
X6600000Y16400000D02*
X6400000Y16200000D01*
X6400000Y16200000D02*
X6400000Y15600000D01*
X7680000Y16400000D02*
X6600000Y16400000D01*
%TO.N,Net-(D2-I{slash}O2-Pad3)*%
X8700000Y14900000D02*
X8700000Y15600000D01*
X8700000Y15600000D02*
X8400000Y15900000D01*
X7680000Y14900000D02*
X8700000Y14900000D01*
X7680000Y15900000D02*
X8400000Y15900000D01*
%TO.N,/USB_D+*%
X13075000Y14650000D02*
X13437500Y14650000D01*
X13777500Y14990000D02*
X13782194Y14990000D01*
X15285000Y15923370D02*
X15285000Y19023370D01*
X13782194Y14990000D02*
X14047500Y15255306D01*
X26850870Y17687500D02*
X27312500Y17687500D01*
X14047500Y15260000D02*
X14202500Y15415000D01*
X14776630Y15415000D02*
X15285000Y15923370D01*
X14047500Y15255306D02*
X14047500Y15260000D01*
X13437500Y14650000D02*
X13777500Y14990000D01*
X16576630Y20315000D02*
X24223370Y20315000D01*
X15285000Y19023370D02*
X16576630Y20315000D01*
X24223370Y20315000D02*
X26850870Y17687500D01*
X14202500Y15415000D02*
X14776630Y15415000D01*
%TO.N,/USB_D-*%
X24376630Y20685000D02*
X26874130Y18187500D01*
X13777500Y16210000D02*
X13782194Y16210000D01*
X13782194Y16210000D02*
X14047500Y15944694D01*
X26874130Y18187500D02*
X27312500Y18187500D01*
X14047500Y15944694D02*
X14047500Y15940000D01*
X14915000Y19176630D02*
X16423370Y20685000D01*
X14047500Y15940000D02*
X14202500Y15785000D01*
X16423370Y20685000D02*
X24376630Y20685000D01*
X13437500Y16550000D02*
X13777500Y16210000D01*
X14915000Y16076630D02*
X14915000Y19176630D01*
X13075000Y16550000D02*
X13437500Y16550000D01*
X14623370Y15785000D02*
X14915000Y16076630D01*
X14202500Y15785000D02*
X14623370Y15785000D01*
%TO.N,/RF*%
D50*
X37500000Y16680000D02*
X38480000Y16680000D01*
X38480000Y16680000D02*
X38500000Y16700000D01*
%TO.N,/SMPSLXL*%
D49*
X29500000Y21485000D02*
X29500000Y23000000D01*
%TO.N,/HSE_OUT*%
D50*
X34187500Y18187500D02*
X34187500Y18687500D01*
X40200000Y22200000D02*
X41900000Y23900000D01*
X39000000Y19800000D02*
X40200000Y21000000D01*
X40200000Y21000000D02*
X40200000Y22200000D01*
X35300000Y19800000D02*
X39000000Y19800000D01*
X34187500Y18687500D02*
X35300000Y19800000D01*
%TO.N,/HSE_IN*%
X33500000Y19400000D02*
X35600000Y21500000D01*
X33500000Y18875000D02*
X33500000Y19400000D01*
X35600000Y21500000D02*
X37500000Y21500000D01*
%TO.N,+3V3*%
D49*
X25480000Y16700000D02*
X25480000Y15980000D01*
X35750000Y18380000D02*
X35750000Y18400000D01*
X36470000Y18380000D02*
X36500000Y18350000D01*
X35750000Y18380000D02*
X36470000Y18380000D01*
X31825000Y10525000D02*
X31825000Y9805000D01*
%TO.N,/RF_MATCH*%
D50*
X39470000Y16700000D02*
X40480000Y16700000D01*
X40480000Y16700000D02*
X40500000Y16680000D01*
X41867500Y16680000D02*
X41887500Y16700000D01*
X40500000Y16680000D02*
X41867500Y16680000D01*
%TO.N,/UART_TXC*%
X31795000Y6745000D02*
X33800000Y8750000D01*
X6100000Y5825000D02*
X6975000Y5825000D01*
X6975000Y5825000D02*
X7895000Y6745000D01*
X33800000Y8750000D02*
X33800000Y9580000D01*
X7895000Y6745000D02*
X31795000Y6745000D01*
%TO.N,/UART_TX*%
X33300000Y11200000D02*
X33700000Y11200000D01*
X33000000Y11500000D02*
X33300000Y11200000D01*
X33700000Y11200000D02*
X33800000Y11100000D01*
X33800000Y11100000D02*
X33800000Y10600000D01*
X33000000Y12000000D02*
X33000000Y11500000D01*
%TO.N,/RF_ANT*%
X43112500Y16700000D02*
X44850000Y16700000D01*
%TO.N,Net-(J1-CC1)*%
X5310000Y18669662D02*
X5310000Y21670000D01*
X7079662Y16900000D02*
X5310000Y18669662D01*
X7680000Y16900000D02*
X7079662Y16900000D01*
%TO.N,Net-(D1-A)*%
X37550000Y11550000D02*
X37550000Y10535000D01*
X34187500Y14187500D02*
X34912500Y14187500D01*
X34912500Y14187500D02*
X37550000Y11550000D01*
%TO.N,/UART_RXC*%
X32200000Y5850000D02*
X8550000Y5850000D01*
X34800000Y8450000D02*
X32200000Y5850000D01*
X8550000Y5850000D02*
X7275000Y4575000D01*
X7275000Y4575000D02*
X6100000Y4575000D01*
X34800000Y9580000D02*
X34800000Y8450000D01*
%TO.N,/UART_RX*%
X33500000Y12000000D02*
X34200000Y12000000D01*
X34800000Y11400000D02*
X34800000Y10600000D01*
X34200000Y12000000D02*
X34800000Y11400000D01*
%TO.N,/SWCLK*%
X27312500Y16187500D02*
X26867686Y16187500D01*
X22574762Y16257450D02*
X20932450Y16257450D01*
X26867686Y16187500D02*
X25980186Y15300000D01*
X20932450Y16257450D02*
X20035000Y15360000D01*
X25980186Y15300000D02*
X23532212Y15300000D01*
X23532212Y15300000D02*
X22574762Y16257450D01*
%TO.N,/SWO*%
X26867686Y15187500D02*
X26280186Y14600000D01*
X22500000Y13000000D02*
X21497788Y13000000D01*
X24100000Y14600000D02*
X22500000Y13000000D01*
X20407788Y14090000D02*
X20035000Y14090000D01*
X21497788Y13000000D02*
X20407788Y14090000D01*
X26280186Y14600000D02*
X24100000Y14600000D01*
X27312500Y15187500D02*
X26867686Y15187500D01*
%TD*%
%TA.AperFunction,Conductor*%
%TO.N,/SMPSFB*%
G36*
X32228326Y23728326D02*
G01*
X32250000Y23676000D01*
X32250000Y22324000D01*
X32228326Y22271674D01*
X32176000Y22250000D01*
X31250000Y22250000D01*
X31250000Y20574000D01*
X31228326Y20521674D01*
X31176000Y20500000D01*
X30750000Y20500000D01*
X30750000Y19465220D01*
X30737529Y19424110D01*
X30689760Y19352617D01*
X30674500Y19275901D01*
X30674500Y18917853D01*
X30674501Y18574000D01*
X30652827Y18521674D01*
X30600501Y18500000D01*
X30399500Y18500000D01*
X30347174Y18521674D01*
X30325500Y18574000D01*
X30325500Y18923811D01*
X30325499Y18923825D01*
X30325499Y19275899D01*
X30325499Y19275901D01*
X30310240Y19352617D01*
X30262470Y19424110D01*
X30250000Y19465220D01*
X30250000Y21984811D01*
X30255983Y22013961D01*
X30980779Y23705150D01*
X31021313Y23744707D01*
X31048796Y23750000D01*
X32176000Y23750000D01*
X32228326Y23728326D01*
G37*
%TD.AperFunction*%
%TD*%
%TA.AperFunction,Conductor*%
%TO.N,+3V3*%
G36*
X13993039Y9480315D02*
G01*
X14038794Y9427511D01*
X14050000Y9376000D01*
X14050000Y9200000D01*
X15181274Y9200000D01*
X15248313Y9180315D01*
X15294068Y9127511D01*
X15305157Y9081386D01*
X15350000Y8050000D01*
X15626000Y8050000D01*
X15693039Y8030315D01*
X15738794Y7977511D01*
X15750000Y7926000D01*
X15750000Y7164500D01*
X15730315Y7097461D01*
X15677511Y7051706D01*
X15626000Y7040500D01*
X13774000Y7040500D01*
X13706961Y7060185D01*
X13661206Y7112989D01*
X13650000Y7164500D01*
X13650000Y7950000D01*
X12674000Y7950000D01*
X12606961Y7969685D01*
X12561206Y8022489D01*
X12550000Y8074000D01*
X12550000Y9376000D01*
X12569685Y9443039D01*
X12622489Y9488794D01*
X12674000Y9500000D01*
X13926000Y9500000D01*
X13993039Y9480315D01*
G37*
%TD.AperFunction*%
%TD*%
%TA.AperFunction,Conductor*%
%TO.N,+3V3*%
G36*
X28063395Y12853326D02*
G01*
X28072594Y12842117D01*
X28105448Y12792948D01*
X28147705Y12764712D01*
X28115489Y12716499D01*
X28184573Y12498596D01*
X28186612Y12461797D01*
X28179435Y12425712D01*
X28174500Y12400901D01*
X28174500Y12400898D01*
X28174500Y12400897D01*
X28174500Y11599101D01*
X28184696Y11547840D01*
X28189760Y11522383D01*
X28192028Y11518988D01*
X28204500Y11477876D01*
X28204500Y11424000D01*
X28182826Y11371674D01*
X28130500Y11350000D01*
X25550000Y11350000D01*
X25550000Y10250763D01*
X25528326Y10198437D01*
X25476000Y10176763D01*
X25474259Y10176783D01*
X23497259Y10223300D01*
X23445458Y10246199D01*
X23425000Y10297280D01*
X23425000Y11576000D01*
X23446674Y11628326D01*
X23499000Y11650000D01*
X24575000Y11650000D01*
X24575000Y12501000D01*
X24596674Y12553326D01*
X24649000Y12575000D01*
X26850000Y12575000D01*
X26850000Y12788001D01*
X26871674Y12840327D01*
X26923997Y12862001D01*
X27713400Y12862001D01*
X27771605Y12873579D01*
X27786041Y12875000D01*
X28011069Y12875000D01*
X28063395Y12853326D01*
G37*
%TD.AperFunction*%
%TD*%
%TA.AperFunction,Conductor*%
%TO.N,+3V3*%
G36*
X28753326Y24153326D02*
G01*
X28775000Y24101000D01*
X28775000Y23449000D01*
X28753326Y23396674D01*
X28701000Y23375000D01*
X28525000Y23375000D01*
X28525000Y22125000D01*
X28826000Y22125000D01*
X28878326Y22103326D01*
X28900000Y22051000D01*
X28900000Y21049000D01*
X28878326Y20996674D01*
X28826000Y20975000D01*
X28224000Y20975000D01*
X28171674Y20996674D01*
X28150000Y21049000D01*
X28150000Y21950000D01*
X27472777Y21950000D01*
X27420451Y21971674D01*
X27398787Y22022767D01*
X27398316Y22051000D01*
X27375000Y23450000D01*
X26949000Y23450000D01*
X26896674Y23471674D01*
X26875000Y23524000D01*
X26875000Y24101000D01*
X26896674Y24153326D01*
X26949000Y24175000D01*
X28701000Y24175000D01*
X28753326Y24153326D01*
G37*
%TD.AperFunction*%
%TD*%
%TA.AperFunction,Conductor*%
%TO.N,GND*%
G36*
X32844591Y10494371D02*
G01*
X32855003Y10490058D01*
X32895052Y10450016D01*
X32899367Y10439600D01*
X32905000Y10411282D01*
X32905000Y9790001D01*
X32962278Y9790001D01*
X32966128Y9790001D01*
X32968041Y9790563D01*
X32970196Y9790953D01*
X33049048Y9800420D01*
X33049055Y9800422D01*
X33071455Y9809256D01*
X33078645Y9810555D01*
X33082271Y9809768D01*
X33093067Y9811724D01*
X33104330Y9811532D01*
X33156266Y9788983D01*
X33158697Y9786469D01*
X33179500Y9735029D01*
X33179500Y9392554D01*
X33179501Y9392531D01*
X33182221Y9363518D01*
X33182258Y9363124D01*
X33182259Y9363118D01*
X33182260Y9363114D01*
X33182261Y9363111D01*
X33222355Y9248534D01*
X33222356Y9248532D01*
X33225618Y9239207D01*
X33255350Y9198922D01*
X33303577Y9133577D01*
X33355781Y9095049D01*
X33362598Y9090018D01*
X33382037Y9068673D01*
X33393882Y9049015D01*
X33404500Y9010823D01*
X33404500Y8959193D01*
X33398867Y8930877D01*
X33388459Y8905747D01*
X33372418Y8881741D01*
X31663260Y7172582D01*
X31639254Y7156542D01*
X31614124Y7146133D01*
X31585808Y7140500D01*
X31193192Y7140500D01*
X31164872Y7146134D01*
X31157509Y7149184D01*
X31117464Y7189234D01*
X31117464Y7245864D01*
X31120515Y7253231D01*
X31136551Y7277231D01*
X31251194Y7391873D01*
X31516479Y7657157D01*
X31522830Y7668157D01*
X31568548Y7747343D01*
X31595500Y7847931D01*
X31595500Y9106498D01*
X31601129Y9134807D01*
X31605443Y9145222D01*
X31645482Y9185268D01*
X31651135Y9187610D01*
X31693879Y9191817D01*
X31780931Y9174500D01*
X31780933Y9174500D01*
X31909067Y9174500D01*
X31909069Y9174500D01*
X32034744Y9199499D01*
X32153127Y9248535D01*
X32259669Y9319724D01*
X32350276Y9410331D01*
X32421465Y9516873D01*
X32470501Y9635256D01*
X32487293Y9719675D01*
X32498341Y9746347D01*
X32505517Y9757088D01*
X32549826Y9787943D01*
X32558685Y9790062D01*
X32584716Y9791563D01*
X32597722Y9790001D01*
X32654999Y9790002D01*
X32655000Y9790002D01*
X32655000Y10411282D01*
X32660629Y10439591D01*
X32664943Y10450006D01*
X32704982Y10490052D01*
X32715411Y10494372D01*
X32743719Y10500000D01*
X32816281Y10500000D01*
X32844591Y10494371D01*
G37*
%TD.AperFunction*%
%TA.AperFunction,Conductor*%
G36*
X26543949Y14237903D02*
G01*
X26544636Y14237375D01*
X26571085Y14197810D01*
X26571977Y14194482D01*
X26569985Y14179344D01*
X26573604Y14179379D01*
X26574473Y14090931D01*
X26574501Y14090543D01*
X26584777Y14019997D01*
X26584779Y14019992D01*
X26584780Y14019990D01*
X26584781Y14019987D01*
X26589355Y14010630D01*
X26602753Y13983223D01*
X26610129Y13955309D01*
X26611586Y13931840D01*
X26604210Y13894756D01*
X26584781Y13855011D01*
X26584778Y13855005D01*
X26581779Y13834421D01*
X26564714Y13796906D01*
X26564263Y13796382D01*
X26562475Y13794372D01*
X26562327Y13794125D01*
X26560248Y13791701D01*
X26537413Y13780132D01*
X26520410Y13769809D01*
X26520883Y13767934D01*
X26520296Y13767786D01*
X26517433Y13768001D01*
X26515382Y13766755D01*
X26514087Y13766555D01*
X26513835Y13768186D01*
X26509725Y13766103D01*
X26499921Y13769313D01*
X26473620Y13771284D01*
X26471022Y13772372D01*
X26454894Y13781664D01*
X26446220Y13788242D01*
X26437145Y13795124D01*
X26437143Y13795125D01*
X26368550Y13822174D01*
X26299055Y13849579D01*
X26251549Y13855284D01*
X26212279Y13860000D01*
X26212278Y13860000D01*
X26125000Y13860000D01*
X26125000Y13268719D01*
X26119367Y13240401D01*
X26115056Y13229993D01*
X26075008Y13189945D01*
X26075007Y13189944D01*
X26064599Y13185633D01*
X26036281Y13180000D01*
X26000000Y13180000D01*
X26000000Y13143719D01*
X25994367Y13115401D01*
X25990056Y13104993D01*
X25950008Y13064945D01*
X25950007Y13064944D01*
X25939599Y13060633D01*
X25911281Y13055000D01*
X24290001Y13055000D01*
X24290001Y12997719D01*
X24300419Y12910953D01*
X24300419Y12910952D01*
X24300420Y12910949D01*
X24300421Y12910943D01*
X24350822Y12783136D01*
X24349855Y12726507D01*
X24343981Y12715591D01*
X24314429Y12670237D01*
X24314429Y12670236D01*
X24298364Y12631451D01*
X24292755Y12617909D01*
X24291232Y12614110D01*
X24290130Y12611360D01*
X24290129Y12611356D01*
X24269500Y12501004D01*
X24269500Y12029500D01*
X24247826Y11977174D01*
X24195500Y11955500D01*
X23498993Y11955500D01*
X23494884Y11955453D01*
X23491944Y11955419D01*
X23491941Y11955419D01*
X23491935Y11955418D01*
X23382091Y11932246D01*
X23382090Y11932245D01*
X23329783Y11910579D01*
X23316855Y11904871D01*
X23316851Y11904869D01*
X23225719Y11839299D01*
X23164428Y11745235D01*
X23164426Y11745230D01*
X23143832Y11695509D01*
X23142755Y11692909D01*
X23141232Y11689110D01*
X23140130Y11686360D01*
X23140129Y11686356D01*
X23119500Y11576004D01*
X23119500Y11576000D01*
X23119500Y10297280D01*
X23119520Y10293818D01*
X23119521Y10293809D01*
X23141398Y10183700D01*
X23142149Y10181825D01*
X23161857Y10132617D01*
X23165935Y10122921D01*
X23229344Y10030271D01*
X23298498Y9982856D01*
X23321940Y9966783D01*
X23373763Y9943874D01*
X23380228Y9941104D01*
X23490067Y9917886D01*
X23490068Y9917886D01*
X23490073Y9917885D01*
X23598653Y9915331D01*
X23625230Y9909718D01*
X23656207Y9896887D01*
X23707847Y9875497D01*
X23709864Y9874577D01*
X23710259Y9874499D01*
X23710260Y9874498D01*
X23722418Y9872080D01*
X23733234Y9869928D01*
X23733235Y9869928D01*
X23835931Y9849500D01*
X23835933Y9849500D01*
X23964067Y9849500D01*
X23964069Y9849500D01*
X24027329Y9862084D01*
X24056196Y9862084D01*
X24067250Y9859886D01*
X24114337Y9828423D01*
X24115332Y9826934D01*
X24127737Y9782641D01*
X24126870Y9762472D01*
X24126710Y9759845D01*
X24126477Y9756883D01*
X24125000Y9738111D01*
X24125000Y9575000D01*
X25875000Y9575000D01*
X25875000Y9738111D01*
X25872210Y9773552D01*
X25828154Y9925192D01*
X25794715Y9981733D01*
X25786736Y10037804D01*
X25796411Y10059798D01*
X25810571Y10081528D01*
X25832245Y10133854D01*
X25834870Y10140404D01*
X25855500Y10250763D01*
X25855500Y10287718D01*
X26040001Y10287718D01*
X26045547Y10241526D01*
X26050191Y10202847D01*
X26050419Y10200953D01*
X26050419Y10200952D01*
X26050420Y10200949D01*
X26050421Y10200943D01*
X26104876Y10062854D01*
X26194426Y9944763D01*
X26194571Y9944573D01*
X26194572Y9944572D01*
X26194576Y9944569D01*
X26194577Y9944568D01*
X26255293Y9898526D01*
X26312852Y9854878D01*
X26450944Y9800422D01*
X26537721Y9790001D01*
X26594999Y9790002D01*
X26595000Y9790002D01*
X26595000Y10375000D01*
X26040001Y10375000D01*
X26040001Y10287718D01*
X25855500Y10287718D01*
X25855500Y10970500D01*
X25877174Y11022826D01*
X25929500Y11044500D01*
X26038734Y11044500D01*
X26091060Y11022826D01*
X26112734Y10970500D01*
X26105375Y10942393D01*
X26106734Y10941857D01*
X26050421Y10799056D01*
X26040806Y10718988D01*
X26040000Y10712279D01*
X26040000Y10625000D01*
X26595000Y10625000D01*
X26595000Y10970500D01*
X26616674Y11022826D01*
X26669000Y11044500D01*
X26771000Y11044500D01*
X26823326Y11022826D01*
X26845000Y10970500D01*
X26845000Y9790001D01*
X26902278Y9790001D01*
X26907745Y9790001D01*
X26912380Y9791215D01*
X26989048Y9800420D01*
X26989052Y9800421D01*
X27127147Y9854878D01*
X27154060Y9875287D01*
X27180019Y9887906D01*
X27189810Y9890470D01*
X27245917Y9882762D01*
X27278697Y9842472D01*
X27280640Y9836694D01*
X27284500Y9813107D01*
X27284500Y9616036D01*
X27278866Y9587717D01*
X27276201Y9581282D01*
X27270084Y9566515D01*
X27245662Y9535297D01*
X27227848Y9522150D01*
X27147206Y9412883D01*
X27147205Y9412881D01*
X27102356Y9284711D01*
X27102354Y9284701D01*
X27102093Y9282585D01*
X27102031Y9281256D01*
X27099500Y9254266D01*
X27099500Y8345734D01*
X27099745Y8343124D01*
X27102031Y8318745D01*
X27102126Y8316705D01*
X27102354Y8315299D01*
X27102369Y8315253D01*
X27146897Y8188001D01*
X27147206Y8187119D01*
X27147207Y8187117D01*
X27227846Y8077854D01*
X27227853Y8077847D01*
X27337115Y7997209D01*
X27337116Y7997208D01*
X27337118Y7997207D01*
X27465295Y7952356D01*
X27465298Y7952355D01*
X27465301Y7952354D01*
X27495734Y7949500D01*
X27495741Y7949500D01*
X27904258Y7949500D01*
X27904266Y7949500D01*
X27934699Y7952354D01*
X28062882Y7997207D01*
X28097336Y8022635D01*
X28158500Y8067775D01*
X28167008Y8074055D01*
X28167008Y8074056D01*
X28172146Y8077847D01*
X28172146Y8077848D01*
X28172150Y8077850D01*
X28172152Y8077854D01*
X28173275Y8078682D01*
X28175841Y8082852D01*
X28252793Y8187118D01*
X28255793Y8195690D01*
X28277244Y8256998D01*
X28297646Y8315301D01*
X28300500Y8345734D01*
X28300500Y9254266D01*
X28297646Y9284699D01*
X28282053Y9329260D01*
X28282053Y9329261D01*
X28282053Y9329263D01*
X28252799Y9412865D01*
X28252793Y9412881D01*
X28252793Y9412882D01*
X28252792Y9412884D01*
X28172153Y9522147D01*
X28172149Y9522151D01*
X28117398Y9562559D01*
X28097960Y9583905D01*
X28086114Y9603565D01*
X28075500Y9641753D01*
X28075500Y9919824D01*
X28080549Y9946689D01*
X28088156Y9966213D01*
X28113165Y9998888D01*
X28134999Y10015001D01*
X28171890Y10064988D01*
X28196861Y10086476D01*
X28198521Y10087354D01*
X28206269Y10090954D01*
X28212918Y10094961D01*
X28214752Y10095929D01*
X28220387Y10096457D01*
X28249322Y10104500D01*
X28252068Y10104500D01*
X28252069Y10104500D01*
X28352658Y10131452D01*
X28402968Y10160499D01*
X28442843Y10183521D01*
X28442850Y10183529D01*
X28446693Y10186476D01*
X28447221Y10185788D01*
X28478840Y10203141D01*
X28479565Y10203303D01*
X28482052Y10203802D01*
X28482321Y10203914D01*
X28485473Y10204613D01*
X28510748Y10200163D01*
X28530302Y10198266D01*
X28531055Y10200081D01*
X28532593Y10199444D01*
X28534468Y10197862D01*
X28536294Y10197684D01*
X28536323Y10197668D01*
X28537557Y10197010D01*
X28536911Y10195800D01*
X28537276Y10195492D01*
X28541252Y10194791D01*
X28545802Y10188295D01*
X28566918Y10170473D01*
X28567457Y10169616D01*
X28574662Y10154663D01*
X28586147Y10121844D01*
X28596556Y10107741D01*
X28665001Y10015001D01*
X28682600Y10002012D01*
X28702037Y9980669D01*
X28713882Y9961011D01*
X28724500Y9922819D01*
X28724500Y9645557D01*
X28718867Y9617238D01*
X28710086Y9596039D01*
X28685662Y9564818D01*
X28627848Y9522150D01*
X28627847Y9522149D01*
X28547207Y9412885D01*
X28547199Y9412865D01*
X28502362Y9284728D01*
X28502357Y9284713D01*
X28502355Y9284705D01*
X28502354Y9284701D01*
X28502353Y9284696D01*
X28502093Y9282585D01*
X28502031Y9281256D01*
X28499500Y9254266D01*
X28499500Y8345734D01*
X28499745Y8343124D01*
X28502031Y8318745D01*
X28502126Y8316705D01*
X28502354Y8315299D01*
X28502369Y8315253D01*
X28546897Y8188001D01*
X28547206Y8187119D01*
X28547207Y8187117D01*
X28627846Y8077854D01*
X28627853Y8077847D01*
X28737115Y7997209D01*
X28737116Y7997208D01*
X28737118Y7997207D01*
X28865295Y7952356D01*
X28865298Y7952355D01*
X28865301Y7952354D01*
X28895734Y7949500D01*
X28895741Y7949500D01*
X29304258Y7949500D01*
X29304266Y7949500D01*
X29334699Y7952354D01*
X29462882Y7997207D01*
X29497336Y8022635D01*
X29558500Y8067775D01*
X29567008Y8074055D01*
X29567008Y8074056D01*
X29572146Y8077847D01*
X29572146Y8077848D01*
X29572150Y8077850D01*
X29572152Y8077854D01*
X29573275Y8078682D01*
X29575841Y8082852D01*
X29652793Y8187118D01*
X29655793Y8195690D01*
X29677244Y8256998D01*
X29697646Y8315301D01*
X29700500Y8345734D01*
X29700500Y9254266D01*
X29697646Y9284699D01*
X29652793Y9412882D01*
X29572150Y9522150D01*
X29572149Y9522151D01*
X29572147Y9522153D01*
X29562722Y9529109D01*
X29557399Y9533038D01*
X29537960Y9554386D01*
X29526117Y9574041D01*
X29515500Y9612232D01*
X29515500Y9810497D01*
X29521131Y9838810D01*
X29522648Y9842472D01*
X29525002Y9848157D01*
X29565046Y9888207D01*
X29616956Y9889982D01*
X29622736Y9888039D01*
X29643861Y9876863D01*
X29672852Y9854878D01*
X29810944Y9800422D01*
X29897721Y9790001D01*
X29954999Y9790002D01*
X29955000Y9790002D01*
X29955000Y10411282D01*
X29960629Y10439591D01*
X29964943Y10450006D01*
X30004982Y10490052D01*
X30015411Y10494372D01*
X30043719Y10500000D01*
X30116281Y10500000D01*
X30144591Y10494371D01*
X30155003Y10490058D01*
X30195052Y10450016D01*
X30199367Y10439600D01*
X30205000Y10411282D01*
X30205000Y9790001D01*
X30262277Y9790001D01*
X30262278Y9790001D01*
X30276050Y9791655D01*
X30307061Y9795379D01*
X30335851Y9793162D01*
X30346700Y9790122D01*
X30391232Y9755142D01*
X30394999Y9748444D01*
X30404500Y9712169D01*
X30404500Y9509192D01*
X30398867Y9480876D01*
X30392796Y9466216D01*
X30388459Y9455746D01*
X30372419Y9431741D01*
X30358773Y9418095D01*
X30340656Y9399978D01*
X30273963Y9333286D01*
X30267017Y9326340D01*
X30248175Y9293704D01*
X30248173Y9293700D01*
X30245707Y9289428D01*
X30242977Y9284699D01*
X30214950Y9236156D01*
X30197120Y9169617D01*
X30195305Y9165203D01*
X30192302Y9162187D01*
X30186858Y9151366D01*
X30187324Y9151065D01*
X30185357Y9148015D01*
X30185355Y9148012D01*
X30183554Y9145218D01*
X30176059Y9133592D01*
X30166190Y9121364D01*
X30079866Y9035039D01*
X30078400Y9033663D01*
X30007030Y8926849D01*
X29958475Y8809625D01*
X29957996Y8808468D01*
X29957995Y8808465D01*
X29941837Y8727229D01*
X29932998Y8682794D01*
X29932998Y8554656D01*
X29938331Y8527846D01*
X29957995Y8428986D01*
X29957996Y8428983D01*
X29958001Y8428971D01*
X29999789Y8328082D01*
X30007030Y8310603D01*
X30007030Y8310602D01*
X30077406Y8205276D01*
X30078222Y8204056D01*
X30168829Y8113449D01*
X30275371Y8042260D01*
X30275376Y8042258D01*
X30275375Y8042258D01*
X30287787Y8037117D01*
X30393754Y7993224D01*
X30393756Y7993224D01*
X30393758Y7993223D01*
X30436401Y7984741D01*
X30519429Y7968225D01*
X30519431Y7968225D01*
X30519444Y7968225D01*
X30522704Y7967903D01*
X30543764Y7962628D01*
X30551209Y7959544D01*
X30591258Y7919497D01*
X30591259Y7862860D01*
X30591255Y7862852D01*
X30588206Y7855493D01*
X30572168Y7831493D01*
X30426557Y7685879D01*
X30426556Y7685878D01*
X30368259Y7627582D01*
X30344254Y7611542D01*
X30319124Y7601133D01*
X30290808Y7595500D01*
X25906501Y7595500D01*
X25878184Y7601133D01*
X25860965Y7608265D01*
X25820918Y7648313D01*
X25819438Y7652192D01*
X25813851Y7668159D01*
X25811261Y7673060D01*
X25812752Y7673849D01*
X25802181Y7701018D01*
X25801922Y7703431D01*
X25801766Y7707248D01*
X25801323Y7709033D01*
X25800786Y7714055D01*
X25804264Y7725880D01*
X25806191Y7750706D01*
X25807225Y7753156D01*
X25816435Y7769088D01*
X25816437Y7769090D01*
X25895122Y7872853D01*
X25949578Y8010945D01*
X25960000Y8097722D01*
X25960000Y8155000D01*
X24540001Y8155000D01*
X24540001Y8097718D01*
X24550419Y8010953D01*
X24550419Y8010952D01*
X24550420Y8010949D01*
X24550421Y8010943D01*
X24604876Y7872854D01*
X24625285Y7845941D01*
X24637906Y7819978D01*
X24640469Y7810193D01*
X24632761Y7754083D01*
X24592474Y7721304D01*
X24586697Y7719361D01*
X24563107Y7715500D01*
X18889192Y7715500D01*
X18860874Y7721133D01*
X18835745Y7731542D01*
X18811739Y7747582D01*
X18102581Y8456740D01*
X18086541Y8480746D01*
X18076131Y8505878D01*
X18070500Y8534192D01*
X18070500Y9161890D01*
X24125000Y9161890D01*
X24125715Y9152802D01*
X24127789Y9126449D01*
X24171845Y8974808D01*
X24221725Y8890467D01*
X24252228Y8838889D01*
X24363888Y8727229D01*
X24499809Y8646846D01*
X24499811Y8646846D01*
X24500201Y8646615D01*
X24508795Y8640675D01*
X24522103Y8630015D01*
X24549392Y8580389D01*
X24550751Y8568093D01*
X24550671Y8551141D01*
X24540497Y8466418D01*
X24540000Y8462279D01*
X24540000Y8405000D01*
X25959999Y8405000D01*
X25959999Y8463613D01*
X25959501Y8466418D01*
X25949580Y8549049D01*
X25949579Y8549053D01*
X25947369Y8554656D01*
X25895122Y8687148D01*
X25805885Y8804825D01*
X25800978Y8812169D01*
X25790153Y8830676D01*
X25781487Y8882639D01*
X25783064Y8890472D01*
X25791911Y8913528D01*
X25828154Y8974811D01*
X25872210Y9126449D01*
X25875000Y9161890D01*
X25875000Y9325000D01*
X24125000Y9325000D01*
X24125000Y9161890D01*
X18070500Y9161890D01*
X18070500Y11027067D01*
X18070500Y11027069D01*
X18043548Y11127657D01*
X17991479Y11217843D01*
X17917843Y11291479D01*
X17917842Y11291480D01*
X15727581Y13481741D01*
X15711541Y13505747D01*
X15701131Y13530879D01*
X15695500Y13559193D01*
X15695500Y13662562D01*
X15701131Y13690876D01*
X15704181Y13698240D01*
X15744228Y13738287D01*
X15800863Y13738289D01*
X15808227Y13735239D01*
X15832233Y13719199D01*
X15923238Y13628194D01*
X15923538Y13627948D01*
X15924454Y13627310D01*
X16106348Y13495155D01*
X16155715Y13470002D01*
X16186794Y13454167D01*
X16304180Y13394356D01*
X16305126Y13393802D01*
X16307315Y13392742D01*
X16308537Y13392136D01*
X16310778Y13391503D01*
X16523268Y13322461D01*
X16523272Y13322461D01*
X16523279Y13322458D01*
X16716263Y13291892D01*
X16746830Y13287050D01*
X16973170Y13287050D01*
X16973171Y13287050D01*
X16976157Y13287524D01*
X17000055Y13291310D01*
X17000059Y13291309D01*
X17000059Y13291310D01*
X17162475Y13317034D01*
X17196721Y13322458D01*
X17196729Y13322461D01*
X17196731Y13322461D01*
X17196748Y13322467D01*
X17197183Y13322581D01*
X17198254Y13322956D01*
X17411975Y13392398D01*
X17411975Y13392399D01*
X17411976Y13392400D01*
X17411981Y13392400D01*
X17411984Y13392403D01*
X17412028Y13392416D01*
X17412034Y13392418D01*
X17422284Y13395749D01*
X17427801Y13400461D01*
X17613650Y13495155D01*
X17796761Y13628193D01*
X17920480Y13751914D01*
X17944483Y13767953D01*
X17954898Y13772267D01*
X18011519Y13772269D01*
X18014570Y13771006D01*
X18054623Y13730965D01*
X18054627Y13730955D01*
X18061631Y13714045D01*
X18061635Y13714038D01*
X18118661Y13628692D01*
X18129710Y13602018D01*
X18131908Y13590969D01*
X18120860Y13535420D01*
X18120857Y13535416D01*
X18117469Y13530346D01*
X18084261Y13503094D01*
X18030731Y13480922D01*
X17908586Y13399307D01*
X17908585Y13399306D01*
X17804696Y13295418D01*
X17804695Y13295417D01*
X17723076Y13173264D01*
X17666861Y13037551D01*
X17666860Y13037546D01*
X17666859Y13037545D01*
X17666856Y13037532D01*
X17653425Y12969999D01*
X17638200Y12893455D01*
X17638200Y12746546D01*
X17641945Y12727718D01*
X17641945Y12727717D01*
X17666857Y12602466D01*
X17666860Y12602456D01*
X17666861Y12602451D01*
X17723078Y12466734D01*
X17768335Y12399001D01*
X17804694Y12344586D01*
X17804696Y12344584D01*
X17804699Y12344580D01*
X17908580Y12240699D01*
X18016549Y12168556D01*
X18031342Y12158672D01*
X18034088Y12157690D01*
X18106798Y12127572D01*
X18166458Y12102860D01*
X18310545Y12074200D01*
X18457455Y12074200D01*
X18601542Y12102860D01*
X18737269Y12159080D01*
X18859420Y12240699D01*
X18963301Y12344580D01*
X19044920Y12466731D01*
X19101140Y12602458D01*
X19129800Y12746545D01*
X19129800Y12893455D01*
X19101140Y13037542D01*
X19101138Y13037547D01*
X19044921Y13173267D01*
X19013349Y13220517D01*
X19012342Y13222024D01*
X19001299Y13248689D01*
X18999101Y13259743D01*
X19010148Y13315281D01*
X19013537Y13320353D01*
X19046747Y13347611D01*
X19140955Y13386632D01*
X19231254Y13446968D01*
X19231254Y13446969D01*
X18739344Y13938879D01*
X18723304Y13962885D01*
X18720357Y13969999D01*
X18718992Y13973294D01*
X18718991Y14029927D01*
X18723304Y14040341D01*
X18739350Y14064350D01*
X18743333Y14068332D01*
X18795652Y14090000D01*
X18911125Y14090000D01*
X18963451Y14068326D01*
X19408031Y13623747D01*
X19408032Y13623746D01*
X19415948Y13624526D01*
X19424189Y13630034D01*
X19479735Y13641086D01*
X19485719Y13639896D01*
X19523609Y13619644D01*
X19592473Y13550780D01*
X19706173Y13474808D01*
X19706174Y13474808D01*
X19706175Y13474807D01*
X19717778Y13470001D01*
X19796049Y13437580D01*
X19809396Y13432052D01*
X19833404Y13416011D01*
X19841371Y13408044D01*
X19863045Y13355718D01*
X19863045Y13352418D01*
X19841371Y13300092D01*
X19836697Y13295418D01*
X19836695Y13295417D01*
X19755076Y13173264D01*
X19698861Y13037551D01*
X19698860Y13037546D01*
X19698859Y13037545D01*
X19698856Y13037532D01*
X19685425Y12969999D01*
X19670200Y12893455D01*
X19670200Y12746546D01*
X19673945Y12727718D01*
X19673945Y12727717D01*
X19698857Y12602466D01*
X19698860Y12602456D01*
X19698861Y12602451D01*
X19755078Y12466734D01*
X19800335Y12399001D01*
X19836694Y12344586D01*
X19836696Y12344584D01*
X19836699Y12344580D01*
X19940580Y12240699D01*
X20048549Y12168556D01*
X20063342Y12158672D01*
X20066088Y12157690D01*
X20138798Y12127572D01*
X20198458Y12102860D01*
X20342545Y12074200D01*
X20489455Y12074200D01*
X20633542Y12102860D01*
X20769269Y12159080D01*
X20891420Y12240699D01*
X20995301Y12344580D01*
X21076920Y12466731D01*
X21133140Y12602458D01*
X21137171Y12622729D01*
X21146455Y12646628D01*
X21147295Y12648016D01*
X21148459Y12649757D01*
X21148489Y12649987D01*
X21152184Y12656086D01*
X21169900Y12669099D01*
X21184926Y12685146D01*
X21194926Y12687479D01*
X21197832Y12689612D01*
X21201602Y12689035D01*
X21202449Y12689233D01*
X21202225Y12690362D01*
X21205294Y12690973D01*
X21207999Y12690527D01*
X21213066Y12691708D01*
X21214262Y12691747D01*
X21214335Y12689481D01*
X21256744Y12682482D01*
X21279007Y12669628D01*
X21279010Y12669626D01*
X21296178Y12659715D01*
X21296178Y12659714D01*
X21335247Y12637158D01*
X21345130Y12631452D01*
X21345131Y12631452D01*
X21345133Y12631451D01*
X21353605Y12629181D01*
X21367342Y12625500D01*
X21367343Y12625500D01*
X21441036Y12605755D01*
X21444734Y12604499D01*
X21554387Y12604499D01*
X21555510Y12604499D01*
X21555574Y12604500D01*
X22552068Y12604500D01*
X22552069Y12604500D01*
X22652658Y12631452D01*
X22692879Y12654674D01*
X22701820Y12659836D01*
X22701820Y12659838D01*
X22701826Y12659841D01*
X22701830Y12659842D01*
X22742843Y12683521D01*
X22816479Y12757157D01*
X22816480Y12757160D01*
X23421599Y13362279D01*
X24290000Y13362279D01*
X24290000Y13305000D01*
X24875000Y13305000D01*
X25125000Y13305000D01*
X25875000Y13305000D01*
X25875000Y13860000D01*
X25786384Y13860000D01*
X25783582Y13859503D01*
X25700950Y13849581D01*
X25700947Y13849580D01*
X25700941Y13849579D01*
X25562853Y13795124D01*
X25556441Y13790261D01*
X25530474Y13777639D01*
X25513995Y13773324D01*
X25466915Y13776551D01*
X25464073Y13777729D01*
X25447697Y13787123D01*
X25443663Y13790182D01*
X25437147Y13795123D01*
X25437145Y13795124D01*
X25368550Y13822174D01*
X25299055Y13849579D01*
X25251549Y13855284D01*
X25212279Y13860000D01*
X25212278Y13860000D01*
X25125000Y13860000D01*
X25125000Y13305000D01*
X24875000Y13305000D01*
X24875000Y13860000D01*
X24786384Y13860000D01*
X24783582Y13859503D01*
X24700950Y13849581D01*
X24700947Y13849580D01*
X24700941Y13849579D01*
X24562852Y13795124D01*
X24444577Y13705434D01*
X24444566Y13705423D01*
X24354876Y13587148D01*
X24300421Y13449056D01*
X24290046Y13362659D01*
X24290000Y13362279D01*
X23421599Y13362279D01*
X24231741Y14172421D01*
X24255745Y14188459D01*
X24280876Y14198869D01*
X24309192Y14204500D01*
X26332254Y14204500D01*
X26332255Y14204500D01*
X26432844Y14231452D01*
X26450749Y14241791D01*
X26478087Y14251074D01*
X26489261Y14252545D01*
X26543949Y14237903D01*
G37*
%TD.AperFunction*%
%TA.AperFunction,Conductor*%
G36*
X30049030Y18437229D02*
G01*
X30058075Y18421311D01*
X30064929Y18404765D01*
X30070630Y18391853D01*
X30102346Y18347772D01*
X30105106Y18343937D01*
X30118896Y18305308D01*
X30119091Y18302170D01*
X30100704Y18248602D01*
X30100697Y18248594D01*
X30100693Y18248589D01*
X30099186Y18246883D01*
X30060405Y18223778D01*
X30053267Y18222127D01*
X30053266Y18222126D01*
X30096357Y18099549D01*
X30114622Y18047590D01*
X30125001Y18038138D01*
X30146009Y18040107D01*
X30148146Y18040207D01*
X30149452Y18040430D01*
X30149455Y18040430D01*
X30149456Y18040430D01*
X30281051Y18086477D01*
X30322078Y18116757D01*
X30348024Y18128995D01*
X30374270Y18135573D01*
X30400355Y18136886D01*
X30400378Y18137194D01*
X30402879Y18137013D01*
X30402941Y18137016D01*
X30403051Y18137000D01*
X30596948Y18137001D01*
X30662206Y18146507D01*
X30667511Y18147280D01*
X30667736Y18147391D01*
X30669331Y18148171D01*
X30704276Y18165256D01*
X30732184Y18172632D01*
X30755657Y18174090D01*
X30792743Y18166712D01*
X30832488Y18147281D01*
X30832489Y18147281D01*
X30832491Y18147280D01*
X30903051Y18137000D01*
X31096948Y18137001D01*
X31162206Y18146507D01*
X31167511Y18147280D01*
X31167736Y18147391D01*
X31169331Y18148171D01*
X31204276Y18165256D01*
X31232184Y18172632D01*
X31255657Y18174090D01*
X31292743Y18166712D01*
X31332488Y18147281D01*
X31332489Y18147281D01*
X31332491Y18147280D01*
X31403051Y18137000D01*
X31596948Y18137001D01*
X31662206Y18146507D01*
X31667511Y18147280D01*
X31667736Y18147391D01*
X31669331Y18148171D01*
X31704276Y18165256D01*
X31732184Y18172632D01*
X31755657Y18174090D01*
X31792743Y18166712D01*
X31832488Y18147281D01*
X31832489Y18147281D01*
X31832491Y18147280D01*
X31903051Y18137000D01*
X32096948Y18137001D01*
X32162206Y18146507D01*
X32167511Y18147280D01*
X32167736Y18147391D01*
X32169331Y18148171D01*
X32204276Y18165256D01*
X32232184Y18172632D01*
X32255657Y18174090D01*
X32292743Y18166712D01*
X32332488Y18147281D01*
X32332489Y18147281D01*
X32332491Y18147280D01*
X32403051Y18137000D01*
X32596948Y18137001D01*
X32662206Y18146507D01*
X32667511Y18147280D01*
X32667736Y18147391D01*
X32669331Y18148171D01*
X32704276Y18165256D01*
X32732184Y18172632D01*
X32755657Y18174090D01*
X32792743Y18166712D01*
X32832488Y18147281D01*
X32832489Y18147281D01*
X32832491Y18147280D01*
X32903051Y18137000D01*
X33096948Y18137001D01*
X33162206Y18146507D01*
X33165644Y18147009D01*
X33167504Y18147279D01*
X33167504Y18147280D01*
X33167510Y18147280D01*
X33167618Y18147334D01*
X33204840Y18165532D01*
X33231544Y18172823D01*
X33253364Y18174536D01*
X33291654Y18167245D01*
X33332489Y18147281D01*
X33332491Y18147280D01*
X33378256Y18140613D01*
X33412043Y18126545D01*
X33413416Y18125513D01*
X33417830Y18121865D01*
X33419960Y18120596D01*
X33423127Y18118216D01*
X33429067Y18108162D01*
X33447037Y18087381D01*
X33448016Y18085018D01*
X33452878Y18067361D01*
X33459777Y18019999D01*
X33459778Y18019994D01*
X33459780Y18019990D01*
X33459781Y18019987D01*
X33476723Y17985331D01*
X33477753Y17983224D01*
X33485129Y17955310D01*
X33486586Y17931842D01*
X33479210Y17894758D01*
X33459780Y17855014D01*
X33449500Y17784459D01*
X33449500Y17784457D01*
X33449500Y17784454D01*
X33449500Y17590551D01*
X33449501Y17590547D01*
X33449501Y17590546D01*
X33449518Y17590426D01*
X33449514Y17590357D01*
X33449694Y17587878D01*
X33449388Y17587856D01*
X33448071Y17561767D01*
X33441495Y17535531D01*
X33429256Y17509580D01*
X33398978Y17468555D01*
X33398971Y17468540D01*
X33352933Y17336974D01*
X33352931Y17336966D01*
X33352931Y17336961D01*
X33352928Y17336944D01*
X33350638Y17312500D01*
X33593380Y17312500D01*
X33621692Y17306870D01*
X33632104Y17302557D01*
X33658653Y17276011D01*
X33668307Y17271795D01*
X33668308Y17271794D01*
X33668308Y17271795D01*
X33671075Y17270586D01*
X33702700Y17273250D01*
X33706945Y17272449D01*
X33707485Y17272282D01*
X33707487Y17272282D01*
X33707491Y17272280D01*
X33709017Y17272058D01*
X33709169Y17272029D01*
X33712445Y17271534D01*
X33712779Y17271510D01*
X33778051Y17262000D01*
X34098781Y17262001D01*
X34113572Y17255875D01*
X34128275Y17255881D01*
X34128278Y17255880D01*
X34138701Y17245466D01*
X34151107Y17240327D01*
X34156234Y17227948D01*
X34168343Y17215850D01*
X34168350Y17198697D01*
X34172781Y17188001D01*
X34172781Y17187000D01*
X34168356Y17187000D01*
X34168369Y17159213D01*
X34128338Y17119147D01*
X34127130Y17118646D01*
X34098781Y17113000D01*
X33778059Y17113000D01*
X33778043Y17112998D01*
X33778034Y17112997D01*
X33707506Y17102725D01*
X33707502Y17102724D01*
X33707496Y17102723D01*
X33707495Y17102722D01*
X33707489Y17102720D01*
X33707486Y17102719D01*
X33707479Y17102716D01*
X33648188Y17073730D01*
X33632369Y17068116D01*
X33616330Y17064405D01*
X33599649Y17062500D01*
X33350639Y17062500D01*
X33350637Y17062499D01*
X33352606Y17041491D01*
X33352706Y17039354D01*
X33352928Y17038044D01*
X33398972Y16906456D01*
X33400452Y16904101D01*
X33402266Y16901994D01*
X33429256Y16865422D01*
X33441494Y16839474D01*
X33448070Y16813237D01*
X33449435Y16786274D01*
X33449587Y16786266D01*
X33449586Y16786259D01*
X33449673Y16786250D01*
X33449517Y16784643D01*
X33449520Y16784602D01*
X33449502Y16784481D01*
X33449502Y16784478D01*
X33449501Y16784467D01*
X33449501Y16784463D01*
X33449500Y16784442D01*
X33449500Y16590552D01*
X33449500Y16590547D01*
X33449501Y16590543D01*
X33459777Y16519997D01*
X33459779Y16519992D01*
X33477753Y16483223D01*
X33485129Y16455310D01*
X33486586Y16431843D01*
X33479210Y16394758D01*
X33459780Y16355014D01*
X33449500Y16284459D01*
X33449500Y16284454D01*
X33449500Y16090552D01*
X33449500Y16090547D01*
X33449501Y16090543D01*
X33459777Y16019997D01*
X33459779Y16019992D01*
X33459780Y16019990D01*
X33459781Y16019987D01*
X33469738Y15999619D01*
X33477753Y15983223D01*
X33485129Y15955310D01*
X33486586Y15931843D01*
X33479210Y15894758D01*
X33459780Y15855014D01*
X33449500Y15784459D01*
X33449500Y15784454D01*
X33449500Y15590552D01*
X33449500Y15590547D01*
X33449501Y15590543D01*
X33459777Y15519997D01*
X33459779Y15519992D01*
X33477753Y15483223D01*
X33485129Y15455310D01*
X33486586Y15431843D01*
X33479210Y15394758D01*
X33459780Y15355014D01*
X33449500Y15284459D01*
X33449500Y15284454D01*
X33449500Y15090552D01*
X33449500Y15090547D01*
X33449501Y15090543D01*
X33459777Y15019997D01*
X33459778Y15019994D01*
X33459780Y15019990D01*
X33459781Y15019987D01*
X33467226Y15004757D01*
X33477753Y14983223D01*
X33485129Y14955310D01*
X33486586Y14931843D01*
X33479210Y14894758D01*
X33459780Y14855014D01*
X33449500Y14784459D01*
X33449500Y14784454D01*
X33449500Y14590552D01*
X33449500Y14590547D01*
X33449501Y14590543D01*
X33459777Y14519997D01*
X33459779Y14519992D01*
X33459780Y14519990D01*
X33459781Y14519987D01*
X33464350Y14510641D01*
X33477753Y14483223D01*
X33485129Y14455310D01*
X33486586Y14431843D01*
X33479210Y14394758D01*
X33459780Y14355014D01*
X33449500Y14284459D01*
X33449500Y14284454D01*
X33449500Y14090552D01*
X33449500Y14090547D01*
X33449501Y14090543D01*
X33459777Y14019997D01*
X33459779Y14019992D01*
X33459780Y14019990D01*
X33459781Y14019987D01*
X33464355Y14010630D01*
X33477753Y13983223D01*
X33485129Y13955310D01*
X33486586Y13931843D01*
X33479210Y13894758D01*
X33459780Y13855014D01*
X33449500Y13784459D01*
X33449500Y13784454D01*
X33449500Y13590552D01*
X33449500Y13590547D01*
X33449501Y13590543D01*
X33459777Y13519997D01*
X33459779Y13519992D01*
X33459780Y13519990D01*
X33459781Y13519987D01*
X33462260Y13514916D01*
X33477753Y13483223D01*
X33485129Y13455310D01*
X33486586Y13431843D01*
X33479210Y13394758D01*
X33459780Y13355014D01*
X33449500Y13284459D01*
X33449500Y13284457D01*
X33449500Y13284454D01*
X33449500Y13090552D01*
X33449500Y13090547D01*
X33449501Y13090543D01*
X33459777Y13019997D01*
X33459779Y13019992D01*
X33459780Y13019990D01*
X33459781Y13019987D01*
X33469156Y13000809D01*
X33478029Y12982659D01*
X33485320Y12955952D01*
X33487033Y12934135D01*
X33479742Y12895844D01*
X33459780Y12855010D01*
X33453112Y12809244D01*
X33439044Y12775459D01*
X33438008Y12774081D01*
X33434365Y12769673D01*
X33433096Y12767545D01*
X33430712Y12764371D01*
X33420644Y12758423D01*
X33399858Y12740453D01*
X33397498Y12739476D01*
X33379860Y12734622D01*
X33332503Y12727724D01*
X33332502Y12727724D01*
X33332497Y12727723D01*
X33332495Y12727722D01*
X33332486Y12727719D01*
X33332482Y12727718D01*
X33332476Y12727715D01*
X33332474Y12727714D01*
X33295723Y12709748D01*
X33267809Y12702371D01*
X33244342Y12700914D01*
X33207255Y12708291D01*
X33167517Y12727718D01*
X33167512Y12727720D01*
X33167495Y12727723D01*
X33167495Y12727722D01*
X33096954Y12738000D01*
X33096949Y12738000D01*
X33096948Y12738000D01*
X32903051Y12738000D01*
X32903046Y12738000D01*
X32903041Y12737999D01*
X32832498Y12727724D01*
X32832487Y12727720D01*
X32832474Y12727714D01*
X32795723Y12709748D01*
X32767809Y12702371D01*
X32744342Y12700914D01*
X32707255Y12708291D01*
X32667517Y12727718D01*
X32667512Y12727720D01*
X32667495Y12727723D01*
X32667495Y12727722D01*
X32596954Y12738000D01*
X32596949Y12738000D01*
X32596948Y12738000D01*
X32403051Y12738000D01*
X32403046Y12738000D01*
X32403041Y12737999D01*
X32332498Y12727724D01*
X32332487Y12727720D01*
X32332474Y12727714D01*
X32295723Y12709748D01*
X32267809Y12702371D01*
X32244342Y12700914D01*
X32207255Y12708291D01*
X32167517Y12727718D01*
X32167512Y12727720D01*
X32167495Y12727723D01*
X32167495Y12727722D01*
X32096954Y12738000D01*
X32096949Y12738000D01*
X32096948Y12738000D01*
X31903051Y12738000D01*
X31903046Y12738000D01*
X31903041Y12737999D01*
X31832498Y12727724D01*
X31832487Y12727720D01*
X31832474Y12727714D01*
X31795723Y12709748D01*
X31767809Y12702371D01*
X31744342Y12700914D01*
X31707255Y12708291D01*
X31667517Y12727718D01*
X31667512Y12727720D01*
X31667495Y12727723D01*
X31667495Y12727722D01*
X31596954Y12738000D01*
X31596949Y12738000D01*
X31596948Y12738000D01*
X31403051Y12738000D01*
X31403046Y12738000D01*
X31403041Y12737999D01*
X31332498Y12727724D01*
X31332487Y12727720D01*
X31332474Y12727714D01*
X31295723Y12709748D01*
X31267809Y12702371D01*
X31244342Y12700914D01*
X31207255Y12708291D01*
X31167517Y12727718D01*
X31167512Y12727720D01*
X31167495Y12727723D01*
X31167495Y12727722D01*
X31096954Y12738000D01*
X31096949Y12738000D01*
X31096948Y12738000D01*
X30903051Y12738000D01*
X30903046Y12738000D01*
X30903041Y12737999D01*
X30832498Y12727724D01*
X30832487Y12727720D01*
X30832474Y12727714D01*
X30795723Y12709748D01*
X30767809Y12702371D01*
X30744342Y12700914D01*
X30707255Y12708291D01*
X30667517Y12727718D01*
X30667512Y12727720D01*
X30667495Y12727723D01*
X30667495Y12727722D01*
X30596954Y12738000D01*
X30596949Y12738000D01*
X30596948Y12738000D01*
X30403051Y12738000D01*
X30403046Y12738000D01*
X30403041Y12737999D01*
X30332498Y12727724D01*
X30332487Y12727720D01*
X30332474Y12727714D01*
X30295723Y12709748D01*
X30267809Y12702371D01*
X30244342Y12700914D01*
X30207255Y12708291D01*
X30167517Y12727718D01*
X30167512Y12727720D01*
X30167495Y12727723D01*
X30167495Y12727722D01*
X30096954Y12738000D01*
X30096949Y12738000D01*
X30096948Y12738000D01*
X29903051Y12738000D01*
X29903046Y12738000D01*
X29903041Y12737999D01*
X29832498Y12727724D01*
X29832487Y12727720D01*
X29832474Y12727714D01*
X29795723Y12709748D01*
X29767809Y12702371D01*
X29744342Y12700914D01*
X29707255Y12708291D01*
X29667517Y12727718D01*
X29667512Y12727720D01*
X29667495Y12727723D01*
X29667495Y12727722D01*
X29596954Y12738000D01*
X29596949Y12738000D01*
X29596948Y12738000D01*
X29403051Y12738000D01*
X29403046Y12738000D01*
X29403041Y12737999D01*
X29332498Y12727724D01*
X29332487Y12727720D01*
X29332474Y12727714D01*
X29295723Y12709748D01*
X29267809Y12702371D01*
X29244342Y12700914D01*
X29207255Y12708291D01*
X29167517Y12727718D01*
X29167512Y12727720D01*
X29167495Y12727723D01*
X29167495Y12727722D01*
X29096954Y12738000D01*
X29096949Y12738000D01*
X29096948Y12738000D01*
X28903051Y12738000D01*
X28903046Y12738000D01*
X28903041Y12737999D01*
X28832498Y12727724D01*
X28832487Y12727720D01*
X28832474Y12727714D01*
X28795723Y12709748D01*
X28767809Y12702371D01*
X28744342Y12700914D01*
X28707255Y12708291D01*
X28667517Y12727718D01*
X28667512Y12727720D01*
X28667495Y12727723D01*
X28667495Y12727722D01*
X28596954Y12738000D01*
X28596949Y12738000D01*
X28596948Y12738000D01*
X28519895Y12738000D01*
X28467569Y12759674D01*
X28446018Y12807730D01*
X28444264Y12838083D01*
X28397733Y12940257D01*
X28354342Y12982659D01*
X28336138Y13000448D01*
X28327240Y13011161D01*
X28327139Y13011089D01*
X28326621Y13011823D01*
X28326607Y13011845D01*
X28308749Y13035924D01*
X28299550Y13047133D01*
X28292946Y13054252D01*
X28274369Y13074279D01*
X28274368Y13074280D01*
X28218348Y13110782D01*
X28180303Y13135572D01*
X28180298Y13135574D01*
X28146640Y13149515D01*
X28127978Y13157245D01*
X28121428Y13159870D01*
X28121427Y13159871D01*
X28121425Y13159871D01*
X28121422Y13159872D01*
X28110896Y13161840D01*
X28063446Y13192763D01*
X28050650Y13229850D01*
X28050499Y13232209D01*
X28050499Y13284448D01*
X28044962Y13322459D01*
X28043062Y13335500D01*
X28040993Y13349709D01*
X28040786Y13352559D01*
X28040219Y13355010D01*
X28040218Y13355014D01*
X28040218Y13355016D01*
X28040123Y13355208D01*
X28024888Y13386370D01*
X28022244Y13391779D01*
X28014867Y13419692D01*
X28014867Y13419693D01*
X28013410Y13443157D01*
X28020826Y13480321D01*
X28021120Y13480921D01*
X28021159Y13481000D01*
X28026319Y13491557D01*
X28040220Y13519991D01*
X28050500Y13590551D01*
X28050499Y13784448D01*
X28049947Y13788239D01*
X28045004Y13822174D01*
X28040993Y13849709D01*
X28040993Y13849710D01*
X28040221Y13855006D01*
X28040220Y13855009D01*
X28022244Y13891779D01*
X28014867Y13919693D01*
X28014113Y13931843D01*
X28013410Y13943158D01*
X28020787Y13980241D01*
X28040220Y14019991D01*
X28050500Y14090551D01*
X28050499Y14284448D01*
X28050110Y14287121D01*
X28044208Y14327639D01*
X28040994Y14349701D01*
X28040743Y14351422D01*
X28040221Y14355005D01*
X28040220Y14355007D01*
X28040220Y14355009D01*
X28025912Y14384276D01*
X28022244Y14391779D01*
X28014867Y14419693D01*
X28013637Y14439502D01*
X28013410Y14443158D01*
X28020790Y14480248D01*
X28025316Y14489504D01*
X28035649Y14510641D01*
X28040220Y14519991D01*
X28050500Y14590551D01*
X28050499Y14784448D01*
X28050196Y14786529D01*
X28041314Y14847505D01*
X28040993Y14849709D01*
X28040993Y14849710D01*
X28040221Y14855006D01*
X28040220Y14855009D01*
X28022244Y14891779D01*
X28014867Y14919693D01*
X28013410Y14943156D01*
X28020795Y14980258D01*
X28022051Y14982826D01*
X28040220Y15019991D01*
X28050500Y15090551D01*
X28050499Y15284448D01*
X28050497Y15284459D01*
X28040993Y15349705D01*
X28040992Y15349706D01*
X28040950Y15350000D01*
X28040221Y15355005D01*
X28040220Y15355007D01*
X28040220Y15355009D01*
X28022243Y15391779D01*
X28014867Y15419693D01*
X28014113Y15431843D01*
X28013410Y15443158D01*
X28020787Y15480242D01*
X28040220Y15519991D01*
X28050500Y15590551D01*
X28050499Y15784448D01*
X28048551Y15797819D01*
X28048551Y15797821D01*
X28040993Y15849709D01*
X28040771Y15852759D01*
X28040429Y15854580D01*
X28040220Y15855008D01*
X28040220Y15855009D01*
X28022244Y15891779D01*
X28014867Y15919693D01*
X28014630Y15923506D01*
X28013410Y15943158D01*
X28020787Y15980242D01*
X28040220Y16019991D01*
X28050500Y16090551D01*
X28050499Y16284448D01*
X28050499Y16284452D01*
X28050491Y16284545D01*
X28050387Y16285213D01*
X28049393Y16292036D01*
X28046195Y16313989D01*
X28040993Y16349709D01*
X28040771Y16352759D01*
X28040429Y16354580D01*
X28040220Y16355008D01*
X28040220Y16355009D01*
X28022244Y16391779D01*
X28014867Y16419692D01*
X28013410Y16443157D01*
X28020786Y16480240D01*
X28040220Y16519991D01*
X28050500Y16590551D01*
X28050499Y16784448D01*
X28050497Y16784463D01*
X28047769Y16803193D01*
X28040994Y16849701D01*
X28040618Y16852282D01*
X28040221Y16855005D01*
X28040220Y16855007D01*
X28040220Y16855009D01*
X28029671Y16876587D01*
X28022244Y16891779D01*
X28014867Y16919692D01*
X28014382Y16927500D01*
X28013410Y16943157D01*
X28020914Y16980332D01*
X28020848Y16980364D01*
X28040219Y17019989D01*
X28040220Y17019991D01*
X28050500Y17090551D01*
X28050499Y17284448D01*
X28050499Y17284449D01*
X28040945Y17350030D01*
X28040889Y17350449D01*
X28040928Y17350599D01*
X28040771Y17352761D01*
X28040430Y17354579D01*
X28040220Y17355009D01*
X28022244Y17391779D01*
X28014867Y17419693D01*
X28013410Y17443158D01*
X28020787Y17480241D01*
X28040220Y17519991D01*
X28050500Y17590551D01*
X28050499Y17784448D01*
X28047900Y17802290D01*
X28044968Y17822419D01*
X28040993Y17849709D01*
X28040771Y17852759D01*
X28040429Y17854580D01*
X28040220Y17855007D01*
X28040220Y17855009D01*
X28021966Y17892345D01*
X28014676Y17919052D01*
X28014415Y17922373D01*
X28012964Y17940867D01*
X28020257Y17979158D01*
X28022245Y17983224D01*
X28040220Y18019991D01*
X28046887Y18065759D01*
X28060957Y18099549D01*
X28061975Y18100904D01*
X28065635Y18105332D01*
X28066906Y18107466D01*
X28069286Y18110632D01*
X28079387Y18116600D01*
X28100111Y18134537D01*
X28102480Y18135518D01*
X28120133Y18140379D01*
X28137292Y18142879D01*
X28147030Y18144297D01*
X28147030Y18144298D01*
X28162211Y18146509D01*
X28165265Y18146730D01*
X28170544Y18147723D01*
X28173619Y18148171D01*
X28181073Y18153912D01*
X28204279Y18165257D01*
X28232184Y18172632D01*
X28255657Y18174090D01*
X28292743Y18166712D01*
X28332488Y18147281D01*
X28332489Y18147281D01*
X28332491Y18147280D01*
X28403051Y18137000D01*
X28596948Y18137001D01*
X28662206Y18146507D01*
X28667511Y18147280D01*
X28667736Y18147391D01*
X28669331Y18148171D01*
X28704276Y18165256D01*
X28732184Y18172632D01*
X28755657Y18174090D01*
X28792743Y18166712D01*
X28832488Y18147281D01*
X28832489Y18147281D01*
X28832491Y18147280D01*
X28903051Y18137000D01*
X29096948Y18137001D01*
X29162206Y18146507D01*
X29167511Y18147280D01*
X29167736Y18147391D01*
X29169331Y18148171D01*
X29204276Y18165256D01*
X29232184Y18172632D01*
X29255657Y18174090D01*
X29292743Y18166712D01*
X29332488Y18147281D01*
X29332489Y18147281D01*
X29332491Y18147280D01*
X29403051Y18137000D01*
X29596948Y18137001D01*
X29597048Y18137016D01*
X29597106Y18137013D01*
X29599622Y18137195D01*
X29599644Y18136886D01*
X29625726Y18135574D01*
X29651972Y18128996D01*
X29677921Y18116757D01*
X29718948Y18086477D01*
X29747492Y18076489D01*
X29850526Y18040435D01*
X29850531Y18040434D01*
X29850537Y18040432D01*
X29850543Y18040431D01*
X29875000Y18038138D01*
X29875000Y18038139D01*
X29875000Y18287154D01*
X29876904Y18303830D01*
X29880613Y18319865D01*
X29886229Y18335691D01*
X29892135Y18347772D01*
X29915220Y18394991D01*
X29916482Y18403659D01*
X29945471Y18452312D01*
X30000375Y18466218D01*
X30049030Y18437229D01*
G37*
%TD.AperFunction*%
%TA.AperFunction,Conductor*%
G36*
X9757221Y16133868D02*
G01*
X9766566Y16129997D01*
X9784940Y16111623D01*
X9804524Y16094544D01*
X9804646Y16091917D01*
X9806614Y16089949D01*
X9808386Y16038038D01*
X9800409Y16014322D01*
X9798450Y16012076D01*
X9748182Y15881715D01*
X9748114Y15881444D01*
X9738072Y15797821D01*
X9737500Y15793062D01*
X9737500Y15725000D01*
X10711281Y15725000D01*
X10739591Y15719371D01*
X10750003Y15715058D01*
X10790052Y15675016D01*
X10793733Y15666130D01*
X10794367Y15664600D01*
X10800000Y15636282D01*
X10800000Y15563719D01*
X10794367Y15535401D01*
X10790056Y15524993D01*
X10750008Y15484945D01*
X10750007Y15484944D01*
X10739599Y15480633D01*
X10711281Y15475000D01*
X9737500Y15475000D01*
X9737500Y15406939D01*
X9748114Y15318557D01*
X9799326Y15188689D01*
X9800011Y15186953D01*
X9802755Y15178559D01*
X9808875Y15155197D01*
X9801168Y15099086D01*
X9760891Y15066308D01*
X9760371Y15066133D01*
X9755109Y15064364D01*
X9731513Y15060500D01*
X9665406Y15060500D01*
X9637088Y15066133D01*
X9611959Y15076542D01*
X9587953Y15092582D01*
X9142581Y15537954D01*
X9126541Y15561960D01*
X9116131Y15587092D01*
X9110500Y15615406D01*
X9110500Y15655032D01*
X9109243Y15658735D01*
X9106295Y15669736D01*
X9106295Y15669737D01*
X9093581Y15717185D01*
X9082525Y15758447D01*
X9077290Y15767515D01*
X9077289Y15767517D01*
X9077289Y15767518D01*
X9046346Y15821112D01*
X9045068Y15823326D01*
X9028484Y15852050D01*
X9028483Y15852051D01*
X9028482Y15852053D01*
X8952053Y15928482D01*
X8952051Y15928484D01*
X8952051Y15928485D01*
X8918267Y15962268D01*
X8918266Y15962271D01*
X8902230Y15986267D01*
X8897917Y15996678D01*
X8897916Y16011401D01*
X8896594Y16014593D01*
X8897915Y16017785D01*
X8897912Y16053309D01*
X8902228Y16063730D01*
X8918264Y16087730D01*
X8937957Y16107423D01*
X8961959Y16123460D01*
X8987090Y16133869D01*
X9015405Y16139500D01*
X9728904Y16139500D01*
X9757221Y16133868D01*
G37*
%TD.AperFunction*%
%TA.AperFunction,Conductor*%
G36*
X23471277Y17957648D02*
G01*
X23472536Y17957404D01*
X23487524Y17949445D01*
X23497314Y17947746D01*
X23504690Y17943200D01*
X23514369Y17933521D01*
X23555992Y17909490D01*
X23604554Y17881452D01*
X23705141Y17854500D01*
X23705142Y17854499D01*
X23705144Y17854499D01*
X23813811Y17854499D01*
X23813827Y17854500D01*
X23816026Y17854500D01*
X24649872Y17854500D01*
X24678186Y17848869D01*
X24703318Y17838459D01*
X24727324Y17822419D01*
X25152275Y17397468D01*
X25168316Y17373460D01*
X25172627Y17363052D01*
X25172627Y17306415D01*
X25172626Y17306413D01*
X25171592Y17303917D01*
X25135831Y17268160D01*
X25136740Y17266440D01*
X25126938Y17261260D01*
X25126022Y17262994D01*
X25099961Y17252858D01*
X25094984Y17252321D01*
X25092511Y17251882D01*
X25092481Y17252051D01*
X25092480Y17252050D01*
X25092478Y17252068D01*
X25092345Y17252816D01*
X25049315Y17256185D01*
X25046868Y17257217D01*
X25030911Y17266437D01*
X25022190Y17273050D01*
X24937916Y17336957D01*
X24927146Y17345124D01*
X24843510Y17378105D01*
X24789055Y17399579D01*
X24743897Y17405002D01*
X24702279Y17410000D01*
X24702278Y17410000D01*
X24645000Y17410000D01*
X24645000Y15990001D01*
X24702278Y15990001D01*
X24707744Y15990001D01*
X24712374Y15991215D01*
X24752917Y15996082D01*
X24781699Y15993866D01*
X24794146Y15990378D01*
X24837238Y15957842D01*
X24841997Y15950091D01*
X24851513Y15925809D01*
X24856194Y15902278D01*
X24869565Y15835054D01*
X24874497Y15810262D01*
X24874497Y15810260D01*
X24875330Y15807762D01*
X24874779Y15807579D01*
X24879651Y15783099D01*
X24879651Y15771834D01*
X24857988Y15719519D01*
X24855655Y15717185D01*
X24803334Y15695500D01*
X23741404Y15695500D01*
X23713086Y15701133D01*
X23687957Y15711542D01*
X23663951Y15727582D01*
X22905869Y16485664D01*
X22903815Y16487718D01*
X23840001Y16487718D01*
X23850419Y16400953D01*
X23850419Y16400952D01*
X23850420Y16400949D01*
X23850421Y16400943D01*
X23904876Y16262854D01*
X23990455Y16150000D01*
X23994571Y16144573D01*
X23994572Y16144572D01*
X23994576Y16144569D01*
X23994577Y16144568D01*
X24080383Y16079500D01*
X24112852Y16054878D01*
X24250944Y16000422D01*
X24337721Y15990001D01*
X24394999Y15990002D01*
X24395000Y15990002D01*
X24395000Y16575000D01*
X23840001Y16575000D01*
X23840001Y16487718D01*
X22903815Y16487718D01*
X22895461Y16496073D01*
X22817605Y16573929D01*
X22786165Y16592081D01*
X22764458Y16611118D01*
X22757598Y16620058D01*
X22742942Y16674763D01*
X22743336Y16677753D01*
X22759429Y16714946D01*
X22759438Y16714957D01*
X22773204Y16727955D01*
X22876761Y16803193D01*
X22985847Y16912279D01*
X23840000Y16912279D01*
X23840000Y16825000D01*
X24395000Y16825000D01*
X24395000Y17410000D01*
X24394999Y17410001D01*
X24394998Y17410001D01*
X24337498Y17410001D01*
X24336178Y17409814D01*
X24250951Y17399581D01*
X24250950Y17399581D01*
X24250947Y17399580D01*
X24250941Y17399579D01*
X24112852Y17345124D01*
X23994577Y17255434D01*
X23994566Y17255423D01*
X23904876Y17137148D01*
X23850421Y16999056D01*
X23840073Y16912884D01*
X23840000Y16912279D01*
X22985847Y16912279D01*
X23036807Y16963239D01*
X23169845Y17146350D01*
X23272600Y17348019D01*
X23275001Y17355407D01*
X23289353Y17399580D01*
X23302116Y17438861D01*
X23342539Y17563269D01*
X23342539Y17563271D01*
X23342542Y17563279D01*
X23376708Y17778991D01*
X23377950Y17786830D01*
X23377950Y17876570D01*
X23383579Y17904881D01*
X23386356Y17911584D01*
X23386357Y17911590D01*
X23387201Y17913627D01*
X23395945Y17922373D01*
X23396451Y17925092D01*
X23403505Y17929934D01*
X23427247Y17953679D01*
X23439979Y17954968D01*
X23443147Y17957142D01*
X23449894Y17955972D01*
X23469619Y17957968D01*
X23471277Y17957648D01*
G37*
%TD.AperFunction*%
%TA.AperFunction,Conductor*%
G36*
X48498173Y25199412D02*
G01*
X48501786Y25199235D01*
X48505403Y25198969D01*
X48625612Y25187129D01*
X48632768Y25186067D01*
X48639882Y25184652D01*
X48646898Y25182895D01*
X48757241Y25149423D01*
X48764072Y25146978D01*
X48770762Y25144207D01*
X48777306Y25141113D01*
X48878990Y25086761D01*
X48885205Y25083036D01*
X48891227Y25079013D01*
X48897061Y25074686D01*
X48986175Y25001551D01*
X48991556Y24996675D01*
X48996673Y24991558D01*
X49001549Y24986177D01*
X49074684Y24897063D01*
X49079016Y24891222D01*
X49083034Y24885207D01*
X49086762Y24878987D01*
X49090565Y24871872D01*
X49141106Y24777317D01*
X49144205Y24770764D01*
X49146976Y24764074D01*
X49149423Y24757237D01*
X49182889Y24646914D01*
X49184653Y24639870D01*
X49184739Y24639440D01*
X49186063Y24632782D01*
X49187128Y24625601D01*
X49198965Y24505419D01*
X49199231Y24501804D01*
X49199403Y24498312D01*
X49199410Y24498186D01*
X49199499Y24494549D01*
X49199499Y1005454D01*
X49199409Y1001814D01*
X49199231Y998200D01*
X49198965Y994586D01*
X49187127Y874402D01*
X49186063Y867228D01*
X49184654Y860140D01*
X49182887Y853087D01*
X49149421Y742766D01*
X49146975Y735929D01*
X49144204Y729239D01*
X49141099Y722673D01*
X49086761Y621016D01*
X49083033Y614796D01*
X49079015Y608781D01*
X49074683Y602940D01*
X49001548Y513826D01*
X48996672Y508445D01*
X48991555Y503328D01*
X48986174Y498452D01*
X48897060Y425317D01*
X48891219Y420985D01*
X48885204Y416967D01*
X48878984Y413239D01*
X48811040Y376922D01*
X48777321Y358899D01*
X48770761Y355796D01*
X48764071Y353025D01*
X48757234Y350578D01*
X48646911Y317112D01*
X48639864Y315347D01*
X48632779Y313938D01*
X48625598Y312873D01*
X48505417Y301036D01*
X48501787Y300769D01*
X48498176Y300592D01*
X48494542Y300503D01*
X1091353Y307596D01*
X1091350Y307596D01*
X1060688Y307602D01*
X1060616Y307607D01*
X1054701Y307607D01*
X1012571Y307607D01*
X1008959Y307696D01*
X1005502Y307865D01*
X1005317Y307874D01*
X1001700Y308141D01*
X881506Y319979D01*
X874325Y321044D01*
X870866Y321732D01*
X867237Y322454D01*
X860193Y324218D01*
X749870Y357684D01*
X743033Y360131D01*
X736343Y362902D01*
X729790Y366001D01*
X628120Y420345D01*
X621900Y424073D01*
X615885Y428091D01*
X610044Y432423D01*
X520930Y505558D01*
X515549Y510434D01*
X510432Y515551D01*
X505556Y520932D01*
X432421Y610046D01*
X428094Y615880D01*
X424071Y621902D01*
X420343Y628122D01*
X365994Y729801D01*
X362899Y736347D01*
X360127Y743040D01*
X357681Y749877D01*
X348505Y780129D01*
X348505Y780130D01*
X324216Y860199D01*
X322453Y867234D01*
X321042Y874330D01*
X319978Y881502D01*
X319824Y883067D01*
X308138Y1001714D01*
X307874Y1005288D01*
X307694Y1008963D01*
X307607Y1012561D01*
X307607Y1686612D01*
X14899500Y1686612D01*
X14899500Y1513389D01*
X14921013Y1377556D01*
X14926598Y1342297D01*
X14926602Y1342280D01*
X14980124Y1177561D01*
X14980127Y1177554D01*
X15058766Y1023213D01*
X15144830Y904756D01*
X15160582Y883076D01*
X15283071Y760587D01*
X15283371Y760341D01*
X15284287Y759703D01*
X15423211Y658768D01*
X15489651Y624916D01*
X15577553Y580128D01*
X15577557Y580126D01*
X15742288Y526601D01*
X15742294Y526600D01*
X15742299Y526598D01*
X15742300Y526598D01*
X15742303Y526597D01*
X15831399Y512486D01*
X15860587Y507863D01*
X15913387Y499500D01*
X16086612Y499500D01*
X16086613Y499500D01*
X16124860Y505558D01*
X16139413Y507863D01*
X16257701Y526598D01*
X16257708Y526601D01*
X16257711Y526601D01*
X16257717Y526604D01*
X16257862Y526626D01*
X16258894Y526942D01*
X16259563Y527136D01*
X16260883Y527632D01*
X16422442Y580126D01*
X16422442Y580127D01*
X16422443Y580127D01*
X16422445Y580127D01*
X16422447Y580129D01*
X16427979Y581926D01*
X16427980Y581926D01*
X16427986Y581928D01*
X16432749Y583476D01*
X16438267Y588189D01*
X16576788Y658768D01*
X16716928Y760586D01*
X16839414Y883072D01*
X16941232Y1023212D01*
X17019873Y1177555D01*
X17073402Y1342299D01*
X17100500Y1513389D01*
X17100500Y1686611D01*
X17073402Y1857701D01*
X17073400Y1857706D01*
X17073399Y1857712D01*
X17073393Y1857730D01*
X17073124Y1858708D01*
X17072644Y1860035D01*
X17046062Y1941844D01*
X17019874Y2022443D01*
X17019872Y2022447D01*
X16986465Y2088013D01*
X16941232Y2176789D01*
X16840307Y2315699D01*
X16839417Y2316924D01*
X16839416Y2316925D01*
X16839414Y2316928D01*
X16716928Y2439414D01*
X16716925Y2439417D01*
X16716922Y2439420D01*
X16716894Y2439440D01*
X16716669Y2439603D01*
X16576787Y2541234D01*
X16422458Y2619867D01*
X16422454Y2619869D01*
X16422446Y2619873D01*
X16422442Y2619875D01*
X16408516Y2624400D01*
X16257720Y2673398D01*
X16257703Y2673402D01*
X16257700Y2673403D01*
X16257698Y2673403D01*
X16160555Y2688789D01*
X16086613Y2700500D01*
X16086612Y2700500D01*
X16086611Y2700500D01*
X15913389Y2700500D01*
X15913388Y2700500D01*
X15913387Y2700500D01*
X15742295Y2673402D01*
X15742278Y2673398D01*
X15577559Y2619876D01*
X15577540Y2619867D01*
X15423211Y2541234D01*
X15283080Y2439422D01*
X15160578Y2316920D01*
X15058766Y2176789D01*
X14980133Y2022460D01*
X14980127Y2022447D01*
X14980125Y2022443D01*
X14972671Y1999501D01*
X14926602Y1857722D01*
X14926598Y1857705D01*
X14905501Y1724499D01*
X14899500Y1686612D01*
X307607Y1686612D01*
X307607Y9907452D01*
X4639500Y9907452D01*
X4639500Y9432554D01*
X4639501Y9432541D01*
X4639508Y9432466D01*
X4639508Y9432460D01*
X4642257Y9403133D01*
X4642258Y9403124D01*
X4642259Y9403118D01*
X4642260Y9403114D01*
X4642261Y9403111D01*
X4680661Y9293373D01*
X4680662Y9293371D01*
X4683697Y9284699D01*
X4685619Y9279206D01*
X4726178Y9224251D01*
X4762896Y9174500D01*
X4763577Y9173577D01*
X4763582Y9173573D01*
X4787616Y9155835D01*
X4869207Y9095618D01*
X4869208Y9095618D01*
X4869209Y9095617D01*
X4869208Y9095617D01*
X4993087Y9052270D01*
X4993104Y9052265D01*
X4993115Y9052261D01*
X4993118Y9052260D01*
X4993121Y9052259D01*
X5022543Y9049500D01*
X5397456Y9049501D01*
X5426879Y9052259D01*
X5426885Y9052261D01*
X5550792Y9095618D01*
X5550792Y9095619D01*
X5550794Y9095619D01*
X5550796Y9095621D01*
X5554799Y9097022D01*
X5560330Y9102658D01*
X5587930Y9123029D01*
X5614054Y9135310D01*
X5625265Y9138090D01*
X5680854Y9129896D01*
X5690234Y9124327D01*
X5711418Y9105412D01*
X5713137Y9103145D01*
X5713140Y9103142D01*
X5713141Y9103141D01*
X5830326Y9014277D01*
X5967141Y8960326D01*
X6031621Y8952582D01*
X6053114Y8950000D01*
X6053115Y8950000D01*
X6105000Y8950000D01*
X6355000Y8950000D01*
X6406885Y8950000D01*
X6406886Y8950000D01*
X6424079Y8952066D01*
X6492858Y8960326D01*
X6629673Y9014277D01*
X6746858Y9103141D01*
X6746859Y9103142D01*
X6835723Y9220327D01*
X6878682Y9329266D01*
X10549500Y9329266D01*
X10549500Y8195734D01*
X10549504Y8195692D01*
X10549504Y8195690D01*
X10552031Y8168745D01*
X10552126Y8166705D01*
X10552354Y8165299D01*
X10552369Y8165253D01*
X10597201Y8037132D01*
X10597206Y8037119D01*
X10597207Y8037117D01*
X10677846Y7927854D01*
X10677853Y7927847D01*
X10787115Y7847209D01*
X10787116Y7847208D01*
X10787118Y7847207D01*
X10915295Y7802356D01*
X10915298Y7802355D01*
X10915301Y7802354D01*
X10945734Y7799500D01*
X10945741Y7799500D01*
X11354258Y7799500D01*
X11354266Y7799500D01*
X11384699Y7802354D01*
X11512882Y7847207D01*
X11622150Y7927850D01*
X11702793Y8037118D01*
X11747646Y8165301D01*
X11750500Y8195734D01*
X11750500Y9329266D01*
X11747646Y9359699D01*
X11736153Y9392543D01*
X11702793Y9487882D01*
X11702792Y9487884D01*
X11622153Y9597147D01*
X11622146Y9597154D01*
X11512883Y9677793D01*
X11512884Y9677793D01*
X11512863Y9677801D01*
X11440972Y9702957D01*
X11440948Y9702965D01*
X11384704Y9722645D01*
X11384705Y9722645D01*
X11384700Y9722646D01*
X11384699Y9722646D01*
X11373671Y9723681D01*
X11373669Y9723681D01*
X11360394Y9724926D01*
X11354266Y9725500D01*
X11354263Y9725500D01*
X10945736Y9725500D01*
X10945734Y9725500D01*
X10926135Y9723662D01*
X10918745Y9722969D01*
X10917414Y9722907D01*
X10915305Y9722648D01*
X10915272Y9722638D01*
X10787135Y9677801D01*
X10787115Y9677793D01*
X10677851Y9597153D01*
X10677847Y9597149D01*
X10597207Y9487885D01*
X10597199Y9487865D01*
X10552362Y9359728D01*
X10552352Y9359695D01*
X10552345Y9359638D01*
X10552344Y9359603D01*
X10549500Y9329266D01*
X6878682Y9329266D01*
X6889674Y9357141D01*
X6900000Y9443115D01*
X6900000Y9545000D01*
X6355000Y9545000D01*
X6355000Y8950000D01*
X6105000Y8950000D01*
X6105000Y9581282D01*
X6110629Y9609591D01*
X6114943Y9620006D01*
X6125351Y9630416D01*
X6126674Y9633608D01*
X6129865Y9634930D01*
X6154982Y9660052D01*
X6165411Y9664372D01*
X6193719Y9670000D01*
X6230000Y9670000D01*
X6230000Y9706282D01*
X6235629Y9734591D01*
X6239943Y9745006D01*
X6279982Y9785052D01*
X6290411Y9789372D01*
X6318719Y9795000D01*
X6900000Y9795000D01*
X6900000Y9896887D01*
X6896050Y9929772D01*
X6889674Y9982859D01*
X6835723Y10119674D01*
X6746859Y10236859D01*
X6746858Y10236860D01*
X6724059Y10254149D01*
X6679231Y10288143D01*
X6660072Y10309740D01*
X6656049Y10316617D01*
X6648335Y10372727D01*
X6682555Y10417855D01*
X6684758Y10419144D01*
X6686023Y10419883D01*
X6723372Y10430000D01*
X6980000Y10430000D01*
X6980000Y10956000D01*
X7001674Y11008326D01*
X7054000Y11030000D01*
X7156000Y11030000D01*
X7208326Y11008326D01*
X7230000Y10956000D01*
X7230000Y10430000D01*
X7743640Y10430000D01*
X7743641Y10430000D01*
X7917513Y10464585D01*
X7917524Y10464588D01*
X7917525Y10464589D01*
X7917527Y10464589D01*
X7950691Y10478326D01*
X8081305Y10532428D01*
X8224866Y10628352D01*
X8226308Y10629189D01*
X8228694Y10630910D01*
X8228716Y10630924D01*
X8228718Y10630925D01*
X8354075Y10756282D01*
X8354076Y10756284D01*
X8354090Y10756306D01*
X8355811Y10758692D01*
X8356648Y10760134D01*
X8452572Y10903695D01*
X8518385Y11062582D01*
X8520411Y11067473D01*
X8520412Y11067476D01*
X8520415Y11067487D01*
X8547768Y11205000D01*
X8547767Y11205000D01*
X8028124Y11205000D01*
X7975798Y11226674D01*
X7954124Y11279000D01*
X7954124Y11287235D01*
X7955000Y11290504D01*
X7955000Y11369496D01*
X7954124Y11372766D01*
X7954124Y11381000D01*
X7963246Y11403025D01*
X7969416Y11426048D01*
X7973841Y11428604D01*
X7975798Y11433326D01*
X7997822Y11442449D01*
X8018465Y11454367D01*
X8028124Y11455000D01*
X8547768Y11455000D01*
X8547768Y11455001D01*
X8520415Y11592513D01*
X8520412Y11592524D01*
X8520411Y11592529D01*
X8452571Y11756308D01*
X8447585Y11763770D01*
X8436535Y11790446D01*
X8434086Y11802760D01*
X8443935Y11856450D01*
X8449027Y11864587D01*
X8467039Y11884287D01*
X8493017Y11903987D01*
X8497563Y11907434D01*
X8588922Y12027908D01*
X8644385Y12168557D01*
X8655000Y12256939D01*
X8655000Y12325000D01*
X7768719Y12325000D01*
X7740404Y12330632D01*
X7729995Y12334943D01*
X7689946Y12374987D01*
X7685629Y12385409D01*
X7680000Y12413719D01*
X7680000Y12486282D01*
X7685629Y12514591D01*
X7689943Y12525006D01*
X7729982Y12565052D01*
X7740411Y12569372D01*
X7768719Y12575000D01*
X8655000Y12575000D01*
X8655000Y12610782D01*
X8660629Y12639091D01*
X8664943Y12649506D01*
X8704982Y12689552D01*
X8715411Y12693872D01*
X8743719Y12699500D01*
X9332739Y12699500D01*
X9341626Y12704633D01*
X9462485Y12737016D01*
X9491646Y12753852D01*
X9588015Y12809490D01*
X9945946Y13167422D01*
X9969949Y13183459D01*
X9995080Y13193869D01*
X10023396Y13199500D01*
X10386281Y13199500D01*
X10414591Y13193871D01*
X10425003Y13189558D01*
X10465052Y13149516D01*
X10469367Y13139100D01*
X10475000Y13110782D01*
X10475000Y12937500D01*
X11236281Y12937500D01*
X11264591Y12931871D01*
X11275003Y12927558D01*
X11315053Y12887515D01*
X11315056Y12887508D01*
X11319367Y12877100D01*
X11325000Y12848782D01*
X11325000Y12776219D01*
X11319367Y12747901D01*
X11315056Y12737493D01*
X11275008Y12697445D01*
X11275007Y12697444D01*
X11264599Y12693133D01*
X11236281Y12687500D01*
X10475000Y12687500D01*
X10475000Y12499391D01*
X10477789Y12463949D01*
X10521845Y12312308D01*
X10601396Y12177795D01*
X10602228Y12176389D01*
X10713887Y12064730D01*
X10713985Y12064672D01*
X10714139Y12064534D01*
X10717566Y12061876D01*
X10717377Y12061634D01*
X10735491Y12045410D01*
X10745706Y12031806D01*
X10760530Y11986992D01*
X10760514Y11983882D01*
X10757993Y11965108D01*
X10756656Y11960119D01*
X10746319Y11937588D01*
X10732949Y11917978D01*
X10715752Y11900125D01*
X10677849Y11872151D01*
X10677847Y11872149D01*
X10597207Y11762885D01*
X10597199Y11762865D01*
X10552362Y11634728D01*
X10552352Y11634695D01*
X10552093Y11632585D01*
X10552031Y11631256D01*
X10549500Y11604266D01*
X10549500Y10470734D01*
X10550132Y10464000D01*
X10552031Y10443745D01*
X10552126Y10441705D01*
X10552354Y10440299D01*
X10552369Y10440253D01*
X10597075Y10312493D01*
X10597206Y10312119D01*
X10597207Y10312117D01*
X10677846Y10202854D01*
X10677853Y10202847D01*
X10787115Y10122209D01*
X10787116Y10122208D01*
X10787118Y10122207D01*
X10838308Y10104295D01*
X10903380Y10081525D01*
X10915295Y10077356D01*
X10915298Y10077355D01*
X10915301Y10077354D01*
X10945734Y10074500D01*
X10945741Y10074500D01*
X11354258Y10074500D01*
X11354266Y10074500D01*
X11384699Y10077354D01*
X11501202Y10118120D01*
X11529790Y10122157D01*
X11532122Y10122027D01*
X11551720Y10120926D01*
X11592285Y10106007D01*
X11677905Y10041079D01*
X11818556Y9985615D01*
X11896323Y9976276D01*
X11906938Y9975000D01*
X11906939Y9975000D01*
X11975000Y9975000D01*
X11975000Y10948782D01*
X11980629Y10977091D01*
X11984943Y10987506D01*
X12024982Y11027552D01*
X12035411Y11031872D01*
X12063719Y11037500D01*
X12136281Y11037500D01*
X12164591Y11031871D01*
X12175003Y11027558D01*
X12215053Y10987515D01*
X12215056Y10987508D01*
X12219367Y10977100D01*
X12225000Y10948782D01*
X12225000Y9975000D01*
X12293061Y9975000D01*
X12293062Y9975000D01*
X12302538Y9976139D01*
X12381443Y9985615D01*
X12495165Y10030460D01*
X12522092Y10041078D01*
X12522092Y10041079D01*
X12522094Y10041079D01*
X12604021Y10103207D01*
X12629985Y10115827D01*
X12651233Y10121391D01*
X12694418Y10119653D01*
X12776434Y10090954D01*
X12803380Y10081525D01*
X12815295Y10077356D01*
X12815298Y10077355D01*
X12815301Y10077354D01*
X12845734Y10074500D01*
X12845741Y10074500D01*
X13254258Y10074500D01*
X13254266Y10074500D01*
X13284699Y10077354D01*
X13412882Y10122207D01*
X13515150Y10197684D01*
X13522146Y10202847D01*
X13522146Y10202848D01*
X13522150Y10202850D01*
X13584431Y10287241D01*
X13605775Y10306677D01*
X13615428Y10312494D01*
X13671428Y10320934D01*
X13682550Y10318176D01*
X13690482Y10315729D01*
X13699184Y10312500D01*
X14450000Y10312500D01*
X14700000Y10312500D01*
X15450000Y10312500D01*
X15450000Y10475611D01*
X15447210Y10511052D01*
X15403154Y10662692D01*
X15322771Y10798612D01*
X15211111Y10910272D01*
X15177748Y10930003D01*
X15075192Y10990655D01*
X14923551Y11034711D01*
X14888110Y11037500D01*
X14888109Y11037500D01*
X14700000Y11037500D01*
X14700000Y10312500D01*
X14450000Y10312500D01*
X14450000Y11037500D01*
X14261890Y11037500D01*
X14226447Y11034711D01*
X14074806Y10990655D01*
X13938887Y10910272D01*
X13827228Y10798613D01*
X13795688Y10745281D01*
X13776421Y10723771D01*
X13770050Y10718988D01*
X13715192Y10704906D01*
X13666443Y10733739D01*
X13666436Y10733748D01*
X13665314Y10735243D01*
X13650500Y10779662D01*
X13650500Y11604260D01*
X13650500Y11604264D01*
X13650500Y11604266D01*
X13647646Y11634699D01*
X13629644Y11686147D01*
X13629569Y11686360D01*
X13618128Y11719058D01*
X13606711Y11751687D01*
X13603608Y11763713D01*
X13601544Y11775862D01*
X13600500Y11788250D01*
X13600500Y11923463D01*
X13599242Y11927168D01*
X13567451Y12045814D01*
X13567450Y12045815D01*
X13565617Y12052658D01*
X13562985Y12062482D01*
X13562983Y12062487D01*
X13541246Y12100136D01*
X13515960Y12143933D01*
X13506682Y12171268D01*
X13505823Y12177795D01*
X13504163Y12190403D01*
X13518567Y12244773D01*
X13562364Y12302525D01*
X13615359Y12436910D01*
X13625500Y12521356D01*
X13625500Y13103644D01*
X13615359Y13188090D01*
X13615358Y13188092D01*
X13615358Y13188094D01*
X13564510Y13317034D01*
X13564509Y13317035D01*
X13562371Y13322458D01*
X13562365Y13322473D01*
X13562364Y13322474D01*
X13562364Y13322475D01*
X13560098Y13325462D01*
X13559922Y13325800D01*
X13559307Y13326506D01*
X13475078Y13437578D01*
X13475076Y13437579D01*
X13475076Y13437580D01*
X13470971Y13440693D01*
X13470578Y13441124D01*
X13469607Y13441727D01*
X13467721Y13443157D01*
X13463024Y13446719D01*
X13446325Y13464395D01*
X13442557Y13469999D01*
X13433314Y13483747D01*
X13423248Y13505881D01*
X13387985Y13637482D01*
X13387984Y13637484D01*
X13387984Y13637485D01*
X13382217Y13647473D01*
X13371244Y13666480D01*
X13371243Y13666481D01*
X13315510Y13763015D01*
X13165758Y13912767D01*
X13149718Y13936773D01*
X13146668Y13944137D01*
X13146670Y14000772D01*
X13186717Y14040819D01*
X13194082Y14043870D01*
X13222396Y14049500D01*
X13641758Y14049500D01*
X13641766Y14049500D01*
X13672199Y14052354D01*
X13800382Y14097207D01*
X13867248Y14146556D01*
X13909645Y14177846D01*
X13909646Y14177848D01*
X13909650Y14177850D01*
X13915615Y14185931D01*
X13915619Y14185936D01*
X13949210Y14231452D01*
X13987004Y14282663D01*
X13988814Y14284766D01*
X13988820Y14284774D01*
X13990181Y14286771D01*
X13990474Y14287634D01*
X14025789Y14388563D01*
X14026915Y14391779D01*
X14031321Y14404371D01*
X14035146Y14415301D01*
X14038000Y14445734D01*
X14038000Y14619902D01*
X14043631Y14648216D01*
X14054042Y14673351D01*
X14070078Y14697351D01*
X14162092Y14789364D01*
X14295336Y14922608D01*
X14295341Y14922612D01*
X14345147Y14972418D01*
X14369154Y14988460D01*
X14394284Y14998869D01*
X14422600Y15004500D01*
X14815781Y15004500D01*
X14844091Y14998871D01*
X14854503Y14994558D01*
X14894553Y14954515D01*
X14894556Y14954508D01*
X14898867Y14944100D01*
X14904500Y14915782D01*
X14904500Y13402069D01*
X14904500Y13297931D01*
X14908113Y13284448D01*
X14925242Y13220517D01*
X14931450Y13197347D01*
X14931451Y13197344D01*
X14931452Y13197342D01*
X14931455Y13197336D01*
X14957250Y13152660D01*
X14957251Y13152658D01*
X14970910Y13129000D01*
X14983521Y13107157D01*
X15062547Y13028131D01*
X15062569Y13028110D01*
X17247418Y10843261D01*
X17263457Y10819258D01*
X17273868Y10794124D01*
X17279500Y10765809D01*
X17279500Y8272931D01*
X17302255Y8188003D01*
X17305051Y8177571D01*
X17306452Y8172342D01*
X17317895Y8152523D01*
X17349534Y8097722D01*
X17358521Y8082157D01*
X17398163Y8042515D01*
X17437547Y8003131D01*
X17437569Y8003110D01*
X18163445Y7277234D01*
X18179487Y7253225D01*
X18182535Y7245866D01*
X18182533Y7189229D01*
X18142492Y7149185D01*
X18135133Y7146136D01*
X18106808Y7140500D01*
X16129500Y7140500D01*
X16077174Y7162174D01*
X16055500Y7214500D01*
X16055500Y7926001D01*
X16054143Y7938625D01*
X16048518Y7990941D01*
X16037312Y8042452D01*
X16026354Y8080658D01*
X15969675Y8177571D01*
X15969674Y8177572D01*
X15969673Y8177574D01*
X15923924Y8230370D01*
X15923920Y8230375D01*
X15879187Y8272553D01*
X15779111Y8323439D01*
X15779108Y8323440D01*
X15712075Y8343124D01*
X15712062Y8343127D01*
X15703338Y8344381D01*
X15654631Y8373284D01*
X15639944Y8414411D01*
X15610369Y9094656D01*
X15602194Y9152797D01*
X15591105Y9198922D01*
X15581628Y9230658D01*
X15571174Y9248532D01*
X15529538Y9319724D01*
X15524949Y9327571D01*
X15479194Y9380375D01*
X15434461Y9422553D01*
X15348589Y9466217D01*
X15311771Y9509253D01*
X15316167Y9565719D01*
X15320515Y9572575D01*
X15322771Y9576389D01*
X15403154Y9712309D01*
X15447210Y9863949D01*
X15450000Y9899390D01*
X15450000Y10062500D01*
X13700000Y10062500D01*
X13700000Y9899388D01*
X13701108Y9885304D01*
X13683605Y9831439D01*
X13633140Y9805728D01*
X13627336Y9805500D01*
X12673999Y9805500D01*
X12609058Y9798518D01*
X12557549Y9787313D01*
X12519346Y9776356D01*
X12519343Y9776355D01*
X12422426Y9719674D01*
X12369630Y9673925D01*
X12369624Y9673919D01*
X12327448Y9629189D01*
X12327446Y9629186D01*
X12276562Y9529113D01*
X12276560Y9529109D01*
X12256876Y9462076D01*
X12256875Y9462071D01*
X12244500Y9376003D01*
X12244500Y8074000D01*
X12251482Y8009059D01*
X12262687Y7957550D01*
X12273644Y7919347D01*
X12273645Y7919344D01*
X12330326Y7822427D01*
X12347718Y7802356D01*
X12376080Y7769625D01*
X12420813Y7727447D01*
X12520889Y7676561D01*
X12549510Y7668157D01*
X12587924Y7656877D01*
X12587925Y7656877D01*
X12587928Y7656876D01*
X12674000Y7644500D01*
X13270500Y7644500D01*
X13322826Y7622826D01*
X13344500Y7570500D01*
X13344500Y7214500D01*
X13322826Y7162174D01*
X13270500Y7140500D01*
X7842931Y7140500D01*
X7809401Y7131517D01*
X7809401Y7131516D01*
X7742341Y7113548D01*
X7742339Y7113547D01*
X7733684Y7108549D01*
X7733683Y7108548D01*
X7652155Y7061479D01*
X7052307Y6461631D01*
X7033839Y6451166D01*
X7029683Y6446368D01*
X7024751Y6446016D01*
X7017986Y6442181D01*
X7014765Y6441373D01*
X7013797Y6445232D01*
X6973191Y6442325D01*
X6930386Y6479413D01*
X6926343Y6535904D01*
X6926548Y6536520D01*
X6937517Y6557492D01*
X6993794Y6632666D01*
X6993797Y6632671D01*
X7010561Y6677619D01*
X7044091Y6767517D01*
X7050500Y6827127D01*
X7050499Y7322872D01*
X7044091Y7382483D01*
X7033306Y7411400D01*
X7028932Y7423129D01*
X7028932Y7423130D01*
X6993797Y7517331D01*
X6992365Y7519559D01*
X6990624Y7521568D01*
X6907546Y7632546D01*
X6796567Y7715625D01*
X6794557Y7717367D01*
X6792333Y7718796D01*
X6792329Y7718798D01*
X6657487Y7769090D01*
X6657484Y7769091D01*
X6657483Y7769091D01*
X6657480Y7769092D01*
X6655524Y7769409D01*
X6653539Y7769515D01*
X6597874Y7775500D01*
X6597873Y7775500D01*
X5602126Y7775500D01*
X5602125Y7775500D01*
X5542514Y7769091D01*
X5542509Y7769090D01*
X5407669Y7718798D01*
X5405438Y7717365D01*
X5403433Y7715627D01*
X5292454Y7632547D01*
X5292453Y7632546D01*
X5209373Y7521567D01*
X5207635Y7519562D01*
X5206202Y7517331D01*
X5155911Y7382495D01*
X5155909Y7382489D01*
X5149500Y7322875D01*
X5149500Y6827128D01*
X5155909Y6767516D01*
X5155910Y6767511D01*
X5206202Y6632671D01*
X5207633Y6630443D01*
X5209375Y6628433D01*
X5292454Y6517454D01*
X5292457Y6517451D01*
X5360619Y6466424D01*
X5379911Y6444949D01*
X5385660Y6435261D01*
X5393724Y6379201D01*
X5393722Y6379195D01*
X5391951Y6372257D01*
X5372576Y6338233D01*
X5305882Y6271539D01*
X5229222Y6156809D01*
X5176422Y6029338D01*
X5176420Y6029332D01*
X5176417Y6029322D01*
X5149500Y5893992D01*
X5149500Y5756010D01*
X5176417Y5620680D01*
X5176420Y5620669D01*
X5176422Y5620664D01*
X5229217Y5493206D01*
X5229223Y5493192D01*
X5229297Y5493044D01*
X5229956Y5492095D01*
X5255075Y5454501D01*
X5305886Y5378458D01*
X5359344Y5325000D01*
X5403458Y5280886D01*
X5403462Y5280883D01*
X5420190Y5269705D01*
X5440602Y5249294D01*
X5446862Y5239925D01*
X5457914Y5184378D01*
X5457913Y5184373D01*
X5457269Y5181136D01*
X5425803Y5134046D01*
X5403463Y5119120D01*
X5305883Y5021540D01*
X5229222Y4906809D01*
X5176422Y4779338D01*
X5176420Y4779332D01*
X5176417Y4779322D01*
X5152724Y4660199D01*
X5149500Y4643992D01*
X5149500Y4506009D01*
X5151694Y4494978D01*
X5176417Y4370680D01*
X5176420Y4370669D01*
X5176422Y4370664D01*
X5229222Y4243193D01*
X5287964Y4155279D01*
X5305884Y4128461D01*
X5305888Y4128456D01*
X5354529Y4079815D01*
X5370568Y4055812D01*
X5374880Y4045404D01*
X5374884Y3988767D01*
X5374880Y3988757D01*
X5372547Y3983126D01*
X5345300Y3949925D01*
X5340037Y3946409D01*
X5340034Y3946406D01*
X5340032Y3946403D01*
X5228599Y3834971D01*
X5141046Y3703939D01*
X5080743Y3558355D01*
X5080739Y3558337D01*
X5059752Y3452826D01*
X5059190Y3450001D01*
X5059191Y3450000D01*
X5776000Y3450000D01*
X5828326Y3428326D01*
X5850000Y3376000D01*
X5850000Y3274000D01*
X5828326Y3221674D01*
X5776000Y3200000D01*
X5059190Y3200000D01*
X5080739Y3091665D01*
X5080743Y3091647D01*
X5141046Y2946063D01*
X5228597Y2815032D01*
X5340030Y2703599D01*
X5471061Y2616048D01*
X5616645Y2555745D01*
X5616646Y2555745D01*
X5616648Y2555744D01*
X5616655Y2555742D01*
X5771208Y2525000D01*
X5975000Y2525000D01*
X5975000Y3001000D01*
X5996674Y3053326D01*
X6049000Y3075000D01*
X6151000Y3075000D01*
X6203326Y3053326D01*
X6225000Y3001000D01*
X6225000Y2525000D01*
X6428790Y2525000D01*
X6428792Y2525000D01*
X6583344Y2555742D01*
X6583351Y2555744D01*
X6728938Y2616048D01*
X6856107Y2701019D01*
X6857559Y2701863D01*
X6859947Y2703585D01*
X6859969Y2703599D01*
X6859971Y2703600D01*
X6971400Y2815029D01*
X6971401Y2815031D01*
X6971415Y2815053D01*
X6973137Y2817441D01*
X6973982Y2818894D01*
X6974636Y2819873D01*
X7058952Y2946062D01*
X7119256Y3091649D01*
X7119258Y3091656D01*
X7140809Y3200000D01*
X7140808Y3200000D01*
X6424000Y3200000D01*
X6371674Y3221674D01*
X6350000Y3274000D01*
X6350000Y3376000D01*
X6371674Y3428326D01*
X6424000Y3450000D01*
X7140809Y3450000D01*
X7138666Y3460774D01*
X7119258Y3558345D01*
X7119256Y3558352D01*
X7118471Y3560246D01*
X7058952Y3703939D01*
X7010407Y3776592D01*
X6985366Y3814069D01*
X23799500Y3814069D01*
X23799500Y3685931D01*
X23806027Y3653118D01*
X23824497Y3560261D01*
X23824498Y3560258D01*
X23825290Y3558345D01*
X23870167Y3450002D01*
X23873534Y3441874D01*
X23873535Y3441871D01*
X23940748Y3341281D01*
X23944724Y3335331D01*
X24035331Y3244724D01*
X24141873Y3173535D01*
X24260256Y3124499D01*
X24260259Y3124499D01*
X24262169Y3123919D01*
X24281803Y3114632D01*
X24288775Y3109973D01*
X24320239Y3062879D01*
X24309187Y3007331D01*
X24266715Y2978954D01*
X24266990Y2978291D01*
X24263660Y2976912D01*
X24262098Y2975868D01*
X24260255Y2975502D01*
X24141876Y2926468D01*
X24035061Y2855097D01*
X24033685Y2853631D01*
X23946369Y2766315D01*
X23944903Y2764939D01*
X23873532Y2658124D01*
X23825115Y2541233D01*
X23824498Y2539743D01*
X23824497Y2539740D01*
X23803231Y2432826D01*
X23799500Y2414069D01*
X23799500Y2285931D01*
X23803584Y2265401D01*
X23805626Y2255135D01*
X23821209Y2176789D01*
X23824497Y2160261D01*
X23824498Y2160258D01*
X23824503Y2160246D01*
X23866977Y2057702D01*
X23873533Y2041876D01*
X23923283Y1967419D01*
X23944724Y1935331D01*
X24035331Y1844724D01*
X24141873Y1773535D01*
X24141878Y1773533D01*
X24141877Y1773533D01*
X24193448Y1752172D01*
X24260256Y1724499D01*
X24260258Y1724499D01*
X24260260Y1724498D01*
X24302903Y1716016D01*
X24385931Y1699500D01*
X24385933Y1699500D01*
X24514067Y1699500D01*
X24514069Y1699500D01*
X24639744Y1724499D01*
X24758127Y1773535D01*
X24769197Y1780933D01*
X24788829Y1790217D01*
X24808931Y1796314D01*
X24830409Y1799500D01*
X25032739Y1799500D01*
X25041626Y1804633D01*
X25162485Y1837016D01*
X25175836Y1844724D01*
X25248391Y1886613D01*
X41499500Y1886613D01*
X41499500Y1713389D01*
X41526598Y1542297D01*
X41526602Y1542280D01*
X41580124Y1377561D01*
X41580133Y1377542D01*
X41658766Y1223213D01*
X41691940Y1177554D01*
X41760583Y1083075D01*
X41883071Y960587D01*
X41883371Y960341D01*
X41884287Y959703D01*
X42023211Y858768D01*
X42111987Y813535D01*
X42177553Y780128D01*
X42177557Y780126D01*
X42342288Y726601D01*
X42342294Y726600D01*
X42342299Y726598D01*
X42342302Y726598D01*
X42342304Y726597D01*
X42367081Y722673D01*
X42456359Y708533D01*
X42513387Y699500D01*
X42513388Y699500D01*
X42513389Y699500D01*
X42686612Y699500D01*
X42729383Y706275D01*
X42857701Y726598D01*
X42857708Y726601D01*
X42857711Y726601D01*
X42857723Y726606D01*
X42857862Y726627D01*
X42858894Y726942D01*
X42859563Y727136D01*
X42860883Y727632D01*
X43022442Y780126D01*
X43022442Y780127D01*
X43022443Y780127D01*
X43022445Y780127D01*
X43022447Y780129D01*
X43027979Y781926D01*
X43027980Y781926D01*
X43027986Y781928D01*
X43032749Y783476D01*
X43038267Y788189D01*
X43176788Y858768D01*
X43316928Y960586D01*
X43439414Y1083072D01*
X43541232Y1223212D01*
X43619873Y1377555D01*
X43619874Y1377558D01*
X43673399Y1542289D01*
X43673399Y1542292D01*
X43673402Y1542299D01*
X43700500Y1713389D01*
X43700500Y1886611D01*
X43696876Y1909489D01*
X43686052Y1977828D01*
X43678986Y2022445D01*
X43673401Y2057702D01*
X43673401Y2057703D01*
X43673377Y2057856D01*
X43673263Y2058294D01*
X43673212Y2058466D01*
X43672644Y2060035D01*
X43619875Y2222440D01*
X43619874Y2222441D01*
X43619874Y2222443D01*
X43619872Y2222447D01*
X43571734Y2316924D01*
X43541232Y2376789D01*
X43440307Y2515699D01*
X43439417Y2516924D01*
X43439416Y2516925D01*
X43439414Y2516928D01*
X43316928Y2639414D01*
X43316925Y2639417D01*
X43316922Y2639420D01*
X43316894Y2639440D01*
X43316669Y2639603D01*
X43176787Y2741234D01*
X43067665Y2796833D01*
X43022446Y2819873D01*
X43022442Y2819875D01*
X42980177Y2833608D01*
X42857720Y2873398D01*
X42857703Y2873402D01*
X42857700Y2873403D01*
X42857698Y2873403D01*
X42760555Y2888789D01*
X42686613Y2900500D01*
X42686612Y2900500D01*
X42686611Y2900500D01*
X42513389Y2900500D01*
X42513388Y2900500D01*
X42513387Y2900500D01*
X42342295Y2873402D01*
X42342278Y2873398D01*
X42177559Y2819876D01*
X42177557Y2819876D01*
X42177557Y2819875D01*
X42177553Y2819873D01*
X42157379Y2809594D01*
X42023211Y2741234D01*
X41883080Y2639422D01*
X41760578Y2516920D01*
X41658766Y2376789D01*
X41580133Y2222460D01*
X41580124Y2222441D01*
X41526602Y2057722D01*
X41526598Y2057705D01*
X41499500Y1886613D01*
X25248391Y1886613D01*
X25288015Y1909490D01*
X25345944Y1967422D01*
X25369953Y1983462D01*
X25395081Y1993869D01*
X25423396Y1999501D01*
X26444863Y1999501D01*
X26444864Y1999501D01*
X26469991Y2002415D01*
X26572765Y2047794D01*
X26652206Y2127235D01*
X26697585Y2230009D01*
X26700500Y2255135D01*
X26700499Y3844864D01*
X26697585Y3869991D01*
X26652206Y3972765D01*
X26572765Y4052206D01*
X26559199Y4058196D01*
X26486527Y4090284D01*
X26486524Y4090285D01*
X26469991Y4097585D01*
X26469990Y4097586D01*
X26469988Y4097586D01*
X26444865Y4100500D01*
X26444864Y4100500D01*
X25423396Y4100500D01*
X25395078Y4106133D01*
X25369949Y4116542D01*
X25345943Y4132582D01*
X25288016Y4190509D01*
X25288015Y4190510D01*
X25260402Y4206452D01*
X25162485Y4262984D01*
X25162482Y4262985D01*
X25156704Y4264533D01*
X25156685Y4264540D01*
X25022479Y4300500D01*
X25022477Y4300500D01*
X25022475Y4300500D01*
X24830412Y4300500D01*
X24808931Y4303686D01*
X24788825Y4309785D01*
X24769193Y4319071D01*
X24767608Y4320130D01*
X24758126Y4326466D01*
X24758121Y4326468D01*
X24639754Y4375497D01*
X24639742Y4375502D01*
X24639739Y4375503D01*
X24544820Y4394383D01*
X24514069Y4400500D01*
X24514068Y4400500D01*
X24385932Y4400500D01*
X24385931Y4400500D01*
X24355180Y4394383D01*
X24355179Y4394383D01*
X24325150Y4388410D01*
X24260260Y4375503D01*
X24260257Y4375502D01*
X24260248Y4375499D01*
X24260244Y4375497D01*
X24141876Y4326468D01*
X24035061Y4255097D01*
X24033685Y4253631D01*
X23946369Y4166315D01*
X23944903Y4164939D01*
X23873532Y4058124D01*
X23824503Y3939756D01*
X23824495Y3939734D01*
X23810624Y3869993D01*
X23810623Y3869989D01*
X23799500Y3814069D01*
X6985366Y3814069D01*
X6971400Y3834971D01*
X6859977Y3946393D01*
X6859963Y3946407D01*
X6858516Y3947373D01*
X6857280Y3948609D01*
X6857146Y3948719D01*
X6857156Y3948733D01*
X6838092Y3967798D01*
X6834772Y3972767D01*
X6831835Y3977164D01*
X6820790Y4032710D01*
X6821980Y4038694D01*
X6842231Y4076577D01*
X6894114Y4128458D01*
X6900171Y4137524D01*
X6925518Y4160964D01*
X6927792Y4162239D01*
X6934025Y4165175D01*
X6939201Y4168634D01*
X6941730Y4170051D01*
X6949995Y4171033D01*
X6977912Y4179500D01*
X7327068Y4179500D01*
X7327069Y4179500D01*
X7427658Y4206452D01*
X7472750Y4232487D01*
X7517843Y4258521D01*
X7591479Y4332157D01*
X7591480Y4332160D01*
X8681742Y5422421D01*
X8688425Y5426886D01*
X34870000Y5426886D01*
X34870000Y5325000D01*
X35415000Y5325000D01*
X35415000Y5920000D01*
X35363113Y5920000D01*
X35277141Y5909675D01*
X35277139Y5909675D01*
X35140327Y5855725D01*
X35140326Y5855724D01*
X35023146Y5766865D01*
X35023135Y5766854D01*
X34934276Y5649674D01*
X34934275Y5649673D01*
X34880325Y5512861D01*
X34880325Y5512859D01*
X34876554Y5481455D01*
X34870000Y5426886D01*
X8688425Y5426886D01*
X8705746Y5438459D01*
X8730877Y5448869D01*
X8759193Y5454500D01*
X32252069Y5454500D01*
X32352658Y5481452D01*
X32352662Y5481455D01*
X32352666Y5481456D01*
X32352666Y5481457D01*
X32353067Y5481564D01*
X32354302Y5482220D01*
X32356499Y5483670D01*
X32364423Y5488246D01*
X32364424Y5488248D01*
X32413325Y5516479D01*
X32442843Y5533521D01*
X32516479Y5607157D01*
X32516480Y5607160D01*
X34300369Y7391050D01*
X34324369Y7407086D01*
X34334784Y7411400D01*
X34391410Y7411400D01*
X34397045Y7409067D01*
X34430257Y7381812D01*
X34494724Y7285331D01*
X34585331Y7194724D01*
X34691873Y7123535D01*
X34691878Y7123533D01*
X34691877Y7123533D01*
X34743448Y7102172D01*
X34810256Y7074499D01*
X34810258Y7074499D01*
X34810260Y7074498D01*
X34852903Y7066016D01*
X34935931Y7049500D01*
X34935933Y7049500D01*
X35064067Y7049500D01*
X35064069Y7049500D01*
X35189744Y7074499D01*
X35308127Y7123535D01*
X35414669Y7194724D01*
X35417576Y7197632D01*
X35441583Y7213674D01*
X35451996Y7217986D01*
X35508628Y7217986D01*
X35519039Y7213674D01*
X35543045Y7197634D01*
X36132418Y6608261D01*
X36148457Y6584258D01*
X36158868Y6559124D01*
X36164500Y6530809D01*
X36164500Y5848939D01*
X36158867Y5820623D01*
X36154996Y5811274D01*
X36114946Y5771226D01*
X36063039Y5769455D01*
X36057262Y5771398D01*
X36036139Y5782573D01*
X35939673Y5855724D01*
X35939671Y5855725D01*
X35802858Y5909675D01*
X35716887Y5920000D01*
X35716885Y5920000D01*
X35665000Y5920000D01*
X35665000Y5288719D01*
X35659367Y5260401D01*
X35655056Y5249993D01*
X35615008Y5209945D01*
X35615007Y5209944D01*
X35604599Y5205633D01*
X35576281Y5200000D01*
X35540000Y5200000D01*
X35540000Y5163719D01*
X35534367Y5135401D01*
X35530056Y5124993D01*
X35490008Y5084945D01*
X35490007Y5084944D01*
X35479599Y5080633D01*
X35451281Y5075000D01*
X34870000Y5075000D01*
X34870000Y4973113D01*
X34880325Y4887143D01*
X34880325Y4887141D01*
X34922836Y4779338D01*
X34934276Y4750327D01*
X34959944Y4716479D01*
X35015783Y4642843D01*
X35023140Y4633142D01*
X35023141Y4633141D01*
X35140326Y4544277D01*
X35151841Y4539737D01*
X35176112Y4524113D01*
X35181844Y4518574D01*
X35204410Y4466629D01*
X35183636Y4413939D01*
X35183632Y4413936D01*
X35178709Y4408842D01*
X35160085Y4394847D01*
X35159212Y4394386D01*
X35053576Y4316424D01*
X35053571Y4316418D01*
X34975617Y4210794D01*
X34932261Y4086888D01*
X34932257Y4086875D01*
X34931998Y4084767D01*
X34931936Y4083433D01*
X34929572Y4058220D01*
X34929571Y4058213D01*
X34929500Y4057457D01*
X34929500Y3682554D01*
X34929501Y3682531D01*
X34932257Y3653133D01*
X34932258Y3653124D01*
X34932259Y3653124D01*
X34932259Y3653121D01*
X34932259Y3653117D01*
X34975617Y3529209D01*
X34975618Y3529207D01*
X35053571Y3423583D01*
X35054826Y3422328D01*
X35065885Y3408190D01*
X35072458Y3397280D01*
X35080898Y3341281D01*
X35079823Y3336946D01*
X35056225Y3301617D01*
X35057498Y3300344D01*
X35053578Y3296425D01*
X35048546Y3289607D01*
X35045915Y3286041D01*
X35045285Y3285188D01*
X35020626Y3263869D01*
X35019121Y3263065D01*
X35011075Y3259227D01*
X35004286Y3255137D01*
X35002602Y3254236D01*
X34997251Y3253710D01*
X34967722Y3245500D01*
X34834192Y3245500D01*
X34805874Y3251133D01*
X34780745Y3261542D01*
X34756739Y3277582D01*
X34748285Y3286036D01*
X34748281Y3286041D01*
X34718267Y3316055D01*
X34718267Y3316056D01*
X34667846Y3366476D01*
X34667843Y3366479D01*
X34653083Y3375001D01*
X34622750Y3392515D01*
X34585749Y3413878D01*
X34585748Y3413879D01*
X34577664Y3418546D01*
X34577658Y3418549D01*
X34577655Y3418550D01*
X34569560Y3420719D01*
X34543668Y3433488D01*
X34537908Y3437908D01*
X34530342Y3443713D01*
X34503908Y3483283D01*
X34503017Y3486611D01*
X34500499Y3505749D01*
X34500499Y3844864D01*
X34498078Y3865738D01*
X34497925Y3868375D01*
X34497585Y3869989D01*
X34497585Y3869991D01*
X34452206Y3972765D01*
X34372765Y4052206D01*
X34359342Y4058133D01*
X34286519Y4090288D01*
X34286512Y4090290D01*
X34269991Y4097585D01*
X34269990Y4097586D01*
X34269988Y4097586D01*
X34258893Y4098873D01*
X34258890Y4098874D01*
X34248663Y4100060D01*
X34248659Y4100060D01*
X34244865Y4100500D01*
X34244864Y4100500D01*
X34244859Y4100500D01*
X32655138Y4100500D01*
X32655136Y4100500D01*
X32647550Y4099621D01*
X32630017Y4097587D01*
X32630007Y4097586D01*
X32527233Y4052206D01*
X32447794Y3972767D01*
X32433209Y3939734D01*
X32402414Y3869989D01*
X32399500Y3844865D01*
X32399500Y2255137D01*
X32399530Y2254878D01*
X32402413Y2230019D01*
X32402414Y2230009D01*
X32419544Y2191215D01*
X32420080Y2190001D01*
X32447794Y2127235D01*
X32527235Y2047794D01*
X32630009Y2002415D01*
X32655135Y1999500D01*
X34244864Y1999501D01*
X34269991Y2002415D01*
X34372765Y2047794D01*
X34452206Y2127235D01*
X34497585Y2230009D01*
X34500500Y2255135D01*
X34500499Y2365781D01*
X34506132Y2394099D01*
X34510058Y2403577D01*
X34510443Y2404508D01*
X34550488Y2444554D01*
X34560906Y2448869D01*
X34589217Y2454499D01*
X34683028Y2454499D01*
X34683040Y2454500D01*
X34963918Y2454500D01*
X34992235Y2448868D01*
X35013436Y2440086D01*
X35044655Y2415664D01*
X35053574Y2403580D01*
X35053575Y2403579D01*
X35053576Y2403578D01*
X35053577Y2403577D01*
X35159207Y2325618D01*
X35215914Y2305776D01*
X35272620Y2285933D01*
X35272621Y2285933D01*
X35283121Y2282259D01*
X35312543Y2279500D01*
X35787456Y2279501D01*
X35816879Y2282259D01*
X35940794Y2325619D01*
X36046423Y2403577D01*
X36124381Y2509206D01*
X36153911Y2593598D01*
X36168575Y2618457D01*
X36173887Y2624402D01*
X36224913Y2648975D01*
X36278372Y2630271D01*
X36278377Y2630266D01*
X36281474Y2627498D01*
X36301002Y2599471D01*
X36354876Y2462854D01*
X36420141Y2376788D01*
X36444571Y2344573D01*
X36444572Y2344572D01*
X36444576Y2344569D01*
X36444577Y2344568D01*
X36530383Y2279500D01*
X36562852Y2254878D01*
X36700944Y2200422D01*
X36777612Y2191215D01*
X36787720Y2190001D01*
X36787721Y2190001D01*
X36875000Y2190001D01*
X37125000Y2190001D01*
X37212278Y2190001D01*
X37217745Y2190001D01*
X37222380Y2191215D01*
X37299048Y2200420D01*
X37299052Y2200421D01*
X37437147Y2254878D01*
X37555427Y2344572D01*
X37555428Y2344573D01*
X37645122Y2462853D01*
X37699578Y2600945D01*
X37710000Y2687722D01*
X37710000Y2745000D01*
X37125000Y2745000D01*
X37125000Y2190001D01*
X36875000Y2190001D01*
X36875000Y2781282D01*
X36880629Y2809591D01*
X36884943Y2820006D01*
X36895351Y2830416D01*
X36896674Y2833608D01*
X36899865Y2834930D01*
X36924982Y2860052D01*
X36935411Y2864372D01*
X36963719Y2870000D01*
X37000000Y2870000D01*
X37000000Y2906282D01*
X37005629Y2934591D01*
X37009943Y2945006D01*
X37049982Y2985052D01*
X37060411Y2989372D01*
X37088719Y2995000D01*
X37709999Y2995000D01*
X37709999Y3053613D01*
X37709501Y3056418D01*
X37708492Y3064822D01*
X37699580Y3139049D01*
X37699579Y3139053D01*
X37675544Y3200001D01*
X37645122Y3277148D01*
X37569720Y3376582D01*
X37557100Y3402542D01*
X37552715Y3419287D01*
X37555750Y3465898D01*
X37556755Y3468369D01*
X37561494Y3476816D01*
X37561260Y3476939D01*
X37563852Y3481843D01*
X37572217Y3505749D01*
X37607710Y3607181D01*
X37610500Y3636934D01*
X37610500Y4023066D01*
X37607710Y4052819D01*
X37605853Y4058127D01*
X37605820Y4058220D01*
X37563853Y4178155D01*
X37563853Y4178156D01*
X37500104Y4264533D01*
X37485003Y4284994D01*
X37484998Y4285000D01*
X37484992Y4285005D01*
X37437400Y4320130D01*
X37417960Y4341479D01*
X37406117Y4361134D01*
X37395500Y4399325D01*
X37395500Y4452070D01*
X37395499Y4452071D01*
X37381047Y4506007D01*
X37381046Y4506009D01*
X37377798Y4518131D01*
X37368548Y4552657D01*
X37368548Y4552658D01*
X37339996Y4602111D01*
X37329520Y4620256D01*
X37329518Y4620258D01*
X37325586Y4627069D01*
X37316479Y4642843D01*
X37242843Y4716479D01*
X37242840Y4716481D01*
X37144705Y4814616D01*
X37128666Y4838619D01*
X37121047Y4857012D01*
X37119569Y4909769D01*
X37127741Y4933121D01*
X37130500Y4962543D01*
X37130499Y5437456D01*
X37127741Y5466879D01*
X37127741Y5466880D01*
X37122643Y5481451D01*
X37087403Y5582160D01*
X37084382Y5590793D01*
X37006422Y5696424D01*
X37006418Y5696427D01*
X36997395Y5703087D01*
X36977960Y5724432D01*
X36966116Y5744089D01*
X36955500Y5782280D01*
X36955500Y6792071D01*
X36944948Y6831454D01*
X36944948Y6831455D01*
X36928550Y6892650D01*
X36928551Y6892650D01*
X36928549Y6892655D01*
X36928546Y6892662D01*
X36928542Y6892669D01*
X36928542Y6892670D01*
X36919462Y6908395D01*
X36919461Y6908397D01*
X36902513Y6937751D01*
X36902512Y6937752D01*
X36876478Y6982844D01*
X36802851Y7056471D01*
X36802843Y7056479D01*
X36800264Y7059058D01*
X36800253Y7059068D01*
X35923285Y7936036D01*
X35923281Y7936041D01*
X35842842Y8016480D01*
X35832183Y8022634D01*
X35832183Y8022635D01*
X35760765Y8063870D01*
X35760749Y8063877D01*
X35752665Y8068545D01*
X35752662Y8068546D01*
X35752658Y8068548D01*
X35732094Y8074058D01*
X35652069Y8095500D01*
X35652068Y8095500D01*
X35569816Y8095500D01*
X35541498Y8101133D01*
X35516369Y8111542D01*
X35492363Y8127582D01*
X35414669Y8205276D01*
X35379473Y8228793D01*
X35377104Y8230376D01*
X35308127Y8276465D01*
X35308124Y8276467D01*
X35308123Y8276467D01*
X35307501Y8276882D01*
X35304743Y8277868D01*
X35251012Y8300124D01*
X35227001Y8316168D01*
X35217056Y8326114D01*
X35195544Y8373596D01*
X35194941Y8382793D01*
X35195417Y8397308D01*
X35195497Y8397923D01*
X35195500Y8397930D01*
X35195500Y9007019D01*
X35201132Y9035335D01*
X35209914Y9056538D01*
X35234337Y9087758D01*
X35296423Y9133577D01*
X35374381Y9239206D01*
X35377646Y9248535D01*
X35402556Y9319725D01*
X35417741Y9363121D01*
X35420500Y9392543D01*
X35420499Y9767456D01*
X35417741Y9796879D01*
X35416502Y9800420D01*
X35416501Y9800423D01*
X35416500Y9800426D01*
X35381932Y9899215D01*
X35374381Y9920794D01*
X35296423Y10026423D01*
X35296419Y10026426D01*
X35295178Y10027667D01*
X35284115Y10041808D01*
X35277541Y10052719D01*
X35269101Y10108724D01*
X35270176Y10113058D01*
X35293779Y10148375D01*
X35292500Y10149654D01*
X35296419Y10153575D01*
X35296423Y10153577D01*
X35374381Y10259206D01*
X35374487Y10259507D01*
X35417739Y10383116D01*
X35417738Y10383116D01*
X35417741Y10383121D01*
X35417741Y10383126D01*
X35417980Y10383807D01*
X35417982Y10383813D01*
X35423340Y10399127D01*
X35420304Y10410459D01*
X35420500Y10412543D01*
X35420499Y10787456D01*
X35417741Y10816879D01*
X35415648Y10822860D01*
X35415647Y10822864D01*
X35389195Y10898459D01*
X35381862Y10919414D01*
X35374381Y10940794D01*
X35296423Y11046423D01*
X35296157Y11046619D01*
X35237399Y11089986D01*
X35217959Y11111334D01*
X35206116Y11130990D01*
X35195500Y11169180D01*
X35195500Y11452067D01*
X35195500Y11452069D01*
X35168548Y11552657D01*
X35116479Y11642843D01*
X35042843Y11716479D01*
X35040264Y11719058D01*
X35040253Y11719068D01*
X34624686Y12134635D01*
X34608645Y12158643D01*
X34608464Y12159079D01*
X34604730Y12168096D01*
X34604730Y12224732D01*
X34639912Y12262554D01*
X34645259Y12265237D01*
X34662037Y12270514D01*
X34662016Y12270583D01*
X34667505Y12272280D01*
X34667509Y12272280D01*
X34776347Y12325488D01*
X34862012Y12411153D01*
X34915220Y12519991D01*
X34925500Y12590551D01*
X34925499Y12784448D01*
X34924269Y12792889D01*
X34921851Y12809491D01*
X34921851Y12809492D01*
X34915993Y12849709D01*
X34915771Y12852759D01*
X34915429Y12854580D01*
X34915220Y12855008D01*
X34915220Y12855009D01*
X34899332Y12887508D01*
X34897244Y12891779D01*
X34889867Y12919693D01*
X34888410Y12943158D01*
X34895788Y12980245D01*
X34904333Y12997721D01*
X34915220Y13019991D01*
X34925500Y13090551D01*
X34925499Y13284448D01*
X34919962Y13322459D01*
X34919530Y13325423D01*
X34915993Y13349709D01*
X34915771Y13352759D01*
X34915429Y13354580D01*
X34915220Y13355008D01*
X34915220Y13355009D01*
X34899888Y13386370D01*
X34897244Y13391779D01*
X34889867Y13419693D01*
X34888410Y13443159D01*
X34895788Y13480244D01*
X34897868Y13484499D01*
X34915359Y13507457D01*
X34923807Y13514917D01*
X34977374Y13533307D01*
X34981419Y13533056D01*
X35029155Y13511524D01*
X37122418Y11418261D01*
X37138457Y11394258D01*
X37148868Y11369124D01*
X37154500Y11340809D01*
X37154500Y11126795D01*
X37148867Y11098476D01*
X37140086Y11077277D01*
X37115662Y11046056D01*
X37062278Y11006657D01*
X37059956Y11005235D01*
X37057139Y11002864D01*
X37057138Y11002864D01*
X37057138Y11002863D01*
X37045801Y10987502D01*
X36976940Y10894199D01*
X36932340Y10766741D01*
X36932336Y10766726D01*
X36932077Y10764619D01*
X36932015Y10763280D01*
X36930946Y10751878D01*
X36929500Y10736459D01*
X36929500Y10333561D01*
X36929501Y10333534D01*
X36929502Y10333518D01*
X36931170Y10315729D01*
X36932337Y10303274D01*
X36932338Y10303271D01*
X36932338Y10303267D01*
X36976937Y10175813D01*
X36976943Y10175797D01*
X36976946Y10175793D01*
X37028613Y10105786D01*
X37040897Y10079658D01*
X37045126Y10062607D01*
X37041661Y10016456D01*
X37040805Y10014391D01*
X37031986Y9998785D01*
X36976950Y9924214D01*
X36976944Y9924204D01*
X36976936Y9924189D01*
X36932340Y9796741D01*
X36932336Y9796726D01*
X36932077Y9794616D01*
X36932015Y9793286D01*
X36930882Y9781198D01*
X36929593Y9767446D01*
X36929500Y9766458D01*
X36929500Y9766452D01*
X36929500Y9363561D01*
X36929501Y9363534D01*
X36929502Y9363518D01*
X36930531Y9352543D01*
X36932337Y9333274D01*
X36932338Y9333271D01*
X36932338Y9333267D01*
X36971858Y9220327D01*
X36976942Y9205800D01*
X36976943Y9205798D01*
X37057134Y9097142D01*
X37057141Y9097135D01*
X37165796Y9016945D01*
X37165797Y9016944D01*
X37165799Y9016943D01*
X37165804Y9016942D01*
X37165812Y9016938D01*
X37253564Y8986232D01*
X37293265Y8972340D01*
X37293271Y8972338D01*
X37323537Y8969500D01*
X37776462Y8969501D01*
X37806729Y8972338D01*
X37909464Y9008288D01*
X37921492Y9011391D01*
X37933646Y9013456D01*
X37946032Y9014500D01*
X38443591Y9014500D01*
X38455986Y9013455D01*
X38468118Y9011393D01*
X38480162Y9008286D01*
X38582870Y8972346D01*
X38582871Y8972346D01*
X38583117Y8972260D01*
X38583118Y8972260D01*
X38583121Y8972259D01*
X38612543Y8969500D01*
X39087456Y8969501D01*
X39116879Y8972259D01*
X39117111Y8972340D01*
X39125106Y8975138D01*
X39240794Y9015619D01*
X39346423Y9093577D01*
X39424381Y9199206D01*
X39426689Y9205800D01*
X39454296Y9284699D01*
X39467741Y9323121D01*
X39470500Y9352543D01*
X39470499Y9727456D01*
X39467741Y9756879D01*
X39467740Y9756883D01*
X39465784Y9762472D01*
X39437791Y9842472D01*
X39424382Y9880793D01*
X39396973Y9917930D01*
X39384690Y9944058D01*
X39381910Y9955268D01*
X39390104Y10010857D01*
X39395677Y10020242D01*
X39414588Y10041420D01*
X39416859Y10043142D01*
X39505723Y10160327D01*
X39559674Y10297142D01*
X39570000Y10383115D01*
X39570000Y10435000D01*
X38938719Y10435000D01*
X38910404Y10440632D01*
X38899995Y10444943D01*
X38859946Y10484987D01*
X38855629Y10495409D01*
X38850000Y10523719D01*
X38850000Y10560000D01*
X38813719Y10560000D01*
X38785404Y10565632D01*
X38774995Y10569943D01*
X38734946Y10609987D01*
X38730629Y10620409D01*
X38725000Y10648719D01*
X38725000Y11186652D01*
X38886490Y11186652D01*
X38970051Y10689949D01*
X38975000Y10685000D01*
X39570000Y10685000D01*
X39570000Y10736887D01*
X39563925Y10787463D01*
X39559674Y10822859D01*
X39505723Y10959674D01*
X39417348Y11076214D01*
X39416863Y11076854D01*
X39416862Y11076855D01*
X39416859Y11076859D01*
X39416858Y11076860D01*
X39416853Y11076864D01*
X39416852Y11076865D01*
X39356025Y11122991D01*
X39299673Y11165724D01*
X39299671Y11165725D01*
X39162858Y11219675D01*
X39076887Y11230000D01*
X39076885Y11230000D01*
X38975000Y11230000D01*
X38953326Y11208326D01*
X38901000Y11186652D01*
X38886490Y11186652D01*
X38725000Y11186652D01*
X38725000Y11230000D01*
X38623115Y11230000D01*
X38623113Y11230000D01*
X38537141Y11219675D01*
X38537139Y11219675D01*
X38400327Y11165725D01*
X38400326Y11165724D01*
X38283144Y11076863D01*
X38283142Y11076861D01*
X38202356Y10970329D01*
X38180758Y10951169D01*
X38171033Y10945480D01*
X38114928Y10937767D01*
X38110429Y10938945D01*
X38069633Y10966588D01*
X38042862Y11002862D01*
X38006092Y11030000D01*
X38006091Y11030001D01*
X37987399Y11043797D01*
X37967960Y11065145D01*
X37956117Y11084800D01*
X37945500Y11122991D01*
X37945500Y11602067D01*
X37945500Y11602069D01*
X37918548Y11702657D01*
X37866479Y11792843D01*
X37792843Y11866479D01*
X37792842Y11866480D01*
X35363045Y14296276D01*
X35347006Y14320281D01*
X35346494Y14321518D01*
X35343957Y14327641D01*
X35343956Y14384276D01*
X35383995Y14424321D01*
X35384179Y14424398D01*
X35439652Y14424874D01*
X35450942Y14420422D01*
X35519111Y14412236D01*
X35537719Y14410001D01*
X35537721Y14410001D01*
X35625000Y14410001D01*
X35625000Y15001282D01*
X35630629Y15029591D01*
X35634943Y15040006D01*
X35674982Y15080052D01*
X35685411Y15084372D01*
X35713719Y15090000D01*
X35786281Y15090000D01*
X35814591Y15084371D01*
X35825003Y15080058D01*
X35865053Y15040015D01*
X35865056Y15040008D01*
X35869367Y15029600D01*
X35875000Y15001282D01*
X35875000Y14410001D01*
X35913694Y14410001D01*
X35942004Y14404372D01*
X35952416Y14400059D01*
X35992465Y14360017D01*
X35994805Y14354369D01*
X35998411Y14317825D01*
X35999856Y14317682D01*
X35999500Y14314067D01*
X35999500Y14185932D01*
X36003007Y14168301D01*
X36024496Y14060265D01*
X36024505Y14060239D01*
X36061883Y13970001D01*
X36073004Y13943156D01*
X36073535Y13941873D01*
X36108718Y13889219D01*
X36109859Y13887511D01*
X36109861Y13887508D01*
X36131573Y13855011D01*
X36144720Y13835336D01*
X36144722Y13835333D01*
X36144724Y13835331D01*
X36235331Y13744724D01*
X36341873Y13673535D01*
X36460256Y13624499D01*
X36460258Y13624499D01*
X36460260Y13624498D01*
X36464041Y13623746D01*
X36585931Y13599500D01*
X36585933Y13599500D01*
X36714067Y13599500D01*
X36714069Y13599500D01*
X36839744Y13624499D01*
X36958127Y13673535D01*
X37064669Y13744724D01*
X37155276Y13835331D01*
X37226465Y13941873D01*
X37275501Y14060256D01*
X37300500Y14185931D01*
X37300500Y14314069D01*
X37282412Y14405001D01*
X37275502Y14439740D01*
X37275501Y14439743D01*
X37273019Y14445734D01*
X37226465Y14558127D01*
X37155276Y14664669D01*
X37107581Y14712364D01*
X37091541Y14736370D01*
X37081131Y14761502D01*
X37075500Y14789816D01*
X37075500Y14884360D01*
X44875000Y14884360D01*
X44877900Y14847505D01*
X44923718Y14689801D01*
X45007316Y14548445D01*
X45123443Y14432318D01*
X45263139Y14349701D01*
X45264800Y14348719D01*
X45366934Y14319047D01*
X45383227Y14305994D01*
X45422506Y14302902D01*
X45422508Y14302901D01*
X45422505Y14302901D01*
X45459359Y14300000D01*
X46250000Y14300000D01*
X46500000Y14300000D01*
X47290639Y14300000D01*
X47290641Y14300000D01*
X47327493Y14302901D01*
X47485199Y14348719D01*
X47626556Y14432318D01*
X47742682Y14548444D01*
X47826281Y14689801D01*
X47872099Y14847507D01*
X47875000Y14884359D01*
X47875000Y15100000D01*
X46500000Y15100000D01*
X46500000Y14300000D01*
X46250000Y14300000D01*
X46250000Y15100000D01*
X44875000Y15100000D01*
X44875000Y14884360D01*
X37075500Y14884360D01*
X37075500Y14976445D01*
X37081129Y15004754D01*
X37085443Y15015169D01*
X37125482Y15055215D01*
X37128740Y15056565D01*
X37184187Y15057030D01*
X37200944Y15050422D01*
X37277299Y15041253D01*
X37287720Y15040001D01*
X37287721Y15040001D01*
X37375000Y15040001D01*
X37625000Y15040001D01*
X37712278Y15040001D01*
X37717745Y15040001D01*
X37722380Y15041215D01*
X37799048Y15050420D01*
X37799052Y15050421D01*
X37937147Y15104878D01*
X38055427Y15194572D01*
X38055428Y15194573D01*
X38145122Y15312853D01*
X38199578Y15450945D01*
X38210000Y15537718D01*
X39790001Y15537718D01*
X39800419Y15450953D01*
X39800419Y15450952D01*
X39800420Y15450949D01*
X39800421Y15450943D01*
X39854876Y15312854D01*
X39876412Y15284454D01*
X39944571Y15194573D01*
X39944572Y15194572D01*
X39944576Y15194569D01*
X39944577Y15194568D01*
X39952330Y15188689D01*
X40062852Y15104878D01*
X40200944Y15050422D01*
X40277612Y15041215D01*
X40287720Y15040001D01*
X40287721Y15040001D01*
X40375000Y15040001D01*
X40625000Y15040001D01*
X40712278Y15040001D01*
X40717745Y15040001D01*
X40722380Y15041215D01*
X40799048Y15050420D01*
X40799052Y15050421D01*
X40937147Y15104878D01*
X41048893Y15189616D01*
X41048893Y15189617D01*
X41055426Y15194571D01*
X41055428Y15194573D01*
X41145122Y15312853D01*
X41199578Y15450945D01*
X41210000Y15537722D01*
X41210000Y15595000D01*
X40625000Y15595000D01*
X40625000Y15040001D01*
X40375000Y15040001D01*
X40375000Y15595000D01*
X39790001Y15595000D01*
X39790001Y15537718D01*
X38210000Y15537718D01*
X38210000Y15537722D01*
X38210000Y15595000D01*
X37625000Y15595000D01*
X37625000Y15040001D01*
X37375000Y15040001D01*
X37375000Y15631282D01*
X37380629Y15659591D01*
X37384943Y15670006D01*
X37395351Y15680416D01*
X37396674Y15683608D01*
X37399865Y15684930D01*
X37424982Y15710052D01*
X37435411Y15714372D01*
X37463719Y15720000D01*
X37500000Y15720000D01*
X37500000Y15756282D01*
X37505629Y15784591D01*
X37509943Y15795006D01*
X37549982Y15835052D01*
X37560411Y15839372D01*
X37588719Y15845000D01*
X38209999Y15845000D01*
X38209999Y15903614D01*
X38209501Y15906419D01*
X38200654Y15980104D01*
X38200903Y15999619D01*
X38203196Y16015315D01*
X38232201Y16063955D01*
X38235349Y16066300D01*
X38286463Y16080633D01*
X38298537Y16079500D01*
X38701462Y16079501D01*
X38731729Y16082338D01*
X38736304Y16083939D01*
X38858621Y16126741D01*
X38859863Y16127161D01*
X38863083Y16128221D01*
X38868737Y16133982D01*
X38929219Y16178620D01*
X38955339Y16190899D01*
X38972399Y16195130D01*
X39018522Y16191674D01*
X39020586Y16190818D01*
X39036211Y16181992D01*
X39091938Y16140863D01*
X39110800Y16126942D01*
X39166591Y16107420D01*
X39235661Y16083251D01*
X39238265Y16082340D01*
X39238271Y16082338D01*
X39268537Y16079500D01*
X39671462Y16079501D01*
X39693991Y16081613D01*
X39706214Y16082758D01*
X39706259Y16082269D01*
X39718569Y16083251D01*
X39730145Y16082602D01*
X39781175Y16058033D01*
X39799988Y16007283D01*
X39799555Y15984961D01*
X39799041Y15977573D01*
X39790160Y15903614D01*
X39790000Y15902279D01*
X39790000Y15845000D01*
X41209999Y15845000D01*
X41209999Y15903613D01*
X41209501Y15906418D01*
X41207907Y15919693D01*
X41199580Y15989049D01*
X41199579Y15989053D01*
X41199576Y15989060D01*
X41145122Y16127148D01*
X41124714Y16154060D01*
X41112093Y16180023D01*
X41111578Y16181991D01*
X41109530Y16189811D01*
X41117238Y16245918D01*
X41157535Y16278700D01*
X41163319Y16280645D01*
X41186893Y16284500D01*
X41417623Y16284500D01*
X41445938Y16278869D01*
X41464396Y16271223D01*
X41502560Y16235356D01*
X41516484Y16206872D01*
X41516485Y16206871D01*
X41516486Y16206870D01*
X41606870Y16116486D01*
X41721705Y16060346D01*
X41796149Y16049500D01*
X41978850Y16049501D01*
X42000117Y16052600D01*
X42028950Y16051110D01*
X42055248Y16044450D01*
X42081427Y16031954D01*
X42119244Y16003645D01*
X42246806Y15956066D01*
X42246807Y15956066D01*
X42246810Y15956065D01*
X42246816Y15956064D01*
X42298218Y15950538D01*
X42303208Y15950001D01*
X42303209Y15950001D01*
X42377500Y15950001D01*
X42377500Y16383782D01*
X42383129Y16412091D01*
X42387443Y16422506D01*
X42427482Y16462552D01*
X42437911Y16466872D01*
X42466219Y16472500D01*
X42533781Y16472500D01*
X42562091Y16466871D01*
X42572503Y16462558D01*
X42612553Y16422515D01*
X42612556Y16422508D01*
X42616867Y16412100D01*
X42622500Y16383782D01*
X42622500Y15950001D01*
X42696790Y15950001D01*
X42716915Y15950001D01*
X42722748Y15952793D01*
X42753187Y15956064D01*
X42880753Y16003644D01*
X42918520Y16031917D01*
X42944558Y16044374D01*
X42970846Y16051084D01*
X42999811Y16052609D01*
X43021149Y16049500D01*
X43203850Y16049501D01*
X43278289Y16060345D01*
X43278289Y16060346D01*
X43278292Y16060346D01*
X43278295Y16060346D01*
X43278296Y16060347D01*
X43281318Y16060787D01*
X43281323Y16060787D01*
X43284405Y16061237D01*
X43291863Y16066980D01*
X43391065Y16115477D01*
X43392987Y16116344D01*
X43393128Y16116485D01*
X43393129Y16116485D01*
X43426644Y16150000D01*
X43483514Y16206870D01*
X43504489Y16249777D01*
X43521987Y16272745D01*
X43536965Y16285970D01*
X43585946Y16304500D01*
X43712934Y16304500D01*
X43750531Y16294238D01*
X44315224Y15961142D01*
X44408915Y15925034D01*
X44408918Y15925034D01*
X44408922Y15925032D01*
X44416345Y15923506D01*
X44523708Y15920706D01*
X44523708Y15920707D01*
X44523709Y15920706D01*
X44629723Y15957661D01*
X44637493Y15962112D01*
X44643570Y15965687D01*
X44699237Y16015313D01*
X44716542Y16030739D01*
X44765784Y16049501D01*
X44961890Y16049501D01*
X44990203Y16043871D01*
X44997565Y16040821D01*
X45037615Y16000776D01*
X45037619Y15944139D01*
X45037616Y15944133D01*
X45034568Y15936775D01*
X45018530Y15912771D01*
X45007316Y15901557D01*
X44923718Y15760201D01*
X44877900Y15602497D01*
X44876688Y15587089D01*
X44875000Y15565642D01*
X44875000Y15350000D01*
X46250000Y15350000D01*
X46250000Y15375454D01*
X46271674Y15427780D01*
X46324000Y15449454D01*
X46328715Y15449303D01*
X46430743Y15442751D01*
X46481572Y15417768D01*
X46500000Y15368903D01*
X46500000Y15350000D01*
X47874999Y15350000D01*
X47875000Y15350000D01*
X47900000Y17775000D01*
X47899998Y17775001D01*
X47899999Y17775001D01*
X47896086Y17778991D01*
X47874920Y17831524D01*
X47874975Y17833730D01*
X47875000Y17834363D01*
X47875000Y18050000D01*
X46500000Y18050000D01*
X46500000Y17862404D01*
X46478326Y17810078D01*
X46426000Y17788404D01*
X46425327Y17788407D01*
X46323327Y17789334D01*
X46271201Y17811483D01*
X46250000Y17863331D01*
X46250000Y18050000D01*
X44875000Y18050000D01*
X44875000Y17834359D01*
X44875121Y17832826D01*
X44877900Y17797505D01*
X44923718Y17639801D01*
X45007316Y17498445D01*
X45018527Y17487234D01*
X45034569Y17463225D01*
X45037617Y17455866D01*
X45037615Y17399229D01*
X44997574Y17359185D01*
X44990215Y17356136D01*
X44961890Y17350500D01*
X44766225Y17350500D01*
X44715904Y17370244D01*
X44653753Y17427888D01*
X44647417Y17432064D01*
X44548779Y17474474D01*
X44436624Y17479483D01*
X44427771Y17478234D01*
X44420762Y17477162D01*
X44315227Y17438862D01*
X44315226Y17438861D01*
X43750529Y17105762D01*
X43712932Y17095500D01*
X43592155Y17095500D01*
X43563837Y17101133D01*
X43545380Y17108778D01*
X43507216Y17144646D01*
X43506385Y17146345D01*
X43505750Y17147645D01*
X43505157Y17148857D01*
X43494543Y17170570D01*
X43483514Y17193130D01*
X43422150Y17254494D01*
X43414445Y17273095D01*
X43278297Y17339654D01*
X43241677Y17344989D01*
X43227771Y17347015D01*
X43227769Y17347016D01*
X43203858Y17350500D01*
X43203851Y17350500D01*
X43203850Y17350500D01*
X43021146Y17350500D01*
X43021143Y17350500D01*
X42999876Y17347402D01*
X42971044Y17348895D01*
X42944747Y17355555D01*
X42918571Y17368049D01*
X42880761Y17396353D01*
X42880758Y17396355D01*
X42880757Y17396356D01*
X42880754Y17396357D01*
X42753195Y17443934D01*
X42753189Y17443936D01*
X42753186Y17443937D01*
X42753183Y17443938D01*
X42724987Y17446969D01*
X42696792Y17450000D01*
X42696791Y17450000D01*
X42622500Y17450000D01*
X42622500Y17016219D01*
X42616867Y16987901D01*
X42612556Y16977493D01*
X42572508Y16937445D01*
X42572507Y16937444D01*
X42562099Y16933133D01*
X42533781Y16927500D01*
X42466219Y16927500D01*
X42437904Y16933132D01*
X42427495Y16937443D01*
X42387446Y16977487D01*
X42383129Y16987909D01*
X42377500Y17016219D01*
X42377500Y17450000D01*
X42303210Y17450000D01*
X42297087Y17450000D01*
X42292627Y17448862D01*
X42246811Y17443937D01*
X42119245Y17396358D01*
X42119240Y17396355D01*
X42081481Y17368088D01*
X42055434Y17355626D01*
X42029149Y17348918D01*
X42000184Y17347393D01*
X41978862Y17350499D01*
X41978855Y17350500D01*
X41978851Y17350500D01*
X41978844Y17350500D01*
X41796156Y17350500D01*
X41796149Y17350500D01*
X41796143Y17350500D01*
X41796140Y17350499D01*
X41721717Y17339658D01*
X41721699Y17339653D01*
X41604868Y17282538D01*
X41600895Y17277540D01*
X41516485Y17193131D01*
X41485731Y17130222D01*
X41468234Y17107257D01*
X41453259Y17094033D01*
X41404277Y17075500D01*
X41080987Y17075500D01*
X41052669Y17081133D01*
X41031469Y17089914D01*
X41000247Y17114338D01*
X40984999Y17134999D01*
X40984996Y17135001D01*
X40934629Y17172174D01*
X40931036Y17174826D01*
X40878155Y17213854D01*
X40878154Y17213855D01*
X40878152Y17213856D01*
X40878153Y17213856D01*
X40809092Y17238021D01*
X40809069Y17238028D01*
X40752824Y17257709D01*
X40752825Y17257709D01*
X40752820Y17257710D01*
X40752819Y17257710D01*
X40741792Y17258745D01*
X40741789Y17258745D01*
X40725293Y17260292D01*
X40723066Y17260500D01*
X40723065Y17260500D01*
X40276934Y17260500D01*
X40250624Y17258033D01*
X40249294Y17257971D01*
X40247184Y17257712D01*
X40247169Y17257708D01*
X40121846Y17213856D01*
X40064092Y17171231D01*
X40037962Y17158948D01*
X40027026Y17156236D01*
X39971023Y17164677D01*
X39961374Y17170491D01*
X39940022Y17189936D01*
X39937865Y17192859D01*
X39937861Y17192863D01*
X39937847Y17192874D01*
X39829212Y17273050D01*
X39829200Y17273058D01*
X39829186Y17273064D01*
X39757994Y17297975D01*
X39757981Y17297979D01*
X39701734Y17317661D01*
X39701735Y17317661D01*
X39701730Y17317662D01*
X39701729Y17317662D01*
X39690702Y17318696D01*
X39690699Y17318697D01*
X39673645Y17320296D01*
X39671463Y17320500D01*
X39671462Y17320500D01*
X39268560Y17320500D01*
X39268547Y17320500D01*
X39268535Y17320500D01*
X39268532Y17320499D01*
X39268516Y17320498D01*
X39239585Y17317786D01*
X39238273Y17317663D01*
X39238267Y17317662D01*
X39238265Y17317662D01*
X39110811Y17273063D01*
X39110798Y17273058D01*
X39110786Y17273050D01*
X39040785Y17221386D01*
X39014654Y17209102D01*
X39004335Y17206543D01*
X38997603Y17204873D01*
X38951450Y17208341D01*
X38949383Y17209198D01*
X38933783Y17218015D01*
X38859207Y17273054D01*
X38859203Y17273057D01*
X38859186Y17273064D01*
X38787994Y17297975D01*
X38787981Y17297979D01*
X38731734Y17317661D01*
X38731735Y17317661D01*
X38731730Y17317662D01*
X38731729Y17317662D01*
X38720702Y17318696D01*
X38720699Y17318697D01*
X38703645Y17320296D01*
X38701463Y17320500D01*
X38701462Y17320500D01*
X38298560Y17320500D01*
X38298547Y17320500D01*
X38298535Y17320500D01*
X38298532Y17320499D01*
X38298516Y17320498D01*
X38269585Y17317786D01*
X38268273Y17317663D01*
X38268267Y17317662D01*
X38268264Y17317662D01*
X38268256Y17317660D01*
X38140800Y17273060D01*
X38140798Y17273059D01*
X38033082Y17193561D01*
X38027321Y17189712D01*
X38009540Y17179002D01*
X37953535Y17170570D01*
X37942607Y17173282D01*
X37916488Y17185563D01*
X37884595Y17209101D01*
X37878155Y17213854D01*
X37878154Y17213855D01*
X37878152Y17213856D01*
X37878153Y17213856D01*
X37809092Y17238021D01*
X37809069Y17238028D01*
X37752824Y17257709D01*
X37752825Y17257709D01*
X37752820Y17257710D01*
X37752819Y17257710D01*
X37741792Y17258745D01*
X37741789Y17258745D01*
X37725293Y17260292D01*
X37723066Y17260500D01*
X37723065Y17260500D01*
X37276934Y17260500D01*
X37250624Y17258033D01*
X37249294Y17257971D01*
X37247185Y17257712D01*
X37247172Y17257708D01*
X37121841Y17213853D01*
X37025990Y17143113D01*
X37025981Y17143104D01*
X37015003Y17135001D01*
X37015001Y17135000D01*
X36999740Y17114322D01*
X36997155Y17111486D01*
X36993774Y17109900D01*
X36980667Y17097963D01*
X36961013Y17086119D01*
X36922818Y17075500D01*
X36538656Y17075500D01*
X36510341Y17081132D01*
X36499932Y17085443D01*
X36459883Y17125487D01*
X36456936Y17132601D01*
X36451835Y17169735D01*
X36451936Y17170570D01*
X36460000Y17237721D01*
X36460000Y17295000D01*
X35838719Y17295000D01*
X35810404Y17300632D01*
X35799995Y17304943D01*
X35759946Y17344987D01*
X35755629Y17355409D01*
X35750000Y17383719D01*
X35750000Y17456282D01*
X35755629Y17484591D01*
X35759943Y17495006D01*
X35799982Y17535052D01*
X35810411Y17539372D01*
X35838719Y17545000D01*
X36459999Y17545000D01*
X36459999Y17603613D01*
X36459501Y17606419D01*
X36456910Y17628000D01*
X36453918Y17652919D01*
X36456133Y17681698D01*
X36459621Y17694145D01*
X36492157Y17737240D01*
X36499913Y17742001D01*
X36524186Y17751513D01*
X36639744Y17774499D01*
X36758127Y17823535D01*
X36864669Y17894724D01*
X36955276Y17985331D01*
X37026465Y18091873D01*
X37075501Y18210256D01*
X37100500Y18335931D01*
X37100500Y18464069D01*
X37095822Y18487586D01*
X37092824Y18502659D01*
X37090241Y18515642D01*
X44875000Y18515642D01*
X44875000Y18300000D01*
X46250000Y18300000D01*
X46500000Y18300000D01*
X47875000Y18300000D01*
X47875000Y18515642D01*
X47872099Y18552494D01*
X47826281Y18710200D01*
X47821702Y18717942D01*
X47742682Y18851557D01*
X47626555Y18967684D01*
X47485200Y19051282D01*
X47383063Y19080955D01*
X47366768Y19094010D01*
X47290642Y19100000D01*
X47290641Y19100000D01*
X46500000Y19100000D01*
X46500000Y18300000D01*
X46250000Y18300000D01*
X46250000Y19100000D01*
X45459359Y19100000D01*
X45422503Y19097100D01*
X45264799Y19051282D01*
X45123443Y18967684D01*
X45007316Y18851557D01*
X44923718Y18710201D01*
X44877900Y18552497D01*
X44877900Y18552494D01*
X44875000Y18515642D01*
X37090241Y18515642D01*
X37075502Y18589740D01*
X37075501Y18589743D01*
X37071045Y18600500D01*
X37026465Y18708127D01*
X36955276Y18814669D01*
X36864669Y18905276D01*
X36758127Y18976465D01*
X36758124Y18976467D01*
X36758123Y18976467D01*
X36757502Y18976881D01*
X36754742Y18977868D01*
X36639754Y19025497D01*
X36639742Y19025502D01*
X36639739Y19025503D01*
X36549696Y19043414D01*
X36549695Y19043415D01*
X36514069Y19050500D01*
X36385931Y19050500D01*
X36354725Y19044294D01*
X36354726Y19044293D01*
X36292210Y19031858D01*
X36260260Y19025503D01*
X36260257Y19025502D01*
X36247445Y19020196D01*
X36141868Y18976464D01*
X36118592Y18960912D01*
X36091919Y18949865D01*
X36069215Y18945350D01*
X36030341Y18948080D01*
X36002821Y18957710D01*
X36002818Y18957711D01*
X36002813Y18957712D01*
X35995383Y18958409D01*
X35995383Y18958408D01*
X35973068Y18960500D01*
X35973066Y18960500D01*
X35526934Y18960500D01*
X35500624Y18958033D01*
X35499294Y18957971D01*
X35497185Y18957712D01*
X35497172Y18957708D01*
X35371843Y18913854D01*
X35267760Y18837037D01*
X35267671Y18836971D01*
X35265003Y18835001D01*
X35265002Y18835001D01*
X35265001Y18834999D01*
X35264940Y18834917D01*
X35251045Y18824469D01*
X35249699Y18824123D01*
X35248260Y18822475D01*
X35233353Y18812312D01*
X35210821Y18801976D01*
X35115769Y18776506D01*
X35115767Y18776506D01*
X35115761Y18776503D01*
X35115756Y18776501D01*
X35018735Y18720485D01*
X34872080Y18573831D01*
X34848071Y18557789D01*
X34831248Y18550821D01*
X34786322Y18547077D01*
X34785801Y18547197D01*
X34746938Y18570331D01*
X34739743Y18578480D01*
X34721356Y18632032D01*
X34721607Y18636072D01*
X34743138Y18683820D01*
X35431741Y19372421D01*
X35455745Y19388459D01*
X35480876Y19398869D01*
X35509192Y19404500D01*
X39052068Y19404500D01*
X39052069Y19404500D01*
X39152658Y19431452D01*
X39197750Y19457487D01*
X39242843Y19483521D01*
X39316479Y19557157D01*
X39316480Y19557160D01*
X40516479Y20757157D01*
X40520662Y20764404D01*
X40539693Y20786108D01*
X40548633Y20792969D01*
X40603331Y20807632D01*
X40604460Y20807483D01*
X40646809Y20786721D01*
X40649017Y20784536D01*
X40660661Y20769606D01*
X40732316Y20648445D01*
X40848443Y20532318D01*
X40975628Y20457100D01*
X40989800Y20448719D01*
X41091934Y20419047D01*
X41108227Y20405994D01*
X41147506Y20402902D01*
X41147508Y20402901D01*
X41147505Y20402901D01*
X41184359Y20400000D01*
X41775000Y20400000D01*
X42025000Y20400000D01*
X42615639Y20400000D01*
X42615641Y20400000D01*
X42652493Y20402901D01*
X42810199Y20448719D01*
X42951556Y20532318D01*
X43067682Y20648444D01*
X43151281Y20789801D01*
X43197099Y20947507D01*
X43200000Y20984359D01*
X43200000Y21375000D01*
X42025000Y21375000D01*
X42025000Y20400000D01*
X41775000Y20400000D01*
X41775000Y21625000D01*
X42025000Y21625000D01*
X43200000Y21625000D01*
X43200000Y22015642D01*
X43197099Y22052494D01*
X43151281Y22210200D01*
X43067682Y22351557D01*
X42951556Y22467683D01*
X42951555Y22467684D01*
X42810200Y22551282D01*
X42708063Y22580955D01*
X42691768Y22594010D01*
X42615642Y22600000D01*
X42615641Y22600000D01*
X42025000Y22600000D01*
X42025000Y21625000D01*
X41775000Y21625000D01*
X41775000Y22600000D01*
X41352690Y22600000D01*
X41324370Y22605634D01*
X41317007Y22608684D01*
X41276962Y22648734D01*
X41276962Y22705364D01*
X41280011Y22712726D01*
X41296049Y22736730D01*
X41426741Y22867423D01*
X41450749Y22883462D01*
X41475877Y22893869D01*
X41504192Y22899501D01*
X42612234Y22899501D01*
X42618510Y22902553D01*
X42663907Y22908003D01*
X42663907Y22908004D01*
X42663908Y22908003D01*
X42663908Y22908004D01*
X42677177Y22909597D01*
X42679698Y22909747D01*
X42681671Y22910053D01*
X42684167Y22911150D01*
X42822343Y22965639D01*
X42942923Y23057077D01*
X43034361Y23177657D01*
X43089877Y23318435D01*
X43100500Y23406897D01*
X43100499Y24393102D01*
X43089877Y24481565D01*
X43034361Y24622343D01*
X43021416Y24639414D01*
X42942924Y24742922D01*
X42942922Y24742924D01*
X42937230Y24747240D01*
X42931538Y24751557D01*
X42822342Y24834362D01*
X42822341Y24834363D01*
X42737080Y24867985D01*
X42737080Y24867986D01*
X42681565Y24889877D01*
X42645116Y24894254D01*
X42597244Y24900003D01*
X42593106Y24900500D01*
X42593105Y24900500D01*
X41206896Y24900500D01*
X41205558Y24900500D01*
X41202755Y24900003D01*
X41129627Y24891222D01*
X41118441Y24889879D01*
X41118440Y24889879D01*
X41118437Y24889878D01*
X41118431Y24889877D01*
X40977657Y24834363D01*
X40857082Y24742929D01*
X40857071Y24742918D01*
X40765637Y24622343D01*
X40710123Y24481565D01*
X40699500Y24393108D01*
X40699500Y23405560D01*
X40699997Y23402758D01*
X40708652Y23330677D01*
X40708403Y23311161D01*
X40704521Y23284580D01*
X40683624Y23242948D01*
X39958153Y22517478D01*
X39958154Y22517477D01*
X39957186Y22516508D01*
X39957159Y22516481D01*
X39883520Y22442843D01*
X39878625Y22434364D01*
X39878623Y22434360D01*
X39875579Y22429090D01*
X39875577Y22429085D01*
X39874470Y22427167D01*
X39874467Y22427163D01*
X39840497Y22368326D01*
X39828205Y22347036D01*
X39827642Y22338439D01*
X39814059Y22287743D01*
X39814058Y22287741D01*
X39804500Y22252071D01*
X39804500Y21209193D01*
X39798867Y21180877D01*
X39793087Y21166920D01*
X39788459Y21155747D01*
X39772418Y21131741D01*
X38868260Y20227582D01*
X38844254Y20211542D01*
X38819124Y20201133D01*
X38790808Y20195500D01*
X35357786Y20195500D01*
X35357722Y20195501D01*
X35356599Y20195501D01*
X35352069Y20195501D01*
X35247932Y20195501D01*
X35247930Y20195501D01*
X35218894Y20187721D01*
X35147343Y20168550D01*
X35147336Y20168547D01*
X35147333Y20168546D01*
X35147332Y20168545D01*
X35126569Y20156555D01*
X35126567Y20156553D01*
X35122365Y20154127D01*
X35057155Y20116479D01*
X34062232Y19121555D01*
X34038223Y19105513D01*
X34030864Y19102465D01*
X33974227Y19102467D01*
X33934180Y19142515D01*
X33931130Y19149878D01*
X33925499Y19178192D01*
X33925499Y19220808D01*
X33931130Y19249122D01*
X33941541Y19274257D01*
X33957577Y19298257D01*
X35731742Y21072422D01*
X35755746Y21088459D01*
X35780877Y21098869D01*
X35809193Y21104500D01*
X36210782Y21104500D01*
X36239092Y21098871D01*
X36249504Y21094558D01*
X36289553Y21054516D01*
X36293868Y21044100D01*
X36299501Y21015782D01*
X36299501Y21006892D01*
X36302207Y20984359D01*
X36307886Y20937053D01*
X36310121Y20918443D01*
X36310121Y20918442D01*
X36310122Y20918439D01*
X36310123Y20918433D01*
X36365637Y20777659D01*
X36381184Y20757157D01*
X36447979Y20669075D01*
X36457077Y20657077D01*
X36577657Y20565639D01*
X36718435Y20510123D01*
X36806897Y20499500D01*
X38193102Y20499501D01*
X38193103Y20499501D01*
X38193103Y20499502D01*
X38263907Y20508003D01*
X38281558Y20510122D01*
X38281559Y20510123D01*
X38281565Y20510123D01*
X38281570Y20510126D01*
X38281934Y20510169D01*
X38284167Y20511150D01*
X38422343Y20565639D01*
X38542923Y20657077D01*
X38634361Y20777657D01*
X38689877Y20918435D01*
X38700500Y21006897D01*
X38700499Y21993102D01*
X38692371Y22060794D01*
X38690403Y22077179D01*
X38690263Y22079525D01*
X38689929Y22081284D01*
X38689877Y22081564D01*
X38681734Y22102212D01*
X38634361Y22222343D01*
X38623353Y22236859D01*
X38542924Y22342922D01*
X38542922Y22342924D01*
X38531539Y22351556D01*
X38509424Y22368326D01*
X38476940Y22392960D01*
X38422341Y22434363D01*
X38337080Y22467985D01*
X38337080Y22467986D01*
X38281565Y22489877D01*
X38241785Y22494654D01*
X38197244Y22500003D01*
X38193106Y22500500D01*
X38193105Y22500500D01*
X36806896Y22500500D01*
X36805558Y22500500D01*
X36802755Y22500003D01*
X36727956Y22491022D01*
X36718441Y22489879D01*
X36718440Y22489879D01*
X36718437Y22489878D01*
X36718431Y22489877D01*
X36577657Y22434363D01*
X36457082Y22342929D01*
X36457071Y22342918D01*
X36365637Y22222343D01*
X36310123Y22081565D01*
X36299500Y21993108D01*
X36299500Y21984219D01*
X36293867Y21955901D01*
X36289556Y21945493D01*
X36249508Y21905445D01*
X36249507Y21905444D01*
X36239099Y21901133D01*
X36210781Y21895500D01*
X35547931Y21895500D01*
X35524232Y21889151D01*
X35456342Y21870960D01*
X35456339Y21870959D01*
X35447343Y21868548D01*
X35447342Y21868548D01*
X35447340Y21868547D01*
X35447338Y21868546D01*
X35405173Y21844201D01*
X35403883Y21843457D01*
X35403873Y21843451D01*
X35357156Y21816480D01*
X33257157Y19716479D01*
X33185462Y19644785D01*
X33170123Y19633017D01*
X33149921Y19621359D01*
X33102272Y19612225D01*
X33096956Y19612999D01*
X33096955Y19613000D01*
X33096949Y19613000D01*
X33096945Y19613000D01*
X33096942Y19613000D01*
X32903058Y19613000D01*
X32903051Y19613000D01*
X32903046Y19613000D01*
X32903041Y19612999D01*
X32832498Y19602724D01*
X32832487Y19602720D01*
X32832474Y19602714D01*
X32795723Y19584748D01*
X32767809Y19577371D01*
X32744342Y19575914D01*
X32707255Y19583291D01*
X32667517Y19602718D01*
X32667512Y19602720D01*
X32667494Y19602723D01*
X32660907Y19603683D01*
X32660907Y19603682D01*
X32596956Y19613000D01*
X32596949Y19613000D01*
X32596948Y19613000D01*
X32403051Y19613000D01*
X32403046Y19613000D01*
X32403041Y19612999D01*
X32332498Y19602724D01*
X32332487Y19602720D01*
X32332474Y19602714D01*
X32295723Y19584748D01*
X32267809Y19577371D01*
X32244342Y19575914D01*
X32207255Y19583291D01*
X32167517Y19602718D01*
X32167512Y19602720D01*
X32167494Y19602723D01*
X32160907Y19603683D01*
X32160907Y19603682D01*
X32096956Y19613000D01*
X32096949Y19613000D01*
X32096948Y19613000D01*
X31903051Y19613000D01*
X31903046Y19613000D01*
X31903041Y19612999D01*
X31832498Y19602724D01*
X31832487Y19602720D01*
X31832474Y19602714D01*
X31795723Y19584748D01*
X31767809Y19577371D01*
X31744342Y19575914D01*
X31707255Y19583291D01*
X31667517Y19602718D01*
X31667512Y19602720D01*
X31667494Y19602723D01*
X31660907Y19603683D01*
X31660907Y19603682D01*
X31596956Y19613000D01*
X31596949Y19613000D01*
X31596948Y19613000D01*
X31403051Y19613000D01*
X31403046Y19613000D01*
X31403041Y19612999D01*
X31332498Y19602724D01*
X31332487Y19602720D01*
X31332474Y19602714D01*
X31295723Y19584748D01*
X31267809Y19577371D01*
X31244342Y19575914D01*
X31207255Y19583291D01*
X31167517Y19602718D01*
X31167512Y19602720D01*
X31167494Y19602723D01*
X31160906Y19603683D01*
X31160906Y19603682D01*
X31118831Y19609812D01*
X31070177Y19638804D01*
X31055500Y19683039D01*
X31055500Y20120500D01*
X31077174Y20172826D01*
X31129500Y20194500D01*
X31176007Y20194500D01*
X31176499Y20194506D01*
X31183056Y20194581D01*
X31292909Y20217755D01*
X31345235Y20239429D01*
X31358147Y20245130D01*
X31449280Y20310701D01*
X31510571Y20404765D01*
X31532245Y20457091D01*
X31534870Y20463641D01*
X31534869Y20463641D01*
X31535384Y20464923D01*
X31574969Y20505430D01*
X31631602Y20506081D01*
X31656398Y20489719D01*
X31663888Y20482229D01*
X31693151Y20464923D01*
X31794870Y20404766D01*
X31799808Y20401846D01*
X31951448Y20357790D01*
X31986890Y20355000D01*
X32150000Y20355000D01*
X32400000Y20355000D01*
X32563108Y20355000D01*
X32563110Y20355000D01*
X32598551Y20357790D01*
X32750191Y20401846D01*
X32886111Y20482229D01*
X32997771Y20593889D01*
X33078154Y20729809D01*
X33122210Y20881449D01*
X33125000Y20916890D01*
X33125000Y21105000D01*
X32400000Y21105000D01*
X32400000Y20355000D01*
X32150000Y20355000D01*
X32150000Y21877590D01*
X32171674Y21929916D01*
X32208726Y21949996D01*
X32225217Y21953476D01*
X32292909Y21967755D01*
X32297682Y21969732D01*
X32354318Y21969732D01*
X32394367Y21929684D01*
X32400000Y21901365D01*
X32400000Y21355000D01*
X33125000Y21355000D01*
X33125000Y21543111D01*
X33122210Y21578552D01*
X33078154Y21730192D01*
X32997771Y21866112D01*
X32886111Y21977772D01*
X32750192Y22058155D01*
X32598548Y22102212D01*
X32593797Y22102586D01*
X32543336Y22128303D01*
X32525839Y22182170D01*
X32531249Y22204688D01*
X32532245Y22207091D01*
X32534870Y22213641D01*
X32555500Y22324000D01*
X32555500Y23384360D01*
X36200000Y23384360D01*
X36202900Y23347505D01*
X36248718Y23189801D01*
X36332316Y23048445D01*
X36448443Y22932318D01*
X36558178Y22867420D01*
X36589800Y22848719D01*
X36691934Y22819047D01*
X36708227Y22805994D01*
X36747506Y22802902D01*
X36747508Y22802901D01*
X36747505Y22802901D01*
X36784359Y22800000D01*
X37375000Y22800000D01*
X37625000Y22800000D01*
X38215639Y22800000D01*
X38215641Y22800000D01*
X38252493Y22802901D01*
X38410199Y22848719D01*
X38551556Y22932318D01*
X38667682Y23048444D01*
X38751281Y23189801D01*
X38797099Y23347507D01*
X38800000Y23384359D01*
X38800000Y23775000D01*
X37625000Y23775000D01*
X37625000Y22800000D01*
X37375000Y22800000D01*
X37375000Y23775000D01*
X36200000Y23775000D01*
X36200000Y23384360D01*
X32555500Y23384360D01*
X32555500Y23676000D01*
X32555419Y23683056D01*
X32532245Y23792909D01*
X32510571Y23845235D01*
X32504870Y23858147D01*
X32439299Y23949280D01*
X32439298Y23949281D01*
X32345234Y24010572D01*
X32345229Y24010574D01*
X32308804Y24025661D01*
X32292909Y24032245D01*
X32286359Y24034870D01*
X32286355Y24034871D01*
X32176003Y24055500D01*
X32176000Y24055500D01*
X31048796Y24055500D01*
X31048779Y24055500D01*
X30991030Y24049989D01*
X30990999Y24049984D01*
X30963546Y24044696D01*
X30963537Y24044694D01*
X30901331Y24025661D01*
X30901330Y24025660D01*
X30807940Y23963345D01*
X30767418Y23923801D01*
X30762413Y23918802D01*
X30699980Y23825493D01*
X30380017Y23078913D01*
X30339483Y23039356D01*
X30282850Y23040046D01*
X30243293Y23080580D01*
X30238000Y23108063D01*
X30238000Y23421904D01*
X30234893Y23447772D01*
X30227979Y23505346D01*
X30175615Y23638132D01*
X30089367Y23751867D01*
X30089365Y23751869D01*
X29979662Y23835060D01*
X29977755Y23836723D01*
X29975631Y23838116D01*
X29924835Y23858147D01*
X29842846Y23890479D01*
X29801124Y23895490D01*
X29759405Y23900500D01*
X29759403Y23900500D01*
X29759402Y23900500D01*
X29240598Y23900500D01*
X29240597Y23900500D01*
X29240596Y23900500D01*
X29196619Y23895219D01*
X29163323Y23891221D01*
X29108787Y23906500D01*
X29081028Y23955868D01*
X29080500Y23964692D01*
X29080500Y24101008D01*
X29080493Y24101571D01*
X29080419Y24108056D01*
X29057245Y24217909D01*
X29035571Y24270235D01*
X29029870Y24283147D01*
X28971480Y24364299D01*
X28964590Y24373876D01*
X28964588Y24373878D01*
X28964299Y24374280D01*
X28964298Y24374281D01*
X28900821Y24415642D01*
X36200000Y24415642D01*
X36200000Y24025000D01*
X37375000Y24025000D01*
X37625000Y24025000D01*
X38800000Y24025000D01*
X38800000Y24415642D01*
X38797099Y24452494D01*
X38751281Y24610200D01*
X38735829Y24636327D01*
X38667682Y24751557D01*
X38551555Y24867684D01*
X38410200Y24951282D01*
X38308063Y24980955D01*
X38291768Y24994010D01*
X38215642Y25000000D01*
X38215641Y25000000D01*
X37625000Y25000000D01*
X37625000Y24025000D01*
X37375000Y24025000D01*
X37375000Y25000000D01*
X36784359Y25000000D01*
X36747503Y24997100D01*
X36589799Y24951282D01*
X36448443Y24867684D01*
X36332317Y24751557D01*
X36332316Y24751557D01*
X36248718Y24610201D01*
X36202900Y24452497D01*
X36200000Y24415642D01*
X28900821Y24415642D01*
X28870234Y24435572D01*
X28870229Y24435574D01*
X28829379Y24452494D01*
X28817909Y24457245D01*
X28811359Y24459870D01*
X28811355Y24459871D01*
X28701003Y24480500D01*
X28701000Y24480500D01*
X26949000Y24480500D01*
X26948993Y24480500D01*
X26944884Y24480453D01*
X26941944Y24480419D01*
X26941941Y24480419D01*
X26941935Y24480418D01*
X26832091Y24457246D01*
X26832090Y24457245D01*
X26779783Y24435579D01*
X26766855Y24429871D01*
X26766851Y24429869D01*
X26675719Y24364299D01*
X26614428Y24270235D01*
X26614426Y24270230D01*
X26594633Y24222443D01*
X26592755Y24217909D01*
X26591232Y24214110D01*
X26590130Y24211360D01*
X26590129Y24211356D01*
X26569500Y24101004D01*
X26569500Y23649000D01*
X26547826Y23596674D01*
X26503181Y23578182D01*
X26500000Y23575000D01*
X26500000Y21825000D01*
X26663108Y21825000D01*
X26663110Y21825000D01*
X26698551Y21827790D01*
X26768468Y21848104D01*
X26797231Y21850594D01*
X26807150Y21849499D01*
X26856781Y21822212D01*
X26872948Y21772505D01*
X26872658Y21766275D01*
X26867579Y21742571D01*
X26850422Y21699062D01*
X26850421Y21699057D01*
X26841528Y21625000D01*
X26840000Y21612279D01*
X26840000Y21525000D01*
X27431281Y21525000D01*
X27459591Y21519371D01*
X27470003Y21515058D01*
X27510053Y21475015D01*
X27510056Y21475008D01*
X27514367Y21464600D01*
X27520000Y21436282D01*
X27520000Y21400000D01*
X27556281Y21400000D01*
X27584591Y21394371D01*
X27595003Y21390058D01*
X27635053Y21350015D01*
X27635056Y21350008D01*
X27639367Y21339600D01*
X27645000Y21311282D01*
X27645000Y21187633D01*
X27659367Y21152947D01*
X27665000Y21124630D01*
X27665000Y19690001D01*
X27676450Y19690001D01*
X27708265Y19676823D01*
X27733225Y19668035D01*
X27757700Y19616960D01*
X27752184Y19584655D01*
X27751617Y19583285D01*
X27726226Y19551347D01*
X27724386Y19550034D01*
X27723686Y19549546D01*
X27637987Y19463848D01*
X27584780Y19355012D01*
X27574500Y19284460D01*
X27574500Y18701719D01*
X27568867Y18673401D01*
X27564556Y18662993D01*
X27524508Y18622945D01*
X27524507Y18622944D01*
X27514099Y18618633D01*
X27485781Y18613000D01*
X27074535Y18613000D01*
X27046217Y18618633D01*
X27021088Y18629042D01*
X26997082Y18645082D01*
X26194708Y19447456D01*
X25454447Y20187718D01*
X26860001Y20187718D01*
X26870419Y20100953D01*
X26870419Y20100952D01*
X26870420Y20100949D01*
X26870421Y20100943D01*
X26924876Y19962854D01*
X27007267Y19854204D01*
X27014571Y19844573D01*
X27014572Y19844572D01*
X27132852Y19754878D01*
X27270944Y19700422D01*
X27357721Y19690001D01*
X27414999Y19690002D01*
X27415000Y19690002D01*
X27415000Y20275000D01*
X26860001Y20275000D01*
X26860001Y20187718D01*
X25454447Y20187718D01*
X25388839Y20253326D01*
X24628683Y21013482D01*
X24535074Y21067527D01*
X24430675Y21095500D01*
X24430674Y21095500D01*
X16369325Y21095500D01*
X16369324Y21095500D01*
X16323363Y21083185D01*
X16264924Y21067527D01*
X16264920Y21067525D01*
X16171318Y21013485D01*
X16171313Y21013481D01*
X16120688Y20962854D01*
X16120688Y20962853D01*
X15375009Y20217174D01*
X14652539Y19494705D01*
X14586518Y19428685D01*
X14532473Y19335076D01*
X14519820Y19287852D01*
X14505017Y19232603D01*
X14504500Y19230675D01*
X14504500Y16292036D01*
X14498866Y16263716D01*
X14492265Y16247781D01*
X14452216Y16207733D01*
X14443599Y16204164D01*
X14386966Y16204164D01*
X14369157Y16211540D01*
X14345147Y16227582D01*
X14070081Y16502648D01*
X14054041Y16526654D01*
X14043631Y16551786D01*
X14038000Y16580100D01*
X14038000Y16754261D01*
X14038000Y16754266D01*
X14035146Y16784699D01*
X14011498Y16852280D01*
X14011498Y16852282D01*
X13990294Y16912879D01*
X13990293Y16912882D01*
X13990291Y16912885D01*
X13909653Y17022147D01*
X13909646Y17022154D01*
X13800383Y17102793D01*
X13800384Y17102793D01*
X13800363Y17102801D01*
X13728472Y17127957D01*
X13728448Y17127965D01*
X13672204Y17147645D01*
X13672205Y17147645D01*
X13672200Y17147646D01*
X13672199Y17147646D01*
X13661171Y17148681D01*
X13661169Y17148681D01*
X13647894Y17149926D01*
X13641766Y17150500D01*
X13641763Y17150500D01*
X12601719Y17150500D01*
X12573404Y17156132D01*
X12562995Y17160443D01*
X12522946Y17200487D01*
X12518629Y17210909D01*
X12513000Y17239219D01*
X12513000Y17410964D01*
X12511743Y17414667D01*
X12475485Y17549981D01*
X12475484Y17549985D01*
X12452066Y17590547D01*
X12446003Y17601049D01*
X12446003Y17601048D01*
X12403010Y17675515D01*
X11588015Y18490510D01*
X11555239Y18509433D01*
X11462482Y18562986D01*
X11424858Y18573067D01*
X11424858Y18573068D01*
X11421797Y18573887D01*
X11421797Y18573888D01*
X11421788Y18573889D01*
X11322479Y18600500D01*
X11322477Y18600500D01*
X11322475Y18600500D01*
X8743719Y18600500D01*
X8715404Y18606132D01*
X8707011Y18609608D01*
X8704994Y18610444D01*
X8664946Y18650487D01*
X8660629Y18660909D01*
X8655000Y18689219D01*
X8655000Y18725000D01*
X7768719Y18725000D01*
X7740404Y18730632D01*
X7729995Y18734943D01*
X7689946Y18774987D01*
X7685629Y18785409D01*
X7680000Y18813719D01*
X7680000Y18886282D01*
X7685629Y18914591D01*
X7689943Y18925006D01*
X7729982Y18965052D01*
X7740411Y18969372D01*
X7768719Y18975000D01*
X8655000Y18975000D01*
X8655000Y19043063D01*
X8652926Y19060329D01*
X8644385Y19131444D01*
X8588922Y19272093D01*
X8504950Y19382826D01*
X8497563Y19392567D01*
X8497560Y19392570D01*
X8467949Y19415025D01*
X8448790Y19436622D01*
X8447707Y19438473D01*
X8442451Y19447458D01*
X8434212Y19501424D01*
X8436365Y19510777D01*
X8446947Y19535278D01*
X8452572Y19543695D01*
X8520412Y19707476D01*
X8520415Y19707487D01*
X8547768Y19845000D01*
X8547767Y19845000D01*
X8028124Y19845000D01*
X7975798Y19866674D01*
X7954124Y19919000D01*
X7954124Y19927235D01*
X7955000Y19930504D01*
X7955000Y20009496D01*
X7954124Y20012766D01*
X7954124Y20021000D01*
X7963246Y20043025D01*
X7969416Y20066048D01*
X7973841Y20068604D01*
X7975798Y20073326D01*
X7997822Y20082449D01*
X8018465Y20094367D01*
X8028124Y20095000D01*
X8547768Y20095000D01*
X8547768Y20095001D01*
X8536007Y20154127D01*
X8520415Y20232514D01*
X8520412Y20232525D01*
X8520411Y20232526D01*
X8520411Y20232529D01*
X8469681Y20355000D01*
X8452572Y20396306D01*
X8354076Y20543717D01*
X8228716Y20669077D01*
X8219295Y20675372D01*
X8122417Y20740103D01*
X8112770Y20754540D01*
X7917527Y20835413D01*
X7917522Y20835414D01*
X7917511Y20835417D01*
X7743641Y20870000D01*
X7230000Y20870000D01*
X7230000Y20344000D01*
X7208326Y20291674D01*
X7156000Y20270000D01*
X7054000Y20270000D01*
X7001674Y20291674D01*
X6980000Y20344000D01*
X6980000Y20870000D01*
X6767898Y20870000D01*
X6739581Y20875633D01*
X6732395Y20878609D01*
X6692349Y20918657D01*
X6692349Y20975295D01*
X6726557Y21009502D01*
X6725265Y21011799D01*
X6729666Y21014275D01*
X6729672Y21014277D01*
X6846858Y21103141D01*
X6846859Y21103142D01*
X6910995Y21187718D01*
X26840001Y21187718D01*
X26850419Y21100953D01*
X26850419Y21100952D01*
X26850420Y21100949D01*
X26850421Y21100943D01*
X26904877Y20962853D01*
X26904877Y20962852D01*
X26919739Y20943253D01*
X26932361Y20917289D01*
X26932489Y20916800D01*
X26936675Y20900811D01*
X26933453Y20853737D01*
X26932277Y20850899D01*
X26927029Y20841748D01*
X26927359Y20841562D01*
X26924879Y20837153D01*
X26924194Y20835416D01*
X26882549Y20729809D01*
X26870421Y20699055D01*
X26860011Y20612368D01*
X26860000Y20612279D01*
X26860000Y20525000D01*
X27415000Y20525000D01*
X27415000Y20612368D01*
X27400633Y20647054D01*
X27395000Y20675372D01*
X27395000Y21275000D01*
X26840001Y21275000D01*
X26840001Y21187718D01*
X6910995Y21187718D01*
X6935723Y21220327D01*
X6980076Y21332799D01*
X6980076Y21332800D01*
X6989674Y21357139D01*
X6989674Y21357141D01*
X6989674Y21357148D01*
X6990060Y21359173D01*
X6990202Y21361539D01*
X7000000Y21443115D01*
X7000000Y21545000D01*
X6418719Y21545000D01*
X6390404Y21550632D01*
X6379995Y21554943D01*
X6339946Y21594987D01*
X6335629Y21605409D01*
X6330000Y21633719D01*
X6330000Y21670000D01*
X6293719Y21670000D01*
X6265404Y21675632D01*
X6254995Y21679943D01*
X6214946Y21719987D01*
X6210629Y21730409D01*
X6205000Y21758719D01*
X6205000Y22346652D01*
X6365389Y22346652D01*
X6450411Y21799589D01*
X6455000Y21795000D01*
X7000000Y21795000D01*
X7000000Y21896887D01*
X6996033Y21929916D01*
X6989674Y21982859D01*
X6935723Y22119674D01*
X6846872Y22236842D01*
X6846863Y22236854D01*
X6846862Y22236855D01*
X6846859Y22236859D01*
X6846858Y22236860D01*
X6846853Y22236864D01*
X6846852Y22236865D01*
X6803208Y22269961D01*
X6729673Y22325724D01*
X6729671Y22325725D01*
X6592858Y22379675D01*
X6532774Y22386891D01*
X25525000Y22386891D01*
X25527789Y22351449D01*
X25571845Y22199808D01*
X25629564Y22102212D01*
X25652228Y22063889D01*
X25763888Y21952229D01*
X25899808Y21871846D01*
X26051448Y21827790D01*
X26086890Y21825000D01*
X26250000Y21825000D01*
X26250000Y22575000D01*
X25525000Y22575000D01*
X25525000Y22386891D01*
X6532774Y22386891D01*
X6506887Y22390000D01*
X6506885Y22390000D01*
X6455000Y22390000D01*
X6433326Y22368326D01*
X6381000Y22346652D01*
X6365389Y22346652D01*
X6205000Y22346652D01*
X6205000Y22390000D01*
X6153115Y22390000D01*
X6153113Y22390000D01*
X6067141Y22379675D01*
X6067139Y22379675D01*
X5930327Y22325725D01*
X5930326Y22325724D01*
X5813146Y22236865D01*
X5813133Y22236852D01*
X5813124Y22236842D01*
X5811561Y22234780D01*
X5789968Y22215628D01*
X5780001Y22209798D01*
X5724355Y22201968D01*
X5713789Y22204661D01*
X5688129Y22216827D01*
X5663588Y22234939D01*
X5650792Y22244383D01*
X5650791Y22244384D01*
X5650789Y22244385D01*
X5650790Y22244385D01*
X5526949Y22287718D01*
X5526881Y22287741D01*
X5525475Y22287969D01*
X5523435Y22288064D01*
X5519884Y22288397D01*
X5497457Y22290500D01*
X5497454Y22290500D01*
X5122553Y22290500D01*
X5122529Y22290499D01*
X5093131Y22287743D01*
X5093127Y22287743D01*
X5093123Y22287742D01*
X5093117Y22287741D01*
X5093115Y22287741D01*
X4969208Y22244383D01*
X4863576Y22166424D01*
X4863571Y22166418D01*
X4785617Y22060794D01*
X4742261Y21936888D01*
X4742257Y21936875D01*
X4741998Y21934768D01*
X4741936Y21933432D01*
X4740412Y21917177D01*
X4739500Y21907454D01*
X4739500Y21432567D01*
X4739501Y21432540D01*
X4739501Y21432530D01*
X4742257Y21403133D01*
X4742258Y21403124D01*
X4742259Y21403124D01*
X4742259Y21403121D01*
X4742259Y21403117D01*
X4785613Y21279221D01*
X4785618Y21279208D01*
X4785626Y21279196D01*
X4863576Y21173578D01*
X4863577Y21173577D01*
X4872597Y21166920D01*
X4892036Y21145573D01*
X4903881Y21125917D01*
X4914500Y21087723D01*
X4914500Y18721731D01*
X4914500Y18617593D01*
X4932391Y18550821D01*
X4941452Y18517004D01*
X4941454Y18517000D01*
X4949734Y18502658D01*
X4957701Y18488860D01*
X4963220Y18479301D01*
X4993519Y18426821D01*
X5072547Y18347793D01*
X5072569Y18347772D01*
X6495301Y16925040D01*
X6511342Y16901032D01*
X6515653Y16890624D01*
X6515653Y16833987D01*
X6515652Y16833984D01*
X6515321Y16833185D01*
X6483951Y16797419D01*
X6480968Y16795697D01*
X6463126Y16788307D01*
X6441555Y16782527D01*
X6347945Y16728482D01*
X6071518Y16452055D01*
X6017473Y16358446D01*
X6016552Y16355009D01*
X5989500Y16254046D01*
X5989500Y15545955D01*
X6006309Y15483223D01*
X6017474Y15441552D01*
X6017716Y15441019D01*
X6018667Y15439487D01*
X6055637Y15375454D01*
X6071518Y15347947D01*
X6271518Y15147947D01*
X6347947Y15071518D01*
X6384485Y15050423D01*
X6437189Y15019994D01*
X6441554Y15017474D01*
X6489017Y15004757D01*
X6489976Y15004500D01*
X6541273Y14990756D01*
X6544971Y14989500D01*
X6545955Y14989500D01*
X6545957Y14989500D01*
X6715781Y14989500D01*
X6744091Y14983871D01*
X6754503Y14979558D01*
X6794553Y14939515D01*
X6794556Y14939508D01*
X6798867Y14929100D01*
X6804500Y14900782D01*
X6804500Y14789360D01*
X6812220Y14736373D01*
X6815134Y14716373D01*
X6825229Y14695723D01*
X6832605Y14667810D01*
X6834062Y14644343D01*
X6826685Y14607257D01*
X6815134Y14583630D01*
X6804500Y14510646D01*
X6804500Y14384219D01*
X6798867Y14355901D01*
X6794556Y14345493D01*
X6754508Y14305445D01*
X6754507Y14305444D01*
X6744099Y14301133D01*
X6715781Y14295500D01*
X5847931Y14295500D01*
X5826225Y14289685D01*
X5756741Y14271067D01*
X5756737Y14271066D01*
X5747343Y14268548D01*
X5747342Y14268548D01*
X5747340Y14268547D01*
X5747338Y14268546D01*
X5683091Y14231452D01*
X5682150Y14230910D01*
X5682143Y14230905D01*
X5657155Y14216479D01*
X4893520Y13452844D01*
X4872149Y13415831D01*
X4872148Y13415826D01*
X4841460Y13362674D01*
X4841457Y13362670D01*
X4841452Y13362659D01*
X4823019Y13293863D01*
X4823017Y13293858D01*
X4814500Y13262075D01*
X4814500Y10256083D01*
X4808867Y10227766D01*
X4801798Y10210698D01*
X4800086Y10206565D01*
X4775664Y10175346D01*
X4763625Y10166461D01*
X4763576Y10166424D01*
X4685617Y10060794D01*
X4642261Y9936888D01*
X4642257Y9936875D01*
X4642240Y9936735D01*
X4642239Y9936673D01*
X4641071Y9924201D01*
X4639500Y9907452D01*
X307607Y9907452D01*
X307607Y11455002D01*
X1632231Y11455002D01*
X1632231Y11455001D01*
X1632232Y11455000D01*
X2151876Y11455000D01*
X2204202Y11433326D01*
X2225876Y11381000D01*
X2225876Y11372766D01*
X2225000Y11369496D01*
X2225000Y11290504D01*
X2225876Y11287235D01*
X2225876Y11279000D01*
X2216753Y11256976D01*
X2210584Y11233952D01*
X2206158Y11231397D01*
X2204202Y11226674D01*
X2182177Y11217552D01*
X2161535Y11205633D01*
X2151876Y11205000D01*
X1632231Y11205000D01*
X1659584Y11067486D01*
X1659586Y11067478D01*
X1659587Y11067473D01*
X1727427Y10903695D01*
X1825922Y10756285D01*
X1951283Y10630924D01*
X2057581Y10559899D01*
X2067227Y10545462D01*
X2262471Y10464589D01*
X2262474Y10464589D01*
X2262475Y10464588D01*
X2262486Y10464585D01*
X2436359Y10430000D01*
X2800000Y10430000D01*
X2800000Y10956000D01*
X2821674Y11008326D01*
X2874000Y11030000D01*
X2976000Y11030000D01*
X3028326Y11008326D01*
X3050000Y10956000D01*
X3050000Y10430000D01*
X3413640Y10430000D01*
X3413641Y10430000D01*
X3587513Y10464585D01*
X3587524Y10464588D01*
X3587525Y10464589D01*
X3587527Y10464589D01*
X3620691Y10478326D01*
X3751305Y10532428D01*
X3894866Y10628352D01*
X3896308Y10629189D01*
X3898694Y10630910D01*
X3898716Y10630924D01*
X3898718Y10630925D01*
X4024075Y10756282D01*
X4024076Y10756284D01*
X4024090Y10756306D01*
X4025811Y10758692D01*
X4026648Y10760134D01*
X4122572Y10903695D01*
X4188385Y11062582D01*
X4190411Y11067473D01*
X4190412Y11067476D01*
X4190415Y11067487D01*
X4217768Y11205000D01*
X4217767Y11205000D01*
X3698124Y11205000D01*
X3645798Y11226674D01*
X3624124Y11279000D01*
X3624124Y11287235D01*
X3625000Y11290504D01*
X3625000Y11369496D01*
X3624124Y11372766D01*
X3624124Y11381000D01*
X3633246Y11403025D01*
X3639416Y11426048D01*
X3643841Y11428604D01*
X3645798Y11433326D01*
X3667822Y11442449D01*
X3688465Y11454367D01*
X3698124Y11455000D01*
X4217768Y11455000D01*
X4217768Y11455001D01*
X4190415Y11592513D01*
X4190412Y11592524D01*
X4190411Y11592529D01*
X4148811Y11692960D01*
X4122572Y11756306D01*
X4024076Y11903717D01*
X3898716Y12029077D01*
X3873667Y12045814D01*
X3792417Y12100103D01*
X3782770Y12114540D01*
X3587527Y12195413D01*
X3587522Y12195414D01*
X3587511Y12195417D01*
X3413641Y12230000D01*
X3050000Y12230000D01*
X3050000Y11704000D01*
X3028326Y11651674D01*
X2976000Y11630000D01*
X2874000Y11630000D01*
X2821674Y11651674D01*
X2800000Y11704000D01*
X2800000Y12230000D01*
X2436359Y12230000D01*
X2262487Y12195417D01*
X2262476Y12195414D01*
X2262471Y12195413D01*
X2098693Y12127573D01*
X1951013Y12028897D01*
X1949637Y12027431D01*
X1827569Y11905363D01*
X1826103Y11903987D01*
X1727427Y11756307D01*
X1659587Y11592529D01*
X1659586Y11592524D01*
X1659583Y11592513D01*
X1632231Y11455002D01*
X307607Y11455002D01*
X307607Y20095001D01*
X1632231Y20095001D01*
X1632232Y20095000D01*
X2151876Y20095000D01*
X2204202Y20073326D01*
X2225876Y20021000D01*
X2225876Y20012766D01*
X2225000Y20009496D01*
X2225000Y19930504D01*
X2225876Y19927235D01*
X2225876Y19919000D01*
X2216753Y19896976D01*
X2210584Y19873952D01*
X2206158Y19871397D01*
X2204202Y19866674D01*
X2182177Y19857552D01*
X2161535Y19845633D01*
X2151876Y19845000D01*
X1632231Y19845000D01*
X1659584Y19707486D01*
X1659586Y19707478D01*
X1659587Y19707473D01*
X1727427Y19543695D01*
X1825922Y19396285D01*
X1951283Y19270924D01*
X2057581Y19199899D01*
X2067227Y19185462D01*
X2262471Y19104589D01*
X2262474Y19104589D01*
X2262475Y19104588D01*
X2262486Y19104585D01*
X2436359Y19070000D01*
X2800000Y19070000D01*
X2800000Y19596000D01*
X2821674Y19648326D01*
X2874000Y19670000D01*
X2976000Y19670000D01*
X3028326Y19648326D01*
X3050000Y19596000D01*
X3050000Y19070000D01*
X3413640Y19070000D01*
X3413641Y19070000D01*
X3587513Y19104585D01*
X3587524Y19104588D01*
X3587525Y19104589D01*
X3587527Y19104589D01*
X3652360Y19131444D01*
X3751305Y19172428D01*
X3894866Y19268352D01*
X3896308Y19269189D01*
X3898694Y19270910D01*
X3898716Y19270924D01*
X3898718Y19270925D01*
X4024075Y19396282D01*
X4024076Y19396284D01*
X4024090Y19396306D01*
X4025811Y19398692D01*
X4026648Y19400134D01*
X4122572Y19543695D01*
X4190412Y19707476D01*
X4190415Y19707487D01*
X4217768Y19845000D01*
X4217767Y19845000D01*
X3698124Y19845000D01*
X3645798Y19866674D01*
X3624124Y19919000D01*
X3624124Y19927235D01*
X3625000Y19930504D01*
X3625000Y20009496D01*
X3624124Y20012766D01*
X3624124Y20021000D01*
X3633246Y20043025D01*
X3639416Y20066048D01*
X3643841Y20068604D01*
X3645798Y20073326D01*
X3667822Y20082449D01*
X3688465Y20094367D01*
X3698124Y20095000D01*
X4217768Y20095000D01*
X4217768Y20095001D01*
X4206007Y20154127D01*
X4190415Y20232514D01*
X4190412Y20232525D01*
X4190411Y20232526D01*
X4190411Y20232529D01*
X4139681Y20355000D01*
X4122572Y20396306D01*
X4024076Y20543717D01*
X3898716Y20669077D01*
X3889295Y20675372D01*
X3792417Y20740103D01*
X3782770Y20754540D01*
X3587527Y20835413D01*
X3587522Y20835414D01*
X3587511Y20835417D01*
X3413641Y20870000D01*
X3050000Y20870000D01*
X3050000Y20344000D01*
X3028326Y20291674D01*
X2976000Y20270000D01*
X2874000Y20270000D01*
X2821674Y20291674D01*
X2800000Y20344000D01*
X2800000Y20870000D01*
X2436359Y20870000D01*
X2262487Y20835417D01*
X2262476Y20835414D01*
X2262471Y20835413D01*
X2098693Y20767573D01*
X1951013Y20668897D01*
X1949637Y20667431D01*
X1827569Y20545363D01*
X1826103Y20543987D01*
X1727427Y20396307D01*
X1659587Y20232529D01*
X1659586Y20232524D01*
X1659583Y20232513D01*
X1637303Y20120500D01*
X1632231Y20095001D01*
X307607Y20095001D01*
X307607Y23886612D01*
X14899500Y23886612D01*
X14899500Y23713389D01*
X14917985Y23596674D01*
X14926598Y23542297D01*
X14926602Y23542280D01*
X14980124Y23377561D01*
X14980133Y23377542D01*
X15058766Y23223213D01*
X15091865Y23177657D01*
X15160583Y23083075D01*
X15283071Y22960587D01*
X15283371Y22960341D01*
X15284287Y22959703D01*
X15423211Y22858768D01*
X15511987Y22813535D01*
X15577553Y22780128D01*
X15577557Y22780126D01*
X15742288Y22726601D01*
X15742294Y22726600D01*
X15742299Y22726598D01*
X15742302Y22726598D01*
X15742304Y22726597D01*
X15768931Y22722380D01*
X15856359Y22708533D01*
X15913387Y22699500D01*
X15913388Y22699500D01*
X15913389Y22699500D01*
X16086612Y22699500D01*
X16129383Y22706275D01*
X16257701Y22726598D01*
X16257708Y22726601D01*
X16257711Y22726601D01*
X16257723Y22726606D01*
X16257862Y22726627D01*
X16258894Y22726942D01*
X16259563Y22727136D01*
X16260883Y22727632D01*
X16422442Y22780126D01*
X16422442Y22780127D01*
X16422443Y22780127D01*
X16422445Y22780127D01*
X16422447Y22780129D01*
X16427979Y22781926D01*
X16427980Y22781926D01*
X16427986Y22781928D01*
X16432749Y22783476D01*
X16438267Y22788189D01*
X16576788Y22858768D01*
X16716928Y22960586D01*
X16769453Y23013111D01*
X25525000Y23013111D01*
X25525000Y22825000D01*
X26250000Y22825000D01*
X26250000Y23575000D01*
X26086890Y23575000D01*
X26051447Y23572211D01*
X25899806Y23528155D01*
X25763887Y23447772D01*
X25652228Y23336113D01*
X25571845Y23200194D01*
X25527789Y23048553D01*
X25527120Y23040046D01*
X25525000Y23013111D01*
X16769453Y23013111D01*
X16839414Y23083072D01*
X16941232Y23223212D01*
X17019873Y23377555D01*
X17028062Y23402758D01*
X17042688Y23447771D01*
X17061395Y23505346D01*
X17073399Y23542289D01*
X17073399Y23542292D01*
X17073402Y23542299D01*
X17100500Y23713389D01*
X17100500Y23886611D01*
X17099887Y23890479D01*
X17073402Y24057699D01*
X17073399Y24057712D01*
X17019874Y24222443D01*
X17019872Y24222447D01*
X16986465Y24288013D01*
X16941232Y24376789D01*
X16840307Y24515699D01*
X16839417Y24516924D01*
X16839416Y24516925D01*
X16839414Y24516928D01*
X16716928Y24639414D01*
X16716925Y24639417D01*
X16716922Y24639420D01*
X16716894Y24639440D01*
X16716669Y24639603D01*
X16576787Y24741234D01*
X16422458Y24819867D01*
X16422454Y24819869D01*
X16422446Y24819873D01*
X16422442Y24819875D01*
X16422439Y24819876D01*
X16257720Y24873398D01*
X16257703Y24873402D01*
X16257700Y24873403D01*
X16257698Y24873403D01*
X16145192Y24891222D01*
X16086613Y24900500D01*
X16086612Y24900500D01*
X16086611Y24900500D01*
X15913389Y24900500D01*
X15913388Y24900500D01*
X15913387Y24900500D01*
X15742295Y24873402D01*
X15742278Y24873398D01*
X15577559Y24819876D01*
X15577540Y24819867D01*
X15423211Y24741234D01*
X15283080Y24639422D01*
X15160578Y24516920D01*
X15058766Y24376789D01*
X14980133Y24222460D01*
X14980124Y24222441D01*
X14926602Y24057722D01*
X14926598Y24057705D01*
X14900114Y23890486D01*
X14899500Y23886612D01*
X307607Y23886612D01*
X307607Y24487441D01*
X307696Y24491060D01*
X307873Y24494675D01*
X308141Y24498312D01*
X309975Y24516932D01*
X311480Y24532224D01*
X319979Y24618516D01*
X321039Y24625659D01*
X322456Y24632782D01*
X324214Y24639799D01*
X325319Y24643441D01*
X357684Y24750139D01*
X360130Y24756970D01*
X362898Y24763652D01*
X365988Y24770187D01*
X420356Y24871905D01*
X424063Y24878090D01*
X428105Y24884139D01*
X432411Y24889944D01*
X505571Y24979090D01*
X510419Y24984438D01*
X515565Y24989584D01*
X520916Y24994434D01*
X610057Y25067590D01*
X615858Y25071893D01*
X621911Y25075937D01*
X628100Y25079646D01*
X638211Y25085050D01*
X729797Y25134005D01*
X736347Y25137102D01*
X743029Y25139871D01*
X749852Y25142313D01*
X860202Y25175786D01*
X867219Y25177545D01*
X874341Y25178961D01*
X881482Y25180021D01*
X1001727Y25191864D01*
X1005278Y25192125D01*
X1008943Y25192306D01*
X1012555Y25192393D01*
X1061393Y25192393D01*
X1061480Y25192403D01*
X48494563Y25199500D01*
X48498173Y25199412D01*
G37*
%TD.AperFunction*%
%TD*%
%TA.AperFunction,Conductor*%
%TO.N,/RF_ANT*%
G36*
X44485640Y17172803D02*
G01*
X44845471Y16707154D01*
X44847818Y16698512D01*
X44845471Y16692846D01*
X44485640Y16227198D01*
X44477870Y16222747D01*
X44470438Y16224275D01*
X43830756Y16601605D01*
X43825371Y16608759D01*
X43825000Y16611682D01*
X43825000Y16788319D01*
X43828427Y16796592D01*
X43830752Y16798394D01*
X44470439Y17175727D01*
X44479305Y17176978D01*
X44485640Y17172803D01*
G37*
%TD.AperFunction*%
%TD*%
M02*
