%TF.GenerationSoftware,KiCad,Pcbnew,10.0.0*%
%TF.CreationDate,2026-09-26T17:58:37+03:00*%
%TF.ProjectId,STM32-TutorialPCB,53544d33-322d-4547-9574-6f7269616c50,rev?*%
%TF.SameCoordinates,PX56c8cc0PY6acfc00*%
%TF.FileFunction,Copper,L2,Inr*%
%TF.FilePolarity,Positive*%
%FSLAX46Y46*%
G04 Gerber Fmt 4.6, Leading zero omitted, Abs format (unit mm)*
G04 Created by KiCad (PCBNEW 10.0.0) date 2026-09-26 17:58:37*
%MOMM*%
%LPD*%
G01*
G04 APERTURE LIST*
G04 Aperture macros list*
%AMRoundRect*
0 Rectangle with rounded corners*
0 $1 Rounding radius*
0 $2 $3 $4 $5 $6 $7 $8 $9 X,Y pos of 4 corners*
0 Add a 4 corners polygon primitive as box body*
4,1,4,$2,$3,$4,$5,$6,$7,$8,$9,$2,$3,0*
0 Add four circle primitives for the rounded corners*
1,1,$1+$1,$2,$3*
1,1,$1+$1,$4,$5*
1,1,$1+$1,$6,$7*
1,1,$1+$1,$8,$9*
0 Add four rect primitives between the rounded corners*
20,1,$1+$1,$2,$3,$4,$5,0*
20,1,$1+$1,$4,$5,$6,$7,0*
20,1,$1+$1,$6,$7,$8,$9,0*
20,1,$1+$1,$8,$9,$2,$3,0*%
G04 Aperture macros list end*
%TA.AperFunction,ComponentPad*%
%ADD10O,2.100000X1.000000*%
%TD*%
%TA.AperFunction,ComponentPad*%
%ADD11O,1.800000X1.000000*%
%TD*%
%TA.AperFunction,ComponentPad*%
%ADD12C,0.700000*%
%TD*%
%TA.AperFunction,ComponentPad*%
%ADD13C,4.400000*%
%TD*%
%TA.AperFunction,ComponentPad*%
%ADD14RoundRect,0.200000X-0.450000X0.200000X-0.450000X-0.200000X0.450000X-0.200000X0.450000X0.200000X0*%
%TD*%
%TA.AperFunction,ComponentPad*%
%ADD15O,1.300000X0.800000*%
%TD*%
%TA.AperFunction,ViaPad*%
%ADD16C,0.700000*%
%TD*%
G04 APERTURE END LIST*
D10*
%TO.N,GND*%
%TO.C,J1*%
X7105000Y19970000D03*
D11*
X2925000Y19970000D03*
D10*
X7105000Y11330000D03*
D11*
X2925000Y11330000D03*
%TD*%
D12*
%TO.N,GND*%
%TO.C,H1*%
X45016726Y2800000D03*
X45500000Y3966726D03*
X45500000Y1633274D03*
X46666726Y4450000D03*
D13*
X46666726Y2800000D03*
D12*
X46666726Y1150000D03*
X47833452Y3966726D03*
X47833452Y1633274D03*
X48316726Y2800000D03*
%TD*%
%TO.N,GND*%
%TO.C,H3*%
X10350000Y2800000D03*
X10833274Y3966726D03*
X10833274Y1633274D03*
X12000000Y4450000D03*
D13*
X12000000Y2800000D03*
D12*
X12000000Y1150000D03*
X13166726Y3966726D03*
X13166726Y1633274D03*
X13650000Y2800000D03*
%TD*%
%TO.N,GND*%
%TO.C,H4*%
X45016726Y22833274D03*
X45500000Y24000000D03*
X45500000Y21666548D03*
X46666726Y24483274D03*
D13*
X46666726Y22833274D03*
D12*
X46666726Y21183274D03*
X47833452Y24000000D03*
X47833452Y21666548D03*
X48316726Y22833274D03*
%TD*%
%TO.N,GND*%
%TO.C,H2*%
X12166726Y21016726D03*
X11000000Y21500000D03*
X13333452Y21500000D03*
X10516726Y22666726D03*
D13*
X12166726Y22666726D03*
D12*
X13816726Y22666726D03*
X11000000Y23833452D03*
X13333452Y23833452D03*
X12166726Y24316726D03*
%TD*%
D14*
%TO.N,+3V3*%
%TO.C,J2*%
X6100000Y7075000D03*
D15*
%TO.N,GND*%
X6100000Y3325000D03*
%TD*%
D16*
%TO.N,+3V3*%
X25500000Y16000000D03*
X15125000Y7562500D03*
X14075000Y7562500D03*
%TO.N,GND*%
X14575000Y11400000D03*
X10150000Y12850000D03*
X7300000Y9675000D03*
X9658962Y15692452D03*
X31900000Y16700000D03*
X26675000Y9500000D03*
X47400000Y13875000D03*
X32000000Y14400000D03*
X25000000Y13900000D03*
X30900000Y13400000D03*
X9000000Y11900000D03*
X26550000Y21375000D03*
X7325000Y21625000D03*
X45400000Y19475000D03*
X32850000Y20025000D03*
X25200000Y22200000D03*
X46375000Y19500000D03*
X10100000Y12025000D03*
X40500000Y14980000D03*
X29850000Y8015000D03*
X36975000Y1850000D03*
X47425000Y19500000D03*
X37500000Y14980000D03*
X42725000Y20025000D03*
X26525000Y20375000D03*
X29500000Y14400000D03*
X7600000Y2800000D03*
X30600000Y17600000D03*
X25250000Y23525000D03*
X35750000Y14330000D03*
X23725000Y9375000D03*
X28700000Y13300000D03*
X46400000Y13900000D03*
X24225000Y8275000D03*
X35850000Y24625000D03*
X32800000Y9780000D03*
X28700000Y15500000D03*
X45400000Y13925000D03*
X29975000Y9550000D03*
X34550000Y6775000D03*
X24450000Y17405000D03*
X42500000Y17572500D03*
X9000000Y19300000D03*
X32900000Y15500000D03*
X32800000Y17600000D03*
X29700000Y16700000D03*
X39950000Y10550000D03*
X34525000Y5200000D03*
X33000000Y13300000D03*
X36470000Y17400000D03*
X35825000Y23525000D03*
X41300000Y20025000D03*
X31825000Y20050000D03*
X28700000Y17600000D03*
X26000000Y13900000D03*
X42500000Y15872500D03*
%TO.N,+3V3*%
X23900000Y10500000D03*
X36650000Y14250000D03*
X23900000Y11300000D03*
X24450000Y3750000D03*
X18500000Y18900000D03*
X28350000Y23800000D03*
X27250000Y23800000D03*
X31845000Y9825000D03*
X24450000Y2350000D03*
X36450000Y18400000D03*
%TD*%
%TA.AperFunction,Conductor*%
%TO.N,GND*%
G36*
X48503609Y25199145D02*
G01*
X48629217Y25186773D01*
X48643435Y25183945D01*
X48760715Y25148369D01*
X48774117Y25142817D01*
X48882191Y25085050D01*
X48894253Y25076991D01*
X48988986Y24999245D01*
X48999244Y24988987D01*
X49076990Y24894254D01*
X49085049Y24882192D01*
X49142816Y24774118D01*
X49148368Y24760716D01*
X49183943Y24643441D01*
X49186773Y24629213D01*
X49199143Y24503616D01*
X49199499Y24496363D01*
X49199499Y1003640D01*
X49199143Y996386D01*
X49186772Y870788D01*
X49183942Y856561D01*
X49148367Y739286D01*
X49142815Y725884D01*
X49085048Y617810D01*
X49076989Y605748D01*
X48999243Y511015D01*
X48988985Y500757D01*
X48894252Y423011D01*
X48882190Y414952D01*
X48774116Y357185D01*
X48760714Y351633D01*
X48643439Y316058D01*
X48629211Y313228D01*
X48503618Y300858D01*
X48496354Y300502D01*
X1060703Y307600D01*
X1060703Y307601D01*
X1054716Y307602D01*
X1054701Y307607D01*
X1010744Y307607D01*
X1010742Y307608D01*
X1003501Y307963D01*
X877894Y320334D01*
X863666Y323164D01*
X746391Y358739D01*
X732989Y364291D01*
X624915Y422058D01*
X612853Y430117D01*
X518120Y507863D01*
X507862Y518121D01*
X430116Y612854D01*
X422057Y624916D01*
X364290Y732990D01*
X358738Y746392D01*
X325319Y856561D01*
X323162Y863672D01*
X320334Y877890D01*
X307963Y1003493D01*
X307607Y1010746D01*
X307607Y3450001D01*
X5059190Y3450001D01*
X5059191Y3450000D01*
X5881178Y3450000D01*
X5850000Y3374728D01*
X5850000Y3275272D01*
X5881178Y3200000D01*
X5059190Y3200000D01*
X5080741Y3091656D01*
X5080743Y3091649D01*
X5141047Y2946062D01*
X5228598Y2815031D01*
X5340030Y2703599D01*
X5471061Y2616048D01*
X5616648Y2555744D01*
X5616655Y2555742D01*
X5771208Y2525000D01*
X5975000Y2525000D01*
X5975000Y3106179D01*
X6050272Y3075000D01*
X6149728Y3075000D01*
X6225000Y3106179D01*
X6225000Y2525000D01*
X6428792Y2525000D01*
X6583344Y2555742D01*
X6583351Y2555744D01*
X6728938Y2616048D01*
X6859969Y2703599D01*
X6859971Y2703600D01*
X6971400Y2815029D01*
X6971401Y2815031D01*
X7058952Y2946062D01*
X7119256Y3091649D01*
X7119258Y3091656D01*
X7140809Y3200000D01*
X6318822Y3200000D01*
X6350000Y3275272D01*
X6350000Y3374728D01*
X6318822Y3450000D01*
X7140809Y3450000D01*
X7140809Y3450001D01*
X7119258Y3558345D01*
X7119256Y3558352D01*
X7058952Y3703939D01*
X7010407Y3776592D01*
X6985367Y3814068D01*
X23799500Y3814068D01*
X23799500Y3685933D01*
X23824497Y3560261D01*
X23824498Y3560258D01*
X23870168Y3450000D01*
X23873535Y3441873D01*
X23944724Y3335331D01*
X24035331Y3244724D01*
X24141873Y3173535D01*
X24260256Y3124499D01*
X24266192Y3123319D01*
X24269912Y3122578D01*
X24317003Y3091111D01*
X24328052Y3035562D01*
X24296585Y2988471D01*
X24269912Y2977422D01*
X24260259Y2975502D01*
X24260257Y2975502D01*
X24141876Y2926467D01*
X24035331Y2855277D01*
X24035330Y2855275D01*
X23944725Y2764670D01*
X23944723Y2764669D01*
X23873533Y2658124D01*
X23824498Y2539743D01*
X23824497Y2539740D01*
X23799500Y2414068D01*
X23799500Y2285933D01*
X23824497Y2160261D01*
X23824498Y2160258D01*
X23824499Y2160256D01*
X23873535Y2041873D01*
X23944724Y1935331D01*
X24035331Y1844724D01*
X24141873Y1773535D01*
X24260256Y1724499D01*
X24260258Y1724499D01*
X24260260Y1724498D01*
X24302903Y1716016D01*
X24385931Y1699500D01*
X24385933Y1699500D01*
X24514067Y1699500D01*
X24514069Y1699500D01*
X24639744Y1724499D01*
X24758127Y1773535D01*
X24864669Y1844724D01*
X24955276Y1935331D01*
X25026465Y2041873D01*
X25075501Y2160256D01*
X25100500Y2285931D01*
X25100500Y2414069D01*
X25075501Y2539744D01*
X25026465Y2658127D01*
X24955276Y2764669D01*
X24864669Y2855276D01*
X24758127Y2926465D01*
X24758124Y2926467D01*
X24758123Y2926467D01*
X24639742Y2975502D01*
X24639739Y2975503D01*
X24630088Y2977422D01*
X24582996Y3008888D01*
X24571947Y3064437D01*
X24603413Y3111529D01*
X24630088Y3122578D01*
X24639739Y3124498D01*
X24639739Y3124499D01*
X24639744Y3124499D01*
X24758127Y3173535D01*
X24864669Y3244724D01*
X24955276Y3335331D01*
X25026465Y3441873D01*
X25075501Y3560256D01*
X25100500Y3685931D01*
X25100500Y3814069D01*
X25075501Y3939744D01*
X25026465Y4058127D01*
X24955276Y4164669D01*
X24864669Y4255276D01*
X24758127Y4326465D01*
X24758124Y4326467D01*
X24758123Y4326467D01*
X24639742Y4375502D01*
X24639739Y4375503D01*
X24549696Y4393414D01*
X24514069Y4400500D01*
X24385931Y4400500D01*
X24354726Y4394293D01*
X24260260Y4375503D01*
X24260257Y4375502D01*
X24141876Y4326467D01*
X24035331Y4255277D01*
X24035330Y4255275D01*
X23944725Y4164670D01*
X23944723Y4164669D01*
X23873533Y4058124D01*
X23824498Y3939743D01*
X23824497Y3939740D01*
X23799500Y3814068D01*
X6985367Y3814068D01*
X6971401Y3834970D01*
X6859969Y3946402D01*
X6728938Y4033953D01*
X6583351Y4094257D01*
X6583344Y4094259D01*
X6564353Y4098036D01*
X6517261Y4129501D01*
X6506211Y4185050D01*
X6526465Y4222941D01*
X6540507Y4236983D01*
X6540509Y4236985D01*
X6612984Y4362515D01*
X6650499Y4502523D01*
X6650500Y4502523D01*
X6650500Y4647477D01*
X6650499Y4647478D01*
X6612985Y4787482D01*
X6612983Y4787487D01*
X6540508Y4913016D01*
X6438015Y5015509D01*
X6312486Y5087984D01*
X6312481Y5087986D01*
X6172477Y5125500D01*
X6172475Y5125500D01*
X6027525Y5125500D01*
X6027523Y5125500D01*
X5887518Y5087986D01*
X5887513Y5087984D01*
X5761984Y5015509D01*
X5659491Y4913016D01*
X5587016Y4787487D01*
X5587014Y4787482D01*
X5549500Y4647478D01*
X5549500Y4502523D01*
X5587014Y4362519D01*
X5587016Y4362514D01*
X5659491Y4236985D01*
X5673536Y4222940D01*
X5695210Y4170614D01*
X5673536Y4118288D01*
X5635646Y4098036D01*
X5616655Y4094259D01*
X5616648Y4094257D01*
X5471061Y4033953D01*
X5340030Y3946402D01*
X5340029Y3946400D01*
X5228600Y3834971D01*
X5228598Y3834970D01*
X5141047Y3703939D01*
X5080743Y3558352D01*
X5080741Y3558345D01*
X5059190Y3450001D01*
X307607Y3450001D01*
X307607Y7322874D01*
X5149500Y7322874D01*
X5149500Y6827128D01*
X5155909Y6767515D01*
X5206202Y6632671D01*
X5206203Y6632670D01*
X5206204Y6632669D01*
X5292454Y6517454D01*
X5407669Y6431204D01*
X5407670Y6431203D01*
X5518605Y6389828D01*
X5542517Y6380909D01*
X5602127Y6374500D01*
X5692324Y6374501D01*
X5744649Y6352827D01*
X5766324Y6300502D01*
X5744650Y6248176D01*
X5744650Y6248175D01*
X5659491Y6163016D01*
X5587016Y6037487D01*
X5587014Y6037482D01*
X5549500Y5897478D01*
X5549500Y5752523D01*
X5587014Y5612519D01*
X5587016Y5612514D01*
X5659491Y5486985D01*
X5761985Y5384491D01*
X5887515Y5312016D01*
X5887516Y5312016D01*
X5887518Y5312015D01*
X5957520Y5293258D01*
X6027522Y5274501D01*
X6027523Y5274500D01*
X6027525Y5274500D01*
X6172477Y5274500D01*
X6172477Y5274501D01*
X6312485Y5312016D01*
X6438015Y5384491D01*
X6540509Y5486985D01*
X6612984Y5612515D01*
X6650499Y5752523D01*
X6650500Y5752523D01*
X6650500Y5897477D01*
X6650499Y5897478D01*
X6612985Y6037482D01*
X6612983Y6037487D01*
X6540508Y6163016D01*
X6455349Y6248175D01*
X6433675Y6300501D01*
X6455349Y6352827D01*
X6507675Y6374501D01*
X6597872Y6374501D01*
X6657483Y6380909D01*
X6724907Y6406057D01*
X6792329Y6431203D01*
X6792329Y6431204D01*
X6792331Y6431204D01*
X6907546Y6517454D01*
X6993796Y6632669D01*
X7044091Y6767517D01*
X7050500Y6827127D01*
X7050499Y7322872D01*
X7044091Y7382483D01*
X7028835Y7423387D01*
X6993797Y7517330D01*
X6993796Y7517331D01*
X6942497Y7585857D01*
X6912021Y7626568D01*
X13424500Y7626568D01*
X13424500Y7498433D01*
X13449497Y7372761D01*
X13449498Y7372758D01*
X13487836Y7280201D01*
X13498535Y7254373D01*
X13569724Y7147831D01*
X13660331Y7057224D01*
X13766873Y6986035D01*
X13885256Y6936999D01*
X13885258Y6936999D01*
X13885260Y6936998D01*
X13927903Y6928516D01*
X14010931Y6912000D01*
X14010933Y6912000D01*
X14139067Y6912000D01*
X14139069Y6912000D01*
X14264744Y6936999D01*
X14383127Y6986035D01*
X14489669Y7057224D01*
X14547674Y7115229D01*
X14600000Y7136903D01*
X14652326Y7115229D01*
X14710331Y7057224D01*
X14816873Y6986035D01*
X14935256Y6936999D01*
X14935258Y6936999D01*
X14935260Y6936998D01*
X14977903Y6928516D01*
X15060931Y6912000D01*
X15060933Y6912000D01*
X15189067Y6912000D01*
X15189069Y6912000D01*
X15314744Y6936999D01*
X15433127Y6986035D01*
X15539669Y7057224D01*
X15630276Y7147831D01*
X15701465Y7254373D01*
X15750501Y7372756D01*
X15775500Y7498431D01*
X15775500Y7626569D01*
X15766273Y7672955D01*
X15751003Y7749722D01*
X15750502Y7752240D01*
X15750501Y7752243D01*
X15747574Y7759309D01*
X15747573Y7759312D01*
X34549500Y7759312D01*
X34549500Y7640689D01*
X34580199Y7526118D01*
X34580201Y7526113D01*
X34639508Y7423391D01*
X34639509Y7423390D01*
X34639511Y7423387D01*
X34723387Y7339511D01*
X34723389Y7339510D01*
X34723390Y7339509D01*
X34752206Y7322872D01*
X34826114Y7280201D01*
X34826115Y7280201D01*
X34826117Y7280200D01*
X34883402Y7264851D01*
X34940688Y7249501D01*
X34940689Y7249500D01*
X34940691Y7249500D01*
X35059311Y7249500D01*
X35059311Y7249501D01*
X35173886Y7280201D01*
X35276613Y7339511D01*
X35360489Y7423387D01*
X35419799Y7526114D01*
X35450499Y7640689D01*
X35450500Y7640689D01*
X35450500Y7759311D01*
X35450499Y7759312D01*
X35446161Y7775500D01*
X35419799Y7873886D01*
X35360489Y7976613D01*
X35276613Y8060489D01*
X35276610Y8060491D01*
X35276609Y8060492D01*
X35173887Y8119799D01*
X35173882Y8119801D01*
X35059311Y8150500D01*
X35059309Y8150500D01*
X34940691Y8150500D01*
X34940689Y8150500D01*
X34826117Y8119801D01*
X34826112Y8119799D01*
X34723390Y8060492D01*
X34639508Y7976610D01*
X34580201Y7873888D01*
X34580199Y7873883D01*
X34549500Y7759312D01*
X15747573Y7759312D01*
X15701465Y7870627D01*
X15630276Y7977169D01*
X15539669Y8067776D01*
X15433127Y8138965D01*
X15433124Y8138967D01*
X15433123Y8138967D01*
X15314742Y8188002D01*
X15314739Y8188003D01*
X15224696Y8205914D01*
X15189069Y8213000D01*
X15060931Y8213000D01*
X15029726Y8206793D01*
X14935260Y8188003D01*
X14935257Y8188002D01*
X14816876Y8138967D01*
X14710331Y8067777D01*
X14710330Y8067775D01*
X14652326Y8009771D01*
X14600000Y7988097D01*
X14547674Y8009771D01*
X14489668Y8067777D01*
X14454473Y8091293D01*
X14383127Y8138965D01*
X14383124Y8138967D01*
X14383123Y8138967D01*
X14264742Y8188002D01*
X14264739Y8188003D01*
X14174696Y8205914D01*
X14139069Y8213000D01*
X14010931Y8213000D01*
X13979726Y8206793D01*
X13885260Y8188003D01*
X13885257Y8188002D01*
X13766876Y8138967D01*
X13660331Y8067777D01*
X13660330Y8067775D01*
X13569725Y7977170D01*
X13569723Y7977169D01*
X13498533Y7870624D01*
X13449498Y7752243D01*
X13449497Y7752240D01*
X13424500Y7626568D01*
X6912021Y7626568D01*
X6907546Y7632546D01*
X6792331Y7718796D01*
X6792330Y7718797D01*
X6792329Y7718798D01*
X6657487Y7769090D01*
X6657484Y7769091D01*
X6657483Y7769091D01*
X6597873Y7775500D01*
X5602126Y7775500D01*
X5542514Y7769091D01*
X5407670Y7718798D01*
X5407669Y7718797D01*
X5292454Y7632546D01*
X5206203Y7517331D01*
X5206202Y7517330D01*
X5155910Y7382488D01*
X5155909Y7382483D01*
X5149500Y7322874D01*
X307607Y7322874D01*
X307607Y8678037D01*
X30132998Y8678037D01*
X30132998Y8559414D01*
X30163697Y8444843D01*
X30163699Y8444838D01*
X30223006Y8342116D01*
X30223007Y8342115D01*
X30223009Y8342112D01*
X30306885Y8258236D01*
X30409612Y8198926D01*
X30409613Y8198926D01*
X30409615Y8198925D01*
X30450384Y8188001D01*
X30524186Y8168226D01*
X30524187Y8168225D01*
X30524189Y8168225D01*
X30642809Y8168225D01*
X30642809Y8168226D01*
X30757384Y8198926D01*
X30860111Y8258236D01*
X30943987Y8342112D01*
X31003297Y8444839D01*
X31033997Y8559414D01*
X31033998Y8559414D01*
X31033998Y8678036D01*
X31033997Y8678037D01*
X31003298Y8792608D01*
X31003296Y8792613D01*
X30943989Y8895335D01*
X30943988Y8895336D01*
X30943987Y8895338D01*
X30860111Y8979214D01*
X30860108Y8979216D01*
X30860107Y8979217D01*
X30757385Y9038524D01*
X30757380Y9038526D01*
X30642809Y9069225D01*
X30642807Y9069225D01*
X30524189Y9069225D01*
X30524187Y9069225D01*
X30409615Y9038526D01*
X30409610Y9038524D01*
X30306888Y8979217D01*
X30223006Y8895335D01*
X30163699Y8792613D01*
X30163697Y8792608D01*
X30132998Y8678037D01*
X307607Y8678037D01*
X307607Y11455001D01*
X1632231Y11455001D01*
X1632232Y11455000D01*
X2250758Y11455000D01*
X2245444Y11445796D01*
X2225000Y11369496D01*
X2225000Y11290504D01*
X2245444Y11214204D01*
X2250758Y11205000D01*
X1632231Y11205000D01*
X1659584Y11067487D01*
X1659587Y11067476D01*
X1727427Y10903695D01*
X1825923Y10756284D01*
X1951283Y10630924D01*
X2098695Y10532428D01*
X2098694Y10532428D01*
X2262475Y10464588D01*
X2262486Y10464585D01*
X2436359Y10430000D01*
X2800000Y10430000D01*
X2800000Y11030000D01*
X3050000Y11030000D01*
X3050000Y10430000D01*
X3413641Y10430000D01*
X3587513Y10464585D01*
X3587524Y10464588D01*
X3751305Y10532428D01*
X3898716Y10630924D01*
X3898718Y10630925D01*
X4024075Y10756282D01*
X4024076Y10756284D01*
X4122572Y10903695D01*
X4190412Y11067476D01*
X4190415Y11067487D01*
X4217768Y11205000D01*
X3599242Y11205000D01*
X3604556Y11214204D01*
X3625000Y11290504D01*
X3625000Y11369496D01*
X3604556Y11445796D01*
X3599242Y11455000D01*
X4217768Y11455000D01*
X4217768Y11455001D01*
X5662231Y11455001D01*
X5662232Y11455000D01*
X6280758Y11455000D01*
X6275444Y11445796D01*
X6255000Y11369496D01*
X6255000Y11290504D01*
X6275444Y11214204D01*
X6280758Y11205000D01*
X5662231Y11205000D01*
X5689584Y11067487D01*
X5689587Y11067476D01*
X5757427Y10903695D01*
X5855923Y10756284D01*
X5981283Y10630924D01*
X6128695Y10532428D01*
X6128694Y10532428D01*
X6292475Y10464588D01*
X6292486Y10464585D01*
X6466359Y10430000D01*
X6980000Y10430000D01*
X6980000Y11030000D01*
X7230000Y11030000D01*
X7230000Y10430000D01*
X7743641Y10430000D01*
X7917513Y10464585D01*
X7917524Y10464588D01*
X8081305Y10532428D01*
X8228716Y10630924D01*
X8228718Y10630925D01*
X8354075Y10756282D01*
X8354076Y10756284D01*
X8452572Y10903695D01*
X8520412Y11067476D01*
X8520415Y11067487D01*
X8547768Y11205000D01*
X7929242Y11205000D01*
X7934556Y11214204D01*
X7955000Y11290504D01*
X7955000Y11364068D01*
X23249500Y11364068D01*
X23249500Y11235933D01*
X23274497Y11110261D01*
X23274498Y11110258D01*
X23323535Y10991873D01*
X23357452Y10941112D01*
X23368501Y10885563D01*
X23357452Y10858888D01*
X23323535Y10808128D01*
X23274498Y10689743D01*
X23274497Y10689740D01*
X23249500Y10564068D01*
X23249500Y10435933D01*
X23274497Y10310261D01*
X23274498Y10310258D01*
X23303736Y10239670D01*
X23323535Y10191873D01*
X23394724Y10085331D01*
X23485331Y9994724D01*
X23591873Y9923535D01*
X23710256Y9874499D01*
X23710258Y9874499D01*
X23710260Y9874498D01*
X23752903Y9866016D01*
X23835931Y9849500D01*
X23835933Y9849500D01*
X23964067Y9849500D01*
X23964069Y9849500D01*
X24089744Y9874499D01*
X24124917Y9889068D01*
X31194500Y9889068D01*
X31194500Y9760933D01*
X31219497Y9635261D01*
X31219498Y9635258D01*
X31219499Y9635256D01*
X31268535Y9516873D01*
X31339724Y9410331D01*
X31430331Y9319724D01*
X31536873Y9248535D01*
X31655256Y9199499D01*
X31655258Y9199499D01*
X31655260Y9199498D01*
X31697903Y9191016D01*
X31780931Y9174500D01*
X31780933Y9174500D01*
X31909067Y9174500D01*
X31909069Y9174500D01*
X32034744Y9199499D01*
X32153127Y9248535D01*
X32259669Y9319724D01*
X32350276Y9410331D01*
X32421465Y9516873D01*
X32470501Y9635256D01*
X32495500Y9760931D01*
X32495500Y9889069D01*
X32470501Y10014744D01*
X32421465Y10133127D01*
X32350276Y10239669D01*
X32259669Y10330276D01*
X32153127Y10401465D01*
X32153124Y10401467D01*
X32153123Y10401467D01*
X32034742Y10450502D01*
X32034739Y10450503D01*
X31944696Y10468414D01*
X31909069Y10475500D01*
X31780931Y10475500D01*
X31749726Y10469293D01*
X31655260Y10450503D01*
X31655257Y10450502D01*
X31536876Y10401467D01*
X31430331Y10330277D01*
X31430330Y10330275D01*
X31339725Y10239670D01*
X31339723Y10239669D01*
X31268533Y10133124D01*
X31219498Y10014743D01*
X31219497Y10014740D01*
X31194500Y9889068D01*
X24124917Y9889068D01*
X24208127Y9923535D01*
X24314669Y9994724D01*
X24405276Y10085331D01*
X24476465Y10191873D01*
X24525501Y10310256D01*
X24550500Y10435931D01*
X24550500Y10564069D01*
X24525501Y10689744D01*
X24476465Y10808127D01*
X24442546Y10858889D01*
X24431498Y10914436D01*
X24442547Y10941112D01*
X24476465Y10991873D01*
X24525501Y11110256D01*
X24550500Y11235931D01*
X24550500Y11364069D01*
X24525501Y11489744D01*
X24476465Y11608127D01*
X24405276Y11714669D01*
X24314669Y11805276D01*
X24208127Y11876465D01*
X24208124Y11876467D01*
X24208123Y11876467D01*
X24089742Y11925502D01*
X24089739Y11925503D01*
X23999696Y11943414D01*
X23964069Y11950500D01*
X23835931Y11950500D01*
X23804726Y11944293D01*
X23710260Y11925503D01*
X23710257Y11925502D01*
X23591876Y11876467D01*
X23485331Y11805277D01*
X23485330Y11805275D01*
X23394725Y11714670D01*
X23394723Y11714669D01*
X23323533Y11608124D01*
X23274498Y11489743D01*
X23274497Y11489740D01*
X23249500Y11364068D01*
X7955000Y11364068D01*
X7955000Y11369496D01*
X7934556Y11445796D01*
X7929242Y11455000D01*
X8547768Y11455000D01*
X8547768Y11455001D01*
X8520415Y11592514D01*
X8520412Y11592525D01*
X8452572Y11756306D01*
X8354076Y11903717D01*
X8228716Y12029077D01*
X8081304Y12127573D01*
X8081305Y12127573D01*
X7917524Y12195413D01*
X7917513Y12195416D01*
X7743641Y12230000D01*
X7230000Y12230000D01*
X7230000Y11630000D01*
X6980000Y11630000D01*
X6980000Y12239568D01*
X6965091Y12275561D01*
X6986763Y12327884D01*
X7065515Y12406635D01*
X7141281Y12537865D01*
X7180499Y12684232D01*
X7180500Y12684232D01*
X7180500Y12835765D01*
X7169200Y12877937D01*
X7169200Y12877940D01*
X7165043Y12893455D01*
X17638200Y12893455D01*
X17638200Y12746546D01*
X17666858Y12602465D01*
X17666861Y12602454D01*
X17723078Y12466734D01*
X17723079Y12466732D01*
X17723080Y12466731D01*
X17804699Y12344580D01*
X17908580Y12240699D01*
X18030731Y12159080D01*
X18030732Y12159080D01*
X18030733Y12159079D01*
X18106798Y12127572D01*
X18166458Y12102860D01*
X18310545Y12074200D01*
X18457455Y12074200D01*
X18601542Y12102860D01*
X18737269Y12159080D01*
X18859420Y12240699D01*
X18963301Y12344580D01*
X19044920Y12466731D01*
X19101140Y12602458D01*
X19129800Y12746545D01*
X19129800Y12893455D01*
X19670200Y12893455D01*
X19670200Y12746546D01*
X19698858Y12602465D01*
X19698861Y12602454D01*
X19755078Y12466734D01*
X19755079Y12466732D01*
X19755080Y12466731D01*
X19836699Y12344580D01*
X19940580Y12240699D01*
X20062731Y12159080D01*
X20062732Y12159080D01*
X20062733Y12159079D01*
X20138798Y12127572D01*
X20198458Y12102860D01*
X20342545Y12074200D01*
X20489455Y12074200D01*
X20633542Y12102860D01*
X20769269Y12159080D01*
X20891420Y12240699D01*
X20995301Y12344580D01*
X21076920Y12466731D01*
X21133140Y12602458D01*
X21161800Y12746545D01*
X21161800Y12893455D01*
X21133140Y13037542D01*
X21076920Y13173269D01*
X20995301Y13295420D01*
X20891420Y13399301D01*
X20769269Y13480920D01*
X20769268Y13480921D01*
X20769266Y13480922D01*
X20633546Y13537139D01*
X20633535Y13537142D01*
X20489455Y13565800D01*
X20342545Y13565800D01*
X20198464Y13537142D01*
X20198453Y13537139D01*
X20062733Y13480922D01*
X19940583Y13399304D01*
X19836696Y13295417D01*
X19755078Y13173267D01*
X19698861Y13037547D01*
X19698858Y13037536D01*
X19670200Y12893455D01*
X19129800Y12893455D01*
X19101140Y13037542D01*
X19044920Y13173269D01*
X18963301Y13295420D01*
X18859420Y13399301D01*
X18737269Y13480920D01*
X18737268Y13480921D01*
X18737266Y13480922D01*
X18601546Y13537139D01*
X18601535Y13537142D01*
X18457455Y13565800D01*
X18310545Y13565800D01*
X18166464Y13537142D01*
X18166453Y13537139D01*
X18030733Y13480922D01*
X17908583Y13399304D01*
X17804696Y13295417D01*
X17723078Y13173267D01*
X17666861Y13037547D01*
X17666858Y13037536D01*
X17638200Y12893455D01*
X7165043Y12893455D01*
X7141282Y12982131D01*
X7141281Y12982135D01*
X7065515Y13113365D01*
X6958365Y13220515D01*
X6958362Y13220517D01*
X6827139Y13296279D01*
X6827130Y13296283D01*
X6680768Y13335500D01*
X6680766Y13335500D01*
X6529234Y13335500D01*
X6529232Y13335500D01*
X6382869Y13296283D01*
X6382860Y13296279D01*
X6251637Y13220517D01*
X6144483Y13113363D01*
X6068721Y12982140D01*
X6068717Y12982131D01*
X6029500Y12835769D01*
X6029500Y12684232D01*
X6068717Y12537870D01*
X6068721Y12537861D01*
X6109788Y12466731D01*
X6144485Y12406635D01*
X6251635Y12299485D01*
X6251637Y12299484D01*
X6251639Y12299482D01*
X6252353Y12298934D01*
X6252579Y12298542D01*
X6255065Y12296056D01*
X6254398Y12295390D01*
X6280669Y12249883D01*
X6266006Y12195177D01*
X6235620Y12171862D01*
X6128693Y12127572D01*
X5981283Y12029077D01*
X5981282Y12029075D01*
X5855925Y11903718D01*
X5855923Y11903717D01*
X5757427Y11756306D01*
X5689587Y11592525D01*
X5689584Y11592514D01*
X5662231Y11455001D01*
X4217768Y11455001D01*
X4190415Y11592514D01*
X4190412Y11592525D01*
X4122572Y11756306D01*
X4024076Y11903717D01*
X3898716Y12029077D01*
X3751304Y12127573D01*
X3751305Y12127573D01*
X3587524Y12195413D01*
X3587513Y12195416D01*
X3413641Y12230000D01*
X3050000Y12230000D01*
X3050000Y11630000D01*
X2800000Y11630000D01*
X2800000Y12230000D01*
X2436359Y12230000D01*
X2262486Y12195416D01*
X2262475Y12195413D01*
X2098694Y12127573D01*
X1951283Y12029077D01*
X1951282Y12029075D01*
X1825925Y11903718D01*
X1825923Y11903717D01*
X1727427Y11756306D01*
X1659587Y11592525D01*
X1659584Y11592514D01*
X1632231Y11455001D01*
X307607Y11455001D01*
X307607Y14838170D01*
X15422050Y14838170D01*
X15422050Y14611831D01*
X15457458Y14388280D01*
X15457460Y14388269D01*
X15527397Y14173025D01*
X15630154Y13971350D01*
X15728979Y13835330D01*
X15763193Y13788239D01*
X15923239Y13628193D01*
X15923242Y13628191D01*
X15923243Y13628190D01*
X16106349Y13495155D01*
X16203552Y13445628D01*
X16308019Y13392400D01*
X16308021Y13392400D01*
X16308024Y13392398D01*
X16523268Y13322461D01*
X16523272Y13322461D01*
X16523279Y13322458D01*
X16716263Y13291892D01*
X16746830Y13287050D01*
X16746831Y13287050D01*
X16973170Y13287050D01*
X17000059Y13291310D01*
X17196721Y13322458D01*
X17196729Y13322461D01*
X17196731Y13322461D01*
X17411975Y13392398D01*
X17411975Y13392399D01*
X17411981Y13392400D01*
X17613650Y13495155D01*
X17796761Y13628193D01*
X17956807Y13788239D01*
X18089845Y13971350D01*
X18192600Y14173019D01*
X18196796Y14185933D01*
X18262539Y14388269D01*
X18262540Y14388273D01*
X18262542Y14388279D01*
X18297950Y14611831D01*
X18297950Y14838169D01*
X18297950Y14838170D01*
X20502050Y14838170D01*
X20502050Y14611831D01*
X20537458Y14388280D01*
X20537460Y14388269D01*
X20607397Y14173025D01*
X20710154Y13971350D01*
X20808979Y13835330D01*
X20843193Y13788239D01*
X21003239Y13628193D01*
X21003242Y13628191D01*
X21003243Y13628190D01*
X21186349Y13495155D01*
X21283552Y13445628D01*
X21388019Y13392400D01*
X21388021Y13392400D01*
X21388024Y13392398D01*
X21603268Y13322461D01*
X21603272Y13322461D01*
X21603279Y13322458D01*
X21796263Y13291892D01*
X21826830Y13287050D01*
X21826831Y13287050D01*
X22053170Y13287050D01*
X22080059Y13291310D01*
X22276721Y13322458D01*
X22276729Y13322461D01*
X22276731Y13322461D01*
X22491975Y13392398D01*
X22491975Y13392399D01*
X22491981Y13392400D01*
X22693650Y13495155D01*
X22876761Y13628193D01*
X23036807Y13788239D01*
X23169845Y13971350D01*
X23272600Y14173019D01*
X23276796Y14185933D01*
X23318430Y14314069D01*
X35999500Y14314069D01*
X35999500Y14185931D01*
X36006586Y14150304D01*
X36024497Y14060261D01*
X36024498Y14060258D01*
X36024499Y14060256D01*
X36073535Y13941873D01*
X36144724Y13835331D01*
X36235331Y13744724D01*
X36341873Y13673535D01*
X36460256Y13624499D01*
X36460258Y13624499D01*
X36460260Y13624498D01*
X36502903Y13616016D01*
X36585931Y13599500D01*
X36585933Y13599500D01*
X36714067Y13599500D01*
X36714069Y13599500D01*
X36839744Y13624499D01*
X36958127Y13673535D01*
X37064669Y13744724D01*
X37155276Y13835331D01*
X37226465Y13941873D01*
X37275501Y14060256D01*
X37300500Y14185931D01*
X37300500Y14314069D01*
X37275501Y14439744D01*
X37226465Y14558127D01*
X37155276Y14664669D01*
X37064669Y14755276D01*
X36958127Y14826465D01*
X36958124Y14826467D01*
X36958123Y14826467D01*
X36839742Y14875502D01*
X36839739Y14875503D01*
X36749696Y14893414D01*
X36714069Y14900500D01*
X36585931Y14900500D01*
X36554726Y14894293D01*
X36460260Y14875503D01*
X36460257Y14875502D01*
X36341876Y14826467D01*
X36235331Y14755277D01*
X36235330Y14755275D01*
X36144725Y14664670D01*
X36144723Y14664669D01*
X36073533Y14558124D01*
X36024498Y14439743D01*
X36024497Y14439740D01*
X36004772Y14340572D01*
X35999500Y14314069D01*
X23318430Y14314069D01*
X23327041Y14340571D01*
X23327041Y14340572D01*
X23342540Y14388273D01*
X23342539Y14388273D01*
X23342542Y14388279D01*
X23377950Y14611831D01*
X23377950Y14838169D01*
X23342542Y15061721D01*
X23342539Y15061728D01*
X23342539Y15061732D01*
X23272602Y15276976D01*
X23272600Y15276979D01*
X23272600Y15276981D01*
X23197928Y15423534D01*
X23169845Y15478651D01*
X23036810Y15661757D01*
X23036809Y15661758D01*
X23036807Y15661761D01*
X22876761Y15821807D01*
X22876758Y15821810D01*
X22876756Y15821811D01*
X22693649Y15954846D01*
X22601556Y16001769D01*
X22491975Y16057603D01*
X22472078Y16064068D01*
X24849500Y16064068D01*
X24849500Y15935933D01*
X24874497Y15810261D01*
X24874498Y15810258D01*
X24874499Y15810256D01*
X24923535Y15691873D01*
X24994724Y15585331D01*
X25085331Y15494724D01*
X25191873Y15423535D01*
X25310256Y15374499D01*
X25310258Y15374499D01*
X25310260Y15374498D01*
X25352903Y15366016D01*
X25435931Y15349500D01*
X25435933Y15349500D01*
X25564067Y15349500D01*
X25564069Y15349500D01*
X25689744Y15374499D01*
X25808127Y15423535D01*
X25914669Y15494724D01*
X26005276Y15585331D01*
X26076465Y15691873D01*
X26125501Y15810256D01*
X26150500Y15935931D01*
X26150500Y16064069D01*
X26125501Y16189744D01*
X26076465Y16308127D01*
X26005276Y16414669D01*
X25914669Y16505276D01*
X25808127Y16576465D01*
X25808124Y16576467D01*
X25808123Y16576467D01*
X25689742Y16625502D01*
X25689739Y16625503D01*
X25599696Y16643414D01*
X25564069Y16650500D01*
X25435931Y16650500D01*
X25404726Y16644293D01*
X25310260Y16625503D01*
X25310257Y16625502D01*
X25191876Y16576467D01*
X25085331Y16505277D01*
X25085330Y16505275D01*
X24994725Y16414670D01*
X24994723Y16414669D01*
X24923533Y16308124D01*
X24874498Y16189743D01*
X24874497Y16189740D01*
X24849500Y16064068D01*
X22472078Y16064068D01*
X22276731Y16127540D01*
X22276722Y16127542D01*
X22276721Y16127542D01*
X22164945Y16145246D01*
X22053170Y16162950D01*
X22053169Y16162950D01*
X21826831Y16162950D01*
X21826830Y16162950D01*
X21603279Y16127542D01*
X21603268Y16127540D01*
X21388024Y16057603D01*
X21186349Y15954846D01*
X21003243Y15821811D01*
X20843189Y15661757D01*
X20710154Y15478651D01*
X20607397Y15276976D01*
X20537460Y15061732D01*
X20537458Y15061721D01*
X20502050Y14838170D01*
X18297950Y14838170D01*
X18262542Y15061721D01*
X18262539Y15061728D01*
X18262539Y15061732D01*
X18192602Y15276976D01*
X18192600Y15276979D01*
X18192600Y15276981D01*
X18117928Y15423534D01*
X18089845Y15478651D01*
X17956810Y15661757D01*
X17956809Y15661758D01*
X17956807Y15661761D01*
X17796761Y15821807D01*
X17796758Y15821810D01*
X17796756Y15821811D01*
X17613650Y15954846D01*
X17411975Y16057603D01*
X17196731Y16127540D01*
X17196722Y16127542D01*
X17196721Y16127542D01*
X17084945Y16145246D01*
X16973170Y16162950D01*
X16973169Y16162950D01*
X16746831Y16162950D01*
X16746830Y16162950D01*
X16523279Y16127542D01*
X16523268Y16127540D01*
X16308024Y16057603D01*
X16106349Y15954846D01*
X15923243Y15821811D01*
X15763189Y15661757D01*
X15630154Y15478651D01*
X15527397Y15276976D01*
X15457460Y15061732D01*
X15457458Y15061721D01*
X15422050Y14838170D01*
X307607Y14838170D01*
X307607Y20095001D01*
X1632231Y20095001D01*
X1632232Y20095000D01*
X2250758Y20095000D01*
X2245444Y20085796D01*
X2225000Y20009496D01*
X2225000Y19930504D01*
X2245444Y19854204D01*
X2250758Y19845000D01*
X1632231Y19845000D01*
X1659584Y19707487D01*
X1659587Y19707476D01*
X1727427Y19543695D01*
X1825923Y19396284D01*
X1951283Y19270924D01*
X2098695Y19172428D01*
X2098694Y19172428D01*
X2262475Y19104588D01*
X2262486Y19104585D01*
X2436359Y19070000D01*
X2800000Y19070000D01*
X2800000Y19670000D01*
X3050000Y19670000D01*
X3050000Y19070000D01*
X3413641Y19070000D01*
X3587513Y19104585D01*
X3587524Y19104588D01*
X3751305Y19172428D01*
X3898716Y19270924D01*
X3898718Y19270925D01*
X4024075Y19396282D01*
X4024076Y19396284D01*
X4122572Y19543695D01*
X4190412Y19707476D01*
X4190415Y19707487D01*
X4217768Y19845000D01*
X3599242Y19845000D01*
X3604556Y19854204D01*
X3625000Y19930504D01*
X3625000Y20009496D01*
X3604556Y20085796D01*
X3599242Y20095000D01*
X4217768Y20095000D01*
X4217768Y20095001D01*
X5662231Y20095001D01*
X5662232Y20095000D01*
X6280758Y20095000D01*
X6275444Y20085796D01*
X6255000Y20009496D01*
X6255000Y19930504D01*
X6275444Y19854204D01*
X6280758Y19845000D01*
X5662231Y19845000D01*
X5689584Y19707487D01*
X5689587Y19707476D01*
X5757427Y19543695D01*
X5855923Y19396284D01*
X5981283Y19270924D01*
X6128695Y19172428D01*
X6128694Y19172428D01*
X6235619Y19128139D01*
X6275668Y19088091D01*
X6275668Y19031454D01*
X6254781Y19004228D01*
X6255065Y19003944D01*
X6252911Y19001791D01*
X6252361Y19001073D01*
X6251642Y19000522D01*
X6144483Y18893363D01*
X6068721Y18762140D01*
X6068717Y18762131D01*
X6029500Y18615769D01*
X6029500Y18464232D01*
X6068717Y18317870D01*
X6068721Y18317861D01*
X6130844Y18210261D01*
X6144485Y18186635D01*
X6251635Y18079485D01*
X6382865Y18003719D01*
X6529231Y17964501D01*
X6529232Y17964500D01*
X6529234Y17964500D01*
X6680768Y17964500D01*
X6680768Y17964501D01*
X6827135Y18003719D01*
X6843503Y18013169D01*
X15422050Y18013169D01*
X15422050Y17786831D01*
X15438581Y17682458D01*
X15457458Y17563280D01*
X15457460Y17563269D01*
X15527397Y17348025D01*
X15630154Y17146350D01*
X15763189Y16963244D01*
X15763193Y16963239D01*
X15923239Y16803193D01*
X15923242Y16803191D01*
X15923243Y16803190D01*
X16106349Y16670155D01*
X16144925Y16650500D01*
X16308019Y16567400D01*
X16308021Y16567400D01*
X16308024Y16567398D01*
X16523268Y16497461D01*
X16523272Y16497461D01*
X16523279Y16497458D01*
X16716263Y16466892D01*
X16746830Y16462050D01*
X16746831Y16462050D01*
X16973170Y16462050D01*
X17000059Y16466310D01*
X17196721Y16497458D01*
X17196729Y16497461D01*
X17196731Y16497461D01*
X17411975Y16567398D01*
X17411975Y16567399D01*
X17411981Y16567400D01*
X17613650Y16670155D01*
X17796761Y16803193D01*
X17956807Y16963239D01*
X18089845Y17146350D01*
X18192600Y17348019D01*
X18217476Y17424580D01*
X18262539Y17563269D01*
X18262539Y17563271D01*
X18262542Y17563279D01*
X18297950Y17786831D01*
X18297950Y18013169D01*
X18271421Y18180661D01*
X18284642Y18235732D01*
X18332933Y18265325D01*
X18358944Y18264815D01*
X18435931Y18249500D01*
X18435933Y18249500D01*
X18564066Y18249500D01*
X18564069Y18249500D01*
X18617309Y18260091D01*
X18672856Y18249042D01*
X18704323Y18201951D01*
X18700113Y18159196D01*
X18682860Y18117542D01*
X18682858Y18117536D01*
X18654200Y17973455D01*
X18654200Y17826546D01*
X18682858Y17682465D01*
X18682861Y17682454D01*
X18739078Y17546734D01*
X18739079Y17546732D01*
X18739080Y17546731D01*
X18820699Y17424580D01*
X18924580Y17320699D01*
X19046731Y17239080D01*
X19182458Y17182860D01*
X19326545Y17154200D01*
X19473455Y17154200D01*
X19617542Y17182860D01*
X19753269Y17239080D01*
X19875420Y17320699D01*
X19979301Y17424580D01*
X20060920Y17546731D01*
X20117140Y17682458D01*
X20145800Y17826545D01*
X20145800Y17973455D01*
X20143438Y17985332D01*
X20140194Y18001642D01*
X20137901Y18013169D01*
X20502050Y18013169D01*
X20502050Y17786831D01*
X20518581Y17682458D01*
X20537458Y17563280D01*
X20537460Y17563269D01*
X20607397Y17348025D01*
X20710154Y17146350D01*
X20843189Y16963244D01*
X20843193Y16963239D01*
X21003239Y16803193D01*
X21003242Y16803191D01*
X21003243Y16803190D01*
X21186349Y16670155D01*
X21224925Y16650500D01*
X21388019Y16567400D01*
X21388021Y16567400D01*
X21388024Y16567398D01*
X21603268Y16497461D01*
X21603272Y16497461D01*
X21603279Y16497458D01*
X21796263Y16466892D01*
X21826830Y16462050D01*
X21826831Y16462050D01*
X22053170Y16462050D01*
X22080059Y16466310D01*
X22276721Y16497458D01*
X22276729Y16497461D01*
X22276731Y16497461D01*
X22491975Y16567398D01*
X22491975Y16567399D01*
X22491981Y16567400D01*
X22693650Y16670155D01*
X22876761Y16803193D01*
X23036807Y16963239D01*
X23169845Y17146350D01*
X23272600Y17348019D01*
X23297476Y17424580D01*
X23342539Y17563269D01*
X23342539Y17563271D01*
X23342542Y17563279D01*
X23377950Y17786831D01*
X23377950Y18013169D01*
X23342542Y18236721D01*
X23342539Y18236728D01*
X23342539Y18236732D01*
X23274922Y18444837D01*
X23274922Y18444838D01*
X23272602Y18451975D01*
X23272601Y18451976D01*
X23272600Y18451981D01*
X23266441Y18464069D01*
X35799500Y18464069D01*
X35799500Y18335931D01*
X35804483Y18310880D01*
X35824497Y18210261D01*
X35824498Y18210258D01*
X35862902Y18117542D01*
X35873535Y18091873D01*
X35921207Y18020527D01*
X35932437Y18003719D01*
X35944724Y17985331D01*
X36035331Y17894724D01*
X36141873Y17823535D01*
X36260256Y17774499D01*
X36260258Y17774499D01*
X36260260Y17774498D01*
X36302903Y17766016D01*
X36385931Y17749500D01*
X36385933Y17749500D01*
X36514067Y17749500D01*
X36514069Y17749500D01*
X36639744Y17774499D01*
X36758127Y17823535D01*
X36864669Y17894724D01*
X36955276Y17985331D01*
X37026465Y18091873D01*
X37075501Y18210256D01*
X37100500Y18335931D01*
X37100500Y18464069D01*
X37075501Y18589744D01*
X37026465Y18708127D01*
X36955276Y18814669D01*
X36864669Y18905276D01*
X36758127Y18976465D01*
X36758124Y18976467D01*
X36758123Y18976467D01*
X36639742Y19025502D01*
X36639739Y19025503D01*
X36549696Y19043414D01*
X36514069Y19050500D01*
X36385931Y19050500D01*
X36354726Y19044293D01*
X36260260Y19025503D01*
X36260257Y19025502D01*
X36141876Y18976467D01*
X36035331Y18905277D01*
X36035330Y18905275D01*
X35944725Y18814670D01*
X35944723Y18814669D01*
X35873533Y18708124D01*
X35824498Y18589743D01*
X35824497Y18589740D01*
X35818765Y18560920D01*
X35799500Y18464069D01*
X23266441Y18464069D01*
X23173845Y18645800D01*
X23169845Y18653651D01*
X23036810Y18836757D01*
X23036809Y18836758D01*
X23036807Y18836761D01*
X22876761Y18996807D01*
X22876758Y18996810D01*
X22876756Y18996811D01*
X22693650Y19129846D01*
X22491975Y19232603D01*
X22276731Y19302540D01*
X22276722Y19302542D01*
X22276721Y19302542D01*
X22164945Y19320246D01*
X22053170Y19337950D01*
X22053169Y19337950D01*
X21826831Y19337950D01*
X21826830Y19337950D01*
X21603279Y19302542D01*
X21603268Y19302540D01*
X21388024Y19232603D01*
X21186349Y19129846D01*
X21003243Y18996811D01*
X20843189Y18836757D01*
X20710154Y18653651D01*
X20607397Y18451976D01*
X20537460Y18236732D01*
X20537458Y18236721D01*
X20512554Y18079484D01*
X20502050Y18013169D01*
X20137901Y18013169D01*
X20117141Y18117536D01*
X20117140Y18117542D01*
X20088521Y18186635D01*
X20060921Y18253267D01*
X20056361Y18260091D01*
X19979301Y18375420D01*
X19875420Y18479301D01*
X19753269Y18560920D01*
X19753268Y18560921D01*
X19753266Y18560922D01*
X19617546Y18617139D01*
X19617535Y18617142D01*
X19473455Y18645800D01*
X19326545Y18645800D01*
X19212490Y18623114D01*
X19156941Y18634164D01*
X19125476Y18681256D01*
X19125476Y18710129D01*
X19135822Y18762140D01*
X19150500Y18835931D01*
X19150500Y18964069D01*
X19131331Y19060434D01*
X19125502Y19089740D01*
X19125501Y19089743D01*
X19119353Y19104585D01*
X19076465Y19208127D01*
X19005276Y19314669D01*
X18914669Y19405276D01*
X18808127Y19476465D01*
X18808124Y19476467D01*
X18808123Y19476467D01*
X18689742Y19525502D01*
X18689739Y19525503D01*
X18598279Y19543695D01*
X18564069Y19550500D01*
X18435931Y19550500D01*
X18404726Y19544293D01*
X18310260Y19525503D01*
X18310257Y19525502D01*
X18191876Y19476467D01*
X18085331Y19405277D01*
X18085330Y19405275D01*
X17994725Y19314670D01*
X17994723Y19314669D01*
X17923533Y19208124D01*
X17874498Y19089743D01*
X17874496Y19089734D01*
X17871081Y19072569D01*
X17839613Y19025478D01*
X17784064Y19014432D01*
X17755008Y19027142D01*
X17749073Y19031454D01*
X17668844Y19089744D01*
X17613649Y19129846D01*
X17411975Y19232603D01*
X17196731Y19302540D01*
X17196722Y19302542D01*
X17196721Y19302542D01*
X17084945Y19320246D01*
X16973170Y19337950D01*
X16973169Y19337950D01*
X16746831Y19337950D01*
X16746830Y19337950D01*
X16523279Y19302542D01*
X16523268Y19302540D01*
X16308024Y19232603D01*
X16106349Y19129846D01*
X15923243Y18996811D01*
X15763189Y18836757D01*
X15630154Y18653651D01*
X15527397Y18451976D01*
X15457460Y18236732D01*
X15457458Y18236721D01*
X15432554Y18079484D01*
X15422050Y18013169D01*
X6843503Y18013169D01*
X6958365Y18079485D01*
X7065515Y18186635D01*
X7141281Y18317865D01*
X7180499Y18464232D01*
X7180500Y18464232D01*
X7180500Y18615768D01*
X7180499Y18615769D01*
X7172452Y18645800D01*
X7141281Y18762135D01*
X7065515Y18893365D01*
X6986764Y18972116D01*
X6965091Y19024440D01*
X6980000Y19060434D01*
X6980000Y19670000D01*
X7230000Y19670000D01*
X7230000Y19070000D01*
X7743641Y19070000D01*
X7917513Y19104585D01*
X7917524Y19104588D01*
X8081305Y19172428D01*
X8228716Y19270924D01*
X8228718Y19270925D01*
X8354075Y19396282D01*
X8354076Y19396284D01*
X8452572Y19543695D01*
X8520412Y19707476D01*
X8520415Y19707487D01*
X8547768Y19845000D01*
X7929242Y19845000D01*
X7934556Y19854204D01*
X7955000Y19930504D01*
X7955000Y20009496D01*
X7934556Y20085796D01*
X7929242Y20095000D01*
X8547768Y20095000D01*
X8547768Y20095001D01*
X8520415Y20232514D01*
X8520412Y20232525D01*
X8452572Y20396306D01*
X8354076Y20543717D01*
X8228716Y20669077D01*
X8081304Y20767573D01*
X8081305Y20767573D01*
X7917524Y20835413D01*
X7917513Y20835416D01*
X7743641Y20870000D01*
X7230000Y20870000D01*
X7230000Y20270000D01*
X6980000Y20270000D01*
X6980000Y20870000D01*
X6466359Y20870000D01*
X6292486Y20835416D01*
X6292475Y20835413D01*
X6128694Y20767573D01*
X5981283Y20669077D01*
X5981282Y20669075D01*
X5855925Y20543718D01*
X5855923Y20543717D01*
X5757427Y20396306D01*
X5689587Y20232525D01*
X5689584Y20232514D01*
X5662231Y20095001D01*
X4217768Y20095001D01*
X4190415Y20232514D01*
X4190412Y20232525D01*
X4122572Y20396306D01*
X4024076Y20543717D01*
X3898716Y20669077D01*
X3751304Y20767573D01*
X3751305Y20767573D01*
X3587524Y20835413D01*
X3587513Y20835416D01*
X3413641Y20870000D01*
X3050000Y20870000D01*
X3050000Y20270000D01*
X2800000Y20270000D01*
X2800000Y20870000D01*
X2436359Y20870000D01*
X2262486Y20835416D01*
X2262475Y20835413D01*
X2098694Y20767573D01*
X1951283Y20669077D01*
X1951282Y20669075D01*
X1825925Y20543718D01*
X1825923Y20543717D01*
X1727427Y20396306D01*
X1659587Y20232525D01*
X1659584Y20232514D01*
X1632231Y20095001D01*
X307607Y20095001D01*
X307607Y23864068D01*
X26599500Y23864068D01*
X26599500Y23735933D01*
X26624497Y23610261D01*
X26624498Y23610258D01*
X26624499Y23610256D01*
X26673535Y23491873D01*
X26744724Y23385331D01*
X26835331Y23294724D01*
X26941873Y23223535D01*
X27060256Y23174499D01*
X27060258Y23174499D01*
X27060260Y23174498D01*
X27102903Y23166016D01*
X27185931Y23149500D01*
X27185933Y23149500D01*
X27314067Y23149500D01*
X27314069Y23149500D01*
X27439744Y23174499D01*
X27558127Y23223535D01*
X27664669Y23294724D01*
X27747674Y23377729D01*
X27800000Y23399403D01*
X27852326Y23377729D01*
X27935331Y23294724D01*
X28041873Y23223535D01*
X28160256Y23174499D01*
X28160258Y23174499D01*
X28160260Y23174498D01*
X28202903Y23166016D01*
X28285931Y23149500D01*
X28285933Y23149500D01*
X28414067Y23149500D01*
X28414069Y23149500D01*
X28539744Y23174499D01*
X28658127Y23223535D01*
X28764669Y23294724D01*
X28855276Y23385331D01*
X28926465Y23491873D01*
X28975501Y23610256D01*
X29000500Y23735931D01*
X29000500Y23864069D01*
X28975501Y23989744D01*
X28926465Y24108127D01*
X28855276Y24214669D01*
X28764669Y24305276D01*
X28658127Y24376465D01*
X28658124Y24376467D01*
X28658123Y24376467D01*
X28539742Y24425502D01*
X28539739Y24425503D01*
X28449696Y24443414D01*
X28414069Y24450500D01*
X28285931Y24450500D01*
X28254726Y24444293D01*
X28160260Y24425503D01*
X28160257Y24425502D01*
X28041876Y24376467D01*
X27935331Y24305277D01*
X27935330Y24305275D01*
X27852326Y24222271D01*
X27800000Y24200597D01*
X27747674Y24222271D01*
X27664668Y24305277D01*
X27629473Y24328793D01*
X27558127Y24376465D01*
X27558124Y24376467D01*
X27558123Y24376467D01*
X27439742Y24425502D01*
X27439739Y24425503D01*
X27349696Y24443414D01*
X27314069Y24450500D01*
X27185931Y24450500D01*
X27154726Y24444293D01*
X27060260Y24425503D01*
X27060257Y24425502D01*
X26941876Y24376467D01*
X26835331Y24305277D01*
X26835330Y24305275D01*
X26744725Y24214670D01*
X26744723Y24214669D01*
X26673533Y24108124D01*
X26624498Y23989743D01*
X26624497Y23989740D01*
X26599500Y23864068D01*
X307607Y23864068D01*
X307607Y24489255D01*
X307963Y24496508D01*
X308663Y24503616D01*
X320334Y24622113D01*
X323161Y24636327D01*
X358739Y24753613D01*
X364290Y24767011D01*
X364652Y24767687D01*
X422057Y24875086D01*
X430116Y24887147D01*
X507862Y24981880D01*
X518120Y24992138D01*
X612853Y25069884D01*
X624915Y25077943D01*
X638211Y25085050D01*
X732992Y25135712D01*
X746387Y25141261D01*
X863673Y25176839D01*
X877887Y25179666D01*
X1003492Y25192037D01*
X1010730Y25192393D01*
X1054701Y25192393D01*
X1054722Y25192401D01*
X48496364Y25199500D01*
X48503609Y25199145D01*
G37*
%TD.AperFunction*%
%TD*%
%TA.AperFunction,Conductor*%
%TO.N,+3V3*%
G36*
X24482266Y2713144D02*
G01*
X24492111Y2709199D01*
X24497826Y2703615D01*
X24606677Y2658528D01*
X24619471Y2651690D01*
X24663864Y2622028D01*
X24675078Y2612825D01*
X24712824Y2575079D01*
X24722026Y2563866D01*
X24751685Y2519479D01*
X24758524Y2506684D01*
X24778950Y2457371D01*
X24783161Y2443491D01*
X24793578Y2391126D01*
X24795000Y2376688D01*
X24795000Y2323314D01*
X24793578Y2308876D01*
X24783161Y2256511D01*
X24778950Y2242631D01*
X24758524Y2193318D01*
X24751685Y2180523D01*
X24722026Y2136136D01*
X24712824Y2124923D01*
X24675077Y2087176D01*
X24663864Y2077974D01*
X24619477Y2048315D01*
X24606682Y2041476D01*
X24557368Y2021050D01*
X24543488Y2016839D01*
X24491125Y2006422D01*
X24476687Y2005000D01*
X24423313Y2005000D01*
X24408875Y2006422D01*
X24395946Y2008994D01*
X24356510Y2016839D01*
X24342630Y2021050D01*
X24293316Y2041476D01*
X24280521Y2048315D01*
X24236134Y2077974D01*
X24224921Y2087176D01*
X24187175Y2124922D01*
X24177972Y2136136D01*
X24148310Y2180529D01*
X24141476Y2193313D01*
X24121043Y2242643D01*
X24116834Y2256522D01*
X24106422Y2308874D01*
X24105000Y2323309D01*
X24105000Y2376696D01*
X24106422Y2391132D01*
X24116837Y2443491D01*
X24121041Y2457354D01*
X24141475Y2506689D01*
X24148307Y2519471D01*
X24177975Y2563872D01*
X24187164Y2575069D01*
X24224928Y2612834D01*
X24236133Y2622028D01*
X24280524Y2651688D01*
X24293316Y2658526D01*
X24364711Y2688099D01*
X24365511Y2688425D01*
X24368483Y2689616D01*
X24386828Y2695179D01*
X24413501Y2706228D01*
X24423055Y2711478D01*
X24427222Y2713147D01*
X24451380Y2712866D01*
X24475397Y2715513D01*
X24482266Y2713144D01*
G37*
%TD.AperFunction*%
%TA.AperFunction,Conductor*%
G36*
X24491130Y4093578D02*
G01*
X24543481Y4083165D01*
X24557363Y4078954D01*
X24606677Y4058528D01*
X24619471Y4051690D01*
X24663864Y4022028D01*
X24675078Y4012825D01*
X24712824Y3975079D01*
X24722026Y3963866D01*
X24751685Y3919479D01*
X24758524Y3906684D01*
X24778950Y3857371D01*
X24783161Y3843491D01*
X24793578Y3791126D01*
X24795000Y3776688D01*
X24795000Y3723314D01*
X24793578Y3708876D01*
X24783161Y3656511D01*
X24778950Y3642631D01*
X24758524Y3593318D01*
X24751685Y3580523D01*
X24722026Y3536136D01*
X24712824Y3524923D01*
X24675077Y3487176D01*
X24663864Y3477974D01*
X24619477Y3448315D01*
X24606683Y3441476D01*
X24535293Y3411905D01*
X24528457Y3409459D01*
X24513182Y3404826D01*
X24486505Y3393775D01*
X24486492Y3393769D01*
X24480872Y3390681D01*
X24424575Y3384484D01*
X24417697Y3386857D01*
X24407878Y3390795D01*
X24402148Y3396397D01*
X24293316Y3441476D01*
X24280521Y3448315D01*
X24236134Y3477974D01*
X24224921Y3487176D01*
X24187175Y3524922D01*
X24177972Y3536136D01*
X24148310Y3580529D01*
X24141476Y3593313D01*
X24121043Y3642643D01*
X24116834Y3656522D01*
X24106422Y3708874D01*
X24105000Y3723309D01*
X24105000Y3776696D01*
X24106422Y3791132D01*
X24116837Y3843491D01*
X24121041Y3857354D01*
X24141475Y3906689D01*
X24148307Y3919471D01*
X24177975Y3963872D01*
X24187164Y3975069D01*
X24224928Y4012834D01*
X24236133Y4022028D01*
X24280525Y4051689D01*
X24293314Y4058526D01*
X24342637Y4078955D01*
X24356510Y4083163D01*
X24391821Y4090187D01*
X24408872Y4093578D01*
X24423308Y4095000D01*
X24476694Y4095000D01*
X24491130Y4093578D01*
G37*
%TD.AperFunction*%
%TA.AperFunction,Conductor*%
G36*
X5828326Y7178326D02*
G01*
X5850000Y7126000D01*
X5850000Y7024000D01*
X5828326Y6971674D01*
X5776000Y6950000D01*
X5529000Y6950000D01*
X5476674Y6971674D01*
X5455000Y7024000D01*
X5455000Y7126000D01*
X5476674Y7178326D01*
X5529000Y7200000D01*
X5776000Y7200000D01*
X5828326Y7178326D01*
G37*
%TD.AperFunction*%
%TA.AperFunction,Conductor*%
G36*
X6723325Y7178326D02*
G01*
X6744999Y7126000D01*
X6744999Y7024000D01*
X6723325Y6971674D01*
X6670999Y6950000D01*
X6424000Y6950000D01*
X6371674Y6971674D01*
X6350000Y7024000D01*
X6350000Y7126000D01*
X6371674Y7178326D01*
X6424000Y7200000D01*
X6670999Y7200000D01*
X6723325Y7178326D01*
G37*
%TD.AperFunction*%
%TA.AperFunction,Conductor*%
G36*
X14116130Y7906078D02*
G01*
X14168481Y7895665D01*
X14182358Y7891457D01*
X14231681Y7871027D01*
X14244472Y7864190D01*
X14288863Y7834529D01*
X14300076Y7825327D01*
X14331653Y7793750D01*
X14336701Y7788817D01*
X14430765Y7727526D01*
X14483089Y7705853D01*
X14483113Y7705843D01*
X14496246Y7700755D01*
X14496249Y7700754D01*
X14607056Y7682678D01*
X14607056Y7682679D01*
X14607057Y7682678D01*
X14661982Y7694265D01*
X14716909Y7705852D01*
X14769235Y7727526D01*
X14775726Y7730303D01*
X14868349Y7793752D01*
X14899928Y7825334D01*
X14911133Y7834528D01*
X14955525Y7864189D01*
X14968314Y7871026D01*
X15017637Y7891455D01*
X15031510Y7895663D01*
X15066821Y7902687D01*
X15083872Y7906078D01*
X15098308Y7907500D01*
X15151694Y7907500D01*
X15166130Y7906078D01*
X15218481Y7895665D01*
X15232363Y7891454D01*
X15281677Y7871028D01*
X15294471Y7864190D01*
X15316941Y7849176D01*
X15338862Y7834529D01*
X15338864Y7834528D01*
X15350078Y7825325D01*
X15387823Y7787580D01*
X15397026Y7776366D01*
X15426687Y7731975D01*
X15433374Y7719545D01*
X15433411Y7719457D01*
X15433562Y7719093D01*
X15448646Y7682678D01*
X15453953Y7669866D01*
X15458163Y7655986D01*
X15468578Y7603632D01*
X15468578Y7603631D01*
X15470000Y7589194D01*
X15470000Y7535814D01*
X15468578Y7521376D01*
X15458161Y7469011D01*
X15453950Y7455131D01*
X15433524Y7405818D01*
X15426685Y7393023D01*
X15397026Y7348636D01*
X15387824Y7337423D01*
X15350077Y7299676D01*
X15338864Y7290474D01*
X15294477Y7260815D01*
X15281682Y7253976D01*
X15232368Y7233550D01*
X15218488Y7229339D01*
X15166125Y7218922D01*
X15151687Y7217500D01*
X15098313Y7217500D01*
X15083875Y7218922D01*
X15070946Y7221494D01*
X15031510Y7229339D01*
X15017630Y7233550D01*
X14968316Y7253976D01*
X14955521Y7260815D01*
X14911134Y7290474D01*
X14899922Y7299675D01*
X14899921Y7299676D01*
X14868347Y7331250D01*
X14863299Y7336183D01*
X14863298Y7336184D01*
X14863296Y7336185D01*
X14776063Y7393025D01*
X14769235Y7397474D01*
X14765351Y7399083D01*
X14716886Y7419158D01*
X14703753Y7424246D01*
X14592942Y7442323D01*
X14483095Y7419150D01*
X14430704Y7397449D01*
X14424280Y7394702D01*
X14424271Y7394697D01*
X14331653Y7331251D01*
X14331646Y7331245D01*
X14300075Y7299675D01*
X14288864Y7290474D01*
X14244477Y7260815D01*
X14231682Y7253976D01*
X14182368Y7233550D01*
X14168488Y7229339D01*
X14116125Y7218922D01*
X14101687Y7217500D01*
X14048313Y7217500D01*
X14033875Y7218922D01*
X14020946Y7221494D01*
X13981510Y7229339D01*
X13967630Y7233550D01*
X13918316Y7253976D01*
X13905521Y7260815D01*
X13861134Y7290474D01*
X13849921Y7299676D01*
X13812175Y7337422D01*
X13802972Y7348636D01*
X13773310Y7393029D01*
X13766476Y7405813D01*
X13746043Y7455143D01*
X13741834Y7469022D01*
X13741639Y7470000D01*
X13731422Y7521374D01*
X13730000Y7535809D01*
X13730000Y7589196D01*
X13731422Y7603632D01*
X13741836Y7655989D01*
X13746041Y7669854D01*
X13766475Y7719189D01*
X13773307Y7731971D01*
X13802975Y7776372D01*
X13812164Y7787569D01*
X13849928Y7825334D01*
X13861133Y7834528D01*
X13861135Y7834529D01*
X13905525Y7864189D01*
X13918314Y7871026D01*
X13967637Y7891455D01*
X13981510Y7895663D01*
X14016821Y7902687D01*
X14033872Y7906078D01*
X14048308Y7907500D01*
X14101694Y7907500D01*
X14116130Y7906078D01*
G37*
%TD.AperFunction*%
%TA.AperFunction,Conductor*%
G36*
X31886130Y10168578D02*
G01*
X31938481Y10158165D01*
X31952444Y10148836D01*
X31994840Y10135975D01*
X32014471Y10126690D01*
X32058864Y10097028D01*
X32070078Y10087825D01*
X32107824Y10050079D01*
X32117026Y10038866D01*
X32146683Y9994482D01*
X32153522Y9981688D01*
X32160707Y9964342D01*
X32164918Y9921588D01*
X32149500Y9844068D01*
X32149500Y9715933D01*
X32152134Y9702689D01*
X32141085Y9647142D01*
X32117027Y9611137D01*
X32107824Y9599923D01*
X32070077Y9562176D01*
X32058864Y9552974D01*
X32014477Y9523315D01*
X32001682Y9516476D01*
X31952368Y9496050D01*
X31938488Y9491839D01*
X31886125Y9481422D01*
X31871687Y9480000D01*
X31818313Y9480000D01*
X31803875Y9481422D01*
X31790946Y9483994D01*
X31751510Y9491839D01*
X31737630Y9496050D01*
X31688316Y9516476D01*
X31675521Y9523315D01*
X31631134Y9552974D01*
X31619921Y9562176D01*
X31582175Y9599922D01*
X31572972Y9611136D01*
X31543310Y9655529D01*
X31536476Y9668313D01*
X31516043Y9717643D01*
X31511834Y9731522D01*
X31501422Y9783874D01*
X31500000Y9798309D01*
X31500000Y9851696D01*
X31501422Y9866132D01*
X31511836Y9918489D01*
X31516041Y9932354D01*
X31536475Y9981689D01*
X31543307Y9994471D01*
X31572975Y10038872D01*
X31582164Y10050069D01*
X31619928Y10087834D01*
X31631133Y10097028D01*
X31675525Y10126689D01*
X31688314Y10133526D01*
X31737637Y10153955D01*
X31751510Y10158163D01*
X31786821Y10165187D01*
X31803872Y10168578D01*
X31818308Y10170000D01*
X31871694Y10170000D01*
X31886130Y10168578D01*
G37*
%TD.AperFunction*%
%TA.AperFunction,Conductor*%
G36*
X23941130Y11643578D02*
G01*
X23993481Y11633165D01*
X24007363Y11628954D01*
X24056677Y11608528D01*
X24069471Y11601690D01*
X24113864Y11572028D01*
X24125078Y11562825D01*
X24162824Y11525079D01*
X24172026Y11513866D01*
X24201685Y11469479D01*
X24208524Y11456684D01*
X24228950Y11407371D01*
X24233161Y11393491D01*
X24243578Y11341126D01*
X24245000Y11326688D01*
X24245000Y11273314D01*
X24243578Y11258876D01*
X24233161Y11206512D01*
X24228950Y11192632D01*
X24208525Y11143321D01*
X24201689Y11130530D01*
X24188535Y11110843D01*
X24188531Y11110836D01*
X24160301Y11058020D01*
X24149249Y11031336D01*
X24130572Y10967108D01*
X24130571Y10967103D01*
X24131866Y10854841D01*
X24142905Y10799341D01*
X24144375Y10792375D01*
X24188532Y10689161D01*
X24201686Y10669474D01*
X24208523Y10656683D01*
X24228950Y10607369D01*
X24233161Y10593489D01*
X24243578Y10541127D01*
X24245000Y10526688D01*
X24245000Y10473314D01*
X24243578Y10458876D01*
X24233161Y10406511D01*
X24228950Y10392631D01*
X24208524Y10343318D01*
X24201685Y10330523D01*
X24172026Y10286136D01*
X24162824Y10274923D01*
X24125078Y10237177D01*
X24113865Y10227975D01*
X24069478Y10198316D01*
X24056685Y10191478D01*
X24008008Y10171314D01*
X24007944Y10171288D01*
X24007928Y10171281D01*
X24007281Y10171014D01*
X23993491Y10166840D01*
X23953568Y10158898D01*
X23941124Y10156422D01*
X23926687Y10155000D01*
X23873313Y10155000D01*
X23858875Y10156422D01*
X23845946Y10158994D01*
X23806510Y10166839D01*
X23792630Y10171050D01*
X23743316Y10191476D01*
X23730521Y10198315D01*
X23686134Y10227974D01*
X23674921Y10237176D01*
X23637175Y10274922D01*
X23627972Y10286136D01*
X23598310Y10330529D01*
X23591476Y10343313D01*
X23571043Y10392643D01*
X23566834Y10406522D01*
X23556422Y10458874D01*
X23555000Y10473309D01*
X23555000Y10526696D01*
X23556422Y10541131D01*
X23557441Y10546260D01*
X23566836Y10593489D01*
X23571040Y10607351D01*
X23591479Y10656696D01*
X23598312Y10669477D01*
X23611465Y10689160D01*
X23639698Y10741980D01*
X23650747Y10768655D01*
X23669427Y10832898D01*
X23668131Y10945161D01*
X23657082Y11000710D01*
X23655626Y11007615D01*
X23611467Y11110837D01*
X23598313Y11130523D01*
X23591477Y11143311D01*
X23571043Y11192643D01*
X23566834Y11206522D01*
X23556422Y11258874D01*
X23555000Y11273309D01*
X23555000Y11326696D01*
X23556422Y11341132D01*
X23566837Y11393491D01*
X23571041Y11407354D01*
X23591475Y11456689D01*
X23598307Y11469471D01*
X23627975Y11513872D01*
X23637164Y11525069D01*
X23674928Y11562834D01*
X23686133Y11572028D01*
X23730525Y11601689D01*
X23743314Y11608526D01*
X23792637Y11628955D01*
X23806510Y11633163D01*
X23841821Y11640187D01*
X23858872Y11643578D01*
X23873308Y11645000D01*
X23926694Y11645000D01*
X23941130Y11643578D01*
G37*
%TD.AperFunction*%
%TA.AperFunction,Conductor*%
G36*
X36691130Y14593578D02*
G01*
X36743481Y14583165D01*
X36757444Y14573836D01*
X36799840Y14560975D01*
X36819471Y14551690D01*
X36863864Y14522028D01*
X36875078Y14512825D01*
X36912824Y14475079D01*
X36922026Y14463866D01*
X36951685Y14419479D01*
X36958524Y14406684D01*
X36978950Y14357371D01*
X36983161Y14343491D01*
X36993578Y14291126D01*
X36995000Y14276688D01*
X36995000Y14223314D01*
X36993578Y14208876D01*
X36983161Y14156511D01*
X36978950Y14142631D01*
X36958524Y14093318D01*
X36951685Y14080523D01*
X36922026Y14036136D01*
X36912824Y14024923D01*
X36875077Y13987176D01*
X36863864Y13977974D01*
X36819477Y13948315D01*
X36806682Y13941476D01*
X36757368Y13921050D01*
X36743488Y13916839D01*
X36691125Y13906422D01*
X36676687Y13905000D01*
X36623313Y13905000D01*
X36608875Y13906422D01*
X36595946Y13908994D01*
X36556510Y13916839D01*
X36542630Y13921050D01*
X36493316Y13941476D01*
X36480521Y13948315D01*
X36436134Y13977974D01*
X36424921Y13987176D01*
X36387175Y14024922D01*
X36377972Y14036136D01*
X36371795Y14045380D01*
X36360748Y14100928D01*
X36364956Y14114801D01*
X36375501Y14140256D01*
X36400500Y14265931D01*
X36400500Y14394069D01*
X36392564Y14433961D01*
X36403612Y14489506D01*
X36412811Y14500717D01*
X36424926Y14512832D01*
X36436136Y14522030D01*
X36480525Y14551689D01*
X36493314Y14558526D01*
X36542637Y14578955D01*
X36556510Y14583163D01*
X36591821Y14590187D01*
X36608872Y14593578D01*
X36623308Y14595000D01*
X36676694Y14595000D01*
X36691130Y14593578D01*
G37*
%TD.AperFunction*%
%TA.AperFunction,Conductor*%
G36*
X25541130Y16343578D02*
G01*
X25593481Y16333165D01*
X25607363Y16328954D01*
X25656677Y16308528D01*
X25669471Y16301690D01*
X25713864Y16272028D01*
X25725078Y16262825D01*
X25762824Y16225079D01*
X25772026Y16213866D01*
X25801685Y16169479D01*
X25808524Y16156684D01*
X25828950Y16107371D01*
X25833161Y16093491D01*
X25843578Y16041126D01*
X25845000Y16026688D01*
X25845000Y15973314D01*
X25843578Y15958876D01*
X25833161Y15906511D01*
X25828950Y15892631D01*
X25808524Y15843318D01*
X25801685Y15830523D01*
X25772026Y15786136D01*
X25762824Y15774923D01*
X25725077Y15737176D01*
X25713864Y15727974D01*
X25669477Y15698315D01*
X25656682Y15691476D01*
X25607368Y15671050D01*
X25593488Y15666839D01*
X25541125Y15656422D01*
X25526687Y15655000D01*
X25473313Y15655000D01*
X25458875Y15656422D01*
X25445946Y15658994D01*
X25406510Y15666839D01*
X25392630Y15671050D01*
X25343316Y15691476D01*
X25330521Y15698315D01*
X25286134Y15727974D01*
X25274921Y15737176D01*
X25237175Y15774922D01*
X25227972Y15786136D01*
X25198310Y15830529D01*
X25191476Y15843313D01*
X25171043Y15892643D01*
X25166834Y15906522D01*
X25156422Y15958874D01*
X25155000Y15973309D01*
X25155000Y16026696D01*
X25156422Y16041132D01*
X25166837Y16093491D01*
X25171041Y16107354D01*
X25191475Y16156689D01*
X25198307Y16169471D01*
X25227975Y16213872D01*
X25237164Y16225069D01*
X25274928Y16262834D01*
X25286133Y16272028D01*
X25330525Y16301689D01*
X25343314Y16308526D01*
X25392637Y16328955D01*
X25406510Y16333163D01*
X25441821Y16340187D01*
X25458872Y16343578D01*
X25473308Y16345000D01*
X25526694Y16345000D01*
X25541130Y16343578D01*
G37*
%TD.AperFunction*%
%TA.AperFunction,Conductor*%
G36*
X36491130Y18743578D02*
G01*
X36543481Y18733165D01*
X36557444Y18723836D01*
X36599840Y18710975D01*
X36619471Y18701690D01*
X36663864Y18672028D01*
X36675078Y18662825D01*
X36712824Y18625079D01*
X36722026Y18613866D01*
X36751685Y18569479D01*
X36758524Y18556684D01*
X36778950Y18507371D01*
X36783161Y18493491D01*
X36791583Y18451152D01*
X36793578Y18441126D01*
X36795000Y18426688D01*
X36795000Y18373314D01*
X36793578Y18358876D01*
X36783161Y18306511D01*
X36778950Y18292631D01*
X36758524Y18243318D01*
X36751685Y18230523D01*
X36722026Y18186136D01*
X36712824Y18174923D01*
X36675077Y18137176D01*
X36663864Y18127974D01*
X36619477Y18098315D01*
X36606682Y18091476D01*
X36557368Y18071050D01*
X36543488Y18066839D01*
X36491125Y18056422D01*
X36476687Y18055000D01*
X36423313Y18055000D01*
X36408875Y18056422D01*
X36395946Y18058994D01*
X36356510Y18066839D01*
X36342630Y18071050D01*
X36293316Y18091476D01*
X36280521Y18098315D01*
X36236134Y18127974D01*
X36224921Y18137176D01*
X36187175Y18174922D01*
X36177972Y18186136D01*
X36148310Y18230529D01*
X36141476Y18243313D01*
X36121043Y18292642D01*
X36116834Y18306521D01*
X36106422Y18358873D01*
X36105000Y18373308D01*
X36105000Y18426696D01*
X36106422Y18441132D01*
X36116835Y18493485D01*
X36121044Y18507362D01*
X36141473Y18556685D01*
X36148307Y18569472D01*
X36177975Y18613872D01*
X36187164Y18625069D01*
X36224928Y18662834D01*
X36236133Y18672028D01*
X36280525Y18701689D01*
X36293314Y18708526D01*
X36342637Y18728955D01*
X36356510Y18733163D01*
X36391821Y18740187D01*
X36408872Y18743578D01*
X36423308Y18745000D01*
X36476694Y18745000D01*
X36491130Y18743578D01*
G37*
%TD.AperFunction*%
%TA.AperFunction,Conductor*%
G36*
X18541130Y19243578D02*
G01*
X18593481Y19233165D01*
X18607363Y19228954D01*
X18656677Y19208528D01*
X18669471Y19201690D01*
X18713864Y19172028D01*
X18725078Y19162825D01*
X18762823Y19125080D01*
X18772026Y19113866D01*
X18801685Y19069478D01*
X18808523Y19056685D01*
X18828953Y19007363D01*
X18833164Y18993482D01*
X18843578Y18941132D01*
X18845000Y18926694D01*
X18845000Y18873312D01*
X18843578Y18858875D01*
X18825846Y18769735D01*
X18821830Y18728953D01*
X18819976Y18710129D01*
X18819976Y18681256D01*
X18822007Y18662824D01*
X18825834Y18628083D01*
X18810020Y18573698D01*
X18760382Y18546425D01*
X18735933Y18548618D01*
X18735812Y18548005D01*
X18676956Y18559712D01*
X18676927Y18559718D01*
X18676909Y18559721D01*
X18669967Y18561018D01*
X18669966Y18561018D01*
X18557702Y18559720D01*
X18541124Y18556422D01*
X18526688Y18555000D01*
X18473313Y18555000D01*
X18458876Y18556422D01*
X18418544Y18564445D01*
X18418546Y18564445D01*
X18364936Y18570256D01*
X18364924Y18570257D01*
X18338922Y18570766D01*
X18278184Y18565880D01*
X18220115Y18543691D01*
X18163499Y18545261D01*
X18127767Y18579223D01*
X18109147Y18615769D01*
X18109147Y18615768D01*
X18089845Y18653652D01*
X18043957Y18716810D01*
X18030735Y18771882D01*
X18050899Y18812026D01*
X18093620Y18855741D01*
X18125088Y18902832D01*
X18128939Y18908742D01*
X18142644Y18942938D01*
X18143307Y18944533D01*
X18155653Y18973285D01*
X18156743Y18972833D01*
X18191682Y19057187D01*
X18191844Y19057563D01*
X18192051Y19057766D01*
X18198311Y19069476D01*
X18227975Y19113872D01*
X18237164Y19125069D01*
X18274928Y19162834D01*
X18286133Y19172028D01*
X18330525Y19201689D01*
X18343314Y19208526D01*
X18392637Y19228955D01*
X18406510Y19233163D01*
X18441821Y19240187D01*
X18458872Y19243578D01*
X18473308Y19245000D01*
X18526694Y19245000D01*
X18541130Y19243578D01*
G37*
%TD.AperFunction*%
%TA.AperFunction,Conductor*%
G36*
X27291130Y24143578D02*
G01*
X27343481Y24133165D01*
X27357444Y24123836D01*
X27399840Y24110975D01*
X27419472Y24101690D01*
X27442009Y24086631D01*
X27463861Y24072030D01*
X27463863Y24072029D01*
X27475076Y24062826D01*
X27512824Y24025079D01*
X27531653Y24006250D01*
X27536701Y24001317D01*
X27630765Y23940026D01*
X27683091Y23918352D01*
X27683113Y23918343D01*
X27696246Y23913255D01*
X27696249Y23913254D01*
X27807056Y23895178D01*
X27807056Y23895179D01*
X27807057Y23895178D01*
X27864855Y23907371D01*
X27916909Y23918352D01*
X27969235Y23940026D01*
X27975726Y23942802D01*
X28068348Y24006251D01*
X28124926Y24062832D01*
X28136136Y24072030D01*
X28180525Y24101689D01*
X28193314Y24108526D01*
X28242637Y24128955D01*
X28256510Y24133163D01*
X28291821Y24140187D01*
X28308872Y24143578D01*
X28323308Y24145000D01*
X28376694Y24145000D01*
X28391130Y24143578D01*
X28443481Y24133165D01*
X28457363Y24128954D01*
X28506677Y24108528D01*
X28519471Y24101690D01*
X28541941Y24086676D01*
X28563862Y24072029D01*
X28563864Y24072028D01*
X28575078Y24062825D01*
X28612824Y24025079D01*
X28622026Y24013866D01*
X28651685Y23969479D01*
X28658524Y23956684D01*
X28678950Y23907371D01*
X28683161Y23893491D01*
X28693578Y23841126D01*
X28695000Y23826688D01*
X28695000Y23773314D01*
X28693578Y23758876D01*
X28683161Y23706511D01*
X28678950Y23692631D01*
X28658524Y23643318D01*
X28651685Y23630523D01*
X28622026Y23586136D01*
X28612824Y23574923D01*
X28575077Y23537176D01*
X28563864Y23527974D01*
X28519477Y23498315D01*
X28506682Y23491476D01*
X28457368Y23471050D01*
X28443488Y23466839D01*
X28391125Y23456422D01*
X28376687Y23455000D01*
X28323313Y23455000D01*
X28308875Y23456422D01*
X28295946Y23458994D01*
X28256510Y23466839D01*
X28242630Y23471050D01*
X28193316Y23491476D01*
X28180521Y23498315D01*
X28136134Y23527974D01*
X28124922Y23537176D01*
X28068382Y23593715D01*
X28068347Y23593750D01*
X28063299Y23598683D01*
X28063298Y23598684D01*
X28063296Y23598685D01*
X27994797Y23643318D01*
X27969235Y23659974D01*
X27969233Y23659975D01*
X27916886Y23681658D01*
X27903753Y23686746D01*
X27792942Y23704823D01*
X27683095Y23681650D01*
X27630704Y23659949D01*
X27624280Y23657202D01*
X27624271Y23657197D01*
X27531656Y23593753D01*
X27475079Y23537177D01*
X27463867Y23527976D01*
X27419477Y23498315D01*
X27406682Y23491476D01*
X27357368Y23471050D01*
X27343488Y23466839D01*
X27291125Y23456422D01*
X27276687Y23455000D01*
X27223313Y23455000D01*
X27208875Y23456422D01*
X27195946Y23458994D01*
X27156510Y23466839D01*
X27142630Y23471050D01*
X27093316Y23491476D01*
X27080521Y23498315D01*
X27036134Y23527974D01*
X27024921Y23537176D01*
X26987175Y23574922D01*
X26977972Y23586136D01*
X26972908Y23593715D01*
X26948310Y23630529D01*
X26941476Y23643313D01*
X26921043Y23692643D01*
X26916834Y23706522D01*
X26906422Y23758874D01*
X26905000Y23773309D01*
X26905000Y23826696D01*
X26906422Y23841132D01*
X26916837Y23893491D01*
X26921041Y23907354D01*
X26941475Y23956689D01*
X26948307Y23969471D01*
X26977975Y24013872D01*
X26987164Y24025069D01*
X27024928Y24062834D01*
X27036133Y24072028D01*
X27036135Y24072029D01*
X27080525Y24101689D01*
X27093314Y24108526D01*
X27142637Y24128955D01*
X27156510Y24133163D01*
X27191821Y24140187D01*
X27208872Y24143578D01*
X27223308Y24145000D01*
X27276694Y24145000D01*
X27291130Y24143578D01*
G37*
%TD.AperFunction*%
%TD*%
M02*
