%TF.GenerationSoftware,KiCad,Pcbnew,10.0.0*%
%TF.CreationDate,2026-09-26T17:58:37+03:00*%
%TF.ProjectId,STM32-TutorialPCB,53544d33-322d-4547-9574-6f7269616c50,rev?*%
%TF.SameCoordinates,PX56c8cc0PY6acfc00*%
%TF.FileFunction,Paste,Top*%
%TF.FilePolarity,Positive*%
%FSLAX46Y46*%
G04 Gerber Fmt 4.6, Leading zero omitted, Abs format (unit mm)*
G04 Created by KiCad (PCBNEW 10.0.0) date 2026-09-26 17:58:37*
%MOMM*%
%LPD*%
G01*
G04 APERTURE LIST*
G04 Aperture macros list*
%AMRoundRect*
0 Rectangle with rounded corners*
0 $1 Rounding radius*
0 $2 $3 $4 $5 $6 $7 $8 $9 X,Y pos of 4 corners*
0 Add a 4 corners polygon primitive as box body*
4,1,4,$2,$3,$4,$5,$6,$7,$8,$9,$2,$3,0*
0 Add four circle primitives for the rounded corners*
1,1,$1+$1,$2,$3*
1,1,$1+$1,$4,$5*
1,1,$1+$1,$6,$7*
1,1,$1+$1,$8,$9*
0 Add four rect primitives between the rounded corners*
20,1,$1+$1,$2,$3,$4,$5,0*
20,1,$1+$1,$4,$5,$6,$7,0*
20,1,$1+$1,$6,$7,$8,$9,0*
20,1,$1+$1,$8,$9,$2,$3,0*%
G04 Aperture macros list end*
%ADD10RoundRect,0.250000X-0.275000X-0.250000X0.275000X-0.250000X0.275000X0.250000X-0.275000X0.250000X0*%
%ADD11RoundRect,0.250000X-0.850000X-0.275000X0.850000X-0.275000X0.850000X0.275000X-0.850000X0.275000X0*%
%ADD12RoundRect,0.150000X-0.425000X0.150000X-0.425000X-0.150000X0.425000X-0.150000X0.425000X0.150000X0*%
%ADD13RoundRect,0.075000X-0.500000X0.075000X-0.500000X-0.075000X0.500000X-0.075000X0.500000X0.075000X0*%
%ADD14O,2.100000X1.000000*%
%ADD15O,1.800000X1.000000*%
%ADD16RoundRect,0.140000X-0.170000X0.140000X-0.170000X-0.140000X0.170000X-0.140000X0.170000X0.140000X0*%
%ADD17RoundRect,0.147500X-0.147500X-0.172500X0.147500X-0.172500X0.147500X0.172500X-0.147500X0.172500X0*%
%ADD18RoundRect,0.150000X-0.150000X0.512500X-0.150000X-0.512500X0.150000X-0.512500X0.150000X0.512500X0*%
%ADD19RoundRect,0.225000X0.250000X-0.225000X0.250000X0.225000X-0.250000X0.225000X-0.250000X-0.225000X0*%
%ADD20RoundRect,0.150000X0.150000X0.400000X-0.150000X0.400000X-0.150000X-0.400000X0.150000X-0.400000X0*%
%ADD21RoundRect,0.135000X-0.185000X0.135000X-0.185000X-0.135000X0.185000X-0.135000X0.185000X0.135000X0*%
%ADD22RoundRect,0.135000X-0.135000X-0.185000X0.135000X-0.185000X0.135000X0.185000X-0.135000X0.185000X0*%
%ADD23RoundRect,0.150000X-0.512500X-0.150000X0.512500X-0.150000X0.512500X0.150000X-0.512500X0.150000X0*%
%ADD24RoundRect,0.147500X0.172500X-0.147500X0.172500X0.147500X-0.172500X0.147500X-0.172500X-0.147500X0*%
%ADD25RoundRect,0.249999X0.650001X0.450001X-0.650001X0.450001X-0.650001X-0.450001X0.650001X-0.450001X0*%
%ADD26RoundRect,0.225000X-0.250000X0.225000X-0.250000X-0.225000X0.250000X-0.225000X0.250000X0.225000X0*%
%ADD27RoundRect,0.135000X0.185000X-0.135000X0.185000X0.135000X-0.185000X0.135000X-0.185000X-0.135000X0*%
%ADD28RoundRect,0.140000X0.170000X-0.140000X0.170000X0.140000X-0.170000X0.140000X-0.170000X-0.140000X0*%
%ADD29RoundRect,0.140000X0.140000X0.170000X-0.140000X0.170000X-0.140000X-0.170000X0.140000X-0.170000X0*%
%ADD30RoundRect,0.218750X-0.218750X-0.381250X0.218750X-0.381250X0.218750X0.381250X-0.218750X0.381250X0*%
%ADD31RoundRect,0.225000X0.225000X0.250000X-0.225000X0.250000X-0.225000X-0.250000X0.225000X-0.250000X0*%
%ADD32RoundRect,0.140000X-0.140000X-0.170000X0.140000X-0.170000X0.140000X0.170000X-0.140000X0.170000X0*%
%ADD33RoundRect,0.082500X-0.055000X-0.267500X0.055000X-0.267500X0.055000X0.267500X-0.055000X0.267500X0*%
%ADD34RoundRect,0.073500X-0.151500X-0.049000X0.151500X-0.049000X0.151500X0.049000X-0.151500X0.049000X0*%
%ADD35RoundRect,0.250000X0.315000X-0.315000X0.315000X0.315000X-0.315000X0.315000X-0.315000X-0.315000X0*%
%ADD36RoundRect,0.062500X0.062500X-0.375000X0.062500X0.375000X-0.062500X0.375000X-0.062500X-0.375000X0*%
%ADD37RoundRect,0.062500X0.375000X-0.062500X0.375000X0.062500X-0.375000X0.062500X-0.375000X-0.062500X0*%
%ADD38R,1.500000X1.500000*%
%ADD39RoundRect,0.225000X-0.225000X-0.250000X0.225000X-0.250000X0.225000X0.250000X-0.225000X0.250000X0*%
%ADD40RoundRect,0.135000X0.135000X0.185000X-0.135000X0.185000X-0.135000X-0.185000X0.135000X-0.185000X0*%
G04 APERTURE END LIST*
D10*
%TO.C,J3*%
X44850000Y16700000D03*
D11*
X46375000Y18175000D03*
X46375000Y15225000D03*
%TD*%
D12*
%TO.C,J1*%
X7680000Y18850000D03*
X7680000Y18050000D03*
D13*
X7680000Y16900000D03*
X7680000Y15900000D03*
X7680000Y15400000D03*
X7680000Y14400000D03*
D12*
X7680000Y13250000D03*
X7680000Y12450000D03*
D13*
X7680000Y13900000D03*
X7680000Y14900000D03*
X7680000Y16400000D03*
X7680000Y17400000D03*
D14*
X7105000Y19970000D03*
D15*
X2925000Y19970000D03*
D14*
X7105000Y11330000D03*
D15*
X2925000Y11330000D03*
%TD*%
D16*
%TO.C,C15*%
X37500000Y15720000D03*
X37500000Y16680000D03*
%TD*%
D17*
%TO.C,L3*%
X39470000Y16700000D03*
X38500000Y16700000D03*
%TD*%
D16*
%TO.C,C5*%
X35750000Y18380000D03*
X35750000Y17420000D03*
%TD*%
D18*
%TO.C,U1*%
X13050000Y8762500D03*
X11150000Y8762500D03*
X11150000Y11037500D03*
X12100000Y11037500D03*
X13050000Y11037500D03*
%TD*%
D19*
%TO.C,C2*%
X14575000Y10187500D03*
X14575000Y8637500D03*
%TD*%
D20*
%TO.C,X1*%
X29100000Y8800000D03*
X27700000Y8800000D03*
%TD*%
D21*
%TO.C,R6*%
X35550000Y3870000D03*
X35550000Y2850000D03*
%TD*%
D22*
%TO.C,R4*%
X5210000Y9670000D03*
X6230000Y9670000D03*
%TD*%
D23*
%TO.C,D2*%
X10800000Y16550000D03*
X10800000Y15600000D03*
X10800000Y14650000D03*
X13075000Y14650000D03*
X13075000Y15600000D03*
X13075000Y16550000D03*
%TD*%
D24*
%TO.C,L1*%
X29500000Y20515000D03*
X29500000Y21485000D03*
%TD*%
D16*
%TO.C,C19*%
X37000000Y3830000D03*
X37000000Y2870000D03*
%TD*%
D25*
%TO.C,X2*%
X41900000Y23900000D03*
X37500000Y23900000D03*
X37500000Y21500000D03*
X41900000Y21500000D03*
%TD*%
D26*
%TO.C,C6*%
X25000000Y11000000D03*
X25000000Y9450000D03*
%TD*%
D27*
%TO.C,R1*%
X33800000Y9580000D03*
X33800000Y10600000D03*
%TD*%
D16*
%TO.C,C16*%
X40500000Y16680000D03*
X40500000Y15720000D03*
%TD*%
D28*
%TO.C,C13*%
X25250000Y7320000D03*
X25250000Y8280000D03*
%TD*%
D29*
%TO.C,C7*%
X25480000Y16700000D03*
X24520000Y16700000D03*
%TD*%
D30*
%TO.C,L2*%
X29500000Y23000000D03*
X31625000Y23000000D03*
%TD*%
D29*
%TO.C,C4*%
X28500000Y20400000D03*
X27540000Y20400000D03*
%TD*%
D31*
%TO.C,C3*%
X27925000Y22700000D03*
X26375000Y22700000D03*
%TD*%
D16*
%TO.C,C8*%
X35750000Y16050000D03*
X35750000Y15090000D03*
%TD*%
D21*
%TO.C,R3*%
X38850000Y10560000D03*
X38850000Y9540000D03*
%TD*%
D32*
%TO.C,C12*%
X31820000Y10500000D03*
X32780000Y10500000D03*
%TD*%
D22*
%TO.C,R5*%
X5310000Y21670000D03*
X6330000Y21670000D03*
%TD*%
D29*
%TO.C,C18*%
X27680000Y10500000D03*
X26720000Y10500000D03*
%TD*%
D24*
%TO.C,D1*%
X37550000Y9565000D03*
X37550000Y10535000D03*
%TD*%
D33*
%TO.C,FLT1*%
X41887500Y16700000D03*
D34*
X42500000Y16472500D03*
D33*
X43112500Y16700000D03*
D34*
X42500000Y16927500D03*
%TD*%
D28*
%TO.C,C9*%
X25000000Y12220000D03*
X25000000Y13180000D03*
%TD*%
%TO.C,C11*%
X26000000Y12220000D03*
X26000000Y13180000D03*
%TD*%
D29*
%TO.C,C10*%
X28480000Y21400000D03*
X27520000Y21400000D03*
%TD*%
D35*
%TO.C,U2*%
X28650000Y13337500D03*
X30050000Y13337500D03*
X31450000Y13337500D03*
X32850000Y13337500D03*
X28650000Y14737500D03*
X30050000Y14737500D03*
X31450000Y14737500D03*
X32850000Y14737500D03*
X28650000Y16137500D03*
X30050000Y16137500D03*
X31450000Y16137500D03*
X32850000Y16137500D03*
X28650000Y17537500D03*
X30050000Y17537500D03*
X31450000Y17537500D03*
X32850000Y17537500D03*
D36*
X28000000Y12000000D03*
X28500000Y12000000D03*
X29000000Y12000000D03*
X29500000Y12000000D03*
X30000000Y12000000D03*
X30500000Y12000000D03*
X31000000Y12000000D03*
X31500000Y12000000D03*
X32000000Y12000000D03*
X32500000Y12000000D03*
X33000000Y12000000D03*
X33500000Y12000000D03*
D37*
X34187500Y12687500D03*
X34187500Y13187500D03*
X34187500Y13687500D03*
X34187500Y14187500D03*
X34187500Y14687500D03*
X34187500Y15187500D03*
X34187500Y15687500D03*
X34187500Y16187500D03*
X34187500Y16687500D03*
X34187500Y17187500D03*
X34187500Y17687500D03*
X34187500Y18187500D03*
D36*
X33500000Y18875000D03*
X33000000Y18875000D03*
X32500000Y18875000D03*
X32000000Y18875000D03*
X31500000Y18875000D03*
X31000000Y18875000D03*
X30500000Y18875000D03*
X30000000Y18875000D03*
X29500000Y18875000D03*
X29000000Y18875000D03*
X28500000Y18875000D03*
X28000000Y18875000D03*
D37*
X27312500Y18187500D03*
X27312500Y17687500D03*
X27312500Y17187500D03*
X27312500Y16687500D03*
X27312500Y16187500D03*
X27312500Y15687500D03*
X27312500Y15187500D03*
X27312500Y14687500D03*
X27312500Y14187500D03*
X27312500Y13687500D03*
X27312500Y13187500D03*
X27312500Y12687500D03*
%TD*%
D27*
%TO.C,R2*%
X34800000Y9580000D03*
X34800000Y10600000D03*
%TD*%
D31*
%TO.C,C1*%
X12875000Y12812500D03*
X11325000Y12812500D03*
%TD*%
D38*
%TO.C,SW1*%
X33450000Y3050000D03*
X25650000Y3050000D03*
%TD*%
D39*
%TO.C,C14*%
X30725000Y21230000D03*
X32275000Y21230000D03*
%TD*%
D32*
%TO.C,C17*%
X29120000Y10500000D03*
X30080000Y10500000D03*
%TD*%
D40*
%TO.C,R7*%
X36560000Y5200000D03*
X35540000Y5200000D03*
%TD*%
M02*
